<?xml version="1.0" encoding="UTF-8"?>
<svg id="Capa_2" data-name="Capa 2" xmlns="http://www.w3.org/2000/svg" xmlns:xlink="http://www.w3.org/1999/xlink" viewBox="0 0 5320.91 8542">
  <defs>
    <linearGradient id="Degradado_sin_nombre_1578" data-name="Degradado sin nombre 1578" x1="2660.45" y1="8542" x2="2660.45" y2="692" gradientUnits="userSpaceOnUse">
      <stop offset="0" stop-color="#8500ff"/>
      <stop offset=".39" stop-color="#ac44ff"/>
      <stop offset=".72" stop-color="#f558ff"/>
      <stop offset=".94" stop-color="#f49dff"/>
    </linearGradient>
    <linearGradient id="Degradado_sin_nombre_1131" data-name="Degradado sin nombre 1131" x1="1136.1" y1="21.8" x2="1136.1" y2="1308.97" gradientTransform="translate(116.44 -167.54) rotate(8.89)" gradientUnits="userSpaceOnUse">
      <stop offset="0" stop-color="#007e9f"/>
      <stop offset="0" stop-color="#007e9e"/>
      <stop offset=".32" stop-color="#00b599"/>
      <stop offset=".59" stop-color="#00dd96"/>
      <stop offset=".8" stop-color="#00f593"/>
      <stop offset=".94" stop-color="#00ff93"/>
    </linearGradient>
    <linearGradient id="Degradado_sin_nombre_1131-2" data-name="Degradado sin nombre 1131" x1="3170.22" y1="36.82" x2="3170.22" y2="1270.82" gradientTransform="translate(52.9 -218.03) rotate(3.97)" xlink:href="#Degradado_sin_nombre_1131"/>
    <linearGradient id="Degradado_sin_nombre_1131-3" data-name="Degradado sin nombre 1131" x1="2139.22" y1="0" x2="2139.22" y2="1273.95" gradientTransform="translate(-65.43 288.38) rotate(-7.6)" xlink:href="#Degradado_sin_nombre_1131"/>
    <linearGradient id="Degradado_sin_nombre_1131-4" data-name="Degradado sin nombre 1131" x1="4166.59" y1="56.19" x2="4166.59" y2="1368" gradientTransform="translate(-58.44 841.27) rotate(-11.45)" xlink:href="#Degradado_sin_nombre_1131"/>
    <linearGradient id="Degradado_sin_nombre_50" data-name="Degradado sin nombre 50" x1="1834.71" y1="4552.57" x2="2866.66" y2="4210.27" gradientTransform="translate(831.17 -1650.38) rotate(3.57)" gradientUnits="userSpaceOnUse">
      <stop offset="0" stop-color="#e4006c"/>
      <stop offset=".39" stop-color="#e84471"/>
      <stop offset=".72" stop-color="#f5a65b"/>
      <stop offset=".93" stop-color="#f49d00"/>
    </linearGradient>
    <linearGradient id="Degradado_sin_nombre_52" data-name="Degradado sin nombre 52" x1="2581.35" y1="3903.87" x2="2657.94" y2="3903.87" gradientTransform="translate(7106.21 -210.44) rotate(90)" gradientUnits="userSpaceOnUse">
      <stop offset="0" stop-color="#e62f75"/>
      <stop offset="1" stop-color="#672382"/>
    </linearGradient>
    <linearGradient id="Degradado_sin_nombre_89" data-name="Degradado sin nombre 89" x1="1996.06" y1="3951.08" x2="2033.94" y2="3951.08" gradientTransform="translate(6114.86 -281.06) rotate(79.53)" gradientUnits="userSpaceOnUse">
      <stop offset=".12" stop-color="#b85d9f"/>
      <stop offset=".88" stop-color="#0097c5"/>
    </linearGradient>
    <linearGradient id="Degradado_sin_nombre_53" data-name="Degradado sin nombre 53" x1="2844.5" y1="4409.25" x2="2937.91" y2="4409.25" gradientTransform="translate(7851.11 39.33) rotate(90)" gradientUnits="userSpaceOnUse">
      <stop offset="0" stop-color="#e4006c"/>
      <stop offset="1" stop-color="#f8af00"/>
    </linearGradient>
    <linearGradient id="Degradado_sin_nombre_88" data-name="Degradado sin nombre 88" x1="2504.82" y1="4955.17" x2="2696.55" y2="4893.42" gradientTransform="translate(8074.19 771.33) rotate(90)" gradientUnits="userSpaceOnUse">
      <stop offset=".61" stop-color="#b85d9f"/>
      <stop offset=".88" stop-color="#0097c5"/>
    </linearGradient>
    <linearGradient id="Degradado_sin_nombre_52-2" data-name="Degradado sin nombre 52" x1="1900.24" y1="4569.48" x2="1784.13" y2="4408.26" gradientTransform="translate(831.17 -1650.38) rotate(3.57)" xlink:href="#Degradado_sin_nombre_52"/>
    <linearGradient id="Degradado_sin_nombre_89-2" data-name="Degradado sin nombre 89" x1="2512.34" y1="4827.51" x2="2670.81" y2="4762.6" gradientTransform="translate(831.17 -1650.38) rotate(3.57)" xlink:href="#Degradado_sin_nombre_89"/>
    <linearGradient id="Degradado_sin_nombre_53-2" data-name="Degradado sin nombre 53" x1="2024.35" y1="4821.28" x2="2157.83" y2="4899.65" gradientTransform="translate(831.17 -1650.38) rotate(3.57)" xlink:href="#Degradado_sin_nombre_53"/>
    <linearGradient id="Degradado_sin_nombre_52-3" data-name="Degradado sin nombre 52" x1="2025.57" y1="4897.5" x2="2078.39" y2="4897.5" gradientTransform="translate(831.17 -1650.38) rotate(3.57)" xlink:href="#Degradado_sin_nombre_52"/>
    <linearGradient id="Degradado_sin_nombre_372" data-name="Degradado sin nombre 372" x1="11155.62" y1="11687.53" x2="12485.92" y2="11687.53" gradientTransform="translate(2069.59 -13283.62) rotate(45.92)" gradientUnits="userSpaceOnUse">
      <stop offset="0" stop-color="#f9e866"/>
      <stop offset=".06" stop-color="#f9df57"/>
      <stop offset=".23" stop-color="#fbcd37"/>
      <stop offset=".4" stop-color="#fdbf1f"/>
      <stop offset=".58" stop-color="#feb50d"/>
      <stop offset=".77" stop-color="#feaf03"/>
      <stop offset="1" stop-color="#ffae00"/>
    </linearGradient>
    <linearGradient id="Degradado_sin_nombre_691" data-name="Degradado sin nombre 691" x1="12264.44" y1="11155.9" x2="12360.99" y2="11155.9" gradientTransform="translate(2069.59 -13283.62) rotate(45.92)" gradientUnits="userSpaceOnUse">
      <stop offset="0" stop-color="#ffae00"/>
      <stop offset="1" stop-color="#f9e866"/>
    </linearGradient>
    <linearGradient id="Degradado_sin_nombre_691-2" data-name="Degradado sin nombre 691" x1="11190.68" y1="11358.43" x2="11287.23" y2="11358.43" xlink:href="#Degradado_sin_nombre_691"/>
    <linearGradient id="Degradado_sin_nombre_691-3" data-name="Degradado sin nombre 691" x1="11337.79" y1="10991.13" x2="11391.63" y2="10991.13" xlink:href="#Degradado_sin_nombre_691"/>
    <linearGradient id="Degradado_sin_nombre_691-4" data-name="Degradado sin nombre 691" x1="11914.01" y1="11000.55" x2="11967.85" y2="11000.55" xlink:href="#Degradado_sin_nombre_691"/>
    <linearGradient id="Degradado_sin_nombre_691-5" data-name="Degradado sin nombre 691" x1="11712.54" y1="12473.06" x2="11766.38" y2="12473.06" xlink:href="#Degradado_sin_nombre_691"/>
    <linearGradient id="Degradado_sin_nombre_691-6" data-name="Degradado sin nombre 691" x1="12114.32" y1="11100.45" x2="12210.87" y2="11100.45" xlink:href="#Degradado_sin_nombre_691"/>
    <linearGradient id="Degradado_sin_nombre_691-7" data-name="Degradado sin nombre 691" x1="7777.22" y1="9879.49" x2="7925.48" y2="9879.49" gradientTransform="translate(-346.31 -8331.67) rotate(29.2)" xlink:href="#Degradado_sin_nombre_691"/>
    <linearGradient id="Degradado_sin_nombre_691-8" data-name="Degradado sin nombre 691" x1="2575.3" y1="4719.15" x2="2723.55" y2="4719.15" gradientTransform="translate(-843.7 -481.82) rotate(-3.71)" xlink:href="#Degradado_sin_nombre_691"/>
    <linearGradient id="Degradado_sin_nombre_691-9" data-name="Degradado sin nombre 691" x1="2530.38" y1="4643.79" x2="2678.64" y2="4643.79" gradientTransform="translate(-843.7 -481.82) rotate(-3.71)" xlink:href="#Degradado_sin_nombre_691"/>
    <linearGradient id="Degradado_sin_nombre_691-10" data-name="Degradado sin nombre 691" x1="1996.33" y1="-7022.34" x2="2144.59" y2="-7022.34" gradientTransform="translate(7261.96 9228.71) rotate(-57.01)" xlink:href="#Degradado_sin_nombre_691"/>
    <linearGradient id="Degradado_sin_nombre_691-11" data-name="Degradado sin nombre 691" x1="14193.69" y1="9437.12" x2="14341.95" y2="9437.12" gradientTransform="translate(3825 -13978.25) rotate(65.33)" xlink:href="#Degradado_sin_nombre_691"/>
    <linearGradient id="Degradado_sin_nombre_691-12" data-name="Degradado sin nombre 691" x1="14238.88" y1="9496.05" x2="14324.58" y2="9496.05" gradientTransform="translate(3825 -13978.25) rotate(65.33)" xlink:href="#Degradado_sin_nombre_691"/>
    <linearGradient id="Degradado_sin_nombre_370" data-name="Degradado sin nombre 370" x1="7840.79" y1="9928.98" x2="7894" y2="9928.98" gradientTransform="translate(-346.31 -8331.67) rotate(29.2)" gradientUnits="userSpaceOnUse">
      <stop offset="0" stop-color="#f9e866"/>
      <stop offset="1" stop-color="#ffae00"/>
    </linearGradient>
    <linearGradient id="Degradado_sin_nombre_50-2" data-name="Degradado sin nombre 50" x1="3013.95" y1="5511.7" x2="4045.9" y2="5169.4" gradientTransform="translate(2173.93 -2186.13) rotate(23.35)" xlink:href="#Degradado_sin_nombre_50"/>
    <linearGradient id="Degradado_sin_nombre_52-4" data-name="Degradado sin nombre 52" x1="3760.59" y1="4863" x2="3837.18" y2="4863" gradientTransform="translate(8597.76 -14.75) rotate(90)" xlink:href="#Degradado_sin_nombre_52"/>
    <linearGradient id="Degradado_sin_nombre_89-3" data-name="Degradado sin nombre 89" x1="3175.29" y1="4910.21" x2="3213.17" y2="4910.21" gradientTransform="translate(7408.61 -445.76) rotate(79.53)" xlink:href="#Degradado_sin_nombre_89"/>
    <linearGradient id="Degradado_sin_nombre_53-3" data-name="Degradado sin nombre 53" x1="4023.73" y1="5368.38" x2="4117.15" y2="5368.38" gradientTransform="translate(9152.2 285.31) rotate(90)" xlink:href="#Degradado_sin_nombre_53"/>
    <linearGradient id="Degradado_sin_nombre_88-2" data-name="Degradado sin nombre 88" x1="3684.06" y1="5914.3" x2="3875.78" y2="5852.55" gradientTransform="translate(9227.7 894.69) rotate(90)" xlink:href="#Degradado_sin_nombre_88"/>
    <linearGradient id="Degradado_sin_nombre_52-5" data-name="Degradado sin nombre 52" x1="3079.47" y1="5528.61" x2="2963.36" y2="5367.4" gradientTransform="translate(2173.93 -2186.13) rotate(23.35)" xlink:href="#Degradado_sin_nombre_52"/>
    <linearGradient id="Degradado_sin_nombre_89-4" data-name="Degradado sin nombre 89" x1="3691.58" y1="5786.65" x2="3850.04" y2="5721.73" gradientTransform="translate(2173.93 -2186.13) rotate(23.35)" xlink:href="#Degradado_sin_nombre_89"/>
    <linearGradient id="Degradado_sin_nombre_53-4" data-name="Degradado sin nombre 53" x1="3203.59" y1="5780.41" x2="3337.06" y2="5858.78" gradientTransform="translate(2173.93 -2186.13) rotate(23.35)" xlink:href="#Degradado_sin_nombre_53"/>
    <linearGradient id="Degradado_sin_nombre_52-6" data-name="Degradado sin nombre 52" x1="3204.8" y1="5856.63" x2="3257.63" y2="5856.63" gradientTransform="translate(2173.93 -2186.13) rotate(23.35)" xlink:href="#Degradado_sin_nombre_52"/>
    <linearGradient id="Degradado_sin_nombre_1131-5" data-name="Degradado sin nombre 1131" x1="2660.45" y1="6478.75" x2="2660.45" y2="5733" gradientTransform="matrix(1,0,0,1,0,0)" xlink:href="#Degradado_sin_nombre_1131"/>
    <linearGradient id="Degradado_sin_nombre_1131-6" data-name="Degradado sin nombre 1131" x1="2660.45" y1="7442.5" x2="2660.45" y2="6696.75" gradientTransform="matrix(1,0,0,1,0,0)" xlink:href="#Degradado_sin_nombre_1131"/>
  </defs>
  <g id="bg_inicio">
    <rect y="692" width="5320.91" height="7850" rx="698.29" ry="698.29" style="fill: url(#Degradado_sin_nombre_1578);"/>
    <g>
      <g>
        <rect id="CARTA_1" data-name="CARTA 1" x="657.07" y="72.57" width="958.05" height="1185.62" rx="113.19" ry="113.19" transform="translate(-89.16 183.51) rotate(-8.89)" style="fill: url(#Degradado_sin_nombre_1131);"/>
        <path d="m1011.53,642.48l38.12,243.78-104.21,16.3-63.31-404.82,119.99-18.76,135.13,148.38,83.38-182.55,106.1-16.59,63.31,404.82-104.21,16.3-38.22-244.41-91.34,189.62-144.77-152.05Z" style="fill: #fff;"/>
      </g>
      <g>
        <rect id="CARTA_1-2" data-name="CARTA 1" x="2691.2" y="61.01" width="958.05" height="1185.62" rx="113.19" ry="113.19" transform="translate(-37.67 221.17) rotate(-3.97)" style="fill: url(#Degradado_sin_nombre_1131-2);"/>
        <path d="m3048.07,620.33l17.09,246.15-105.22,7.31-28.38-408.76,121.16-8.41,121.92,159.41,98.72-174.74,107.13-7.44,28.38,408.76-105.22,7.31-17.14-246.79-107.25,181.09-131.2-163.9Z" style="fill: #fff;"/>
      </g>
      <g>
        <rect id="CARTA_1-3" data-name="CARTA 1" x="1660.2" y="44.16" width="958.05" height="1185.62" rx="113.19" ry="113.19" transform="translate(102.98 -277.2) rotate(7.6)" style="fill: url(#Degradado_sin_nombre_1131-3);"/>
        <path d="m2018.98,414.45l269.92,36-13.1,98.21-165.37-22.05-7.1,53.22,140.03,18.67-13.1,98.21-140.03-18.67-7.77,58.29,165.37,22.05-13.1,98.21-269.92-36,54.16-406.15Z" style="fill: #fff;"/>
      </g>
      <g>
        <rect id="CARTA_1-4" data-name="CARTA 1" x="3687.56" y="119.29" width="958.05" height="1185.62" rx="113.19" ry="113.19" transform="translate(224.27 -812.93) rotate(11.45)" style="fill: url(#Degradado_sin_nombre_1131-4);"/>
        <path d="m4375.08,766.06c-23.47,115.9-137.11,190.72-253.01,167.24-115.9-23.47-191.35-137.24-167.87-253.14,23.47-115.9,137.11-190.72,253.01-167.24,115.9,23.47,191.35,137.24,167.87,253.14Zm-110.89-22.46c11.93-58.89-22.78-116.14-77.92-127.31-55.13-11.17-109.26,27.44-121.19,86.33-11.93,58.89,22.78,116.14,77.92,127.31,55.13,11.17,109.26-27.44,121.19-86.33Z" style="fill: #fff;"/>
      </g>
    </g>
    <g>
      <g>
        <rect id="CARTA_1-5" data-name="CARTA 1" x="2072.17" y="1829.33" width="1657.39" height="2051.07" rx="195.82" ry="195.82" transform="translate(183.62 -175.3) rotate(3.57)" style="fill: #fff;"/>
        <g>
          <g>
            <path d="m2566.21,2966.24c4.11-28.9-8.33-57.72-32.03-74.64-57.37-40.96-186.5-147.23-187.04-274.19-.39-92.74,61.41-129.88,185.12-99.23,123.71,30.65,143.52-42.61,253.03-150.39,109.52-107.77,238.05-109.8,279.91-1.62,41.98,108.49,110.89,133.91,171.45,150.16,82.15,22.04,204.88,41.45,197.76,125.06-7.13,83.61-91.75,127.99-104.67,182.58-12.93,54.59,6.85,134.15,23.18,238.32,16.33,104.17-20.53,176.37-96.73,146.78-76.19-29.59-82.7-108.32-149.06-81.9-66.37,26.42-109.89,174.61-116.52,189.48-6.64,14.87-72.44,184.59-190.81,129.44-118.37-55.15-66.81-158.15-130.08-202.97-49.73-35.23-144.21,12.76-154.16-91.77-8.93-93.92,43.2-132.75,50.65-185.1Z" style="fill: url(#Degradado_sin_nombre_50);"/>
            <ellipse cx="3202.34" cy="2409.21" rx="38.42" ry="38.29" transform="translate(598.18 5455.12) rotate(-86.43)" style="fill: url(#Degradado_sin_nombre_52);"/>
            <ellipse cx="2595.93" cy="2418.63" rx="19.7" ry="18.91" transform="translate(-380.51 4349.81) rotate(-75.95)" style="fill: url(#Degradado_sin_nombre_89);"/>
            <ellipse cx="3441.86" cy="2930.53" rx="46.87" ry="46.7" transform="translate(302.46 6183) rotate(-86.43)" style="fill: url(#Degradado_sin_nombre_53);"/>
            <ellipse cx="3163.83" cy="3415.26" rx="38.6" ry="38.46" transform="translate(-442.03 6360.01) rotate(-86.43)" style="fill: url(#Degradado_sin_nombre_88);"/>
            <path d="m2417.32,2898.86c5.82,17.66,19.25,28.49,32.18,39.41,5.2,4.39,9.04,6.8,9.04,6.8,4.5,3.17,6.7,4.4,10.96,7.64,0,0,3.61,2.74,6.44,5.25,5.92,5.24,18.62,23.58,12.87,41.54-4.9,15.3-20.97,21.78-27.91,24.59-16.31,6.58-30.87,3.9-45.54,1.68-7.5-1.14-26.09-4.64-46.46-16.69-27.19-16.07-41.13-37.58-48.23-48.82-8.79-13.91-20.23-32.03-21.99-57.99-.99-14.66-2.49-40.04,16.2-58.16,14.43-13.99,36.07-18.92,55-14.02,3.16.82,23.01,6.25,33.33,23.42,3.54,5.9,5.4,12.24,9.08,24.82,3.76,12.86,2.94,14.17,5.03,20.53Z" style="fill: url(#Degradado_sin_nombre_52-2);"/>
            <path d="m3051.62,3382.93c-19.48-10.64-26.33-46.13-22-69.25,3.8-20.31,9.45-37.71,21.26-52.76,11.49-14.64,23.25-25.12,45.2-33.24,5.69-2.11,29.29-6.82,49.82-2.74,8,1.59,27.51,6.83,42.49,24.75,2.63,3.15,20.61,29.44,10.81,52.95-4.45,10.67-12.66,17.69-12.66,17.69-6.06,5.02-12.07,7.06-14.82,7.98-7.4,2.45-13.15,2.39-16.14,2.56-23.62,1.3-44.48,25.97-47.1,29.13-9.55,11.55-9.27,17.93-19.25,23.33-9.19,4.97-18.71,4.58-20.66,4.47,0,0-8.97-.5-16.94-4.86Z" style="fill: url(#Degradado_sin_nombre_89-2);"/>
            <path d="m2581.44,3331.46c-10.64-3.25-37.23-7.77-38.9-8.87-.26-.17-.65-.43-1.16-.78-2.53-1.76-14.6-10.28-15.63-24.2-1.03-13.92,9.71-23.49,10.86-24.49,4.34-3.74,11.75-7.96,28.77-7.72,37.12.52,65.02,21.43,67.36,23.24,7.39,5.69,33.92,27.6,41,63.33,2.15,10.87,4.92,25.97-4.18,37.49-5.92,7.5-17.22,13.34-28.22,11.13-10-2.01-16.5-10.06-17.55-11.35-2.66-3.29-4.84-7.51-5.1-8.02-1.67-3.26-2.58-5.94-3.35-8.27-2.64-8.03-2.85-10.24-4.22-14.17,0,0-2.77-7.93-8.53-14.58-7.2-8.33-16.51-11.3-21.16-12.72Z" style="fill: url(#Degradado_sin_nombre_53-2);"/>
            <path d="m2567.23,3365.03c-3.63-1.11-12.72-2.66-13.29-3.03-.09-.06-.22-.15-.4-.27-.86-.6-4.99-3.51-5.34-8.27-.35-4.76,3.32-8.03,3.71-8.37,1.48-1.28,4.01-2.72,9.83-2.64,12.68.18,22.21,7.32,23.01,7.94,2.52,1.94,11.59,9.43,14.01,21.64.74,3.71,1.68,8.87-1.43,12.81-2.02,2.56-5.88,4.56-9.64,3.8-3.42-.69-5.64-3.44-6-3.88-.91-1.12-1.65-2.57-1.74-2.74-.57-1.12-.88-2.03-1.14-2.83-.9-2.74-.97-3.5-1.44-4.84,0,0-.95-2.71-2.91-4.98-2.46-2.84-5.64-3.86-7.23-4.35Z" style="fill: url(#Degradado_sin_nombre_52-3);"/>
          </g>
          <g>
            <path d="m3123.92,2769.56c1.47-23.59-11.71-39.75-30.47-46.66-.13-.05-.14-.22,0-.27,13.69-5.16,30.04-16.05,31.47-38.98,2.15-34.38-26.31-59.37-66.79-61.9l-123.06-7.69-12.51,200.34,127.1,7.94c48.27,3.02,72.37-22.46,74.27-52.78Z" style="fill: #fff;"/>
            <path d="m2763.16,2870.03c-44.22-2.76-77.92,21.18-80.17,57.12-2.09,33.4,18.78,49.49,41.19,60.06,0,0,0,0,0,0l-56.18,49.75c11.23,20.47,33.47,39.74,78.63,42.57,47.02,2.94,81.46-22.84,83.79-60.03,2.2-35.24-21.59-51.27-45.56-61.81h0s52.31-46.33,52.31-46.33c-13.61-22.5-39.45-39.18-74.02-41.33Z" style="fill: #fff;"/>
            <polygon points="2826.1 2607.26 2756.08 2602.88 2737.25 2601.71 2704.7 2599.67 2692.18 2800.01 2732.51 2802.53 2834.19 2808.88 2834.19 2808.88 2844.66 2809.53 2851.02 2707.82 2819.94 2705.88 2826.1 2607.26" style="fill: #fff;"/>
            <polygon points="3051.3 2901.31 2955.11 2895.31 2952.17 2942.41 2905.23 2939.48 2899.2 3036.02 2946.14 3038.95 2943.2 3086.06 3039.39 3092.07 3042.33 3044.96 3089.27 3047.89 3095.3 2951.36 3048.36 2948.42 3051.3 2901.31" style="fill: #fff;"/>
          </g>
        </g>
      </g>
      <g>
        <rect id="CARTA_6" data-name="CARTA 6" x="1077.57" y="2327.71" width="1657.39" height="2043.74" rx="195.47" ry="195.47" transform="translate(-674.62 487.31) rotate(-12.4)" style="fill: #fff;"/>
        <g>
          <g>
            <path d="m1416.34,2883.45c2.84-4.09,65.75-93.05,163.78-101.02,63.39-5.16,78.31,26.95,141.69,22.1,63.72-4.88,88.92-40.42,143.44-70.52,117.26-64.74,307.82-74.4,403.1,25.43,50.81,53.23,78.94,121.68,88.7,150.69,8.84,26.28,23.78,70.67,23.31,129.6-.59,73.38-24.53,101.63-5.64,145.26,12.41,28.67,28.53,29.83,65.04,63.81,18.74,17.44,121.54,113.11,107.24,213.14-6.13,42.88-32.41,75.11-50.18,97.34-38.58,48.26-64.68,46.94-87.09,87.39-25.2,45.5-4.02,68.53-19.65,116.13-27,82.2-124.87,119.74-147.16,128.31-108.59,41.73-198.56,1.43-247.26,48.57-4.95,4.79-24.97,25.49-56.51,51.18-5.9,4.81-21.02,17.15-34.55,26.39-10.13,6.92-54.18,35.89-105.69,43.69-92.35,13.99-168.54-46.39-193.68-65.76-144.84-111.58-68.95-222.11-212.51-393.12-81.8-97.44-168.25-135.1-196.13-256.55-4.02-17.52-11.42-51.13-5.88-93.33,1.54-11.73,8.72-56.99,42.27-106.48,46.28-68.28,82.31-55.22,125.5-113.32,45.02-60.56,14.47-86.32,57.85-148.91Z" style="fill: url(#Degradado_sin_nombre_372);"/>
            <circle cx="2621.05" cy="3322.2" r="48.27" style="fill: url(#Degradado_sin_nombre_691);"/>
            <circle cx="1728.59" cy="2691.73" r="48.27" style="fill: url(#Degradado_sin_nombre_691-2);"/>
            <circle cx="2079.93" cy="2526.55" r="26.91" style="fill: url(#Degradado_sin_nombre_691-3);"/>
            <circle cx="2474.01" cy="2947.05" r="26.91" style="fill: url(#Degradado_sin_nombre_691-4);"/>
            <circle cx="1276.05" cy="3826.69" r="26.91" style="fill: url(#Degradado_sin_nombre_691-5);"/>
            <circle cx="2556.45" cy="3175.78" r="48.27" style="fill: url(#Degradado_sin_nombre_691-6);"/>
            <path d="m1650.14,4131.86c-10.17-.95-30.85-2-37.05-14.27-1.33-2.64-1.57-5.39-1.55-8.06.08-8.84,16.63-27.98,50.91-22.88,39.7,5.91,67.86,18.09,80.69,27.88,12.93,9.87,17.16,17.12,17.24,24.19.07,6.2-3.04,13.09-8.03,17.22-17.86,14.78-44.2-18.66-102.22-24.08Z" style="fill: url(#Degradado_sin_nombre_691-7);"/>
            <path d="m2078.92,4084.14c-9.05,4.73-26.99,15.08-38.86,8.15-2.55-1.49-4.24-3.67-5.67-5.92-4.73-7.46-1.24-32.53,30.31-46.87,36.54-16.61,66.8-21.68,82.89-20.43,16.22,1.26,23.71,5.05,27.62,10.94,3.43,5.17,4.56,12.64,2.62,18.82-6.96,22.11-47.24,8.35-98.9,35.32Z" style="fill: url(#Degradado_sin_nombre_691-8);"/>
            <path d="m2029.22,4011.85c-9.05,4.73-26.99,15.08-38.86,8.15-2.55-1.49-4.24-3.67-5.67-5.92-4.73-7.46-1.24-32.53,30.31-46.87,36.54-16.61,66.8-21.68,82.89-20.43,16.22,1.26,23.71,5.05,27.62,10.94,3.43,5.17,4.56,12.64,2.62,18.82-6.96,22.11-47.24,8.35-98.9,35.32Z" style="fill: url(#Degradado_sin_nombre_691-9);"/>
            <path d="m2505.47,3706.85c-1.62,10.08-4.04,30.65-16.69,36.03-2.72,1.16-5.48,1.21-8.14,1.01-8.81-.66-26.82-18.44-19.47-52.31,8.52-39.22,22.53-66.51,33.15-78.67,10.7-12.25,18.21-15.99,25.27-15.61,6.19.34,12.86,3.9,16.66,9.15,13.57,18.79-21.54,42.87-30.78,100.4Z" style="fill: url(#Degradado_sin_nombre_691-10);"/>
            <path d="m1169.39,2911.66c-7.65-6.76-23.74-19.81-21.51-33.38.48-2.92,1.91-5.28,3.5-7.42,5.27-7.09,29.93-12.79,54.61,11.54,28.58,28.18,44.14,54.62,48.73,70.09,4.63,15.59,3.77,23.94-.33,29.7-3.6,5.05-10.17,8.78-16.64,9.18-23.14,1.41-24.7-41.13-68.36-79.72Z" style="fill: url(#Degradado_sin_nombre_691-11);"/>
            <path d="m1136.7,2955.11c-4.42-3.91-13.72-11.45-12.43-19.29.28-1.69,1.1-3.05,2.02-4.29,3.05-4.1,17.3-7.39,31.57,6.67,16.52,16.29,25.51,31.57,28.17,40.51,2.67,9.01,2.18,13.84-.19,17.17-2.08,2.92-5.88,5.08-9.62,5.3-13.37.81-14.27-23.77-39.51-46.08Z" style="fill: url(#Degradado_sin_nombre_691-12);"/>
            <path d="m1664.04,4177.02c-3.65-.34-11.07-.72-13.3-5.12-.48-.95-.56-1.93-.55-2.89.03-3.17,5.97-10.04,18.27-8.21,14.25,2.12,24.35,6.49,28.96,10.01,4.64,3.54,6.16,6.14,6.19,8.68.03,2.23-1.09,4.7-2.88,6.18-6.41,5.3-15.86-6.7-36.68-8.64Z" style="fill: url(#Degradado_sin_nombre_370);"/>
          </g>
          <g>
            <polygon points="1780.45 3140.05 1746.31 2934.32 1867.22 2889.03 1852.81 2737.02 2002.85 2727.23 2011.2 2637.62 2193.53 2654.39 2180.3 2777.94 2280.64 2801.82 2318.39 2721.68 2461.73 2786.07 2368.75 3028.16 2441.24 3053.4 2384.46 3215.35 1780.45 3140.05" style="fill: #ffdb01;"/>
            <path d="m1744.09,3255.14l.62-89.05s6.37-26.24,59-35.15c52.63-8.91,348.07-28.07,566.89,76.81,0,0,50.96,9.41,38.19,66.53-12.76,57.12-131.54,464.09-131.54,464.09,0,0-23.49,43.51-90,47.69-66.51,4.18-322.85-41.71-322.85-41.71l-120.31-489.19Z" style="fill: #be1c2f;"/>
            <g>
              <path d="m2069.15,3638.24l-152.04-48.31,27.28-102.22,189.9,30.29c8.84,1.41,17.89.08,25.96-3.79,31.43-15.08,115.65-50.29,140.01-7.8,30.14,52.57,4.36,102.31-46.09,117.78,0,0,48.12,92.51-45,115.47-68.52,16.89-100.14-42.22-112.06-74.63-4.7-12.77-14.98-22.67-27.95-26.79Z" style="fill: #fffbdc;"/>
              <path d="m1272.68,3379.17s-14.6,148.52,108.72,240.85c123.32,92.33,438.73,90.1,563.68,19.28,124.95-70.82,44.65-91.68,44.65-91.68,0,0,37.61-8,24.59-40-13.02-32.01-43.06-20.88-43.06-20.88,0,0-83.27-254.17-343.46-281.05-260.19-26.89-347.13,106.98-355.12,173.48Z" style="fill: #ef9900;"/>
            </g>
            <ellipse cx="1822.69" cy="2955.87" rx="11.31" ry="5.41" transform="translate(-1145.71 4758.08) rotate(-89.6)" style="fill: #fff;"/>
            <ellipse cx="2086.3" cy="2708.4" rx="11.31" ry="5.41" transform="translate(-636.47 4775.92) rotate(-89.6)" style="fill: #fff;"/>
            <ellipse cx="1964.18" cy="2955.82" rx="11.31" ry="5.41" transform="translate(-1005.15 4899.51) rotate(-89.6)" style="fill: #fff;"/>
            <ellipse cx="2208.7" cy="2855.75" rx="11.31" ry="5.41" transform="translate(-662.25 5044.65) rotate(-89.6)" style="fill: #fff;"/>
            <ellipse cx="2255.32" cy="3118.13" rx="11.31" ry="5.41" transform="translate(-878.32 5351.83) rotate(-89.6)" style="fill: #fff;"/>
            <ellipse cx="2423.34" cy="3066.6" rx="11.31" ry="5.41" transform="translate(-659.94 5468.68) rotate(-89.6)" style="fill: #fff;"/>
            <ellipse cx="2370.14" cy="2826.12" rx="11.31" ry="5.41" transform="translate(-472.3 5176.66) rotate(-89.6)" style="fill: #fff;"/>
            <ellipse cx="2390.85" cy="2902.44" rx="11.31" ry="5.41" transform="translate(-528.06 5273.17) rotate(-89.6)" style="fill: #fff;"/>
            <ellipse cx="2141.59" cy="2708.78" rx="11.31" ry="5.41" transform="translate(-581.94 4831.59) rotate(-89.6)" style="fill: #fff;"/>
            <ellipse cx="1761.91" cy="2946.99" rx="11.31" ry="5.41" transform="translate(-1197.19 4688.48) rotate(-89.6)" style="fill: #fff;"/>
            <ellipse cx="1789.82" cy="2989.89" rx="11.31" ry="5.41" transform="translate(-1212.38 4759) rotate(-89.6)" style="fill: #fff;"/>
            <ellipse cx="1796.51" cy="3036.64" rx="5.41" ry="11.31" transform="translate(-1468.44 1699.2) rotate(-37.12)" style="fill: #fff;"/>
            <ellipse cx="2045.3" cy="2793.19" rx="5.41" ry="11.31" transform="translate(-1271.13 1800.01) rotate(-37.12)" style="fill: #fff;"/>
            <ellipse cx="2053.74" cy="2675.21" rx="11.31" ry="5.41" transform="translate(-1318.81 2652) rotate(-52.09)" style="fill: #fff;"/>
            <ellipse cx="2124.75" cy="2866.48" rx="11.31" ry="5.41" transform="translate(-1442.34 2781.78) rotate(-52.09)" style="fill: #fff;"/>
            <ellipse cx="2425.16" cy="2802.82" rx="11.31" ry="5.41" transform="translate(-1276.26 2994.26) rotate(-52.09)" style="fill: #fff;"/>
            <ellipse cx="2338.59" cy="2808.44" rx="11.31" ry="5.41" transform="translate(-1314.09 2928.12) rotate(-52.09)" style="fill: #fff;"/>
            <ellipse cx="2195.54" cy="3000.96" rx="11.31" ry="5.41" transform="translate(-1521.14 2889.49) rotate(-52.09)" style="fill: #fff;"/>
            <ellipse cx="2389.77" cy="3058.51" rx="11.31" ry="5.41" transform="translate(-1491.66 3064.93) rotate(-52.09)" style="fill: #fff;"/>
            <ellipse cx="1852.09" cy="2922.99" rx="5.41" ry="11.31" transform="translate(-1388.6 1709.72) rotate(-37.12)" style="fill: #fff;"/>
            <ellipse cx="1879.6" cy="2766.52" rx="5.41" ry="11.31" transform="translate(-1288.61 1694.62) rotate(-37.12)" style="fill: #fff;"/>
            <ellipse cx="1970.63" cy="2805.9" rx="5.41" ry="11.31" transform="translate(-1293.93 1757.52) rotate(-37.12)" style="fill: #fff;"/>
            <ellipse cx="2251.94" cy="2825.3" rx="5.41" ry="11.31" transform="translate(-1248.65 1931.2) rotate(-37.12)" style="fill: #fff;"/>
            <ellipse cx="2344.54" cy="2769.74" rx="5.41" ry="11.31" transform="translate(-1196.37 1975.82) rotate(-37.12)" style="fill: #fff;"/>
            <ellipse cx="2331.79" cy="2996.22" rx="5.41" ry="11.31" transform="translate(-1335.61 2014.01) rotate(-37.12)" style="fill: #fff;"/>
            <ellipse cx="2394.89" cy="3101.32" rx="5.41" ry="11.31" transform="translate(-1386.25 2073.37) rotate(-37.12)" style="fill: #fff;"/>
            <path d="m1877.69,3788.12l-134.63-77.8,48.58-93.98,176.56,69.41c9.81,3.86,20.55,4.65,30.83,2.29,35.49-8.13,121.81-22.77,136.17,22.96,18.15,57.82-17.7,100.86-70.3,105.14,0,0,27.13,100.69-68.74,103.11-68.35,1.73-87.55-58.77-92.94-93.65-2.43-15.72-11.75-29.52-25.52-37.47Z" style="fill: #fffbdc;"/>
            <path d="m1158.89,3366.13s-46.14,141.92,54.48,258.58c100.62,116.65,409.16,182.18,546.4,139.84,137.24-42.34,63.29-79.96,63.29-79.96,0,0,38.45.27,32.6-33.79s-37.58-29.64-37.58-29.64c0,0-26.76-266.12-275.12-348.23-248.36-82.12-362,29.97-384.08,93.2Z" style="fill: #ffad0d;"/>
            <path d="m2249.62,3623.1s-68.93,6.42-63.04-13.98c5.89-20.4,63.04,13.98,63.04,13.98Z" style="fill: none; stroke: #fee420; stroke-miterlimit: 10; stroke-width: 2.91px;"/>
            <path d="m2061.67,3814.71s-61.78,4.06-53.11-19.27c8.67-23.33,53.11,19.27,53.11,19.27Z" style="fill: none; stroke: #fee420; stroke-miterlimit: 10; stroke-width: 2.91px;"/>
            <path d="m1819.41,3684.42s-65.42,24.08-58.95-.41c6.47-24.49,58.95.41,58.95.41Z" style="fill: none; stroke: #fee420; stroke-miterlimit: 10; stroke-width: 2.91px;"/>
            <path d="m1986.29,3547.56s-57.85,22.75-52.02-.36c5.83-23.11,52.02.36,52.02.36Z" style="fill: none; stroke: #fee420; stroke-miterlimit: 10; stroke-width: 2.91px;"/>
            <path d="m1867.22,2889.03c7.43,32.25,13.22,66.25,18.52,98.98,5.02,32.79,9.95,66.89,12.77,99.89-7.45-32.25-13.23-66.25-18.52-98.98-5.01-32.8-9.94-66.89-12.77-99.89h0Z" style="fill: #ffb00a;"/>
            <path d="m2368.75,3028.16c-6.5,24.66-15.17,49.75-23.77,73.79-8.87,23.96-18.34,48.72-29.24,71.8,6.48-24.66,15.16-49.75,23.77-73.79,8.88-23.96,18.35-48.72,29.24-71.8h0Z" style="fill: #ffb00a;"/>
            <path d="m2002.85,2727.23c9.81,101.61,15.75,204.84,17.57,306.91-9.84-101.6-15.72-204.84-17.57-306.91h0Z" style="fill: #ffb00a;"/>
            <path d="m2280.64,2801.82c-7.35,33.34-16.95,67.61-26.44,100.48-9.76,32.81-20.18,66.79-32.02,98.84,7.34-33.34,16.94-67.61,26.44-100.48,9.77-32.8,20.19-66.79,32.02-98.84h0Z" style="fill: #ffb00a;"/>
            <path d="m2180.3,2777.94c-16.71,119.59-37.59,240.1-62.18,358.33,16.68-119.6,37.62-240.1,62.18-358.33h0Z" style="fill: #ffb00a;"/>
          </g>
        </g>
      </g>
      <g>
        <rect id="CARTA_1-6" data-name="CARTA 1" x="2471.61" y="3076.01" width="1657.39" height="2051.07" rx="195.82" ry="195.82" transform="translate(1895.5 -972.03) rotate(23.35)" style="fill: #fff;"/>
        <g>
          <g>
            <path d="m2947.71,4093.16c13.65-25.8,11.69-57.14-4.89-81.07-40.13-57.95-125.7-201.64-83.27-321.29,31-87.41,101.72-101.45,207.77-30.76,106.05,70.69,149.47,8.45,288.99-55.93,139.52-64.38,261.16-22.8,263.95,93.16,2.8,116.29,59.05,163.53,110.55,199.3,69.85,48.52,178.79,108.31,143.8,184.58-34.99,76.27-129.63,89.41-160.26,136.41-30.63,47-38.93,128.55-58.8,232.11-19.87,103.56-78.98,159.03-140.67,105.41-61.69-53.62-41.18-129.91-112.57-127.49-71.39,2.41-162.47,127.15-173.75,138.89-11.28,11.75-130.61,149.21-223.35,57.26-92.74-91.94-9.38-171.43-53.75-235.01-34.88-49.98-140.03-36.77-114.03-138.51,23.36-91.41,85.56-110.31,110.28-157.06Z" style="fill: url(#Degradado_sin_nombre_50-2);"/>
            <ellipse cx="3734.76" cy="3784.14" rx="38.42" ry="38.29" transform="translate(-1219.56 5713.61) rotate(-66.65)" style="fill: url(#Degradado_sin_nombre_52-4);"/>
            <ellipse cx="3160.9" cy="3587.88" rx="19.7" ry="18.91" transform="translate(-1579.18 4217.03) rotate(-56.18)" style="fill: url(#Degradado_sin_nombre_89-3);"/>
            <ellipse cx="3783.82" cy="4355.75" rx="46.87" ry="46.7" transform="translate(-1714.76 6103.76) rotate(-66.65)" style="fill: url(#Degradado_sin_nombre_53-3);"/>
            <ellipse cx="3358.21" cy="4717.86" rx="38.6" ry="38.46" transform="translate(-2304.17 5931.6) rotate(-66.65)" style="fill: url(#Degradado_sin_nombre_88-2);"/>
            <path d="m2830.38,3979.38c-.5,18.58,8.48,33.32,16.95,47.98,3.41,5.89,6.2,9.46,6.2,9.46,3.16,4.5,4.82,6.4,7.73,10.9,0,0,2.46,3.8,4.28,7.12,3.8,6.94,9.54,28.49-1.94,43.45-9.78,12.74-27.1,13.41-34.58,13.7-17.57.68-30.37-6.77-43.43-13.83-6.67-3.61-22.98-13.2-38.08-31.42-20.15-24.32-25.99-49.27-28.87-62.26-3.56-16.06-8.21-36.98-1.08-62.01,4.03-14.13,11.2-38.52,34.92-49.25,18.31-8.29,40.34-5.61,56.5,5.41,2.7,1.84,19.54,13.66,23.44,33.32,1.34,6.75.94,13.34.15,26.43-.81,13.38-2.03,14.32-2.21,21.02Z" style="fill: url(#Degradado_sin_nombre_52-5);"/>
            <path d="m3263.56,4649.48c-14.73-16.6-9.17-52.31,2.72-72.62,10.45-17.83,21.65-32.29,37.86-42.46,15.77-9.89,30.38-15.77,53.78-15.99,6.07-.06,29.87,3.49,47.81,14.27,6.99,4.2,23.58,15.73,31.61,37.67,1.41,3.85,9.44,34.68-7.74,53.49-7.8,8.54-17.9,12.36-17.9,12.36-7.4,2.67-13.74,2.57-16.64,2.49-7.8-.2-13.19-2.2-16.05-3.05-22.66-6.76-50.64,9.39-54.18,11.49-12.89,7.63-14.79,13.74-26.01,15.44-10.33,1.57-19.16-2.02-20.96-2.78,0,0-8.27-3.51-14.3-10.3Z" style="fill: url(#Degradado_sin_nombre_89-4);"/>
            <path d="m2838.49,4442c-8.91-6.66-32.41-19.91-33.6-21.51-.18-.25-.47-.63-.83-1.13-1.79-2.51-10.26-14.61-6.52-28.06,3.74-13.45,17.08-18.83,18.5-19.37,5.35-2.06,13.75-3.51,29.68,2.47,34.76,13.05,53.93,42.16,55.53,44.65,5.03,7.85,22.58,37.44,17.16,73.47-1.65,10.96-4.16,26.1-16.61,33.87-8.11,5.06-20.71,6.73-30.32.93-8.73-5.27-12.13-15.05-12.67-16.62-1.39-4-2.01-8.7-2.08-9.27-.47-3.64-.42-6.46-.35-8.92.23-8.45.78-10.6.82-14.76,0,0,.07-8.4-3.09-16.61-3.96-10.27-11.71-16.22-15.61-19.13Z" style="fill: url(#Degradado_sin_nombre_53-4);"/>
            <path d="m2813.77,4468.78c-3.04-2.28-11.07-6.8-11.48-7.35-.06-.08-.16-.21-.28-.39-.61-.86-3.5-4.99-2.23-9.59,1.28-4.59,5.84-6.43,6.32-6.62,1.83-.7,4.7-1.2,10.14.84,11.87,4.46,18.43,14.4,18.97,15.25,1.72,2.68,7.72,12.79,5.86,25.1-.56,3.74-1.42,8.92-5.67,11.57-2.77,1.73-7.08,2.3-10.36.32-2.98-1.8-4.14-5.14-4.33-5.68-.47-1.37-.69-2.97-.71-3.17-.16-1.24-.14-2.21-.12-3.05.08-2.89.27-3.62.28-5.04,0,0,.02-2.87-1.06-5.67-1.35-3.51-4-5.54-5.33-6.54Z" style="fill: url(#Degradado_sin_nombre_52-6);"/>
          </g>
          <g>
            <path d="m3539.07,4096.72c9.37-21.7,2.42-41.37-12.89-54.21-.11-.09-.06-.26.08-.26,14.63-.22,33.7-4.95,42.8-26.04,13.65-31.63-4.67-64.77-41.91-80.84l-113.2-48.86-79.54,184.29,116.93,50.47c44.41,19.17,75.7,3.34,87.74-24.55Z" style="fill: #fff;"/>
            <path d="m3165.58,4069.24c-40.68-17.56-80.49-6.43-94.76,26.64-13.26,30.72.94,52.93,18.44,70.45,0,0,0,0,0,0l-69.7,27.82c3.64,23.06,18.06,48.72,59.6,66.65,43.26,18.67,84.38,6.07,99.15-28.15,13.99-32.42-2.98-55.55-21.96-73.58h0s64.9-25.9,64.9-25.9c-5.19-25.78-23.87-50.21-55.67-63.93Z" style="fill: #fff;"/>
            <polygon points="3313.7 3843.24 3249.29 3815.44 3231.97 3807.96 3202.02 3795.04 3122.48 3979.33 3159.58 3995.34 3253.12 4035.72 3253.12 4035.72 3262.75 4039.88 3303.13 3946.31 3274.54 3933.97 3313.7 3843.24" style="fill: #fff;"/>
            <polygon points="3426.16 4196.14 3337.67 4157.95 3318.97 4201.29 3275.79 4182.65 3237.46 4271.46 3280.64 4290.09 3261.94 4333.43 3350.43 4371.62 3369.13 4328.28 3412.31 4346.92 3450.64 4258.12 3407.46 4239.48 3426.16 4196.14" style="fill: #fff;"/>
          </g>
        </g>
      </g>
    </g>
    <g id="boton6">
      <rect x="1092.85" y="5733" width="3135.2" height="745.75" rx="238.36" ry="238.36" style="fill: url(#Degradado_sin_nombre_1131-5);"/>
      <g>
        <path d="m1905.62,6147.15c0-28.61,7.77-50.28,46.6-107.5l43.74-64.58h74.8l-56,84.61c56.41,3.27,92.38,43.74,92.38,87.47,0,53.55-39.65,96.06-100.14,96.06s-101.37-42.51-101.37-96.06Zm65.81,0c0,18.8,15.94,34.34,35.15,34.34s34.74-15.53,34.74-34.34-15.53-34.34-34.74-34.34-35.15,15.53-35.15,34.34Z" style="fill: #fff;"/>
        <path d="m2318.46,6096.87c-25.34,0-41.69,18.39-41.69,42.51s16.76,42.1,41.69,42.1c17.99,0,31.07-6.54,42.92-17.99l32.7,48.23c-15.12,17.99-44.96,31.47-77.25,31.47-59.27,0-105.87-46.6-105.87-103.82s47.01-104.23,104.23-104.23c35.56,0,62.54,12.26,80.93,31.47l-37.2,46.6c-11.45-11.04-23.3-16.35-40.47-16.35Z" style="fill: #fff;"/>
        <path d="m2545.73,6218.68c-11.85,15.12-28.2,24.53-49.87,24.53-49.87,0-92.79-40.88-92.79-103.82s39.24-104.23,92.79-104.23c21.66,0,38.42,8.18,49.87,22.48v-16.35h65.81v195.79h-65.81v-18.39Zm0-79.3c0-24.12-16.35-42.51-38.42-42.51s-38.42,18.39-38.42,42.51,16.35,42.1,38.42,42.1,38.42-18.39,38.42-42.1Z" style="fill: #fff;"/>
        <path d="m2722.31,6237.07h-65.81v-195.79h65.81v30.25c9.4-21.26,25.34-36.38,46.6-36.38,13.9,0,24.53,3.68,32.7,11.04l-26.98,62.13c-6.54-5.72-16.76-9.4-26.57-9.4-15.53,0-25.75,12.67-25.75,32.29v105.87Z" style="fill: #fff;"/>
        <path d="m2811.82,6041.28h37.2v-53.14h65.81v53.14h49.87v57.63h-49.05v60.09c0,15.53,5.31,22.48,16.76,22.48,8.18,0,16.35-4.09,20.44-9.4l28.61,48.64c-12.67,12.67-33.52,22.48-60.5,22.48-43.33,0-72.35-27.8-72.35-82.57v-61.72h-36.79v-57.63Z" style="fill: #fff;"/>
        <path d="m3131.06,6218.68c-11.85,15.12-28.2,24.53-49.87,24.53-49.87,0-92.79-40.88-92.79-103.82s39.24-104.23,92.79-104.23c21.66,0,38.42,8.18,49.87,22.48v-16.35h65.81v195.79h-65.81v-18.39Zm0-79.3c0-24.12-16.35-42.51-38.42-42.51s-38.42,18.39-38.42,42.51,16.35,42.1,38.42,42.1,38.42-18.39,38.42-42.1Z" style="fill: #fff;"/>
        <path d="m3397.16,6179.44c0,32.7-28.61,63.77-86.66,63.77-38.83,0-68.67-13.9-86.66-33.52l35.56-41.69c16.76,16.76,34.34,23.3,54.77,23.3,12.67,0,17.99-4.5,17.99-11.04,0-24.53-98.51-11.04-98.51-82.98,0-30.25,26.57-62.13,80.12-62.13,37.2,0,67.85,12.26,83.79,34.34l-35.97,38.42c-13.08-15.12-29.43-20.85-45.78-20.85-11.45,0-17.17,4.09-17.17,10.63,0,25.34,98.51,7.36,98.51,81.75Z" style="fill: #fff;"/>
      </g>
    </g>
    <g id="boton12">
      <rect x="1092.85" y="6696.75" width="3135.2" height="745.75" rx="238.36" ry="238.36" style="fill: url(#Degradado_sin_nombre_1131-6);"/>
      <g>
        <path d="m1873.49,7201v-185.36l-35.27,34.04-38.96-43.47,72.17-68.07h68.07v262.86h-66.02Z" style="fill: #fff;"/>
        <path d="m1987.49,7151.38l94.32-90.22c15.58-14.76,22.96-27.89,22.96-41.42,0-16.4-12.3-25.84-29.53-25.84s-33.63,12.71-44.29,35.68l-51.26-33.63c14.35-31.99,44.7-63.97,99.24-63.97,57.82,0,91.86,38.55,91.86,86.12,0,27.07-13.53,51.67-43.06,78.74l-50.44,46.34h93.91v57.82h-183.72v-49.62Z" style="fill: #fff;"/>
        <path d="m2387.73,7060.34c-25.43,0-41.83,18.45-41.83,42.65s16.81,42.24,41.83,42.24c18.04,0,31.17-6.56,43.06-18.04l32.81,48.39c-15.17,18.04-45.11,31.58-77.51,31.58-59.46,0-106.21-46.75-106.21-104.16s47.16-104.57,104.57-104.57c35.68,0,62.74,12.3,81.2,31.58l-37.32,46.75c-11.48-11.07-23.38-16.4-40.6-16.4Z" style="fill: #fff;"/>
        <path d="m2615.74,7182.55c-11.89,15.17-28.3,24.61-50.03,24.61-50.03,0-93.09-41.01-93.09-104.16s39.37-104.57,93.09-104.57c21.73,0,38.55,8.2,50.03,22.55v-16.4h66.02v196.43h-66.02v-18.45Zm0-79.56c0-24.2-16.4-42.65-38.55-42.65s-38.55,18.45-38.55,42.65,16.4,42.24,38.55,42.24,38.55-18.45,38.55-42.24Z" style="fill: #fff;"/>
        <path d="m2792.89,7201h-66.02v-196.43h66.02v30.35c9.43-21.32,25.43-36.5,46.75-36.5,13.94,0,24.61,3.69,32.81,11.07l-27.07,62.33c-6.56-5.74-16.81-9.43-26.66-9.43-15.58,0-25.84,12.71-25.84,32.4v106.21Z" style="fill: #fff;"/>
        <path d="m2882.7,7004.57h37.32v-53.31h66.02v53.31h50.03v57.82h-49.21v60.28c0,15.58,5.33,22.55,16.81,22.55,8.2,0,16.4-4.1,20.5-9.43l28.71,48.8c-12.71,12.71-33.63,22.55-60.69,22.55-43.47,0-72.59-27.89-72.59-82.84v-61.92h-36.91v-57.82Z" style="fill: #fff;"/>
        <path d="m3202.98,7182.55c-11.89,15.17-28.3,24.61-50.03,24.61-50.03,0-93.09-41.01-93.09-104.16s39.37-104.57,93.09-104.57c21.73,0,38.55,8.2,50.03,22.55v-16.4h66.02v196.43h-66.02v-18.45Zm0-79.56c0-24.2-16.4-42.65-38.55-42.65s-38.55,18.45-38.55,42.65,16.4,42.24,38.55,42.24,38.55-18.45,38.55-42.24Z" style="fill: #fff;"/>
        <path d="m3469.94,7143.18c0,32.81-28.71,63.97-86.94,63.97-38.96,0-68.89-13.94-86.94-33.63l35.68-41.83c16.81,16.81,34.45,23.37,54.95,23.37,12.71,0,18.04-4.51,18.04-11.07,0-24.61-98.83-11.07-98.83-83.25,0-30.35,26.66-62.33,80.38-62.33,37.32,0,68.07,12.3,84.07,34.45l-36.09,38.55c-13.12-15.17-29.53-20.91-45.93-20.91-11.48,0-17.22,4.1-17.22,10.66,0,25.43,98.83,7.38,98.83,82.02Z" style="fill: #fff;"/>
      </g>
    </g>
  </g>
</svg>