<?xml version="1.0" encoding="UTF-8"?>
<svg id="Capa_2" data-name="Capa 2" xmlns="http://www.w3.org/2000/svg" viewBox="0 0 240.44 240.44">
  <g id="botonx">
    <g>
      <path d="m6.17,35.87l5.34,5.34c4.81,4.81,9.61,9.61,14.42,14.42,7.12,7.12,14.25,14.25,21.37,21.37l26.07,26.07,28.47,28.47c9.61,9.61,19.21,19.21,28.82,28.82,8.96,8.96,17.91,17.91,26.87,26.87,7.55,7.55,15.09,15.09,22.64,22.64,5.46,5.46,10.92,10.92,16.37,16.37,2.57,2.57,5.12,5.14,7.7,7.7.11.11.22.22.33.33,3.81,3.81,9.46,6.15,14.85,6.15,2.89.11,5.59-.49,8.09-1.81,2.6-.85,4.86-2.29,6.76-4.34,3.67-4,6.4-9.26,6.15-14.85s-2.13-10.83-6.15-14.85l-5.34-5.34c-4.81-4.81-9.61-9.61-14.42-14.42-7.12-7.12-14.25-14.25-21.37-21.37l-26.07-26.07c-9.49-9.49-18.98-18.98-28.47-28.47s-19.21-19.21-28.82-28.82c-8.96-8.96-17.91-17.91-26.87-26.87-7.55-7.55-15.09-15.09-22.64-22.64-5.46-5.46-10.92-10.92-16.37-16.37-2.57-2.57-5.12-5.14-7.7-7.7-.11-.11-.22-.22-.33-.33C32.06,2.36,26.4.02,21.02.02c-2.89-.11-5.59.49-8.09,1.81-2.6.85-4.86,2.29-6.76,4.34C2.49,10.17-.23,15.42.02,21.02s2.13,10.83,6.15,14.85h0Z" style="fill: #fff;"/>
      <path d="m204.57,6.17l-5.34,5.34c-4.81,4.81-9.61,9.61-14.42,14.42-7.12,7.12-14.25,14.25-21.37,21.37-8.69,8.69-17.38,17.38-26.07,26.07-9.49,9.49-18.98,18.98-28.47,28.47s-19.21,19.21-28.82,28.82c-8.96,8.96-17.91,17.91-26.87,26.87-7.55,7.55-15.09,15.09-22.64,22.64-5.46,5.46-10.92,10.92-16.37,16.37-2.57,2.57-5.14,5.12-7.7,7.7-.11.11-.22.22-.33.33C2.36,208.38.02,214.04.02,219.42c-.11,2.89.49,5.59,1.81,8.09.85,2.6,2.29,4.86,4.34,6.76,4,3.67,9.26,6.4,14.85,6.15s10.83-2.13,14.85-6.15l5.34-5.34c4.81-4.81,9.61-9.61,14.42-14.42,7.12-7.12,14.25-14.25,21.37-21.37,8.69-8.69,17.38-17.38,26.07-26.07,9.49-9.49,18.98-18.98,28.47-28.47s19.21-19.21,28.82-28.82c8.96-8.96,17.91-17.91,26.87-26.87,7.55-7.55,15.09-15.09,22.64-22.64,5.46-5.46,10.92-10.92,16.37-16.37,2.57-2.57,5.14-5.12,7.7-7.7.11-.11.22-.22.33-.33,3.81-3.81,6.15-9.46,6.15-14.85.11-2.89-.49-5.59-1.81-8.09-.85-2.6-2.29-4.86-4.34-6.76-4-3.67-9.26-6.4-14.85-6.15s-10.83,2.13-14.85,6.15h0Z" style="fill: #fff;"/>
    </g>
  </g>
</svg>