<?xml version="1.0" encoding="UTF-8"?>
<svg id="Capa_2" data-name="Capa 2" xmlns="http://www.w3.org/2000/svg" xmlns:xlink="http://www.w3.org/1999/xlink" viewBox="0 0 3135.2 745.75">
  <defs>
    <linearGradient id="Degradado_sin_nombre_1133" data-name="Degradado sin nombre 1133" x1="1567.6" y1="745.75" x2="1567.6" y2="0" gradientUnits="userSpaceOnUse">
      <stop offset="0" stop-color="#007e9f"/>
      <stop offset="0" stop-color="#007e9e"/>
      <stop offset=".32" stop-color="#00b599"/>
      <stop offset=".59" stop-color="#00dd96"/>
      <stop offset=".8" stop-color="#00f593"/>
      <stop offset=".94" stop-color="#00ff93"/>
    </linearGradient>
  </defs>
  <g id="Modo_de_aislamiento" data-name="Modo de aislamiento">
    <g id="boton6">
      <rect width="3135.2" height="745.75" rx="238.36" ry="238.36" style="fill: url(#Degradado_sin_nombre_1133);"/>
      <g>
        <path d="m812.77,414.15c0-28.61,7.77-50.28,46.6-107.5l43.74-64.58h74.8l-56,84.61c56.41,3.27,92.38,43.74,92.38,87.47,0,53.55-39.65,96.06-100.14,96.06s-101.37-42.51-101.37-96.06Zm65.81,0c0,18.8,15.94,34.34,35.15,34.34s34.74-15.53,34.74-34.34-15.53-34.34-34.74-34.34-35.15,15.53-35.15,34.34Z" style="fill: #fff;"/>
        <path d="m1225.61,363.87c-25.34,0-41.69,18.39-41.69,42.51s16.76,42.1,41.69,42.1c17.99,0,31.07-6.54,42.92-17.99l32.7,48.23c-15.12,17.99-44.96,31.47-77.25,31.47-59.27,0-105.87-46.6-105.87-103.82s47.01-104.23,104.23-104.23c35.56,0,62.54,12.26,80.93,31.47l-37.2,46.6c-11.45-11.04-23.3-16.35-40.47-16.35Z" style="fill: #fff;"/>
        <path d="m1452.88,485.68c-11.85,15.12-28.2,24.53-49.87,24.53-49.87,0-92.79-40.88-92.79-103.82s39.24-104.23,92.79-104.23c21.66,0,38.42,8.18,49.87,22.48v-16.35h65.81v195.79h-65.81v-18.39Zm0-79.3c0-24.12-16.35-42.51-38.42-42.51s-38.42,18.39-38.42,42.51,16.35,42.1,38.42,42.1,38.42-18.39,38.42-42.1Z" style="fill: #fff;"/>
        <path d="m1629.46,504.07h-65.81v-195.79h65.81v30.25c9.4-21.26,25.34-36.38,46.6-36.38,13.9,0,24.53,3.68,32.7,11.04l-26.98,62.13c-6.54-5.72-16.76-9.4-26.57-9.4-15.53,0-25.75,12.67-25.75,32.29v105.87Z" style="fill: #fff;"/>
        <path d="m1718.97,308.28h37.2v-53.14h65.81v53.14h49.87v57.63h-49.05v60.09c0,15.53,5.31,22.48,16.76,22.48,8.18,0,16.35-4.09,20.44-9.4l28.61,48.64c-12.67,12.67-33.52,22.48-60.5,22.48-43.33,0-72.35-27.8-72.35-82.57v-61.72h-36.79v-57.63Z" style="fill: #fff;"/>
        <path d="m2038.21,485.68c-11.85,15.12-28.2,24.53-49.87,24.53-49.87,0-92.79-40.88-92.79-103.82s39.24-104.23,92.79-104.23c21.66,0,38.42,8.18,49.87,22.48v-16.35h65.81v195.79h-65.81v-18.39Zm0-79.3c0-24.12-16.35-42.51-38.42-42.51s-38.42,18.39-38.42,42.51,16.35,42.1,38.42,42.1,38.42-18.39,38.42-42.1Z" style="fill: #fff;"/>
        <path d="m2304.31,446.44c0,32.7-28.61,63.77-86.66,63.77-38.83,0-68.67-13.9-86.66-33.52l35.56-41.69c16.76,16.76,34.34,23.3,54.77,23.3,12.67,0,17.99-4.5,17.99-11.04,0-24.53-98.51-11.04-98.51-82.98,0-30.25,26.57-62.13,80.12-62.13,37.2,0,67.85,12.26,83.79,34.34l-35.97,38.42c-13.08-15.12-29.43-20.85-45.78-20.85-11.45,0-17.17,4.09-17.17,10.63,0,25.34,98.51,7.36,98.51,81.75Z" style="fill: #fff;"/>
      </g>
    </g>
  </g>
</svg>