<?xml version="1.0" encoding="UTF-8"?>
<svg id="Capa_2" data-name="Capa 2" xmlns="http://www.w3.org/2000/svg" xmlns:xlink="http://www.w3.org/1999/xlink" viewBox="0 0 3135.2 745.75">
  <defs>
    <linearGradient id="Degradado_sin_nombre_1131" data-name="Degradado sin nombre 1131" x1="1567.6" y1="745.75" x2="1567.6" y2="0" gradientUnits="userSpaceOnUse">
      <stop offset="0" stop-color="#007e9f"/>
      <stop offset="0" stop-color="#007e9e"/>
      <stop offset=".32" stop-color="#00b599"/>
      <stop offset=".59" stop-color="#00dd96"/>
      <stop offset=".8" stop-color="#00f593"/>
      <stop offset=".94" stop-color="#00ff93"/>
    </linearGradient>
  </defs>
  <g id="Modo_de_aislamiento" data-name="Modo de aislamiento">
    <g id="boton12">
      <rect x="0" width="3135.2" height="745.75" rx="238.36" ry="238.36" style="fill: url(#Degradado_sin_nombre_1131);"/>
      <g>
        <path d="m780.64,504.25v-185.36l-35.27,34.04-38.96-43.47,72.17-68.07h68.07v262.86h-66.02Z" style="fill: #fff;"/>
        <path d="m894.64,454.63l94.32-90.22c15.58-14.76,22.96-27.89,22.96-41.42,0-16.4-12.3-25.84-29.53-25.84s-33.63,12.71-44.29,35.68l-51.26-33.63c14.35-31.99,44.7-63.97,99.24-63.97,57.82,0,91.86,38.55,91.86,86.12,0,27.07-13.53,51.67-43.06,78.74l-50.44,46.34h93.91v57.82h-183.72v-49.62Z" style="fill: #fff;"/>
        <path d="m1294.88,363.59c-25.43,0-41.83,18.45-41.83,42.65s16.81,42.24,41.83,42.24c18.04,0,31.17-6.56,43.06-18.04l32.81,48.39c-15.17,18.04-45.11,31.58-77.51,31.58-59.46,0-106.21-46.75-106.21-104.16s47.16-104.57,104.57-104.57c35.68,0,62.74,12.3,81.2,31.58l-37.32,46.75c-11.48-11.07-23.38-16.4-40.6-16.4Z" style="fill: #fff;"/>
        <path d="m1522.89,485.8c-11.89,15.17-28.3,24.61-50.03,24.61-50.03,0-93.09-41.01-93.09-104.16s39.37-104.57,93.09-104.57c21.73,0,38.55,8.2,50.03,22.55v-16.4h66.02v196.43h-66.02v-18.45Zm0-79.56c0-24.2-16.4-42.65-38.55-42.65s-38.55,18.45-38.55,42.65,16.4,42.24,38.55,42.24,38.55-18.45,38.55-42.24Z" style="fill: #fff;"/>
        <path d="m1700.04,504.25h-66.02v-196.43h66.02v30.35c9.43-21.32,25.43-36.5,46.75-36.5,13.94,0,24.61,3.69,32.81,11.07l-27.07,62.33c-6.56-5.74-16.81-9.43-26.66-9.43-15.58,0-25.84,12.71-25.84,32.4v106.21Z" style="fill: #fff;"/>
        <path d="m1789.85,307.82h37.32v-53.31h66.02v53.31h50.03v57.82h-49.21v60.28c0,15.58,5.33,22.55,16.81,22.55,8.2,0,16.4-4.1,20.5-9.43l28.71,48.8c-12.71,12.71-33.63,22.55-60.69,22.55-43.47,0-72.59-27.89-72.59-82.84v-61.92h-36.91v-57.82Z" style="fill: #fff;"/>
        <path d="m2110.13,485.8c-11.89,15.17-28.3,24.61-50.03,24.61-50.03,0-93.09-41.01-93.09-104.16s39.37-104.57,93.09-104.57c21.73,0,38.55,8.2,50.03,22.55v-16.4h66.02v196.43h-66.02v-18.45Zm0-79.56c0-24.2-16.4-42.65-38.55-42.65s-38.55,18.45-38.55,42.65,16.4,42.24,38.55,42.24,38.55-18.45,38.55-42.24Z" style="fill: #fff;"/>
        <path d="m2377.09,446.43c0,32.81-28.71,63.97-86.94,63.97-38.96,0-68.89-13.94-86.94-33.63l35.68-41.83c16.81,16.81,34.45,23.37,54.95,23.37,12.71,0,18.04-4.51,18.04-11.07,0-24.61-98.83-11.07-98.83-83.25,0-30.35,26.66-62.33,80.38-62.33,37.32,0,68.07,12.3,84.07,34.45l-36.09,38.55c-13.12-15.17-29.53-20.91-45.93-20.91-11.48,0-17.22,4.1-17.22,10.66,0,25.43,98.83,7.38,98.83,82.02Z" style="fill: #fff;"/>
      </g>
    </g>
  </g>
</svg>