<?xml version="1.0" encoding="UTF-8"?>
<svg id="Capa_2" data-name="Capa 2" xmlns="http://www.w3.org/2000/svg" viewBox="0 0 494.27 423.55">
  <g id="fondo">
    <g id="BOTON">
      <g>
        <g>
          <path d="m23.35,291.72c-.97-.19-1.84-.78-2.33-1.65C7.27,266.33,0,239.29,0,211.77c0-41.67,16.28-80.91,45.74-110.56,29.65-29.46,68.9-45.74,110.56-45.74h170.83V6.34c0-2.52,1.36-4.75,3.68-5.72,2.23-1.07,4.75-.78,6.69.87l107.07,89.34c1.36,1.16,2.13,2.81,2.23,4.55.1,1.74-.58,3.39-1.74,4.65-.1,0-.48.39-.48.48l-107.07,89.44c-1.94,1.55-4.46,1.84-6.69.78-2.33-.97-3.68-3.2-3.68-5.62v-49.23h-168.32c-39.15,0-72.58,28-77.62,65.12-1.84,12.89-.39,25.87,4.17,37.6.48,1.26.1,2.81-.97,3.68l-58.24,48.64c-.78.68-1.74.97-2.81.78Z" style="fill: #fff;"/>
          <path d="m156.78,422.14l-107.07-89.44c-1.36-1.26-2.13-2.91-2.23-4.65v-.19c0-1.65.68-3.2,1.74-4.36.1-.1.39-.39.78-.58l106.78-89.34c1.94-1.55,4.55-1.84,6.78-.78,2.23,1.07,3.59,3.2,3.59,5.72v49.13h168.32c39.15,0,72.48-28,77.62-65.12,1.84-12.89.39-25.87-4.17-37.6-.48-1.36-.1-2.81.97-3.68l58.24-48.64c.78-.68,1.74-.97,2.81-.78.97.19,1.84.78,2.33,1.65,15.89,27.33,22.97,58.62,20.54,90.31-6.1,80.91-76.36,144.28-159.89,144.28h-166.77v49.13c0,2.52-1.36,4.65-3.59,5.72-2.23,1.07-4.85.78-6.78-.78Z" style="fill: #fff;"/>
          <path d="m23.35,291.72c-.97-.19-1.84-.78-2.33-1.65C7.27,266.33,0,239.29,0,211.77c0-41.67,16.28-80.91,45.74-110.56,29.65-29.46,68.9-45.74,110.56-45.74h170.83V6.34c0-2.52,1.36-4.75,3.68-5.72,2.23-1.07,4.75-.78,6.69.87l107.07,89.34c1.36,1.16,2.13,2.81,2.23,4.55.1,1.74-.58,3.39-1.74,4.65-.1,0-.48.39-.48.48l-107.07,89.44c-1.94,1.55-4.46,1.84-6.69.78-2.33-.97-3.68-3.2-3.68-5.62v-49.23h-168.32c-39.15,0-72.58,28-77.62,65.12-1.84,12.89-.39,25.87,4.17,37.6.48,1.26.1,2.81-.97,3.68l-58.24,48.64c-.78.68-1.74.97-2.81.78Z" style="fill: #fff;"/>
          <path d="m156.78,422.14l-107.07-89.44c-1.36-1.26-2.13-2.91-2.23-4.65v-.19c0-1.65.68-3.2,1.74-4.36.1-.1.39-.39.78-.58l106.78-89.34c1.94-1.55,4.55-1.84,6.78-.78,2.23,1.07,3.59,3.2,3.59,5.72v49.13h168.32c39.15,0,72.48-28,77.62-65.12,1.84-12.89.39-25.87-4.17-37.6-.48-1.36-.1-2.81.97-3.68l58.24-48.64c.78-.68,1.74-.97,2.81-.78.97.19,1.84.78,2.33,1.65,15.89,27.33,22.97,58.62,20.54,90.31-6.1,80.91-76.36,144.28-159.89,144.28h-166.77v49.13c0,2.52-1.36,4.65-3.59,5.72-2.23,1.07-4.85.78-6.78-.78Z" style="fill: #fff;"/>
        </g>
        <g>
          <path d="m23.35,291.72c-.97-.19-1.84-.78-2.33-1.65C7.27,266.33,0,239.29,0,211.77c0-41.67,16.28-80.91,45.74-110.56,29.65-29.46,68.9-45.74,110.56-45.74h170.83V6.34c0-2.52,1.36-4.75,3.68-5.72,2.23-1.07,4.75-.78,6.69.87l107.07,89.34c1.36,1.16,2.13,2.81,2.23,4.55.1,1.74-.58,3.39-1.74,4.65-.1,0-.48.39-.48.48l-107.07,89.44c-1.94,1.55-4.46,1.84-6.69.78-2.33-.97-3.68-3.2-3.68-5.62v-49.23h-168.32c-39.15,0-72.58,28-77.62,65.12-1.84,12.89-.39,25.87,4.17,37.6.48,1.26.1,2.81-.97,3.68l-58.24,48.64c-.78.68-1.74.97-2.81.78Z" style="fill: #fff;"/>
          <path d="m156.78,422.14l-107.07-89.44c-1.36-1.26-2.13-2.91-2.23-4.65v-.19c0-1.65.68-3.2,1.74-4.36.1-.1.39-.39.78-.58l106.78-89.34c1.94-1.55,4.55-1.84,6.78-.78,2.23,1.07,3.59,3.2,3.59,5.72v49.13h168.32c39.15,0,72.48-28,77.62-65.12,1.84-12.89.39-25.87-4.17-37.6-.48-1.36-.1-2.81.97-3.68l58.24-48.64c.78-.68,1.74-.97,2.81-.78.97.19,1.84.78,2.33,1.65,15.89,27.33,22.97,58.62,20.54,90.31-6.1,80.91-76.36,144.28-159.89,144.28h-166.77v49.13c0,2.52-1.36,4.65-3.59,5.72-2.23,1.07-4.85.78-6.78-.78Z" style="fill: #fff;"/>
        </g>
      </g>
    </g>
  </g>
</svg>