<?xml version="1.0" encoding="UTF-8"?>
<svg id="Capa_2" data-name="Capa 2" xmlns="http://www.w3.org/2000/svg" xmlns:xlink="http://www.w3.org/1999/xlink" viewBox="0 0 1757 1866.56">
  <defs>
    <linearGradient id="Degradado_sin_nombre_566" data-name="Degradado sin nombre 566" x1="4117.87" y1="-16465.17" x2="5682.46" y2="-16465.17" gradientTransform="translate(3720.8 -15948.86) rotate(26.24) scale(1 -1)" gradientUnits="userSpaceOnUse">
      <stop offset="0" stop-color="#9e2dab"/>
      <stop offset=".13" stop-color="#9239a8"/>
      <stop offset=".37" stop-color="#745aa2"/>
      <stop offset=".7" stop-color="#439097"/>
      <stop offset="1" stop-color="#10c98d"/>
    </linearGradient>
    <linearGradient id="Degradado_sin_nombre_566-2" data-name="Degradado sin nombre 566" x1="19062.07" y1="-14943.78" x2="19175.62" y2="-14943.78" gradientTransform="translate(17803.96 -17773.92) rotate(93.57) scale(1 -1)" xlink:href="#Degradado_sin_nombre_566"/>
    <linearGradient id="Degradado_sin_nombre_566-3" data-name="Degradado sin nombre 566" x1="18895.54" y1="-15232.55" x2="19009.1" y2="-15232.55" gradientTransform="translate(17803.96 -17773.92) rotate(93.57) scale(1 -1)" xlink:href="#Degradado_sin_nombre_566"/>
    <linearGradient id="Degradado_sin_nombre_566-4" data-name="Degradado sin nombre 566" x1="9341.82" y1="-17138.97" x2="9455.37" y2="-17138.97" gradientTransform="translate(7289.25 -18291.54) rotate(48.57) scale(1 -1)" xlink:href="#Degradado_sin_nombre_566"/>
    <linearGradient id="Degradado_sin_nombre_566-5" data-name="Degradado sin nombre 566" x1="9238.93" y1="-17778.43" x2="9352.48" y2="-17778.43" gradientTransform="translate(7289.25 -18291.54) rotate(48.57) scale(1 -1)" xlink:href="#Degradado_sin_nombre_566"/>
    <linearGradient id="Degradado_sin_nombre_566-6" data-name="Degradado sin nombre 566" x1="11107.16" y1="-17419.67" x2="11220.72" y2="-17419.67" gradientTransform="translate(7289.25 -18291.54) rotate(48.57) scale(1 -1)" xlink:href="#Degradado_sin_nombre_566"/>
    <linearGradient id="Degradado_sin_nombre_566-7" data-name="Degradado sin nombre 566" x1="10401.9" y1="-18526.7" x2="10515.45" y2="-18526.7" gradientTransform="translate(7289.25 -18291.54) rotate(48.57) scale(1 -1)" xlink:href="#Degradado_sin_nombre_566"/>
    <linearGradient id="Degradado_sin_nombre_566-8" data-name="Degradado sin nombre 566" x1="8968.7" y1="-20151.27" x2="9143.07" y2="-20151.27" gradientTransform="translate(17384.67 -14602.91) rotate(69.46) scale(1 -1)" xlink:href="#Degradado_sin_nombre_566"/>
    <linearGradient id="Degradado_sin_nombre_566-9" data-name="Degradado sin nombre 566" x1="7441.94" y1="5381.72" x2="7616.31" y2="5381.72" gradientTransform="translate(8688.91 4438.19) rotate(-123.45) scale(1 -1)" xlink:href="#Degradado_sin_nombre_566"/>
    <linearGradient id="Degradado_sin_nombre_566-10" data-name="Degradado sin nombre 566" x1="3203.36" y1="-15515.97" x2="3587.97" y2="-15515.97" gradientTransform="translate(3195.14 -15596.87) rotate(20.15) scale(1 -1)" xlink:href="#Degradado_sin_nombre_566"/>
  </defs>
  <g id="cartaagua">
    <g>
      <path d="m154.05,612.2c-3.56,4.65-80.48,107.15-54.08,219.76,17.07,72.83,58.39,77.97,75.8,150.67,17.5,73.1-13.21,114.11-27.26,186-30.23,154.61,27.63,371.42,173.73,442.13,77.9,37.7,164.67,44.53,200.67,45,32.61.43,87.69,1.16,153.5-20.61,81.94-27.1,104.94-64.08,160.59-58.65,36.57,3.56,43.67,21.19,94.87,49.82,26.27,14.69,170.43,95.31,277.26,43.26,45.8-22.31,72.41-63.34,90.89-91.26,40.12-60.58,29.24-89.33,66.46-128.99,41.86-44.61,75.27-29.19,122.93-63.84,82.3-59.85,89.06-182.95,90.62-210.99,7.59-136.61-69.95-222.81-34.72-294.32,3.58-7.26,19.54-37.14,36.94-81.7,3.26-8.34,11.62-29.71,17.09-48.19,4.09-13.83,20.65-73.59,10.83-134.07-17.62-108.43-112.67-171.97-143.42-193.14-177.11-121.94-273.5,2.85-516.7-96.25-138.57-56.46-211.89-139.68-357.9-127.12-21.06,1.81-61.36,5.63-106.61,27.05-12.58,5.95-60.66,30.3-103.97,85.69-59.76,76.42-32.16,112.05-81.64,181.34-51.58,72.23-91.43,47.31-145.87,118.43Z" style="fill: url(#Degradado_sin_nombre_566);"/>
      <circle cx="1700.23" cy="378.66" r="56.77" style="fill: url(#Degradado_sin_nombre_566-2);"/>
      <circle cx="1422.37" cy="194.5" r="56.77" style="fill: url(#Degradado_sin_nombre_566-3);"/>
      <circle cx="659.7" cy="96.68" r="56.77" style="fill: url(#Degradado_sin_nombre_566-4);"/>
      <circle cx="112.2" cy="442.72" r="56.77" style="fill: url(#Degradado_sin_nombre_566-5);"/>
      <circle cx="1617.51" cy="1605.94" r="56.77" style="fill: url(#Degradado_sin_nombre_566-6);"/>
      <circle cx="320.83" cy="1809.79" r="56.77" style="fill: url(#Degradado_sin_nombre_566-7);"/>
      <path d="m1708.04,904.48c.7-11.99,3.14-36.23-10.03-45.61-2.83-2.02-5.98-2.78-9.09-3.22-10.29-1.47-35.48,14.38-35.62,55.14-.16,47.21,9.01,82.1,18.12,98.76,9.18,16.78,16.86,22.99,25.07,24.33,7.2,1.18,15.76-1.21,21.45-6.28,20.35-18.14-13.86-54.69-9.89-123.11Z" style="fill: url(#Degradado_sin_nombre_566-8);"/>
      <path d="m40.7,1168.09c2,11.84,5.04,36.01,19.98,42.21,3.21,1.33,6.45,1.37,9.58,1.11,10.36-.86,31.37-21.95,22.39-61.71-10.4-46.05-27.14-78.01-39.74-92.2-12.7-14.31-21.57-18.63-29.87-18.11-7.28.46-15.09,4.7-19.5,10.92-15.78,22.23,25.74,50.21,37.17,117.79Z" style="fill: url(#Degradado_sin_nombre_566-9);"/>
      <path d="m993.67,50.01c-19.05-18.4-56.09-57.34-90.72-48.8-7.45,1.84-13.25,6.01-18.47,10.58-17.26,15.09-26.96,80.02,41.02,138.86,78.73,68.15,150.29,102.97,191.24,111.68,41.27,8.78,62.69,4.85,76.75-6.94,12.33-10.34,20.63-28.1,20.33-44.91-1.09-60.12-111.42-55.45-220.15-160.47Z" style="fill: url(#Degradado_sin_nombre_566-10);"/>
    </g>
  </g>
</svg>