<?xml version="1.0" encoding="UTF-8"?>
<svg id="Capa_2" data-name="Capa 2" xmlns="http://www.w3.org/2000/svg" xmlns:xlink="http://www.w3.org/1999/xlink" viewBox="0 0 2895.23 2895.23">
  <defs>
    <linearGradient id="Degradado_sin_nombre_482" data-name="Degradado sin nombre 482" x1="1891.79" y1="4673.03" x2="2021.36" y2="4913.87" gradientTransform="translate(1867.13 -2755.18) rotate(28.28)" gradientUnits="userSpaceOnUse">
      <stop offset="0" stop-color="#40a6fd"/>
      <stop offset=".5" stop-color="#a2d47c"/>
      <stop offset=".84" stop-color="#e2f229"/>
      <stop offset="1" stop-color="#fcfe09"/>
      <stop offset="1" stop-color="#9c2517"/>
    </linearGradient>
    <linearGradient id="Degradado_sin_nombre_482-2" data-name="Degradado sin nombre 482" x1="1031.31" y1="742.34" x2="1933.08" y2="2304.26" gradientTransform="matrix(1,0,0,1,0,0)" xlink:href="#Degradado_sin_nombre_482"/>
    <linearGradient id="Degradado_sin_nombre_473" data-name="Degradado sin nombre 473" x1="688.25" y1="953.83" x2="810.22" y2="953.83" gradientTransform="translate(105.06 1981.54) rotate(-109.77)" gradientUnits="userSpaceOnUse">
      <stop offset="0" stop-color="#3ea5ff"/>
      <stop offset=".1" stop-color="#41a6f9"/>
      <stop offset=".23" stop-color="#4dacea"/>
      <stop offset=".36" stop-color="#60b5d2"/>
      <stop offset=".51" stop-color="#7bc1af"/>
      <stop offset=".66" stop-color="#9dd183"/>
      <stop offset=".82" stop-color="#c7e54c"/>
      <stop offset=".98" stop-color="#f7fb0e"/>
      <stop offset="1" stop-color="#ffff05"/>
    </linearGradient>
    <linearGradient id="Degradado_sin_nombre_473-2" data-name="Degradado sin nombre 473" x1="880.78" y1="602.17" x2="948.79" y2="602.17" gradientTransform="matrix(1,0,0,1,0,0)" xlink:href="#Degradado_sin_nombre_473"/>
    <linearGradient id="Degradado_sin_nombre_482-3" data-name="Degradado sin nombre 482" x1="1862.11" y1="740.51" x2="1984.08" y2="740.51" gradientTransform="matrix(1,0,0,1,0,0)" xlink:href="#Degradado_sin_nombre_482"/>
    <linearGradient id="Degradado_sin_nombre_473-3" data-name="Degradado sin nombre 473" x1="2041.77" y1="599.1" x2="2109.73" y2="599.1" gradientTransform="translate(4027.43 -327.5) rotate(138.5)" xlink:href="#Degradado_sin_nombre_473"/>
    <linearGradient id="Degradado_sin_nombre_473-4" data-name="Degradado sin nombre 473" x1="1035.73" y1="-2276.72" x2="1223.03" y2="-2276.72" gradientTransform="translate(1591.95 4866.32) rotate(-16.72)" xlink:href="#Degradado_sin_nombre_473"/>
    <linearGradient id="Degradado_sin_nombre_473-5" data-name="Degradado sin nombre 473" x1="977.83" y1="1493.74" x2="1165.13" y2="1493.74" gradientTransform="translate(923.07 -1295.74) rotate(19.41)" xlink:href="#Degradado_sin_nombre_473"/>
    <linearGradient id="Degradado_sin_nombre_473-6" data-name="Degradado sin nombre 473" x1="1034.92" y1="1568.19" x2="1143.18" y2="1568.19" gradientTransform="translate(923.07 -1295.74) rotate(19.41)" xlink:href="#Degradado_sin_nombre_473"/>
    <linearGradient id="Degradado_sin_nombre_473-7" data-name="Degradado sin nombre 473" x1="1116.04" y1="-2214.19" x2="1183.26" y2="-2214.19" gradientTransform="translate(1591.95 4866.32) rotate(-16.72)" xlink:href="#Degradado_sin_nombre_473"/>
  </defs>
  <g id="cartabebidas">
    <rect id="CARTA_2" data-name="CARTA 2" x="545.08" y="299.65" width="1870.41" height="2306.42" rx="220.59" ry="220.59" style="fill: #fff; stroke: #fff; stroke-miterlimit: 10;"/>
    <g>
      <path d="m1184.38,2430.39c-38.44-2.97-116.6-5.69-140.75-51.64-5.19-9.88-6.25-20.24-6.32-30.32-.24-33.37,61.09-106.64,190.82-89.46,150.24,19.9,257.28,64.19,306.31,100.37,49.42,36.46,65.83,63.57,66.56,90.27.65,23.41-10.67,49.61-29.27,65.51-66.52,56.88-167.99-67.76-387.36-84.72Z" style="fill: url(#Degradado_sin_nombre_482);"/>
      <path d="m655.5,1518.04c-1.22-6.17-26.66-141.45,52.25-237.42,51.03-62.06,93.28-47.39,144.57-109.17,51.58-62.11,41.46-116.21,62.06-192.15,44.29-163.31,203-344.73,377.34-343.48,92.96.67,179.8,35.3,214.71,51.94,31.62,15.07,85.04,40.53,138.1,92.75,66.08,65.02,70.67,111.57,126.87,132.77,36.93,13.93,52.14.32,115.07-2.95,32.29-1.68,209.46-10.89,287.68,89.99,33.53,43.25,39.68,95.42,44.24,131.09,9.89,77.42-14.25,99.95,2.77,155.84,19.14,62.86,58.66,63.87,88.12,119.89,50.88,96.74-1.08,218.56-12.89,246.32-57.56,135.22-173.2,181.45-173.22,267.08,0,8.7,1.19,45.06-3.21,96.26-.82,9.58-2.91,34.15-6.42,54.55-2.62,15.27-15.05,80.71-53.24,134.31-68.47,96.11-190.22,112.18-229.9,117.98-228.55,33.38-262.16-132.63-543.53-152.64-160.32-11.4-270.48,33.96-405.2-47.48-19.43-11.74-56.44-34.57-89.87-76.69-9.29-11.71-44.06-58-59.49-131.93-21.29-102.01,22.23-123.23,7.46-213.48-15.4-94.09-65.62-89-84.3-183.37Z" style="fill: url(#Degradado_sin_nombre_482-2);"/>
      <circle cx="749.23" cy="953.83" r="60.97" style="fill: url(#Degradado_sin_nombre_473);"/>
      <circle cx="914.79" cy="602.17" r="34" style="fill: url(#Degradado_sin_nombre_473-2);"/>
      <circle cx="1923.09" cy="740.51" r="60.97" style="fill: url(#Degradado_sin_nombre_482-3);"/>
      <circle cx="2075.75" cy="599.1" r="33.97" style="fill: url(#Degradado_sin_nombre_473-3);"/>
      <path d="m1993.92,2403.02c-9.8,8.39-28.93,26.24-45.52,21.08-3.57-1.11-6.27-3.31-8.67-5.68-7.95-7.84-10.78-39.68,23.98-66.31,40.25-30.84,76.05-45.68,96.22-48.72,20.32-3.06,30.61-.53,37.11,5.61,5.69,5.39,9.21,14.26,8.57,22.42-2.28,29.19-55.77,23.71-111.69,71.6Z" style="fill: url(#Degradado_sin_nombre_473-4);"/>
      <path d="m1392.59,488.63c-12.86,1-38.84,4.14-49.2-9.81-2.23-3-3.11-6.37-3.65-9.7-1.8-11.02,14.69-38.41,58.47-39.42,50.69-1.17,88.36,7.94,106.44,17.37,18.22,9.5,25.04,17.62,26.66,26.41,1.42,7.71-.97,16.95-6.29,23.17-19.05,22.24-59.03-13.73-132.43-8.02Z" style="fill: url(#Degradado_sin_nombre_473-5);"/>
      <path d="m1403.29,556.47c-7.43.58-22.45,2.39-28.44-5.67-1.29-1.73-1.8-3.68-2.11-5.61-1.04-6.37,8.49-22.2,33.79-22.78,29.3-.68,51.07,4.59,61.52,10.04,10.53,5.49,14.47,10.18,15.41,15.26.82,4.45-.56,9.8-3.64,13.39-11.01,12.85-34.12-7.94-76.54-4.64Z" style="fill: url(#Degradado_sin_nombre_473-6);"/>
      <path d="m2047.12,2430.09c-3.52,3.01-10.38,9.42-16.34,7.57-1.28-.4-2.25-1.19-3.11-2.04-2.85-2.81-3.87-14.24,8.61-23.8,14.45-11.07,27.29-16.39,34.53-17.49,7.29-1.1,10.99-.19,13.32,2.01,2.04,1.93,3.31,5.12,3.08,8.05-.82,10.48-20.02,8.51-40.08,25.7Z" style="fill: url(#Degradado_sin_nombre_473-7);"/>
    </g>
  </g>
</svg>