<?xml version="1.0" encoding="UTF-8"?>
<svg id="Capa_2" data-name="Capa 2" xmlns="http://www.w3.org/2000/svg" xmlns:xlink="http://www.w3.org/1999/xlink" viewBox="0 0 1757 1866.56">
  <defs>
    <linearGradient id="Degradado_sin_nombre_2320" data-name="Degradado sin nombre 2320" x1="4503.46" y1="-15940.54" x2="5417.93" y2="-16999.53" gradientTransform="translate(3720.8 -15948.86) rotate(26.24) scale(1 -1)" gradientUnits="userSpaceOnUse">
      <stop offset="0" stop-color="#ee2a7b"/>
      <stop offset="1" stop-color="#ff7db8"/>
    </linearGradient>
    <linearGradient id="Degradado_sin_nombre_2320-2" data-name="Degradado sin nombre 2320" x1="19062.07" y1="-14943.78" x2="19175.62" y2="-14943.78" gradientTransform="translate(17803.96 -17773.92) rotate(93.57) scale(1 -1)" xlink:href="#Degradado_sin_nombre_2320"/>
    <linearGradient id="Degradado_sin_nombre_2320-3" data-name="Degradado sin nombre 2320" x1="18895.54" y1="-15232.55" x2="19009.1" y2="-15232.55" gradientTransform="translate(17803.96 -17773.92) rotate(93.57) scale(1 -1)" xlink:href="#Degradado_sin_nombre_2320"/>
    <linearGradient id="Degradado_sin_nombre_2320-4" data-name="Degradado sin nombre 2320" x1="9341.82" y1="-17138.97" x2="9455.37" y2="-17138.97" gradientTransform="translate(7289.25 -18291.54) rotate(48.57) scale(1 -1)" xlink:href="#Degradado_sin_nombre_2320"/>
    <linearGradient id="Degradado_sin_nombre_2320-5" data-name="Degradado sin nombre 2320" x1="9238.93" y1="-17778.43" x2="9352.48" y2="-17778.43" gradientTransform="translate(7289.25 -18291.54) rotate(48.57) scale(1 -1)" xlink:href="#Degradado_sin_nombre_2320"/>
    <linearGradient id="Degradado_sin_nombre_2320-6" data-name="Degradado sin nombre 2320" x1="11107.16" y1="-17419.67" x2="11220.72" y2="-17419.67" gradientTransform="translate(7289.25 -18291.54) rotate(48.57) scale(1 -1)" xlink:href="#Degradado_sin_nombre_2320"/>
    <linearGradient id="Degradado_sin_nombre_2320-7" data-name="Degradado sin nombre 2320" x1="10401.9" y1="-18526.7" x2="10515.45" y2="-18526.7" gradientTransform="translate(7289.25 -18291.54) rotate(48.57) scale(1 -1)" xlink:href="#Degradado_sin_nombre_2320"/>
    <linearGradient id="Degradado_sin_nombre_2320-8" data-name="Degradado sin nombre 2320" x1="8968.7" y1="-20151.27" x2="9143.07" y2="-20151.27" gradientTransform="translate(17384.67 -14602.91) rotate(69.46) scale(1 -1)" xlink:href="#Degradado_sin_nombre_2320"/>
    <linearGradient id="Degradado_sin_nombre_2320-9" data-name="Degradado sin nombre 2320" x1="7441.94" y1="5381.72" x2="7616.31" y2="5381.72" gradientTransform="translate(8688.91 4438.19) rotate(-123.45) scale(1 -1)" xlink:href="#Degradado_sin_nombre_2320"/>
    <linearGradient id="Degradado_sin_nombre_2320-10" data-name="Degradado sin nombre 2320" x1="3203.36" y1="-15515.97" x2="3587.97" y2="-15515.97" gradientTransform="translate(3195.14 -15596.87) rotate(20.15) scale(1 -1)" xlink:href="#Degradado_sin_nombre_2320"/>
  </defs>
  <g id="fondo_4">
    <g>
      <path d="m154.05,612.2c-3.56,4.65-80.48,107.15-54.08,219.76,17.07,72.83,58.39,77.97,75.8,150.67,17.5,73.1-13.21,114.11-27.26,186-30.23,154.61,27.63,371.42,173.73,442.13,77.9,37.7,164.67,44.53,200.67,45,32.61.43,87.69,1.16,153.5-20.61,81.94-27.1,104.94-64.08,160.59-58.65,36.57,3.56,43.67,21.19,94.87,49.82,26.27,14.69,170.43,95.31,277.26,43.26,45.8-22.31,72.41-63.34,90.89-91.26,40.12-60.58,29.24-89.33,66.46-128.99,41.86-44.61,75.27-29.19,122.93-63.84,82.3-59.85,89.06-182.95,90.62-210.99,7.59-136.61-69.95-222.81-34.72-294.32,3.58-7.26,19.54-37.14,36.94-81.7,3.26-8.34,11.62-29.71,17.09-48.19,4.09-13.83,20.65-73.59,10.83-134.07-17.62-108.43-112.67-171.97-143.42-193.14-177.11-121.94-273.5,2.85-516.7-96.25-138.57-56.46-211.89-139.68-357.9-127.12-21.06,1.81-61.36,5.63-106.61,27.05-12.58,5.95-60.66,30.3-103.97,85.69-59.76,76.42-32.16,112.05-81.64,181.34-51.58,72.23-91.43,47.31-145.87,118.43Z" style="fill: url(#Degradado_sin_nombre_2320);"/>
      <circle cx="1700.23" cy="378.66" r="56.77" style="fill: url(#Degradado_sin_nombre_2320-2);"/>
      <circle cx="1422.37" cy="194.5" r="56.77" style="fill: url(#Degradado_sin_nombre_2320-3);"/>
      <circle cx="659.7" cy="96.68" r="56.77" style="fill: url(#Degradado_sin_nombre_2320-4);"/>
      <circle cx="112.2" cy="442.72" r="56.77" style="fill: url(#Degradado_sin_nombre_2320-5);"/>
      <circle cx="1617.51" cy="1605.94" r="56.77" style="fill: url(#Degradado_sin_nombre_2320-6);"/>
      <circle cx="320.83" cy="1809.79" r="56.77" style="fill: url(#Degradado_sin_nombre_2320-7);"/>
      <path d="m1708.04,904.48c.7-11.99,3.14-36.23-10.03-45.61-2.83-2.02-5.98-2.78-9.09-3.22-10.29-1.47-35.48,14.38-35.62,55.14-.16,47.21,9.01,82.1,18.12,98.76,9.18,16.78,16.86,22.99,25.07,24.33,7.2,1.18,15.76-1.21,21.45-6.28,20.35-18.14-13.86-54.69-9.89-123.11Z" style="fill: url(#Degradado_sin_nombre_2320-8);"/>
      <path d="m40.7,1168.09c2,11.84,5.04,36.01,19.98,42.21,3.21,1.33,6.45,1.37,9.58,1.11,10.36-.86,31.37-21.95,22.39-61.71-10.4-46.05-27.14-78.01-39.74-92.2-12.7-14.31-21.57-18.63-29.87-18.11-7.28.46-15.09,4.7-19.5,10.92-15.78,22.23,25.74,50.21,37.17,117.79Z" style="fill: url(#Degradado_sin_nombre_2320-9);"/>
      <path d="m993.67,50.01c-19.05-18.4-56.09-57.34-90.72-48.8-7.45,1.84-13.25,6.01-18.47,10.58-17.26,15.09-26.96,80.02,41.02,138.86,78.73,68.15,150.29,102.97,191.24,111.68,41.27,8.78,62.69,4.85,76.75-6.94,12.33-10.34,20.63-28.1,20.33-44.91-1.09-60.12-111.42-55.45-220.15-160.47Z" style="fill: url(#Degradado_sin_nombre_2320-10);"/>
    </g>
    <g id="Capa_22" data-name="Capa 22">
      <g>
        <path d="m1107.94,433.37l-155.34-46.72-378.71-116.27c-30.79-9.45-62.69,11.03-66.91,42.96l-159.89,1210.76c-2.84,21.47,10.32,41.83,31.06,48.06l556,167.23c20.27,6.1,42.01-3.05,51.83-21.8l568.42-1085.28c15.18-28.98.19-64.61-31.13-74.03l-415.33-124.92Z" style="fill: #6acce3;"/>
        <path d="m466.45,1515.02l408.6,122.9c27.32,8.22,56.65-3.93,70.16-29.05l364.8-678.29c18.03-33.52.71-75.14-35.77-85.98l-659.06-195.82c-34.92-10.38-70.96,12.49-76.45,48.51l-114.34,751.21c-4.5,29.55,13.43,57.91,42.06,66.52Z" style="fill: #9ae8f9;"/>
        <path d="m520.39,498.69c-1.7,10.62-3.4,21.24-5.1,31.86-4.57,28.55-9.14,57.09-13.7,85.64-6.58,41.11-13.15,82.22-19.73,123.32-7.77,48.58-15.55,97.16-23.32,145.74s-16.29,101.8-24.43,152.7c-7.71,48.21-15.43,96.42-23.14,144.63-6.4,40.03-12.81,80.05-19.21,120.08-4.3,26.86-8.59,53.71-12.89,80.57-1.5,9.35-3.76,18.9-4.36,28.36-2.57,40.73,9.15,87.42,38.54,116.79,10.43,10.42,22.94,18.23,36.6,23.68,3.59,1.43,5.14-4.37,1.6-5.79-49.85-19.86-69.9-73.32-70.88-123.53-.08-4.2-.11-8.44.23-12.63-.13,1.58.07-.42.18-1.07.83-5.1,1.63-10.2,2.45-15.29,3.81-23.79,7.61-47.59,11.42-71.38,6.03-37.72,12.07-75.43,18.1-113.15,7.45-46.58,14.91-93.17,22.36-139.75,8.06-50.4,16.13-100.8,24.19-151.2s15.68-98.01,23.52-147.01c6.86-42.9,13.73-85.8,20.59-128.71,5.04-31.49,10.08-62.99,15.12-94.48,2.44-15.26,4.92-30.52,7.33-45.78.11-.67.21-1.33.32-2,.6-3.78-5.18-5.4-5.79-1.6h0Z" style="fill: #fff;"/>
        <path d="m540.57,291.39c16.92,9.5,34.23,18.35,51.53,27.13,46.41,23.55,93.54,45.67,141.15,66.67,68.95,30.42,138.97,58.46,209.9,83.92,85.22,30.58,171.81,57.43,259.61,79.55,94.66,23.85,190.8,42.2,287.86,52.85,12.15,1.33,24.31,2.54,36.49,3.62,3.84.34,3.82-5.66,0-6-98.03-8.75-195.21-25.71-290.92-48.47-89.02-21.16-176.83-47.34-263.24-77.39-73.12-25.43-145.29-53.63-216.33-84.39-50.34-21.79-100.16-44.83-149.22-69.38-14.58-7.3-29.1-14.72-43.51-22.35-6.5-3.44-12.86-7.3-19.47-10.51-.28-.14-.55-.31-.82-.46-3.37-1.89-6.4,3.29-3.03,5.18h0Z" style="fill: #fff;"/>
        <path d="m1232.36,687.68c-1.64,5.27-3.28,10.54-4.92,15.81-3.93,12.65-7.87,25.3-11.8,37.95-4.76,15.3-9.51,30.59-14.27,45.89-4.09,13.15-8.18,26.31-12.27,39.46-2,6.42-4.23,12.81-6,19.3-.02.09-.06.18-.08.27-1.15,3.7,4.64,5.28,5.79,1.6,1.64-5.27,3.28-10.54,4.92-15.81,3.93-12.65,7.87-25.3,11.8-37.95,4.76-15.3,9.51-30.59,14.27-45.89,4.09-13.15,8.18-26.31,12.27-39.46,2-6.42,4.23-12.81,6-19.3.02-.09.06-.18.08-.27,1.15-3.7-4.64-5.28-5.79-1.6h0Z" style="fill: #fff;"/>
        <path d="m1342.07,687.68c-1.86,4.48-3.73,8.95-5.59,13.43-5.05,12.13-10.11,24.26-15.16,36.39-7.47,17.93-14.94,35.86-22.4,53.79-9.14,21.94-18.28,43.89-27.42,65.83-9.95,23.88-19.9,47.76-29.84,71.65l-30.31,72.77c-9.39,22.55-18.78,45.09-28.18,67.64-7.94,19.06-15.88,38.11-23.81,57.17-5.72,13.74-11.45,27.49-17.17,41.23-2.69,6.47-5.63,12.89-8.1,19.44-.11.28-.23.55-.35.83-1.48,3.56,4.32,5.11,5.79,1.6,1.86-4.48,3.73-8.95,5.59-13.43,5.05-12.13,10.11-24.26,15.16-36.39,7.47-17.93,14.94-35.86,22.4-53.79,9.14-21.94,18.28-43.89,27.42-65.83,9.95-23.88,19.9-47.76,29.84-71.65,10.1-24.26,20.21-48.52,30.31-72.77,9.39-22.55,18.78-45.09,28.18-67.64,7.94-19.06,15.88-38.11,23.81-57.17,5.72-13.74,11.45-27.49,17.17-41.23,2.69-6.47,5.63-12.89,8.1-19.44.11-.28.23-.55.35-.83,1.48-3.56-4.32-5.11-5.79-1.6h0Z" style="fill: #fff;"/>
        <g>
          <path d="m955.22,1098.54c-5.23.74-10.45,1.49-15.68,2.23-11.37,1.62-22.73,3.24-34.1,4.86-11.01,1.57-22.02,3.14-33.03,4.71-3.39.48-6.78.97-10.17,1.45-2.68.38-4.74.68-7.47.7-16.1.12-30.95-10.64-35.69-26.11-1.82-5.93-2.26-12.44-3.14-18.55-1.56-10.97-3.13-21.93-4.69-32.9s-3.25-22.78-4.87-34.17c-.78-5.44-1.6-10.88-2.33-16.33-.98-7.39.4-15.37,3.89-22.01,3.73-7.1,9.4-12.65,16.63-16.22,6.26-3.1,13.79-3.79,20.89-4.8,10.47-1.49,20.95-2.98,31.42-4.48,11.68-1.66,23.35-3.33,35.03-4.99,6.5-.93,13.01-1.85,19.51-2.78,13.49-1.93,27.69,4.06,35.55,15.29,3.62,5.17,5.66,10.64,6.57,16.95.31,2.17.62,4.33.93,6.5,1.41,9.89,2.82,19.77,4.23,29.66,1.69,11.87,3.38,23.74,5.07,35.61,1.06,7.47,2.13,14.94,3.19,22.42.06.43.13.86.18,1.29.18,1.33.31,3.48.3,5.14-.01,2.13-.19,4.19-.51,5.98-1.42,7.96-5.15,14.97-10.89,20.51s-12.85,8.87-20.84,10.04c-1.6.24-2.49,2.27-2.1,3.69.47,1.72,2.08,2.33,3.69,2.1,17.59-2.58,32.27-16.47,35.77-33.92,1.08-5.37,1-10.67.23-16.07l-1.14-7.98c-1.51-10.57-3.01-21.14-4.52-31.71l-5.07-35.58c-.92-6.45-1.83-12.89-2.76-19.34-2.25-15.68-13.2-28.91-28.02-34.36-6.83-2.51-14.11-3.03-21.28-2.01-2.03.29-4.07.58-6.1.87-9.9,1.41-19.81,2.82-29.71,4.23-12.1,1.72-24.2,3.45-36.3,5.17-7.47,1.06-14.94,2.13-22.41,3.19-13.73,1.96-25.95,9.96-32.57,22.29-4.15,7.73-5.92,16.69-4.85,25.41.23,1.89.53,3.77.79,5.66,1.31,9.2,2.62,18.4,3.93,27.59,1.73,12.16,3.47,24.32,5.2,36.48,1.2,8.4,2.39,16.79,3.59,25.19.46,3.23.98,6.42,2.02,9.53,2.83,8.46,8.2,15.76,15.33,21.09s15.58,8.15,24.28,8.42c3.41.11,6.77-.35,10.13-.83,8.41-1.2,16.82-2.4,25.23-3.59,12.16-1.73,24.32-3.47,36.48-5.2,9.2-1.31,18.4-2.62,27.59-3.93,1.39-.2,2.77-.39,4.16-.59,1.61-.23,2.49-2.27,2.1-3.69-.47-1.73-2.08-2.32-3.69-2.1Z" style="fill: #fff;"/>
          <path d="m833.63,931.73c5.11-3.22,10.22-6.43,15.33-9.65,7.93-4.99,15.86-9.98,23.79-14.98,1.55-.98,3.1-1.96,4.66-2.93,6.31-3.95,13.38-6.56,20.77-7.56,4.09-.55,8.19-1.04,12.29-1.56,8.78-1.11,17.55-2.23,26.33-3.34,10.08-1.28,20.17-2.56,30.25-3.84,8.01-1.02,16.03-2.04,24.04-3.05l6.53-.83c.45-.06.89-.12,1.34-.17.35-.04.69-.07,1.04-.05-.66-.04.72.28.12,0,.16.07.77.49.6.35-.26-.23.49.67.13.13.1.15.18.3.27.45.41.67-.1-.28.05.14.1.29.14.74.05.91-.04.07-.21.54,0,.07-.08.17-.18.35-.29.5.18-.27-.02,0-.11.11-.12.13-.25.26-.38.39l-2.33,2.39-8.89,9.11c-6.04,6.19-12.08,12.38-18.12,18.57-.37.37-.73.75-1.1,1.12-2.7,2.77,1.54,7.01,4.24,4.24,4.79-4.91,9.58-9.82,14.37-14.73,5.42-5.55,10.88-11.07,16.26-16.67,1.85-1.92,2.71-4.33,2.23-6.99-.67-3.7-4.27-6.45-8.02-6.09-1.03.1-2.06.26-3.09.39-6.71.85-13.42,1.7-20.13,2.56-9.96,1.26-19.91,2.53-29.87,3.79-9.69,1.23-19.39,2.46-29.08,3.69-5.8.74-11.6,1.47-17.41,2.21-3.65.46-7.27,1.05-10.81,2.09-5.44,1.61-10.53,4.07-15.31,7.08-6.86,4.32-13.71,8.63-20.57,12.95s-13.99,8.81-20.99,13.21c-.41.26-.81.51-1.22.77-3.26,2.05-.25,7.25,3.03,5.18h0Z" style="fill: #fff;"/>
          <path d="m1009.22,894.94c.43,2.23.86,4.46,1.29,6.69,1.11,5.77,2.23,11.54,3.34,17.31,1.54,7.98,3.08,15.95,4.61,23.93l5.05,26.19c1.57,8.14,3.14,16.28,4.71,24.42,1.19,6.18,2.38,12.36,3.57,18.54.55,2.84,1.1,5.68,1.64,8.53.92,4.81.39,9.86-1.49,14.38-1.24,2.98-3.13,5.51-5.22,7.92-4.76,5.49-9.52,10.99-14.28,16.48-4.56,5.26-9.12,10.52-13.67,15.78-.26.3-.52.6-.79.91-1.06,1.22-1.2,3.04,0,4.24,1.08,1.08,3.18,1.23,4.24,0,3.45-3.98,6.9-7.97,10.35-11.95,5.4-6.23,10.8-12.47,16.2-18.7,1.11-1.28,2.23-2.56,3.33-3.85,4.75-5.55,7.55-12.47,7.74-19.8.11-4.02-.82-7.96-1.57-11.88l-3.14-16.26c-1.5-7.77-3-15.54-4.5-23.31-1.69-8.79-3.39-17.57-5.08-26.36s-3.22-16.71-4.83-25.07c-1.25-6.49-2.5-12.98-3.75-19.47-.63-3.27-1.19-6.57-1.9-9.83-.03-.15-.06-.29-.08-.44-.31-1.59-2.22-2.5-3.69-2.1-1.66.46-2.4,2.09-2.1,3.69h0Z" style="fill: #fff;"/>
        </g>
        <g>
          <path d="m815.14,1383.14c3.12-3.97,6.23-7.94,9.35-11.92,7.03-8.96,14.06-17.92,21.09-26.89,7.54-9.61,15.08-19.22,22.62-28.84,4.65-5.93,9.31-11.86,13.96-17.79.3-.39.61-.78.91-1.16,2.26-2.84,5.09-4.77,8.54-5.62s6.44-.21,9.78.83c7.02,2.18,14.04,4.37,21.07,6.55,11.51,3.58,23.02,7.16,34.53,10.73s22.83,7.1,34.25,10.65c6.99,2.17,13.98,4.34,20.97,6.52,3.18.99,5.69,2.08,7.95,4.44,4.67,4.87,5.44,12.28,1.91,18.18-2.79,4.67-5.66,9.31-8.49,13.96-6.04,9.93-12.07,19.86-18.11,29.78s-12.54,20.62-18.8,30.93c-3.59,5.9-7.18,11.8-10.77,17.71-2.65,4.35-6.91,7.4-11.78,7.78-2.97.23-5.4-.47-8.2-1.4-6.64-2.22-13.29-4.44-19.93-6.66-11.09-3.7-22.17-7.41-33.26-11.11-11.82-3.95-23.64-7.9-35.46-11.85-8.97-3-17.94-6-26.91-8.99l-6.87-2.3c-3.38-1.13-5.94-2.49-8.24-5.46.26.33-.32-.46-.41-.61-.28-.41-.54-.84-.78-1.28-.22-.39-.41-.79-.6-1.2-.24-.51.24.64-.11-.24-.07-.18-.14-.37-.21-.56-.31-.89-.56-1.8-.73-2.73-.05-.24-.09-.49-.12-.73.02.14.04.51,0-.09-.03-.5-.07-.99-.08-1.49,0-.4,0-.8.03-1.2.01-.25.04-.5.06-.75.01-.13.11-.77.03-.25.15-.9.36-1.8.64-2.67.33-1.01.39-1.18.91-2.16s1.11-1.86,1.77-2.72c.99-1.28.2-3.36-1.08-4.1-1.55-.91-3.11-.21-4.1,1.08-5.31,6.89-5.62,16.87-.8,24.12,2.87,4.3,6.98,7.06,11.82,8.68,5.94,1.98,11.88,3.97,17.82,5.95,10.91,3.65,21.83,7.29,32.74,10.94,12.09,4.04,24.19,8.08,36.28,12.12,9.48,3.17,18.96,6.33,28.43,9.5,5.52,1.84,11.65,4.66,17.56,4.14,7.03-.62,12.99-4.5,16.64-10.5l3.57-5.87c5.3-8.71,10.59-17.42,15.89-26.13,6.61-10.88,13.23-21.76,19.84-32.64,4.86-8,9.72-15.99,14.59-23.99.81-1.34,1.64-2.67,2.44-4.01,4.53-7.58,3.81-17.13-1.64-24.03-2.91-3.68-6.9-5.86-11.29-7.23-2.46-.76-4.92-1.53-7.38-2.29-9.68-3.01-19.36-6.02-29.04-9.02-12.21-3.79-24.42-7.59-36.63-11.38-10.01-3.11-20.01-6.22-30.02-9.33-6.48-2.01-13.1-4.85-20-3.66-5.36.93-9.82,4.09-13.12,8.3-1.67,2.13-3.34,4.26-5.01,6.38-6.54,8.34-13.08,16.68-19.63,25.02-7.84,9.99-15.67,19.98-23.51,29.97-5.56,7.08-11.11,14.17-16.67,21.25-.81,1.03-1.62,2.06-2.43,3.09-1,1.27-1.24,3,0,4.24,1.04,1.04,3.24,1.28,4.24,0Z" style="fill: #fff;"/>
          <path d="m1021.61,1347.64c.1,6.04.2,12.07.3,18.11l.46,28.1c.03,1.84.07,3.67.09,5.51.1,7.44-1.33,14.89-4.35,21.7-1.72,3.87-3.45,7.73-5.17,11.6-3.62,8.13-7.24,16.25-10.86,24.38-4.13,9.28-8.27,18.56-12.4,27.84-3.26,7.32-6.53,14.65-9.79,21.97l-2.62,5.87c-.17.38-.33.77-.51,1.15-.01.02-.02.05-.03.07-.05.09-.02.06-.13.28-.07.13-.14.25-.22.38-.18.29.15-.3-.13.15-.21.34-.2.18,0,.04-.14.1-.29.18-.44.27-.41.26.31-.08-.35.1-.44.12.5,0,.05.01-.12,0-.26,0-.38.02-.48.06-.14.02.04.04-.21-.03-.41-.1-.61-.14-.42-.08.4.23.01.02-.15-.08-.3-.16-.44-.25-.28-.17.06.05.09.09-.13-.12-.25-.24-.37-.36.37.39-.2-.34-.27-.52.13.32.04.06,0-.12s-.09-.35-.14-.53l-.83-3.24-3.18-12.33c-2.16-8.38-4.32-16.75-6.48-25.13-.13-.51-.26-1.01-.39-1.52-.96-3.74-6.75-2.15-5.79,1.6,1.71,6.64,3.42,13.28,5.14,19.92,1.94,7.51,3.83,15.04,5.81,22.55.6,2.25,2,4.21,4.16,5.18,3.55,1.59,7.88.41,9.82-3.07.55-.97.94-2.06,1.39-3.07,2.72-6.1,5.44-12.21,8.16-18.31,4.07-9.15,8.15-18.29,12.22-27.44s7.98-17.91,11.97-26.87c2.42-5.42,4.83-10.85,7.25-16.27,1.43-3.22,2.77-6.47,3.7-9.88,1.56-5.66,2.13-11.49,2.03-17.35-.13-8.1-.27-16.2-.4-24.3s-.27-16.53-.41-24.8l-.02-1.44c-.06-3.86-6.06-3.87-6,0h0Z" style="fill: #fff;"/>
          <path d="m961.96,1516.79c-2.17-.8-4.33-1.61-6.5-2.41-5.57-2.06-11.13-4.13-16.7-6.19-7.67-2.84-15.35-5.69-23.02-8.53-8.38-3.1-16.75-6.21-25.13-9.31-7.81-2.89-15.62-5.79-23.43-8.68-5.84-2.16-11.68-4.33-17.52-6.49-2.58-.95-5.16-1.9-7.73-2.86-4.41-1.66-8.6-4.79-11.34-8.61-1.96-2.73-3.11-5.48-4.12-8.6-2.23-6.93-4.46-13.86-6.69-20.78s-4.29-13.33-6.44-20c-.12-.38-.25-.76-.37-1.14-.5-1.54-2.08-2.54-3.69-2.1-1.51.42-2.59,2.14-2.1,3.69,1.63,5.05,3.26,10.11,4.88,15.16,2.53,7.87,5.07,15.73,7.6,23.6.5,1.57,1,3.14,1.51,4.7,2.15,6.56,6.29,12.16,11.92,16.14,3.51,2.48,7.53,3.83,11.51,5.31,5.08,1.88,10.17,3.77,15.25,5.65,7.44,2.76,14.87,5.51,22.31,8.27l25.26,9.36c8.07,2.99,16.15,5.98,24.22,8.97,6.28,2.33,12.55,4.65,18.83,6.98,3.15,1.17,6.28,2.41,9.45,3.5.14.05.28.1.42.15,1.52.56,3.29-.63,3.69-2.1.46-1.68-.57-3.13-2.1-3.69h0Z" style="fill: #fff;"/>
        </g>
        <g>
          <path d="m584.59,1410.47c4.2-2.12,8.4-4.24,12.6-6.36,9.05-4.57,18.11-9.15,27.16-13.72,8.56-4.32,17.12-8.65,25.69-12.97,5.4-2.73,11.07-5.19,15.8-9.03,11.89-9.66,16.69-26.54,11.92-41.06-1.75-5.32-4.67-10.39-7.13-15.4-4.33-8.81-8.65-17.62-12.98-26.44s-8.83-17.99-13.24-26.98c-2.18-4.44-4.19-9.02-6.61-13.34-7.66-13.65-23.32-21-38.7-18.48-6.55,1.07-12.33,4.41-18.18,7.36-8.36,4.22-16.72,8.44-25.08,12.67-9.19,4.64-18.39,9.29-27.58,13.93-4.7,2.38-9.42,4.73-14.11,7.13-12.83,6.54-20.98,20.26-20.67,34.66.12,5.78,1.61,11.34,4.15,16.51.87,1.78,1.75,3.56,2.62,5.34,3.9,7.94,7.79,15.88,11.69,23.82,4.63,9.44,9.27,18.88,13.9,28.32,2.75,5.61,5.5,11.21,8.26,16.82,5.62,11.44,16.38,19.38,29.06,21.02,7.37.95,14.81-.47,21.44-3.78,1.45-.72,1.86-2.77,1.08-4.1-.86-1.48-2.65-1.8-4.1-1.08-1.62.81-2.94,1.34-4.74,1.9-.86.26-1.74.49-2.62.69-.44.1-.88.18-1.32.26-.22.04-.44.08-.66.11-.09.01-.51.08-.19.04-1.8.25-3.63.32-5.45.26-1.9-.06-3.06-.2-4.73-.53-6.78-1.35-12.62-4.64-17.26-9.73-3.87-4.24-6.29-10.05-8.9-15.37-4.06-8.27-8.12-16.53-12.17-24.8-4.48-9.12-8.96-18.25-13.44-27.37-2.44-4.97-4.88-9.93-7.32-14.91s-3.45-9.92-3.28-15.24c.06-1.89.2-3.16.52-4.8.33-1.73.8-3.43,1.38-5.09,1.03-2.91,2.76-6.15,4.86-8.85,1.84-2.37,4.66-5.02,7.25-6.75,1.27-.85,2.6-1.59,3.96-2.28,1.76-.89,3.53-1.78,5.29-2.67,7.76-3.92,15.52-7.84,23.28-11.76,9.22-4.66,18.45-9.32,27.67-13.98,5.67-2.86,11.34-5.73,17-8.59,3.32-1.68,7.27-3.04,10.69-3.45,1.75-.21,3.52-.28,5.28-.21,1.98.08,3.07.21,4.88.59,3.52.74,6.34,1.81,9.31,3.52,5.54,3.18,9.79,7.84,12.68,13.67.65,1.31,1.29,2.62,1.93,3.93,3.59,7.31,7.17,14.62,10.76,21.92,4.6,9.38,9.21,18.75,13.81,28.13,3.16,6.43,6.31,12.86,9.47,19.29,1.15,2.35,2.09,4.33,2.83,6.85,1.95,6.72,1.68,13.58-.75,20.24-.97,2.68-2.92,6.2-4.68,8.46-2.19,2.8-4.79,5.19-7.6,7.02-1.82,1.19-3.76,2.13-5.69,3.11-6.65,3.36-13.31,6.72-19.96,10.08-9.33,4.71-18.66,9.42-27.99,14.14-6.99,3.53-13.97,7.06-20.96,10.58-1.05.53-2.09,1.06-3.14,1.58-1.45.73-1.86,2.77-1.08,4.1.86,1.47,2.65,1.81,4.1,1.08Z" style="fill: #fff;"/>
          <path d="m586.99,1220.63c-5.38.23-10.76.47-16.14.7-8.09.35-16.19.71-24.28,1.06-2.12.09-4.26.14-6.37.34-6.59.64-12.9,2.52-18.77,5.59-3.43,1.79-6.85,3.59-10.28,5.39-7.02,3.68-14.04,7.36-21.06,11.04-7.86,4.12-15.73,8.25-23.59,12.37-5.96,3.13-11.92,6.25-17.88,9.38l-4.24,2.22c-3.57,1.87-5.17,6.06-3.23,9.74,1.54,2.93,4.4,3.4,7.27,3.97,3.54.7,7.09,1.4,10.63,2.1,7.46,1.47,14.92,2.95,22.38,4.42.46.09.93.18,1.39.27,1.59.31,3.24-.45,3.69-2.1.41-1.47-.5-3.37-2.1-3.69-5.62-1.11-11.24-2.22-16.87-3.33-6.63-1.31-13.26-2.59-19.88-3.93-.13-.03-.27-.05-.4-.08,0,0-.76-.24-.45-.1.33.14-.54-.41-.24-.15.26.22-.44-.72-.07-.09-.04-.06-.19-.25-.18-.32.03-.33.11.37.03.03-.03-.12-.07-.24-.09-.36,0,.04.02.53.03.18,0-.31.13-.85-.01-.31.07-.25.28-.65.04-.22.09-.15.16-.3.26-.44-.23.32-.12.05.05.01-.41.11.17-.1.39-.22,1-.55,2.02-1.06,3.03-1.59,5.34-2.8,10.67-5.6,16.01-8.4,7.6-3.98,15.19-7.97,22.79-11.95s14.51-7.61,21.77-11.42c4.31-2.26,8.62-4.52,12.92-6.78,6.41-3.36,13.14-5.16,20.37-5.48s14.02-.61,21.03-.92,13.91-.61,20.87-.91c.39-.02.79-.03,1.18-.05,1.62-.07,3-1.33,3-3,0-1.57-1.37-3.07-3-3h0Z" style="fill: #fff;"/>
          <path d="m440.09,1289.04c2.87,6.65,5.74,13.3,8.61,19.94,5.9,13.66,11.8,27.33,17.7,40.99,4.97,11.52,9.95,23.04,14.92,34.56.9,2.09,1.8,4.19,2.71,6.28,2.12,4.84,5.7,8.96,10.13,11.83,2.73,1.77,5.76,2.88,8.88,3.69,11.91,3.1,23.81,6.21,35.72,9.31.34.09.67.18,1.01.26,3.74.97,5.33-4.81,1.6-5.79-11.28-2.94-22.57-5.88-33.85-8.82-1.35-.35-2.71-.7-4.06-1.06-4.89-1.31-9.3-4.32-12.12-8.54-1.68-2.51-2.76-5.38-3.95-8.14-4.63-10.72-9.26-21.44-13.89-32.16-5.96-13.8-11.92-27.61-17.88-41.41-2.26-5.24-4.53-10.48-6.79-15.73-1.13-2.63-2.18-5.32-3.41-7.9-.06-.12-.1-.24-.15-.36-.64-1.49-2.83-1.82-4.1-1.08-1.54.9-1.72,2.61-1.08,4.1h0Z" style="fill: #fff;"/>
        </g>
      </g>
    </g>
  </g>
</svg>