<?xml version="1.0" encoding="UTF-8"?>
<svg id="Capa_2" data-name="Capa 2" xmlns="http://www.w3.org/2000/svg" xmlns:xlink="http://www.w3.org/1999/xlink" viewBox="0 0 1716.55 1769.12">
  <defs>
    <linearGradient id="Degradado_sin_nombre_372" data-name="Degradado sin nombre 372" x1="8044.96" y1="6795.52" x2="9547.24" y2="6795.52" gradientTransform="translate(2022.09 -10172.63) rotate(58.32)" gradientUnits="userSpaceOnUse">
      <stop offset="0" stop-color="#f9e866"/>
      <stop offset=".06" stop-color="#f9df57"/>
      <stop offset=".23" stop-color="#fbcd37"/>
      <stop offset=".4" stop-color="#fdbf1f"/>
      <stop offset=".58" stop-color="#feb50d"/>
      <stop offset=".77" stop-color="#feaf03"/>
      <stop offset="1" stop-color="#ffae00"/>
    </linearGradient>
    <linearGradient id="Degradado_sin_nombre_691" data-name="Degradado sin nombre 691" x1="9297.13" y1="6195.16" x2="9406.16" y2="6195.16" gradientTransform="translate(2022.09 -10172.63) rotate(58.32)" gradientUnits="userSpaceOnUse">
      <stop offset="0" stop-color="#ffae00"/>
      <stop offset="1" stop-color="#f9e866"/>
    </linearGradient>
    <linearGradient id="Degradado_sin_nombre_691-2" data-name="Degradado sin nombre 691" x1="8084.56" y1="6423.87" x2="8193.59" y2="6423.87" xlink:href="#Degradado_sin_nombre_691"/>
    <linearGradient id="Degradado_sin_nombre_691-3" data-name="Degradado sin nombre 691" x1="8250.68" y1="6009.09" x2="8311.48" y2="6009.09" xlink:href="#Degradado_sin_nombre_691"/>
    <linearGradient id="Degradado_sin_nombre_691-4" data-name="Degradado sin nombre 691" x1="8901.4" y1="6019.73" x2="8962.19" y2="6019.73" xlink:href="#Degradado_sin_nombre_691"/>
    <linearGradient id="Degradado_sin_nombre_691-5" data-name="Degradado sin nombre 691" x1="8673.88" y1="7682.6" x2="8734.67" y2="7682.6" xlink:href="#Degradado_sin_nombre_691"/>
    <linearGradient id="Degradado_sin_nombre_691-6" data-name="Degradado sin nombre 691" x1="9127.6" y1="6132.55" x2="9236.63" y2="6132.55" xlink:href="#Degradado_sin_nombre_691"/>
    <linearGradient id="Degradado_sin_nombre_691-7" data-name="Degradado sin nombre 691" x1="5480.43" y1="5483.2" x2="5647.86" y2="5483.2" gradientTransform="translate(-82.55 -6098.71) rotate(41.6)" xlink:href="#Degradado_sin_nombre_691"/>
    <linearGradient id="Degradado_sin_nombre_691-8" data-name="Degradado sin nombre 691" x1="1209.74" y1="1594.05" x2="1377.17" y2="1594.05" gradientTransform="translate(-122.43 -47.57) rotate(8.69)" xlink:href="#Degradado_sin_nombre_691"/>
    <linearGradient id="Degradado_sin_nombre_691-9" data-name="Degradado sin nombre 691" x1="1159.02" y1="1508.95" x2="1326.44" y2="1508.95" gradientTransform="translate(-122.43 -47.57) rotate(8.69)" xlink:href="#Degradado_sin_nombre_691"/>
    <linearGradient id="Degradado_sin_nombre_691-10" data-name="Degradado sin nombre 691" x1="315.14" y1="-7661.7" x2="482.56" y2="-7661.7" gradientTransform="translate(6540.65 7125.6) rotate(-44.62)" xlink:href="#Degradado_sin_nombre_691"/>
    <linearGradient id="Degradado_sin_nombre_691-11" data-name="Degradado sin nombre 691" x1="10147.68" y1="4425.65" x2="10315.11" y2="4425.65" gradientTransform="translate(2345.35 -10679.14) rotate(77.72)" xlink:href="#Degradado_sin_nombre_691"/>
    <linearGradient id="Degradado_sin_nombre_691-12" data-name="Degradado sin nombre 691" x1="10198.72" y1="4492.21" x2="10295.49" y2="4492.21" gradientTransform="translate(2345.35 -10679.14) rotate(77.72)" xlink:href="#Degradado_sin_nombre_691"/>
    <linearGradient id="Degradado_sin_nombre_370" data-name="Degradado sin nombre 370" x1="5552.22" y1="5539.1" x2="5612.31" y2="5539.1" gradientTransform="translate(-82.55 -6098.71) rotate(41.6)" gradientUnits="userSpaceOnUse">
      <stop offset="0" stop-color="#f9e866"/>
      <stop offset="1" stop-color="#ffae00"/>
    </linearGradient>
  </defs>
  <g id="fondo_5">
    <g>
      <path d="m439.66,263.17c4.12-3.83,95.08-86.69,205.13-71.72,71.17,9.68,79.84,48.71,150.92,58.72,71.46,10.07,107.87-23.02,175.3-43.01,145.02-42.98,357.54-7.43,438.44,125.77,43.14,71.02,57.57,153.34,61.3,187.71,3.38,31.13,9.1,83.71-5.71,148.6-18.44,80.79-51.69,106.14-41.43,158.85,6.74,34.63,24.24,39.81,56.27,86.15,16.44,23.77,106.63,154.22,66.61,261.08-17.15,45.81-53.95,74.98-78.94,95.2-54.25,43.87-82.72,36.09-117.24,75.28-38.83,44.07-21.04,74.61-49.82,123.32-49.7,84.12-166.76,101.8-193.42,105.84-129.88,19.71-219.34-46.56-284.49-6.37-6.62,4.08-33.72,22.06-74.73,42.75-7.67,3.87-27.34,13.82-44.51,20.73-12.84,5.17-68.46,26.45-127.16,22.56-105.25-6.96-174.65-92.03-197.68-119.49-132.7-158.18-22.2-261.69-139.08-485.11-66.6-127.3-152.82-189.8-154.13-330.51-.19-20.29-.21-59.16,16.14-104.36,4.54-12.56,23.44-60.75,72.43-107.19,67.6-64.09,104.17-40.95,165.89-94.56,64.34-55.88,36.89-91.7,99.9-150.22Z" style="fill: url(#Degradado_sin_nombre_372);"/>
      <circle cx="1662.03" cy="1039.14" r="54.5" style="fill: url(#Degradado_sin_nombre_691);"/>
      <circle cx="830.53" cy="127.41" r="54.5" style="fill: url(#Degradado_sin_nombre_691-2);"/>
      <circle cx="1258.08" cy="30.4" r="30.39" style="fill: url(#Degradado_sin_nombre_691-3);"/>
      <circle cx="1590.8" cy="589.72" r="30.39" style="fill: url(#Degradado_sin_nombre_691-4);"/>
      <circle cx="56.26" cy="1269.5" r="30.39" style="fill: url(#Degradado_sin_nombre_691-5);"/>
      <circle cx="1626.27" cy="861.99" r="54.5" style="fill: url(#Degradado_sin_nombre_691-6);"/>
      <path d="m394.87,1696.78c-10.98-3.51-33.55-9.69-37.41-24.73-.83-3.23-.43-6.32.25-9.26,2.23-9.73,25.13-26.83,61.7-12.89,42.36,16.14,70.46,36.4,82.24,50.31,11.87,14.02,14.78,23.04,13.15,30.86-1.42,6.86-6.52,13.7-13.03,17.05-23.28,11.97-44.22-31.29-106.9-51.34Z" style="fill: url(#Degradado_sin_nombre_691-7);"/>
      <path d="m879.37,1748.1c-11.13,3.02-33.43,10.09-44.84-.44-2.45-2.26-3.79-5.08-4.82-7.91-3.41-9.38,6.52-36.18,44.8-44.34,44.33-9.46,78.93-7.72,96.38-2.44,17.58,5.32,24.92,11.31,27.81,18.76,2.53,6.53,1.97,15.05-1.68,21.39-13.04,22.7-54.13-2.25-117.64,14.97Z" style="fill: url(#Degradado_sin_nombre_691-8);"/>
      <path d="m842.08,1656.31c-11.13,3.02-33.43,10.09-44.84-.44-2.45-2.26-3.79-5.08-4.82-7.91-3.41-9.38,6.52-36.18,44.8-44.34,44.33-9.46,78.93-7.72,96.38-2.44,17.58,5.32,24.92,11.31,27.81,18.76,2.53,6.53,1.97,15.05-1.68,21.39-13.04,22.7-54.13-2.25-117.64,14.97Z" style="fill: url(#Degradado_sin_nombre_691-9);"/>
      <path d="m1441.3,1435.37c-4.23,10.73-11.88,32.83-27.14,35.69-3.28.62-6.34,0-9.22-.86-9.56-2.87-25.11-26.84-8.79-62.42,18.9-41.2,40.98-67.9,55.63-78.74,14.77-10.92,23.96-13.23,31.66-11.09,6.75,1.87,13.24,7.41,16.15,14.13,10.41,24.02-34.15,42.06-58.29,103.28Z" style="fill: url(#Degradado_sin_nombre_691-10);"/>
      <path d="m160.44,234.42c-6.8-9.31-21.38-27.6-15.64-42.03,1.24-3.1,3.38-5.36,5.66-7.33,7.54-6.54,36.11-6.85,57.44,25.97,24.69,38.01,35.44,70.95,36.76,89.12,1.32,18.32-1.65,27.32-7.57,32.68-5.19,4.7-13.35,7.22-20.58,6.09-25.86-4.05-17.27-51.35-56.07-104.5Z" style="fill: url(#Degradado_sin_nombre_691-11);"/>
      <path d="m113.86,274.41c-3.93-5.38-12.36-15.96-9.04-24.29.71-1.79,1.96-3.1,3.27-4.24,4.36-3.78,20.87-3.96,33.2,15.01,14.27,21.97,20.49,41.01,21.25,51.51.77,10.59-.95,15.79-4.38,18.89-3,2.72-7.72,4.17-11.89,3.52-14.95-2.34-9.98-29.68-32.41-60.4Z" style="fill: url(#Degradado_sin_nombre_691-12);"/>
      <path d="m399.26,1749.95c-3.94-1.26-12.04-3.48-13.43-8.87-.3-1.16-.15-2.27.09-3.32.8-3.49,9.02-9.63,22.14-4.63,15.2,5.79,25.29,13.07,29.51,18.06,4.26,5.03,5.3,8.27,4.72,11.07-.51,2.46-2.34,4.92-4.68,6.12-8.35,4.3-15.87-11.23-38.37-18.43Z" style="fill: url(#Degradado_sin_nombre_370);"/>
    </g>
    <g id="Capa_23" data-name="Capa 23">
      <g>
        <polygon points="779.04 634.46 791.26 399.26 935.6 378.63 956.56 207.47 1124.42 233.05 1155.35 136.23 1352.38 198.93 1307.85 331.99 1412.72 382.66 1473.78 303.43 1616.28 409.19 1455.03 653.67 1528.87 699.08 1426.98 863.93 779.04 634.46" style="fill: #ffdb01;"/>
        <path d="m711.04,752.58l22.27-98.07s13.38-27.4,73.59-24.47c60.21,2.93,390.71,53.42,606.63,222.15,0,0,53.92,22.73,26,82.63-27.92,59.9-257.58,479.98-257.58,479.98,0,0-36.46,42.3-110.83,30.78-74.37-11.52-345.97-124.28-345.97-124.28l-14.1-568.72Z" style="fill: #be1c2f;"/>
        <g>
          <path d="m976.7,1253.92l-155.98-90.14,54.86-106.13,202.11,79.45c9.41,3.7,19.71,4.42,29.55,2.11,38.32-9.01,139.75-27.43,156.31,25.33,20.5,65.29-19.99,113.9-79.39,118.73,0,0,30.64,113.7-77.63,116.44-79.67,2.02-100.21-70.84-105.5-109.47-2.08-15.22-11.03-28.63-24.33-36.32Z" style="fill: #fffbdc;"/>
          <path d="m161.03,775.1s-52.11,160.27,61.53,292.01c113.63,131.74,462.05,205.73,617.04,157.91,154.98-47.82,71.47-90.3,71.47-90.3,0,0,43.42.3,36.82-38.16-6.61-38.46-42.43-33.47-42.43-33.47,0,0-30.22-300.52-310.69-393.25-280.46-92.73-408.8,33.84-433.73,105.25Z" style="fill: #ef9900;"/>
        </g>
        <ellipse cx="870.29" cy="441.55" rx="12.77" ry="6.11" transform="translate(246.99 1192.47) rotate(-77.21)" style="fill: #fff;"/>
        <ellipse cx="1221.02" cy="232.51" rx="12.77" ry="6.11" transform="translate(723.92 1371.74) rotate(-77.21)" style="fill: #fff;"/>
        <ellipse cx="1026.35" cy="475.8" rx="12.77" ry="6.11" transform="translate(335.11 1371.32) rotate(-77.21)" style="fill: #fff;"/>
        <ellipse cx="1320.31" cy="424.7" rx="12.77" ry="6.11" transform="translate(613.8 1618.2) rotate(-77.21)" style="fill: #fff;"/>
        <ellipse cx="1308.12" cy="725.39" rx="12.77" ry="6.11" transform="translate(311.09 1840.43) rotate(-77.21)" style="fill: #fff;"/>
        <ellipse cx="1505.92" cy="709.29" rx="12.77" ry="6.11" transform="translate(480.79 2020.79) rotate(-77.21)" style="fill: #fff;"/>
        <ellipse cx="1505.55" cy="431.16" rx="12.77" ry="6.11" transform="translate(751.74 1803.87) rotate(-77.21)" style="fill: #fff;"/>
        <ellipse cx="1509.88" cy="520.36" rx="12.77" ry="6.11" transform="translate(668.12 1877.55) rotate(-77.21)" style="fill: #fff;"/>
        <ellipse cx="1281.91" cy="246.34" rx="12.77" ry="6.11" transform="translate(757.85 1441.88) rotate(-77.21)" style="fill: #fff;"/>
        <ellipse cx="805.4" cy="417.02" rx="12.77" ry="6.11" transform="translate(220.4 1110.09) rotate(-77.21)" style="fill: #fff;"/>
        <ellipse cx="825.78" cy="471.11" rx="12.77" ry="6.11" transform="translate(183.52 1172.08) rotate(-77.21)" style="fill: #fff;"/>
        <ellipse cx="821.82" cy="524.29" rx="6.11" ry="12.77" transform="translate(-143.94 391.7) rotate(-24.72)" style="fill: #fff;"/>
        <ellipse cx="1155.25" cy="316.09" rx="6.11" ry="12.77" transform="translate(-26.32 512.05) rotate(-24.72)" style="fill: #fff;"/>
        <ellipse cx="1193.16" cy="188.01" rx="12.77" ry="6.11" transform="translate(155 805.44) rotate(-39.7)" style="fill: #fff;"/>
        <ellipse cx="1225.11" cy="416.19" rx="12.77" ry="6.11" transform="translate(16.63 878.45) rotate(-39.7)" style="fill: #fff;"/>
        <ellipse cx="1571.88" cy="418.8" rx="12.77" ry="6.11" transform="translate(94.91 1100.54) rotate(-39.7)" style="fill: #fff;"/>
        <ellipse cx="1475.03" cy="404.02" rx="12.77" ry="6.11" transform="translate(82.03 1035.27) rotate(-39.7)" style="fill: #fff;"/>
        <ellipse cx="1270.59" cy="581.67" rx="12.77" ry="6.11" transform="translate(-78.58 945.65) rotate(-39.7)" style="fill: #fff;"/>
        <ellipse cx="1470.86" cy="692.24" rx="12.77" ry="6.11" transform="translate(-103.03 1099.06) rotate(-39.7)" style="fill: #fff;"/>
        <ellipse cx="910.68" cy="412.42" rx="6.11" ry="12.77" transform="translate(-89.01 418.61) rotate(-24.72)" style="fill: #fff;"/>
        <ellipse cx="978.95" cy="246.51" rx="6.11" ry="12.77" transform="translate(-13.38 431.95) rotate(-24.72)" style="fill: #fff;"/>
        <ellipse cx="1069.8" cy="312.01" rx="6.11" ry="12.77" transform="translate(-32.44 475.95) rotate(-24.72)" style="fill: #fff;"/>
        <ellipse cx="1375.37" cy="401.6" rx="6.11" ry="12.77" transform="translate(-41.91 611.93) rotate(-24.72)" style="fill: #fff;"/>
        <ellipse cx="1490.98" cy="362.76" rx="6.11" ry="12.77" transform="translate(-15.08 656.72) rotate(-24.72)" style="fill: #fff;"/>
        <ellipse cx="1422.01" cy="609.48" rx="6.11" ry="12.77" transform="translate(-124.56 650.48) rotate(-24.72)" style="fill: #fff;"/>
        <ellipse cx="1466.12" cy="740.7" rx="6.11" ry="12.77" transform="translate(-175.39 680.95) rotate(-24.72)" style="fill: #fff;"/>
        <path d="m729.19,1372.81l-129.63-118.45,76.37-91.87,177.91,119.36c9.89,6.63,21.54,10.1,33.45,10,41.11-.36,139.87,4.42,144.62,58.33,6.01,68.17-43.98,106.95-103.03,98.92,0,0,5.52,117.63-100.82,97.07-75.81-14.66-82.32-86.05-79.81-125.83,1.13-17.93-5.81-35.4-19.06-47.52Z" style="fill: #fffbdc;"/>
        <path d="m38.69,733.13s-85.3,145.35-2.59,298.41c82.7,153.06,407.12,300.12,568.75,286.69s89.19-72.85,89.19-72.85c0,0,42.35,9.62,44.15-29.36,1.8-38.98-34.26-41.8-34.26-41.8,0,0,34.99-300-219.02-450.78-254.02-150.78-406.53-54.71-446.22,9.69Z" style="fill: #ffad0d;"/>
        <path d="m1179.41,1280.97s-77.58-9.63-66.14-30.71c11.44-21.08,66.14,30.71,66.14,30.71Z" style="fill: none; stroke: #fee420; stroke-miterlimit: 10; stroke-width: 3.29px;"/>
        <path d="m925.66,1446.75s-69.12-10.5-53.9-34.13c15.22-23.63,53.9,34.13,53.9,34.13Z" style="fill: none; stroke: #fee420; stroke-miterlimit: 10; stroke-width: 3.29px;"/>
        <path d="m690.05,1244.31s-78,10.7-64.92-14.74,64.92,14.74,64.92,14.74Z" style="fill: none; stroke: #fee420; stroke-miterlimit: 10; stroke-width: 3.29px;"/>
        <path d="m907.29,1133.81s-69.33,11.07-57.29-13.01c12.03-24.08,57.29,13.01,57.29,13.01Z" style="fill: none; stroke: #fee420; stroke-miterlimit: 10; stroke-width: 3.29px;"/>
        <path d="m935.6,378.63c-.05,75.83-4.59,151.65-13.7,226.93.01-75.83,4.62-151.64,13.7-226.93h0Z" style="fill: #ffb00a;"/>
        <path d="m1455.03,653.67c-27.37,51.58-58.71,101.03-93.75,147.74,27.34-51.59,58.74-101.01,93.75-147.74h0Z" style="fill: #ffb00a;"/>
        <path d="m1124.42,233.05c-13.82,114.44-32.29,229.75-55.02,342.76,13.78-114.45,32.32-229.74,55.02-342.76h0Z" style="fill: #ffb00a;"/>
        <path d="m1412.72,382.66c-33.59,70.66-71.24,139.38-112.79,205.67,33.56-70.68,71.27-139.36,112.79-205.67h0Z" style="fill: #ffb00a;"/>
        <path d="m1307.85,331.99c-47.42,127.85-99.66,255.71-155.44,380.14,47.39-127.87,99.7-255.69,155.44-380.14h0Z" style="fill: #ffb00a;"/>
      </g>
    </g>
  </g>
</svg>