<?xml version="1.0" encoding="UTF-8"?>
<svg id="Capa_2" data-name="Capa 2" xmlns="http://www.w3.org/2000/svg" xmlns:xlink="http://www.w3.org/1999/xlink" viewBox="0 0 1718.22 1871.07">
  <defs>
    <linearGradient id="Degradado_sin_nombre_54" data-name="Degradado sin nombre 54" x1="1741.77" y1="5287.55" x2="3320.83" y2="5287.55" gradientTransform="translate(533.02 -4854.33) rotate(22.33)" gradientUnits="userSpaceOnUse">
      <stop offset="0" stop-color="#e84e1b"/>
      <stop offset=".15" stop-color="#db4924"/>
      <stop offset=".43" stop-color="#ba3f3f"/>
      <stop offset=".81" stop-color="#842d69"/>
      <stop offset="1" stop-color="#662482"/>
    </linearGradient>
    <linearGradient id="Degradado_sin_nombre_54-2" data-name="Degradado sin nombre 54" x1="796.59" y1="57.3" x2="911.19" y2="57.3" gradientTransform="matrix(1,0,0,1,0,0)" xlink:href="#Degradado_sin_nombre_54"/>
    <linearGradient id="Degradado_sin_nombre_54-3" data-name="Degradado sin nombre 54" x1="235.26" y1="265.28" x2="299.16" y2="265.28" gradientTransform="matrix(1,0,0,1,0,0)" xlink:href="#Degradado_sin_nombre_54"/>
    <linearGradient id="Degradado_sin_nombre_54-4" data-name="Degradado sin nombre 54" x1="1514.64" y1="513.88" x2="1629.25" y2="513.88" gradientTransform="matrix(1,0,0,1,0,0)" xlink:href="#Degradado_sin_nombre_54"/>
    <linearGradient id="Degradado_sin_nombre_54-5" data-name="Degradado sin nombre 54" x1="1654.37" y1="1078.12" x2="1718.22" y2="1078.12" gradientTransform="matrix(1,0,0,1,0,0)" xlink:href="#Degradado_sin_nombre_54"/>
    <linearGradient id="Degradado_sin_nombre_54-6" data-name="Degradado sin nombre 54" x1="3727.54" y1="6427.31" x2="3903.53" y2="6427.31" gradientTransform="translate(1244.3 -5822.78) rotate(36.94)" xlink:href="#Degradado_sin_nombre_54"/>
    <linearGradient id="Degradado_sin_nombre_54-7" data-name="Degradado sin nombre 54" x1="17343.03" y1="7332.22" x2="17519.01" y2="7332.22" gradientTransform="translate(13437.06 -12676.33) rotate(112.31)" xlink:href="#Degradado_sin_nombre_54"/>
    <linearGradient id="Degradado_sin_nombre_54-8" data-name="Degradado sin nombre 54" x1="-41" y1="-4606.33" x2="60.72" y2="-4606.33" gradientTransform="translate(3081.78 6130.93) rotate(-21.23)" xlink:href="#Degradado_sin_nombre_54"/>
    <linearGradient id="Degradado_sin_nombre_54-9" data-name="Degradado sin nombre 54" x1="3812.34" y1="6564.82" x2="3875.5" y2="6564.82" gradientTransform="translate(1244.3 -5822.78) rotate(36.94)" xlink:href="#Degradado_sin_nombre_54"/>
    <clipPath id="clippath">
      <path d="m435.63,985.11l-83-97.11s76-63,69-134.5c-4.17-42.6-32.68-77.5-73-77.5-26.98,0-50.53,15.55-63.16,38.66-2.05-34.46-25.81-61.66-54.84-61.66s-54.85,29.61-54.99,66.19c-1.49-.12-2.99-.19-4.51-.19-38.94,0-70.5,40.29-70.5,90,0,32.38,13.4,60.76,33.5,76.62-9.13,15.47-14.5,34.42-14.5,54.88,0,52.19,34.92,94.5,78,94.5,13.26,0,25.74-4.01,36.67-11.08,16.05,17.86,37.9,27.37,59.97,23.6,30.09-5.13,51.58-33.4,55.35-68.36l62.46,36.62,23.56-30.68Z" style="fill: #00d44f;"/>
    </clipPath>
    <clipPath id="clippath-1">
      <path d="m1608.3,631.34c2.99-52.97-40.17-98.49-96.41-101.67-.42-.02-.83-.04-1.25-.06-5.03-43.28-48.56-77.11-101.51-77.11s-97.85,34.9-101.72,79.17c-16.15-18.03-38.32-29.17-62.78-29.17-49.43,0-96.5,57.94-96.5,114,0,2.65.11,5.25.31,7.8-5.76,1.08-11.12,3.2-15.83,6.15-16.18-49.1-50.47-81.79-77.65-73.44-24.19,7.43-34.78,44.9-26.85,88.09-29.1-4.17-54.12,3.12-64.81,21.65-10.17,17.61-5.08,41.34,11.03,63.5-19.14,3.2-35,12.53-43.75,27.68-19.51,33.79,3.6,83.65,51.61,111.37,16.9,9.76,34.63,15.45,51.37,17.29,46.27,42,154,130.77,266.59,159.92,7.99,29.03,37.98,51.67,74.98,53.76,19.26,1.09,37.26-3.58,51.69-12.23,9.76,11.48,23.9,19.08,39.99,19.99,31.26,1.77,58.09-22.36,60.27-54.02,1.11.12,2.22.21,3.35.28,34.06,1.93,63.13-22.47,64.94-54.49,1.25-22.1-10.82-42.05-29.62-52.93,22.95-16.88,38.29-42.66,39.96-72.26,2.76-48.77-32.5-91.42-81.45-102.33,3.64-6.46,5.89-13.76,6.33-21.56.62-10.98-2.42-21.38-8.1-30.14,46.52-6.64,83.2-43.17,85.8-89.25Z" style="fill: #00977b;"/>
    </clipPath>
  </defs>
  <g id="cartazanahoria">
    <g>
      <path d="m126.83,731.61c1.14-5.8,27.32-132.45,130.16-187.7,66.51-35.73,97.99-7.89,164.62-43.28,67-35.58,77.52-86.2,122.53-144.86,96.79-126.13,299.49-227.16,450.57-163.84,80.55,33.76,143.67,94.86,168.07,121.78,22.11,24.39,59.44,65.58,86.93,129.91,34.22,80.1,21.6,122.2,62.88,160.69,27.12,25.29,45.2,18.89,101.07,38.51,28.67,10.07,185.94,65.3,217.91,180.9,13.7,49.55.43,97.1-8.34,129.72-19.04,70.82-48.06,81.79-53.21,136.44-5.8,61.47,28.19,76.45,33.8,135.65,9.69,102.25-78.95,189.58-99.13,209.49-98.29,96.98-215.31,95.88-245.88,170.3-3.11,7.56-15.05,39.59-37.15,82.52-4.13,8.03-14.72,28.64-25.05,45.12-7.73,12.33-41.89,64.78-94.21,97.73-93.81,59.09-205.38,29.6-241.93,20.48-210.56-52.57-180.52-208.85-417.93-326.68-135.27-67.13-247.2-67.03-335.23-185.9-12.69-17.14-36.72-50.19-50.73-98.73-3.9-13.49-17.59-66.14-4.61-135.9,17.91-96.26,63.3-99.17,82.68-182.89,20.2-87.27-25.27-100.78-7.82-189.47Z" style="fill: url(#Degradado_sin_nombre_54);"/>
      <circle cx="853.89" cy="57.3" r="57.29" style="fill: url(#Degradado_sin_nombre_54-2);"/>
      <circle cx="267.21" cy="265.28" r="31.94" style="fill: url(#Degradado_sin_nombre_54-3);"/>
      <circle cx="1571.95" cy="513.88" r="57.29" style="fill: url(#Degradado_sin_nombre_54-4);"/>
      <circle cx="1686.3" cy="1078.12" r="31.92" style="fill: url(#Degradado_sin_nombre_54-5);"/>
      <path d="m385.06,1612.12c-11.8-2.74-35.97-7.29-41.3-22.72-1.15-3.32-.98-6.59-.53-9.72,1.51-10.38,24.04-30.25,63.54-18.76,45.75,13.3,76.92,32.13,90.44,45.7,13.63,13.67,17.45,22.88,16.41,31.21-.91,7.31-5.67,14.91-12.2,18.97-23.37,14.53-49-29.02-116.37-44.68Z" style="fill: url(#Degradado_sin_nombre_54-6);"/>
      <path d="m19.92,623.01c-.33-12.12-2.03-36.64,11.55-45.7,2.92-1.95,6.12-2.62,9.27-2.97,10.42-1.16,35.34,15.62,34.21,56.74-1.31,47.63-11.66,82.54-21.37,99.06-9.79,16.64-17.73,22.66-26.05,23.76-7.3.97-15.86-1.72-21.44-7.01-19.96-18.94,15.7-54.74,13.83-123.88Z" style="fill: url(#Degradado_sin_nombre_54-7);"/>
      <path d="m1411.5,1857.44c-4.95,4.96-14.54,15.44-23.74,13.36-1.98-.45-3.53-1.52-4.94-2.7-4.64-3.9-7.53-21.03,10.15-36.92,20.48-18.41,39.23-27.98,50.01-30.49,10.87-2.53,16.55-1.6,20.33,1.45,3.31,2.67,5.6,7.33,5.6,11.77.01,15.9-29.18,15.22-57.41,43.53Z" style="fill: url(#Degradado_sin_nombre_54-8);"/>
      <path d="m354.32,1736c-4.24-.98-12.91-2.62-14.82-8.15-.41-1.19-.35-2.36-.19-3.49.54-3.73,8.63-10.86,22.8-6.73,16.42,4.77,27.6,11.53,32.46,16.4,4.89,4.91,6.26,8.21,5.89,11.2-.33,2.62-2.03,5.35-4.38,6.81-8.39,5.21-17.58-10.41-41.76-16.03Z" style="fill: url(#Degradado_sin_nombre_54-9);"/>
    </g>
    <g id="_1_zanahoria_brocoli" data-name="1 zanahoria brocoli">
      <g>
        <circle cx="690.13" cy="850.5" r="269" style="fill: #ffaf00;"/>
        <ellipse cx="705.63" cy="847.25" rx="225.5" ry="236.75" style="fill: none; stroke: #fff; stroke-miterlimit: 10; stroke-width: 18px;"/>
        <line x1="601.88" y1="636.99" x2="816.67" y2="1053.35" style="fill: none; stroke: #fff; stroke-miterlimit: 10; stroke-width: 18px;"/>
        <line x1="502.01" y1="949.11" x2="906.62" y2="739.81" style="fill: none; stroke: #fff; stroke-miterlimit: 10; stroke-width: 18px;"/>
        <line x1="785.82" y1="627.95" x2="629.6" y2="1069.63" style="fill: none; stroke: #fff; stroke-miterlimit: 10; stroke-width: 18px;"/>
        <line x1="490.02" y1="768.97" x2="919.66" y2="920.39" style="fill: none; stroke: #fff; stroke-miterlimit: 10; stroke-width: 18px;"/>
        <path d="m670.07,681.29c.48,4.24-2.71,13.39-5.22,19.76-1.19,3.03-5.29,3.5-7.13.81-3.87-5.65-9.03-13.85-9.51-18.09-.78-6.86,3.48-12.98,9.52-13.66s11.56,4.32,12.34,11.18Z" style="fill: #fff;"/>
        <path d="m783.01,845.59c-4.57.49-14.39-3.01-21.23-5.76-3.26-1.31-3.73-5.72-.82-7.68,6.11-4.12,14.97-9.62,19.54-10.1,7.39-.79,13.94,3.84,14.63,10.35.69,6.5-4.73,12.41-12.12,13.2Z" style="fill: #fff;"/>
      </g>
      <g>
        <path d="m435.63,985.11l-83-97.11s76-63,69-134.5c-4.17-42.6-32.68-77.5-73-77.5-26.98,0-50.53,15.55-63.16,38.66-2.05-34.46-25.81-61.66-54.84-61.66s-54.85,29.61-54.99,66.19c-1.49-.12-2.99-.19-4.51-.19-38.94,0-70.5,40.29-70.5,90,0,32.38,13.4,60.76,33.5,76.62-9.13,15.47-14.5,34.42-14.5,54.88,0,52.19,34.92,94.5,78,94.5,13.26,0,25.74-4.01,36.67-11.08,16.05,17.86,37.9,27.37,59.97,23.6,30.09-5.13,51.58-33.4,55.35-68.36l62.46,36.62,23.56-30.68Z" style="fill: #00d44f;"/>
        <g style="clip-path: url(#clippath); fill: none;">
          <g>
            <path d="m181.63,885.75c0,5.38-10.63,9.75-23.75,9.75s-23.75-9.75-23.75-9.75c0,0,10.63-9.75,23.75-9.75s23.75,4.37,23.75,9.75Z" style="fill: none; stroke: #00ef1e; stroke-miterlimit: 10; stroke-width: 2.88px;"/>
            <path d="m220.27,764.75c-3.86,3.76-16.75-3.22-28.79-15.58-12.05-12.36-14.83-29.19-14.83-29.19,0,0,16.75,3.22,28.79,15.58,12.05,12.36,18.68,25.43,14.83,29.19Z" style="fill: none; stroke: #00ef1e; stroke-miterlimit: 10; stroke-width: 3.31px;"/>
            <path d="m275.29,776.19c-5.31-.89-7.3-15.41-4.45-32.44s14.79-29.21,14.79-29.21c0,0,7.3,15.41,4.45,32.44-2.86,17.02-9.47,30.1-14.79,29.21Z" style="fill: none; stroke: #00ef1e; stroke-miterlimit: 10; stroke-width: 3.31px;"/>
            <path d="m313.59,878.65c1.15-5.26,11.12-7.55,22.26-5.12,11.15,2.43,18.11,13.93,18.11,13.93,0,0-11.12,7.55-22.26,5.12-11.15-2.43-19.25-8.67-18.11-13.93Z" style="fill: none; stroke: #00ef1e; stroke-miterlimit: 10; stroke-width: 2.69px;"/>
            <path d="m330.71,928.97c5-2,13.47,7.4,18.93,21,5.46,13.6.83,28.26.83,28.26,0,0-13.47-7.4-18.93-21-5.46-13.6-5.83-26.26-.83-28.26Z" style="fill: none; stroke: #00ef1e; stroke-miterlimit: 10; stroke-width: 3.05px;"/>
            <path d="m240.92,971.27c5.34.68,8.18,13.01,6.34,27.55-1.84,14.54-13,25.11-13,25.11,0,0-8.18-13.01-6.34-27.55,1.84-14.54,7.66-25.78,13-25.11Z" style="fill: none; stroke: #00ef1e; stroke-miterlimit: 10; stroke-width: 3.05px;"/>
          </g>
        </g>
      </g>
      <g>
        <path d="m1608.3,631.34c2.99-52.97-40.17-98.49-96.41-101.67-.42-.02-.83-.04-1.25-.06-5.03-43.28-48.56-77.11-101.51-77.11s-97.85,34.9-101.72,79.17c-16.15-18.03-38.32-29.17-62.78-29.17-49.43,0-96.5,57.94-96.5,114,0,2.65.11,5.25.31,7.8-5.76,1.08-11.12,3.2-15.83,6.15-16.18-49.1-50.47-81.79-77.65-73.44-24.19,7.43-34.78,44.9-26.85,88.09-29.1-4.17-54.12,3.12-64.81,21.65-10.17,17.61-5.08,41.34,11.03,63.5-19.14,3.2-35,12.53-43.75,27.68-19.51,33.79,3.6,83.65,51.61,111.37,16.9,9.76,34.63,15.45,51.37,17.29,46.27,42,154,130.77,266.59,159.92,7.99,29.03,37.98,51.67,74.98,53.76,19.26,1.09,37.26-3.58,51.69-12.23,9.76,11.48,23.9,19.08,39.99,19.99,31.26,1.77,58.09-22.36,60.27-54.02,1.11.12,2.22.21,3.35.28,34.06,1.93,63.13-22.47,64.94-54.49,1.25-22.1-10.82-42.05-29.62-52.93,22.95-16.88,38.29-42.66,39.96-72.26,2.76-48.77-32.5-91.42-81.45-102.33,3.64-6.46,5.89-13.76,6.33-21.56.62-10.98-2.42-21.38-8.1-30.14,46.52-6.64,83.2-43.17,85.8-89.25Z" style="fill: #00977b;"/>
        <g style="clip-path: url(#clippath-1); fill: none;">
          <g>
            <path d="m1027.69,645.07s-1.27,22.23,22.06,27.57c10.33,2.36,17.73-9.96,10.64-17.83-5.44-6.05-15.2-10.93-32.7-9.73Z" style="fill: none; stroke: #fd0; stroke-miterlimit: 10; stroke-width: 3.51px;"/>
            <path d="m974,730.95s-.13,22.27,23.44,26.4c10.44,1.83,17.2-10.85,9.71-18.36-5.74-5.76-15.74-10.14-33.15-8.04Z" style="fill: none; stroke: #fd0; stroke-miterlimit: 10; stroke-width: 3.51px;"/>
            <path d="m1132.57,629.3s-21.29,6.51-18.22,30.24c1.36,10.51,15.48,13.19,20.42,3.81,3.79-7.2,4.99-18.05-2.2-34.05Z" style="fill: none; stroke: #fd0; stroke-miterlimit: 10; stroke-width: 3.51px;"/>
            <path d="m1148.49,624.22s-5.32,21.62,16.63,31.14c9.72,4.22,19.26-6.54,13.73-15.58-4.24-6.94-12.94-13.53-30.36-15.56Z" style="fill: none; stroke: #fd0; stroke-miterlimit: 10; stroke-width: 3.51px;"/>
            <path d="m1307.4,529.19s-21.34,21.42-.38,51.8c9.28,13.45,28.51,8.73,27.75-6.91-.58-12-6.97-27.44-27.37-44.89Z" style="fill: none; stroke: #fd0; stroke-miterlimit: 10; stroke-width: 5.08px;"/>
            <path d="m1508.97,529.61s-25.34-12.13-45.34,15.38c-8.86,12.19,1.24,27.53,14.67,22.12,10.3-4.15,21.78-14.41,30.68-37.51Z" style="fill: none; stroke: #fd0; stroke-miterlimit: 10; stroke-width: 4.7px;"/>
            <path d="m1522.47,720.28s-.38-20.22-24.54-24.2c-10.7-1.76-17.31,9.69-9.5,16.58,6,5.29,16.31,9.36,34.04,7.62Z" style="fill: none; stroke: #fd0; stroke-miterlimit: 10; stroke-width: 3.38px;"/>
            <path d="m1523.88,771.68s-19.01-13.35-39.07,6.34c-8.89,8.73-2.75,22.62,8.93,20.04,8.96-1.98,19.73-8.77,30.14-26.39Z" style="fill: none; stroke: #fd0; stroke-miterlimit: 10; stroke-width: 3.88px;"/>
            <path d="m1527.23,1052.68s-22.95-3.61-23.68-31.72c-.33-12.45,13.74-18.17,20.35-8.2,5.07,7.65,8.09,20.02,3.33,39.92Z" style="fill: none; stroke: #fd0; stroke-miterlimit: 10; stroke-width: 3.88px;"/>
            <path d="m1564.83,947.53s-8.38,21.66-36.01,16.44c-12.24-2.32-14.86-17.28-3.71-21.63,8.55-3.34,21.28-3.67,39.72,5.19Z" style="fill: none; stroke: #fd0; stroke-miterlimit: 10; stroke-width: 3.88px;"/>
            <path d="m1428.08,1088.17s-17.14-12.09-5.32-39.39c5.24-12.1,19.26-12.32,20.25-.25.76,9.26-2.24,22.29-14.93,39.64Z" style="fill: none; stroke: #fd0; stroke-miterlimit: 10; stroke-width: 3.79px;"/>
          </g>
        </g>
      </g>
      <g>
        <path d="m1048.01,1197.6c26.87-33.96,69.49-105.8,81.81-169.46,5.39-27.86,2.8-59.49-7.7-94.03-8.45-27.81-22.02-57.52-40.32-88.32-20.17-33.94-41.74-61.77-54.6-77.36,2.78,16.85,10.23,70.9,12.94,179.06,3.28,131.14-86.91,252.2-83,255,.17-.1,23.24,16.38,52.82,37.62,10.25-10.12,23.85-24.56,38.06-42.52Z" style="fill: #00d44f;"/>
        <path d="m1315.63,760c5.04-15.85-20.83-21.89-25.5-10.5-3.72,8.87-7.99,18.56-12.58,28.65,11.42-2.86,25.86-7.25,35.9-13,1.36-3.22,2.18-5.15,2.18-5.15Z" style="fill: #00d44f;"/>
        <path d="m1095.75,856.06c-17.38-46.08-16.39-94.06-16.39-94.06-.11-12.14-42.14-13.1-51.43-3.58,11.95,14.08,36.79,44.95,59.81,83.69,2.78,4.68,5.44,9.33,8,13.95Z" style="fill: #00d44f;"/>
        <path d="m1238.5,951.45c-2.51,10.3-1.64,18.17,2.33,21.06,2.26,1.64,5.61,1.63,9.51.05,14.67-35.56,49.52-82.7,79.13-119.26-25.13,13.91-74.53,46.87-90.97,98.15Z" style="fill: #00d44f;"/>
        <path d="m1148.2,1130.32c-34.34,25.25-60.78,81.09-70.2,108.39-5.97,17.3-9.17,32.66-10.81,42.55,22.45,16.16,43.19,31.1,56.26,40.52,8.84,6.37,14.18,10.22,14.18,10.22,0,0,21.12-60.86,41.94-116.17,13.98-37.14,35.83-89.78,43.06-101.83,0,0,.01-.02.02-.03-23.27-8.37-48.3-2.88-74.44,16.35Z" style="fill: #00d44f;"/>
        <path d="m1208.93,896.3l.57.24c-1.68-16.24-3.69-33.36-4.23-37.88l-17.3,28.62c.39,3.85.8,7.52,1.16,10.21,1.45,10.71,1.13,18.48-.05,24.12,6.56-3.76,13.81-11.16,19.84-25.32Z" style="fill: #00d44f;"/>
        <path d="m1466.24,964.17c-1.7-19.63-8.15-36.3-21.17-48.89-5.53-5.34-13.69-6.92-20.78-3.96l-8.32,3.48c-9.91,13.68-35.47,53.4-34.47,98.09,31.36-13.85,57.29-23.85,72-29,8.25-2.89,13.49-11.01,12.74-19.72Z" style="fill: #00d44f;"/>
        <path d="m1403.96,919.82l-70.07,29.29c-13.76,25.33-37.85,77.89-29.51,100.94,24.5-12.88,48.5-24.35,70.22-34.09-1.94-40.68,16.9-76.89,29.36-96.15Z" style="fill: #00d44f;"/>
        <path d="m1308.63,986.32c5.09-12.65,10.79-24.44,15.18-33l-78.18,32.68c.49-1.77,1.06-3.59,1.69-5.44-.81.11-1.6.18-2.37.18-3.08,0-5.88-.85-8.23-2.56-3.8-2.76-9.5-10.14-4.98-28.51l.06-.23c6.71-21.02,23.24-52.43,63.87-82.74,21.2-15.81,39.97-24.68,44.88-26.88,21.28-25.58,37.59-43.31,37.59-43.31,8.05-9.47-12.77-23.84-20.5-13.5-53,60-66,57-69,52-2.11-3.51,12.08-39.13,20.7-60-11.65,5.21-25.54,8.96-35.51,11.26-27.15,58.83-62.7,127.24-62.7,127.24-.14-1.61-.29-3.3-.45-5.04-5.41,9.31-13.42,18.54-24.9,22.22-.06.02-.12.03-.18.05-3.39,5.26-7.46,5.77-7.46,5.77-29.97-6.9-50.85-24.85-65.4-46.74,6.53,14.46,11.9,28.58,16.07,42.25,10.85,35.66,13.51,68.45,7.9,97.46-12.6,65.1-55.9,138.01-83.3,172.61-13.97,17.64-27.37,31.94-37.67,42.17,14.39,10.34,30.02,21.57,45.13,32.44,1.81-10.04,4.99-24.18,10.47-40.09,9.74-28.3,36.88-85.57,72.74-111.93,19.81-14.56,50.06-29.13,82.41-16.74,16.76-25.16,33.16-32.94,33.16-32.94,12.76-7.57,25.69-14.8,38.52-21.65-5.44-13.65-1.93-36.16,10.48-67.03Z" style="fill: #00d44f;"/>
        <path d="m1186.13,867.5s.29,3.42.72,8.11l13.83-22.88c-6.29-1.17-16.5,6.65-14.55,14.77Z" style="fill: #00d44f;"/>
        <path d="m1095.75,856.06c4.38,11.62,9.94,23.12,16.97,33.7-4.99-11.05-10.65-22.29-16.97-33.7Z" style="fill: #00f017;"/>
        <path d="m1053.39,1202.09c27.4-34.6,70.71-107.51,83.3-172.61,5.61-29.01,2.95-61.8-7.9-97.46-4.16-13.67-9.54-27.79-16.07-42.25-7.03-10.58-12.59-22.08-16.97-33.7-2.56-4.63-5.22-9.28-8-13.95-23.03-38.73-47.87-69.61-59.81-83.69-1.17,1.2-1.82,2.56-1.8,4.08,0,0,.4,1.91,1.06,5.94,12.87,15.58,34.44,43.41,54.6,77.36,18.3,30.8,31.86,60.52,40.32,88.32,10.5,34.53,13.09,66.17,7.7,94.03-12.32,63.66-54.93,135.5-81.81,169.46-14.21,17.96-27.8,32.39-38.06,42.52,1.9,1.36,3.82,2.74,5.77,4.14,10.3-10.23,23.7-24.53,37.67-42.17Z" style="fill: #00f017;"/>
        <path d="m1205.13,857.5c-.58-2.9-2.28-4.36-4.45-4.77l-13.83,22.88c.32,3.49.71,7.68,1.12,11.68l17.3-28.62c-.09-.74-.14-1.17-.14-1.17Z" style="fill: #00f017;"/>
        <path d="m1210.68,908.46c-.35-3.77-.75-7.81-1.18-11.91l-.57-.24c-6.03,14.16-13.28,21.55-19.84,25.32-.84,4.02-2.1,6.96-3.49,9.11.06-.02.12-.03.18-.05,11.48-3.68,19.49-12.91,24.9-22.22Z" style="fill: #00f017;"/>
        <path d="m1144.06,1124.68c-35.85,26.36-62.99,83.63-72.74,111.93-5.48,15.91-8.66,30.05-10.47,40.09,2.12,1.53,4.24,3.05,6.34,4.56,1.64-9.89,4.85-25.25,10.81-42.55,9.42-27.3,35.86-83.14,70.2-108.39,26.15-19.23,51.18-24.72,74.44-16.35,1.27-2.12,2.55-4.12,3.82-6.03-32.35-12.39-62.6,2.18-82.41,16.74Z" style="fill: #00f017;"/>
        <path d="m1333.89,949.11l-10.08,4.21c-4.39,8.56-10.09,20.35-15.18,33-12.41,30.87-15.92,53.38-10.48,67.03,2.08-1.11,4.16-2.21,6.23-3.3-8.35-23.05,15.75-75.61,29.51-100.94Z" style="fill: #00f017;"/>
        <path d="m1415.96,914.8l-12,5.02c-12.47,19.26-31.3,55.47-29.36,96.15,2.33-1.04,4.63-2.07,6.9-3.07-1-44.69,24.55-84.42,34.47-98.09Z" style="fill: #00f017;"/>
        <path d="m1231.79,949.44l-.06.23c-4.52,18.36,1.18,25.74,4.98,28.51,2.36,1.71,5.16,2.56,8.23,2.56.77,0,1.57-.07,2.37-.18.88-2.59,1.89-5.26,3.02-8-3.9,1.58-7.25,1.59-9.51-.05-3.98-2.89-4.85-10.76-2.33-21.06,16.44-51.28,65.84-84.24,90.97-98.15,3.8-4.69,7.5-9.2,11.07-13.49-4.91,2.2-23.69,11.07-44.88,26.88-40.62,30.31-57.15,61.72-63.87,82.74Z" style="fill: #00f017;"/>
        <path d="m1313.45,765.15c-10.04,5.75-24.48,10.14-35.9,13-1.22,2.68-2.46,5.39-3.72,8.12,9.96-2.3,23.86-6.05,35.51-11.26,1.62-3.91,3.03-7.29,4.11-9.86Z" style="fill: #00f017;"/>
      </g>
      <g>
        <path d="m610.05,1181.93c25.19-32.6,42.72-66.61,52.09-101.07,11.34-41.7,10.7-84.27-1.89-126.58-39.66-28.65-73.42-43.52-94.98-50.99-23.86-8.26-50.19-5.72-71.8,7.34-75.89,45.87-137.66,190.74-91.76,272.62,2.46,5.23,5.92,10.38,10.35,15.45,22.39-12.67,77.6-48.43,101.11-104.35l9.22,3.88c-16.35,38.88-46.96,67.98-69.76,85.55-13.04,10.05-24.93,17.51-33.36,22.36,21.15,19.82,56.89,38.85,104.27,58.84,16.39-11.7,53.78-40.74,86.49-83.07Zm-51.37-159.9l-8.69-4.94c19.48-34.28,13.84-66.75,13.78-67.07l9.83-1.83c.27,1.46,6.45,36.25-14.92,73.84Z" style="fill: #ff7300;"/>
        <path d="m843.65,1201.4c19.41-34.05,25.97-65.91,28.14-81.48-71.09-50.87-130.1-93.96-155.71-118.7-14.71-14.22-29.07-26.52-42.83-37.2,9.75,40.02,9.26,80.18-1.5,119.63-9.75,35.76-27.91,70.96-53.97,104.63-30.75,39.73-64.76,67.53-83.35,81.24,38.89,15.95,84.94,32.58,136.67,50.74,42.39-9.58,79.11-25.64,109.25-47.86,26.1-19.24,47.4-43.14,63.29-71.01Z" style="fill: #ff7300;"/>
        <path d="m1227.52,1388.78c2.5,8.26,4.86,17.55,6.59,27.44,7.23,41.42-.09,75.08-21.14,98.18,44.62,9.03,71.92,2.76,83.94-26.78,7.8-19.17-20.9-54.88-69.39-98.85Z" style="fill: #ff7300;"/>
        <path d="m1010.65,1275.31c-2.4-28.7-8.7-52.01-13.02-65.33-39.91-28.81-79.75-57.11-116.66-83.5-2.88,17.52-10.14,47.29-28.39,79.44-16.56,29.18-38.77,54.19-66.02,74.34-27.68,20.46-60.62,35.9-98.19,46.05,58.64,20.5,124.06,43.01,194.27,68.69,32.76,11.98,63.39,23.62,92,34.66,15.12-23.77,25.75-49.82,31.6-77.56,5.15-24.46,6.64-50.29,4.43-76.78Zm-199,20.68l-6.04-7.97c.36-.27,36.24-27.64,49.55-54.25l8.94,4.47c-14.36,28.72-50.91,56.58-52.45,57.75Zm70.88-85.89l-9.4-3.42,9.13-25.13,9.4,3.42-9.13,25.13Z" style="fill: #ff7300;"/>
        <path d="m1224.29,1418.17c-2.9-16.75-7.82-31.94-11.95-42.86-53.97-47.01-127.22-101.93-201.36-155.66,3.76,13.83,7.74,32.54,9.61,54.48,3.49,41.14-.3,101.29-36.46,159.21,76.07,29.46,137.27,54.29,184.96,69.35l11.35-17.41,8.38,5.46-9.78,15c7.88,2.35,15.35,4.39,22.44,6.11,22.29-20.88,29.98-52.36,22.82-93.67Zm-34.25,45.84l12.58-28.94,9.17,3.99-12.58,28.94-9.17-3.99Z" style="fill: #ff7300;"/>
        <path d="m522.4,1098.25l-9.22-3.88c-23.52,55.92-78.73,91.68-101.11,104.35,2.18,2.5,4.58,4.98,7.22,7.45,8.43-4.85,20.32-12.31,33.36-22.36,22.8-17.57,53.41-46.68,69.76-85.55Z" style="fill: #ffda00;"/>
        <path d="m563.77,950.02c.06.32,5.7,32.79-13.78,67.07l8.69,4.94c21.36-37.6,15.19-72.38,14.92-73.84l-9.83,1.83Z" style="fill: #ffda00;"/>
        <path d="m617.78,1188.29c26.06-33.67,44.22-68.87,53.97-104.63,10.76-39.45,11.25-79.61,1.5-119.63-4.39-3.41-8.73-6.66-12.99-9.74,12.59,42.31,13.23,84.87,1.89,126.58-9.37,34.46-26.9,68.46-52.09,101.07-32.71,42.33-70.11,71.37-86.49,83.07,3.56,1.5,7.19,3.01,10.88,4.52,18.58-13.71,52.59-41.51,83.35-81.24Z" style="fill: #ffda00;"/>
        <path d="m852.57,1205.93c18.25-32.15,25.51-61.93,28.39-79.44-3.08-2.2-6.14-4.39-9.17-6.56-2.17,15.56-8.73,47.43-28.14,81.48-15.89,27.87-37.18,51.76-63.29,71.01-30.14,22.22-66.86,38.29-109.25,47.86,5.68,2,11.43,4.01,17.25,6.04,37.57-10.15,70.52-25.59,98.19-46.05,27.25-20.14,49.46-45.15,66.02-74.34Z" style="fill: #ffda00;"/>
        <path d="m805.61,1288.01l6.04,7.97c1.55-1.17,38.1-29.04,52.45-57.75l-8.94-4.47c-13.3,26.61-49.19,53.98-49.55,54.25Z" style="fill: #ffda00;"/>
        <rect x="869.02" y="1190.83" width="26.73" height="10" transform="translate(-542.89 1616.77) rotate(-70.03)" style="fill: #ffda00;"/>
        <path d="m1020.58,1274.12c-1.86-21.94-5.84-40.65-9.61-54.48-4.45-3.22-8.9-6.44-13.35-9.66,4.33,13.32,10.62,36.63,13.02,65.33,2.22,26.49.73,52.33-4.43,76.78-5.85,27.74-16.48,53.79-31.6,77.56,3.19,1.23,6.36,2.46,9.5,3.67,36.16-57.92,39.95-118.07,36.46-159.21Z" style="fill: #ffda00;"/>
        <path d="m1234.11,1416.22c-1.73-9.89-4.09-19.19-6.59-27.44-4.86-4.41-9.94-8.91-15.18-13.48,4.14,10.92,9.05,26.11,11.95,42.86,7.16,41.31-.52,72.79-22.82,93.67,3.95.96,7.78,1.82,11.49,2.57,21.05-23.1,28.37-56.77,21.14-98.18Z" style="fill: #ffda00;"/>
        <path d="m1180.44,1485.27l-11.35,17.41c3.39,1.07,6.7,2.08,9.95,3.05l9.78-15-8.38-5.46Z" style="fill: #ffda00;"/>
        <rect x="1185.14" y="1446.53" width="31.56" height="10" transform="translate(-608.99 1974.4) rotate(-66.51)" style="fill: #ffda00;"/>
      </g>
    </g>
  </g>
</svg>