<?xml version="1.0" encoding="UTF-8"?>
<svg id="Capa_2" data-name="Capa 2" xmlns="http://www.w3.org/2000/svg" viewBox="0 0 7690 10250">
  <g id="fondonivel">
    <g id="LINEAS_FONDO" data-name="LINEAS FONDO">
      <g id="CRUZES_FONDO" data-name="CRUZES FONDO">
        <rect width="7690" height="10250" style="fill: #73417f;"/>
      </g>
      <g style="fill: none; opacity: .29;">
        <path d="m7650,906c-2536.67-1160.93-5073.33,1160.93-7610,0,0-61.33,0-122.67,0-184,2536.67,1160.93,5073.34-1160.93,7610,0,0,61.33,0,122.67,0,184Z" style="fill: #8e6299;"/>
        <path d="m7650,906c-2536.67-1160.93-5073.33,1160.93-7610,0,0-61.33,0-122.67,0-184,2536.67,1160.93,5073.34-1160.93,7610,0,0,61.33,0,122.67,0,184Z" style="fill: none; stroke: #8e6299; stroke-miterlimit: 10; stroke-width: 79.74px;"/>
      </g>
      <g style="fill: none; opacity: .29;">
        <path d="m7650,2355c-2536.67-1160.93-5073.33,1160.93-7610,0,0-61.33,0-122.67,0-184,2536.67,1160.93,5073.34-1160.93,7610,0,0,61.33,0,122.67,0,184Z" style="fill: #8e6299;"/>
        <path d="m7650,2355c-2536.67-1160.93-5073.33,1160.93-7610,0,0-61.33,0-122.67,0-184,2536.67,1160.93,5073.34-1160.93,7610,0,0,61.33,0,122.67,0,184Z" style="fill: none; stroke: #8e6299; stroke-miterlimit: 10; stroke-width: 79.74px;"/>
      </g>
      <g style="fill: none; opacity: .29;">
        <path d="m7650,3804c-2536.67-1160.93-5073.33,1160.93-7610,0,0-61.33,0-122.67,0-184,2536.67,1160.93,5073.34-1160.93,7610,0,0,61.33,0,122.67,0,184Z" style="fill: #8e6299;"/>
        <path d="m7650,3804c-2536.67-1160.93-5073.33,1160.93-7610,0,0-61.33,0-122.67,0-184,2536.67,1160.93,5073.34-1160.93,7610,0,0,61.33,0,122.67,0,184Z" style="fill: none; stroke: #8e6299; stroke-miterlimit: 10; stroke-width: 79.74px;"/>
      </g>
      <g style="fill: none; opacity: .29;">
        <path d="m7650,5253c-2536.67-1160.93-5073.33,1160.93-7610,0,0-61.33,0-122.67,0-184,2536.67,1160.93,5073.34-1160.93,7610,0,0,61.33,0,122.67,0,184Z" style="fill: #8e6299;"/>
        <path d="m7650,5253c-2536.67-1160.93-5073.33,1160.93-7610,0,0-61.33,0-122.67,0-184,2536.67,1160.93,5073.34-1160.93,7610,0,0,61.33,0,122.67,0,184Z" style="fill: none; stroke: #8e6299; stroke-miterlimit: 10; stroke-width: 79.74px;"/>
      </g>
      <g style="fill: none; opacity: .29;">
        <path d="m7650,6702c-2536.67-1160.93-5073.33,1160.93-7610,0,0-61.33,0-122.67,0-184,2536.67,1160.93,5073.34-1160.93,7610,0,0,61.33,0,122.67,0,184Z" style="fill: #8e6299;"/>
        <path d="m7650,6702c-2536.67-1160.93-5073.33,1160.93-7610,0,0-61.33,0-122.67,0-184,2536.67,1160.93,5073.34-1160.93,7610,0,0,61.33,0,122.67,0,184Z" style="fill: none; stroke: #8e6299; stroke-miterlimit: 10; stroke-width: 79.74px;"/>
      </g>
      <g style="fill: none; opacity: .29;">
        <path d="m7650,8151c-2536.67-1160.93-5073.33,1160.93-7610,0,0-61.33,0-122.67,0-184,2536.67,1160.93,5073.34-1160.93,7610,0,0,61.33,0,122.67,0,184Z" style="fill: #8e6299;"/>
        <path d="m7650,8151c-2536.67-1160.93-5073.33,1160.93-7610,0,0-61.33,0-122.67,0-184,2536.67,1160.93,5073.34-1160.93,7610,0,0,61.33,0,122.67,0,184Z" style="fill: none; stroke: #8e6299; stroke-miterlimit: 10; stroke-width: 79.74px;"/>
      </g>
      <g style="fill: none; opacity: .29;">
        <path d="m7650,9600c-2536.67-1160.93-5073.33,1160.93-7610,0,0-61.33,0-122.67,0-184,2536.67,1160.93,5073.34-1160.93,7610,0,0,61.33,0,122.67,0,184Z" style="fill: #8e6299;"/>
        <path d="m7650,9600c-2536.67-1160.93-5073.33,1160.93-7610,0,0-61.33,0-122.67,0-184,2536.67,1160.93,5073.34-1160.93,7610,0,0,61.33,0,122.67,0,184Z" style="fill: none; stroke: #8e6299; stroke-miterlimit: 10; stroke-width: 79.74px;"/>
      </g>
    </g>
  </g>
</svg>