<?xml version="1.0" encoding="UTF-8"?>
<svg id="Capa_2" data-name="Capa 2" xmlns="http://www.w3.org/2000/svg" xmlns:xlink="http://www.w3.org/1999/xlink" viewBox="0 0 1718.22 1871.07">
  <defs>
    <linearGradient id="Degradado_sin_nombre_54" data-name="Degradado sin nombre 54" x1="1741.47" y1="5286.03" x2="3320.53" y2="5286.03" gradientTransform="translate(532.72 -4852.81) rotate(22.33)" gradientUnits="userSpaceOnUse">
      <stop offset="0" stop-color="#e84e1b"/>
      <stop offset=".15" stop-color="#db4924"/>
      <stop offset=".43" stop-color="#ba3f3f"/>
      <stop offset=".81" stop-color="#842d69"/>
      <stop offset="1" stop-color="#662482"/>
    </linearGradient>
    <linearGradient id="Degradado_sin_nombre_54-2" data-name="Degradado sin nombre 54" x1="796.59" y1="57.3" x2="911.19" y2="57.3" gradientTransform="matrix(1,0,0,1,0,0)" xlink:href="#Degradado_sin_nombre_54"/>
    <linearGradient id="Degradado_sin_nombre_54-3" data-name="Degradado sin nombre 54" x1="235.26" y1="265.28" x2="299.16" y2="265.28" gradientTransform="matrix(1,0,0,1,0,0)" xlink:href="#Degradado_sin_nombre_54"/>
    <linearGradient id="Degradado_sin_nombre_54-4" data-name="Degradado sin nombre 54" x1="1514.64" y1="513.88" x2="1629.25" y2="513.88" gradientTransform="matrix(1,0,0,1,0,0)" xlink:href="#Degradado_sin_nombre_54"/>
    <linearGradient id="Degradado_sin_nombre_54-5" data-name="Degradado sin nombre 54" x1="1654.37" y1="1078.12" x2="1718.22" y2="1078.12" gradientTransform="matrix(1,0,0,1,0,0)" xlink:href="#Degradado_sin_nombre_54"/>
    <linearGradient id="Degradado_sin_nombre_54-6" data-name="Degradado sin nombre 54" x1="3726.74" y1="6424.91" x2="3902.72" y2="6424.91" gradientTransform="translate(1243.5 -5820.38) rotate(36.94)" xlink:href="#Degradado_sin_nombre_54"/>
    <linearGradient id="Degradado_sin_nombre_54-7" data-name="Degradado sin nombre 54" x1="17337.51" y1="7328.52" x2="17513.49" y2="7328.52" gradientTransform="translate(13431.55 -12672.63) rotate(112.31)" xlink:href="#Degradado_sin_nombre_54"/>
    <linearGradient id="Degradado_sin_nombre_54-8" data-name="Degradado sin nombre 54" x1="-41.27" y1="-4604.89" x2="60.45" y2="-4604.89" gradientTransform="translate(3081.51 6129.48) rotate(-21.23)" xlink:href="#Degradado_sin_nombre_54"/>
    <linearGradient id="Degradado_sin_nombre_54-9" data-name="Degradado sin nombre 54" x1="3811.54" y1="6562.41" x2="3874.69" y2="6562.41" gradientTransform="translate(1243.5 -5820.38) rotate(36.94)" xlink:href="#Degradado_sin_nombre_54"/>
  </defs>
  <g id="cartazanahoria">
    <g>
      <path d="m126.83,731.61c1.14-5.8,27.32-132.45,130.16-187.7,66.51-35.73,97.99-7.89,164.62-43.28,67-35.58,77.52-86.2,122.53-144.86,96.79-126.13,299.49-227.16,450.57-163.84,80.55,33.76,143.67,94.86,168.07,121.78,22.11,24.39,59.44,65.58,86.93,129.91,34.22,80.1,21.6,122.2,62.88,160.69,27.12,25.29,45.2,18.89,101.07,38.51,28.67,10.07,185.94,65.3,217.91,180.9,13.7,49.55.43,97.1-8.34,129.72-19.04,70.82-48.06,81.79-53.21,136.44-5.8,61.47,28.19,76.45,33.8,135.65,9.69,102.25-78.95,189.58-99.13,209.49-98.29,96.98-215.31,95.88-245.88,170.3-3.11,7.56-15.05,39.59-37.15,82.52-4.13,8.03-14.72,28.64-25.05,45.12-7.73,12.33-41.89,64.78-94.21,97.73-93.81,59.09-205.38,29.6-241.93,20.48-210.56-52.57-180.52-208.85-417.93-326.68-135.27-67.13-247.2-67.03-335.23-185.9-12.69-17.14-36.72-50.19-50.73-98.73-3.9-13.49-17.59-66.14-4.61-135.9,17.91-96.26,63.3-99.17,82.68-182.89,20.2-87.27-25.27-100.78-7.82-189.47Z" style="fill: url(#Degradado_sin_nombre_54);"/>
      <circle cx="853.89" cy="57.3" r="57.29" style="fill: url(#Degradado_sin_nombre_54-2);"/>
      <circle cx="267.21" cy="265.28" r="31.94" style="fill: url(#Degradado_sin_nombre_54-3);"/>
      <circle cx="1571.95" cy="513.88" r="57.29" style="fill: url(#Degradado_sin_nombre_54-4);"/>
      <circle cx="1686.3" cy="1078.12" r="31.92" style="fill: url(#Degradado_sin_nombre_54-5);"/>
      <path d="m385.06,1612.12c-11.8-2.74-35.97-7.29-41.3-22.72-1.15-3.32-.98-6.59-.53-9.72,1.51-10.38,24.04-30.25,63.54-18.76,45.75,13.3,76.92,32.13,90.44,45.7,13.63,13.67,17.45,22.88,16.41,31.21-.91,7.31-5.67,14.91-12.2,18.97-23.37,14.53-49-29.02-116.37-44.68Z" style="fill: url(#Degradado_sin_nombre_54-6);"/>
      <path d="m19.92,623.01c-.33-12.12-2.03-36.64,11.55-45.7,2.92-1.95,6.12-2.62,9.27-2.97,10.42-1.16,35.34,15.62,34.21,56.74-1.31,47.63-11.66,82.54-21.37,99.06-9.79,16.64-17.73,22.66-26.05,23.76-7.3.97-15.86-1.72-21.44-7.01-19.96-18.94,15.7-54.74,13.83-123.88Z" style="fill: url(#Degradado_sin_nombre_54-7);"/>
      <path d="m1411.5,1857.44c-4.95,4.96-14.54,15.44-23.74,13.36-1.98-.45-3.53-1.52-4.94-2.7-4.64-3.9-7.53-21.03,10.15-36.92,20.48-18.41,39.23-27.98,50.01-30.49,10.87-2.53,16.55-1.6,20.33,1.45,3.31,2.67,5.6,7.33,5.6,11.77.01,15.9-29.18,15.22-57.41,43.53Z" style="fill: url(#Degradado_sin_nombre_54-8);"/>
      <path d="m354.32,1736c-4.24-.98-12.91-2.62-14.82-8.15-.41-1.19-.35-2.36-.19-3.49.54-3.73,8.63-10.86,22.8-6.73,16.42,4.77,27.6,11.53,32.46,16.4,4.89,4.91,6.26,8.21,5.89,11.2-.33,2.62-2.03,5.35-4.38,6.81-8.39,5.21-17.58-10.41-41.76-16.03Z" style="fill: url(#Degradado_sin_nombre_54-9);"/>
    </g>
  </g>
</svg>