<?xml version="1.0" encoding="UTF-8"?>
<svg id="Capa_2" data-name="Capa 2" xmlns="http://www.w3.org/2000/svg" xmlns:xlink="http://www.w3.org/1999/xlink" viewBox="0 0 1783.59 1724.46">
  <defs>
    <linearGradient id="Degradado_sin_nombre_1009" data-name="Degradado sin nombre 1009" x1="25696.38" y1="4039.81" x2="25468.92" y2="2918.32" gradientTransform="translate(26445.03 3943.03) rotate(-165.29) scale(1 -1)" gradientUnits="userSpaceOnUse">
      <stop offset="0" stop-color="#ce1db6"/>
      <stop offset=".04" stop-color="#d12aa9"/>
      <stop offset=".23" stop-color="#df6076"/>
      <stop offset=".41" stop-color="#ea8d4c"/>
      <stop offset=".58" stop-color="#f3b12a"/>
      <stop offset=".74" stop-color="#f9ca13"/>
      <stop offset=".88" stop-color="#fdd904"/>
      <stop offset="1" stop-color="#ffdf00"/>
    </linearGradient>
    <linearGradient id="Degradado_sin_nombre_203" data-name="Degradado sin nombre 203" x1="16756.55" y1="16587.05" x2="16855.07" y2="16587.05" gradientTransform="translate(5445.17 24808.75) rotate(-56.94) scale(1 -1)" gradientUnits="userSpaceOnUse">
      <stop offset="0" stop-color="#ce1d40"/>
      <stop offset=".04" stop-color="#d12a3b"/>
      <stop offset=".23" stop-color="#df6029"/>
      <stop offset=".41" stop-color="#ea8d1a"/>
      <stop offset=".58" stop-color="#f3b10f"/>
      <stop offset=".74" stop-color="#f9ca06"/>
      <stop offset=".88" stop-color="#fdd901"/>
      <stop offset="1" stop-color="#ffdf00"/>
    </linearGradient>
    <linearGradient id="Degradado_sin_nombre_203-2" data-name="Degradado sin nombre 203" x1="7819.22" y1="10456.02" x2="7917.74" y2="10456.02" gradientTransform="translate(-11866.2 3535.39) rotate(44.63) scale(1 -1)" xlink:href="#Degradado_sin_nombre_203"/>
    <linearGradient id="Degradado_sin_nombre_1009-2" data-name="Degradado sin nombre 1009" x1="20987.02" y1="7650.55" x2="21085.55" y2="7650.55" gradientTransform="translate(23031.73 7713.7) rotate(-142.97) scale(1 -1)" xlink:href="#Degradado_sin_nombre_1009"/>
    <linearGradient id="Degradado_sin_nombre_1009-3" data-name="Degradado sin nombre 1009" x1="11937.51" y1="4089.52" x2="11992.4" y2="4089.52" gradientTransform="translate(-1064.18 -12057.86) rotate(103.27) scale(1 -1)" xlink:href="#Degradado_sin_nombre_1009"/>
    <linearGradient id="Degradado_sin_nombre_1009-4" data-name="Degradado sin nombre 1009" x1="18291.17" y1="-18428.51" x2="18442.46" y2="-18428.51" gradientTransform="translate(24006.63 -11983.23) rotate(104.72) scale(1 -1)" xlink:href="#Degradado_sin_nombre_1009"/>
    <linearGradient id="Degradado_sin_nombre_1009-5" data-name="Degradado sin nombre 1009" x1="17779.54" y1="-19547.46" x2="17732.49" y2="-19445.26" gradientTransform="translate(24006.63 -11983.23) rotate(104.72) scale(1 -1)" xlink:href="#Degradado_sin_nombre_1009"/>
    <linearGradient id="Degradado_sin_nombre_1009-6" data-name="Degradado sin nombre 1009" x1="17656.55" y1="-19195.64" x2="17521.01" y2="-19231.25" gradientTransform="translate(24006.63 -11983.23) rotate(104.72) scale(1 -1)" xlink:href="#Degradado_sin_nombre_1009"/>
    <linearGradient id="Degradado_sin_nombre_203-3" data-name="Degradado sin nombre 203" x1="16095.43" y1="9063.01" x2="16187.14" y2="9063.01" gradientTransform="translate(16220.75 10052.91) rotate(-121.74) scale(1 -1)" xlink:href="#Degradado_sin_nombre_203"/>
    <linearGradient id="Degradado_sin_nombre_1009-7" data-name="Degradado sin nombre 1009" x1="18104.44" y1="6610.26" x2="18970.54" y2="6610.26" gradientTransform="translate(18999.31 9424.42) rotate(-133.06) scale(1 -1)" xlink:href="#Degradado_sin_nombre_1009"/>
    <clipPath id="clippath">
      <path d="m1504,550.67c-10.58-32.83-59.38-24.37-59.38-24.37l-40.05-78.81c13-20,0-27,0-27-28-24-160,22-173,41s0,23,0,23c2,25-15,97-15,97-82,55,4,26-115,199s-237,55-257,133,45.69,85.99,45.69,85.99c-51.31,74.99,89.52,89.31,89.52,89.31-7.8,33.3,11.8,62.7,77.8,70.7s202,27,384.29-140.2c182.29-167.2,72.71-435.8,62.13-468.62Zm-196.42,6.83c-22,11-38,31-38,31-7-5-20-10-20-10,2.03-24.94,6.24-49.31,13-73,13.34-8.71,28.55-12.43,45-12.83,2.59,17.37,2.12,39.74,0,64.83Zm78,8c-.51,1.32-29-13-46-17-2.09-20.03-2.67-40.73-2-62,11.6-11.11,25.21-16.65,40-13,11.63,19.4,21.51,39.81,30,61,0,0-12,5-22,31Z" style="fill: #ffe102;"/>
    </clipPath>
  </defs>
  <g id="cartafruta">
    <path d="m1419.53,1095.96c2.22-4.57,49.83-105.05,7.86-196.21-27.14-58.95-63.16-56.15-90.57-114.94-27.56-59.11-8.57-99.3-9.09-162.86-1.12-136.68-87.92-310.97-224.39-345.74-72.76-18.54-147.72-9.29-178.4-3.45-27.8,5.29-74.75,14.23-126.92,44.15-64.96,37.25-78.1,72.68-126.35,77.72-31.71,3.31-40.81-10.44-89.3-25.9-24.88-7.93-161.42-51.46-243.22,11.32-35.06,26.91-50.57,66.41-61.44,93.35-23.6,58.46-9.36,81.01-34.12,121.19-27.85,45.19-58.93,37.87-93.43,75.6-59.59,65.15-43.98,170.98-40.44,195.09,17.24,117.45,98.12,177.28,80.57,244.19-1.78,6.79-10.17,34.96-17.23,75.87-1.32,7.65-4.73,27.28-6.17,43.94-1.08,12.47-4.79,66.15,14.05,115.85,33.79,89.13,125.62,126.66,155.43,139.32,171.72,72.95,232.02-49.86,455.97-7.8,127.6,23.97,204.36,81.99,326.32,45.99,17.59-5.19,51.18-15.43,85.94-41.49,9.66-7.24,46.32-36.29,73.53-90.88,37.55-75.34,7.9-100.83,37.95-168.33,31.32-70.35,69.52-56.08,103.47-125.98Z" style="fill: url(#Degradado_sin_nombre_1009);"/>
    <circle cx="711.84" cy="1675.2" r="49.25" style="fill: url(#Degradado_sin_nombre_203);"/>
    <circle cx="1079.07" cy="1621.93" r="49.25" style="fill: url(#Degradado_sin_nombre_203-2);"/>
    <circle cx="1630.98" cy="1151.4" r="49.25" style="fill: url(#Degradado_sin_nombre_1009-2);"/>
    <circle cx="169.86" cy="526.31" r="27.44" style="fill: url(#Degradado_sin_nombre_1009-3);"/>
    <path d="m1549.13,1076.79c6.5-8.15,20.37-24.1,15.74-37.34-1-2.85-2.85-4.97-4.83-6.84-6.55-6.2-32.34-7.58-52.85,21.23-23.76,33.37-34.73,62.68-36.62,79.05-1.9,16.49.43,24.73,5.57,29.8,4.51,4.44,11.77,7.03,18.34,6.29,23.5-2.66,17.57-45.69,54.65-92.18Z" style="fill: url(#Degradado_sin_nombre_1009-4);"/>
    <path d="m668.9,213.37c6.5-8.15,20.37-24.1,15.74-37.34-1-2.85-2.85-4.97-4.83-6.84-6.55-6.2-32.34-7.58-52.85,21.23-23.76,33.37-34.73,62.68-36.62,79.05-1.9,16.49.43,24.73,5.57,29.8,4.51,4.44,11.77,7.03,18.34,6.29,23.5-2.66,17.57-45.69,54.65-92.18Z" style="fill: url(#Degradado_sin_nombre_1009-5);"/>
    <path d="m985.67,123.67c6.5-8.15,20.37-24.1,15.74-37.34-1-2.85-2.85-4.97-4.83-6.84-6.55-6.2-32.34-7.58-52.85,21.23-23.76,33.37-34.73,62.68-36.62,79.05-1.9,16.49.43,24.73,5.57,29.8,4.51,4.44,11.77,7.03,18.34,6.29,23.5-2.66,17.57-45.69,54.65-92.18Z" style="fill: url(#Degradado_sin_nombre_1009-6);"/>
    <path d="m18.8,1116.96c.83,5.97,1.99,18.13,9.38,21.46,1.59.72,3.21.78,4.79.7,5.21-.28,16.05-10.53,12.15-30.6-4.52-23.24-12.43-39.51-18.54-46.82-6.15-7.36-10.53-14.67-14.7-14.53-3.66.12-7.63,2.13-9.94,5.18-8.24,10.91,12.15,30.56,16.86,64.6Z" style="fill: url(#Degradado_sin_nombre_203-3);"/>
    <path d="m1513.62,618.4c19.62,56.33,54.53,172.2,132.81,190.19,16.83,3.87,32.75,1.36,47.86-2.51,50.01-12.81,135.43-133.49,58.52-320.78-89.07-216.91-197.56-359.56-271.05-418.64-74.06-59.54-121.09-73.39-161.32-63.95-35.28,8.27-70,35.55-86.45,69.64-58.84,121.96,167.67,224.57,279.63,546.06Z" style="fill: url(#Degradado_sin_nombre_1009-7);"/>
    <g id="Capa_21" data-name="Capa 21">
      <g>
        <circle cx="956.57" cy="699.17" r="337" style="fill: #6c581c;"/>
        <g>
          <path d="m657.06,593.91c-4.38,2.56-8.75,5.11-13.13,7.67-7.02,4.1-14.04,8.2-21.06,12.3-1.6.94-3.21,1.87-4.81,2.81-3.33,1.95-.32,7.13,3.03,5.18,4.38-2.56,8.75-5.11,13.13-7.67,7.02-4.1,14.04-8.2,21.06-12.3,1.6-.94,3.21-1.87,4.81-2.81,3.33-1.95.32-7.13-3.03-5.18h0Z" style="fill: #fff;"/>
          <path d="m667.06,690.91c-4.38,2.56-8.75,5.11-13.13,7.67-7.02,4.1-14.04,8.2-21.06,12.3-1.6.94-3.21,1.87-4.81,2.81-3.33,1.95-.32,7.13,3.03,5.18,4.38-2.56,8.75-5.11,13.13-7.67,7.02-4.1,14.04-8.2,21.06-12.3,1.6-.94,3.21-1.87,4.81-2.81,3.33-1.95.32-7.13-3.03-5.18h0Z" style="fill: #fff;"/>
          <path d="m729.52,713.27c-2.7,4.29-5.4,8.58-8.11,12.86-4.33,6.88-8.67,13.75-13,20.63-.99,1.57-1.98,3.14-2.97,4.72-2.06,3.28,3.13,6.29,5.18,3.03,2.7-4.29,5.4-8.58,8.11-12.86l13-20.63c.99-1.57,1.98-3.14,2.97-4.72,2.06-3.28-3.13-6.29-5.18-3.03h0Z" style="fill: #fff;"/>
          <path d="m735.13,836.4c-.46,5.05-.92,10.09-1.39,15.14-.74,8.09-1.48,16.19-2.23,24.28-.17,1.85-.34,3.7-.51,5.55-.15,1.62,1.48,3,3,3,1.75,0,2.85-1.38,3-3,.46-5.05.92-10.09,1.39-15.14.74-8.09,1.48-16.19,2.23-24.28.17-1.85.34-3.7.51-5.55.15-1.62-1.48-3-3-3-1.75,0-2.85,1.38-3,3h0Z" style="fill: #fff;"/>
          <path d="m855.88,820.41c-4.85,1.48-9.7,2.96-14.54,4.43-7.77,2.37-15.55,4.74-23.32,7.11-1.78.54-3.56,1.08-5.33,1.63-3.68,1.12-2.11,6.92,1.6,5.79,4.85-1.48,9.7-2.96,14.54-4.43,7.77-2.37,15.55-4.74,23.32-7.11,1.78-.54,3.56-1.08,5.33-1.63,3.68-1.12,2.11-6.92-1.6-5.79h0Z" style="fill: #fff;"/>
          <path d="m1033.05,854.87c-2.56-4.38-5.11-8.75-7.67-13.13-4.1-7.02-8.2-14.04-12.3-21.06-.94-1.6-1.87-3.21-2.81-4.81-1.95-3.33-7.13-.32-5.18,3.03,2.56,4.38,5.11,8.75,7.67,13.13,4.1,7.02,8.2,14.04,12.3,21.06.94,1.6,1.87,3.21,2.81,4.81,1.95,3.33,7.13.32,5.18-3.03h0Z" style="fill: #fff;"/>
          <path d="m951.92,648.32c-.89-4.99-1.78-9.98-2.66-14.97-1.42-8-2.85-16-4.27-24.01-.33-1.83-.65-3.66-.98-5.49-.28-1.6-2.23-2.5-3.69-2.1-1.68.46-2.38,2.09-2.1,3.69.89,4.99,1.78,9.98,2.66,14.97,1.42,8,2.85,16,4.27,24.01.33,1.83.65,3.66.98,5.49.28,1.6,2.23,2.5,3.69,2.1,1.68-.46,2.38-2.09,2.1-3.69h0Z" style="fill: #fff;"/>
          <path d="m945.68,763.8c-4.06-3.03-8.12-6.06-12.19-9.09-6.51-4.86-13.03-9.72-19.54-14.58-1.49-1.11-2.98-2.22-4.47-3.33-1.3-.97-3.35-.21-4.1,1.08-.9,1.53-.23,3.13,1.08,4.1,4.06,3.03,8.12,6.06,12.19,9.09,6.51,4.86,13.03,9.72,19.54,14.58,1.49,1.11,2.98,2.22,4.47,3.33,1.3.97,3.35.21,4.1-1.08.9-1.53.23-3.13-1.08-4.1h0Z" style="fill: #fff;"/>
          <path d="m1050.68,744.8c-4.06-3.03-8.12-6.06-12.19-9.09-6.51-4.86-13.03-9.72-19.54-14.58-1.49-1.11-2.98-2.22-4.47-3.33-1.3-.97-3.35-.21-4.1,1.08-.9,1.53-.23,3.13,1.08,4.1,4.06,3.03,8.12,6.06,12.19,9.09,6.51,4.86,13.03,9.72,19.54,14.58,1.49,1.11,2.98,2.22,4.47,3.33,1.3.97,3.35.21,4.1-1.08.9-1.53.23-3.13-1.08-4.1h0Z" style="fill: #fff;"/>
          <path d="m962.92,575.18c4.19-2.85,8.38-5.7,12.57-8.56,6.72-4.57,13.44-9.15,20.16-13.72,1.54-1.05,3.07-2.09,4.61-3.14,1.34-.91,1.93-2.64,1.08-4.1-.78-1.33-2.76-1.99-4.1-1.08-4.19,2.85-8.38,5.7-12.57,8.56-6.72,4.57-13.44,9.15-20.16,13.72-1.54,1.05-3.07,2.09-4.61,3.14-1.34.91-1.93,2.64-1.08,4.1.78,1.33,2.76,1.99,4.1,1.08h0Z" style="fill: #fff;"/>
          <path d="m1044.09,600.9c2.56,4.38,5.11,8.75,7.67,13.13,4.1,7.02,8.2,14.04,12.3,21.06.94,1.6,1.87,3.21,2.81,4.81,1.95,3.33,7.13.32,5.18-3.03-2.56-4.38-5.11-8.75-7.67-13.13-4.1-7.02-8.2-14.04-12.3-21.06-.94-1.6-1.87-3.21-2.81-4.81-1.95-3.33-7.13-.32-5.18,3.03h0Z" style="fill: #fff;"/>
          <path d="m1132.09,487.9c2.56,4.38,5.11,8.75,7.67,13.13,4.1,7.02,8.2,14.04,12.3,21.06.94,1.6,1.87,3.21,2.81,4.81,1.95,3.33,7.13.32,5.18-3.03-2.56-4.38-5.11-8.75-7.67-13.13-4.1-7.02-8.2-14.04-12.3-21.06-.94-1.6-1.87-3.21-2.81-4.81-1.95-3.33-7.13-.32-5.18,3.03h0Z" style="fill: #fff;"/>
          <path d="m1101.24,717.63c4.56,2.21,9.12,4.42,13.68,6.63,7.31,3.54,14.63,7.09,21.94,10.63,1.67.81,3.35,1.62,5.02,2.43,1.46.71,3.24.4,4.1-1.08.77-1.32.39-3.4-1.08-4.1-4.56-2.21-9.12-4.42-13.68-6.63-7.31-3.54-14.63-7.09-21.94-10.63-1.67-.81-3.35-1.62-5.02-2.43-1.46-.71-3.24-.4-4.1,1.08-.77,1.32-.39,3.4,1.08,4.1h0Z" style="fill: #fff;"/>
          <path d="m763.5,611.56c5.07-.15,10.13-.3,15.2-.45,8.12-.24,16.25-.48,24.37-.72,1.86-.05,3.72-.11,5.57-.16,3.85-.11,3.87-6.11,0-6-5.07.15-10.13.3-15.2.45-8.12.24-16.25.48-24.37.72-1.86.05-3.72.11-5.57.16-3.85.11-3.87,6.11,0,6h0Z" style="fill: #fff;"/>
          <path d="m911.36,464.87c1.31,4.9,2.61,9.79,3.92,14.69,2.1,7.85,4.19,15.71,6.29,23.56.48,1.8.96,3.59,1.44,5.39.99,3.73,6.78,2.15,5.79-1.6-1.31-4.9-2.61-9.79-3.92-14.69-2.1-7.85-4.19-15.71-6.29-23.56-.48-1.8-.96-3.59-1.44-5.39-.99-3.73-6.78-2.15-5.79,1.6h0Z" style="fill: #fff;"/>
          <path d="m830.56,471.1c-4.26,2.74-8.53,5.48-12.79,8.22-6.84,4.39-13.68,8.78-20.52,13.18-1.56,1-3.13,2.01-4.69,3.01-1.36.87-1.92,2.66-1.08,4.1.79,1.36,2.74,1.96,4.1,1.08,4.26-2.74,8.53-5.48,12.79-8.22,6.84-4.39,13.68-8.78,20.52-13.18,1.56-1,3.13-2.01,4.69-3.01,1.36-.87,1.92-2.66,1.08-4.1-.79-1.36-2.74-1.96-4.1-1.08h0Z" style="fill: #fff;"/>
          <path d="m898.63,402.99c-5.06-.25-10.12-.5-15.19-.74-8.12-.4-16.24-.8-24.35-1.19-1.86-.09-3.71-.18-5.57-.27-1.62-.08-3,1.44-3,3,0,1.69,1.38,2.92,3,3,5.06.25,10.12.5,15.19.74,8.12.4,16.24.8,24.35,1.19,1.86.09,3.71.18,5.57.27,1.62.08,3-1.44,3-3,0-1.69-1.38-2.92-3-3h0Z" style="fill: #fff;"/>
          <path d="m1072.91,421.14c-4.56-2.21-9.12-4.42-13.68-6.63-7.31-3.54-14.63-7.09-21.94-10.63l-5.02-2.43c-1.46-.71-3.24-.4-4.1,1.08-.77,1.32-.39,3.4,1.08,4.1,4.56,2.21,9.12,4.42,13.68,6.63,7.31,3.54,14.63,7.09,21.94,10.63l5.02,2.43c1.46.71,3.24.4,4.1-1.08.77-1.32.39-3.4-1.08-4.1h0Z" style="fill: #fff;"/>
        </g>
      </g>
      <g>
        <path d="m831.33,1061.18c-55.05,195.93-258.51,310.13-454.44,255.08-195.93-55.05-310.14-258.51-255.08-454.44-.28-60.02,213.76-99.32,454.44-.32,186.04,67.6,269.85,158.56,255.08,199.68Z" style="fill: #6c581c;"/>
        <g>
          <path d="m149.06,846.4c-4.81,2.81-9.62,5.62-14.43,8.43-7.63,4.46-15.27,8.92-22.9,13.38-1.77,1.03-3.54,2.07-5.31,3.1-3.64,2.13-.35,7.8,3.31,5.67,4.81-2.81,9.62-5.62,14.43-8.43,7.63-4.46,15.27-8.92,22.9-13.38,1.77-1.03,3.54-2.07,5.31-3.1,3.64-2.13.35-7.8-3.31-5.67h0Z" style="fill: #fff;"/>
          <path d="m160,952.47c-4.81,2.81-9.62,5.62-14.43,8.43-7.63,4.46-15.27,8.92-22.9,13.38-1.77,1.03-3.54,2.07-5.31,3.1-3.64,2.13-.35,7.8,3.31,5.67,4.81-2.81,9.62-5.62,14.43-8.43,7.63-4.46,15.27-8.92,22.9-13.38,1.77-1.03,3.54-2.07,5.31-3.1,3.64-2.13.35-7.8-3.31-5.67h0Z" style="fill: #fff;"/>
          <path d="m228.3,976.92c-2.97,4.71-5.94,9.43-8.91,14.14-4.71,7.48-9.43,14.96-14.14,22.44-1.09,1.73-2.18,3.47-3.28,5.2-.94,1.5-.32,3.62,1.18,4.49,1.58.92,3.54.33,4.49-1.18,2.97-4.71,5.94-9.43,8.91-14.14,4.71-7.48,9.43-14.96,14.14-22.44,1.09-1.73,2.18-3.47,3.28-5.2.94-1.5.32-3.62-1.18-4.49-1.58-.92-3.54-.33-4.49,1.18h0Z" style="fill: #fff;"/>
          <path d="m234.43,1111.56c-.51,5.55-1.02,11.1-1.53,16.65-.81,8.8-1.61,17.61-2.42,26.41-.19,2.04-.37,4.08-.56,6.12-.16,1.77,1.62,3.28,3.28,3.28,1.91,0,3.12-1.51,3.28-3.28.51-5.55,1.02-11.1,1.53-16.65.81-8.8,1.61-17.61,2.42-26.41.19-2.04.37-4.08.56-6.12.16-1.77-1.62-3.28-3.28-3.28-1.91,0-3.12,1.51-3.28,3.28h0Z" style="fill: #fff;"/>
          <path d="m366.46,1094.08c-5.33,1.62-10.66,3.25-15.99,4.87-8.46,2.58-16.91,5.15-25.37,7.73-1.96.6-3.92,1.19-5.88,1.79-1.69.52-2.77,2.29-2.29,4.04s2.33,2.81,4.04,2.29c5.33-1.62,10.66-3.25,15.99-4.87,8.46-2.58,16.91-5.15,25.37-7.73,1.96-.6,3.92-1.19,5.88-1.79,1.69-.52,2.77-2.29,2.29-4.04s-2.33-2.81-4.04-2.29h0Z" style="fill: #fff;"/>
          <path d="m560.2,1131.76c-2.81-4.81-5.62-9.62-8.43-14.43-4.46-7.63-8.92-15.27-13.38-22.9-1.03-1.77-2.07-3.54-3.1-5.31-2.13-3.64-7.8-.35-5.67,3.31,2.81,4.81,5.62,9.62,8.43,14.43,4.46,7.63,8.92,15.27,13.38,22.9,1.03,1.77,2.07,3.54,3.1,5.31,2.13,3.64,7.8.35,5.67-3.31h0Z" style="fill: #fff;"/>
          <path d="m682.53,1231.76c-.98-5.49-1.95-10.97-2.93-16.46-1.55-8.7-3.1-17.41-4.65-26.11-.36-2.02-.72-4.03-1.08-6.05-.31-1.75-2.44-2.73-4.04-2.29-1.84.51-2.6,2.28-2.29,4.04.98,5.49,1.95,10.97,2.93,16.46,1.55,8.7,3.1,17.41,4.65,26.11.36,2.02.72,4.03,1.08,6.05.31,1.75,2.44,2.73,4.04,2.29,1.84-.51,2.6-2.28,2.29-4.04h0Z" style="fill: #fff;"/>
          <path d="m529.63,1236.76c2.81,4.81,5.62,9.62,8.43,14.43,4.46,7.63,8.92,15.27,13.38,22.9,1.03,1.77,2.07,3.54,3.1,5.31,2.13,3.64,7.8.35,5.67-3.31-2.81-4.81-5.62-9.62-8.43-14.43-4.46-7.63-8.92-15.27-13.38-22.9-1.03-1.77-2.07-3.54-3.1-5.31-2.13-3.64-7.8-.35-5.67,3.31h0Z" style="fill: #fff;"/>
          <path d="m775.82,1132.59c5.01,2.43,10.03,4.86,15.04,7.29,7.96,3.85,15.91,7.71,23.87,11.56,1.84.89,3.69,1.79,5.53,2.68,1.59.77,3.55.44,4.49-1.18.84-1.44.42-3.71-1.18-4.49-5.01-2.43-10.03-4.86-15.04-7.29-7.96-3.85-15.91-7.71-23.87-11.56-1.84-.89-3.69-1.79-5.53-2.68-1.59-.77-3.55-.44-4.49,1.18-.84,1.44-.42,3.71,1.18,4.49h0Z" style="fill: #fff;"/>
          <path d="m265.45,865.7c5.57-.16,11.14-.33,16.71-.49,8.84-.26,17.67-.52,26.51-.78,2.05-.06,4.1-.12,6.14-.18,1.77-.05,3.28-1.47,3.28-3.28s-1.5-3.33-3.28-3.28c-5.57.16-11.14.33-16.71.49-8.84.26-17.67.52-26.51.78-2.05.06-4.1.12-6.14.18-1.77.05-3.28,1.47-3.28,3.28s1.5,3.33,3.28,3.28h0Z" style="fill: #fff;"/>
          <path d="m391.05,1209.39c1.44,5.38,2.87,10.77,4.31,16.15,2.28,8.54,4.56,17.08,6.84,25.63.53,1.98,1.06,3.96,1.58,5.94,1.09,4.08,7.42,2.35,6.33-1.74-1.44-5.38-2.87-10.77-4.31-16.15-2.28-8.54-4.56-17.08-6.84-25.63-.53-1.98-1.06-3.96-1.58-5.94-1.09-4.08-7.42-2.35-6.33,1.74h0Z" style="fill: #fff;"/>
        </g>
      </g>
      <g>
        <path d="m1504,550.67c-10.58-32.83-59.38-24.37-59.38-24.37l-40.05-78.81c13-20,0-27,0-27-28-24-160,22-173,41s0,23,0,23c2,25-15,97-15,97-82,55,4,26-115,199s-237,55-257,133,45.69,85.99,45.69,85.99c-51.31,74.99,89.52,89.31,89.52,89.31-7.8,33.3,11.8,62.7,77.8,70.7s202,27,384.29-140.2c182.29-167.2,72.71-435.8,62.13-468.62Zm-196.42,6.83c-22,11-38,31-38,31-7-5-20-10-20-10,2.03-24.94,6.24-49.31,13-73,13.34-8.71,28.55-12.43,45-12.83,2.59,17.37,2.12,39.74,0,64.83Zm78,8c-.51,1.32-29-13-46-17-2.09-20.03-2.67-40.73-2-62,11.6-11.11,25.21-16.65,40-13,11.63,19.4,21.51,39.81,30,61,0,0-12,5-22,31Z" style="fill: #ffe102;"/>
        <g style="clip-path: url(#clippath); fill: none;">
          <rect x="1203.43" y="518.5" width="63" height="38.99" transform="translate(41.39 -86.47) rotate(4.08)" style="fill: #58d25b;"/>
          <rect x="1292.43" y="505.5" width="63" height="38.99" transform="translate(-95.86 412.65) rotate(-17.11)" style="fill: #58d25b;"/>
          <path d="m1383.07,552s82,453-412.5,540.5" style="fill: none; stroke: #ffaf0a; stroke-miterlimit: 10; stroke-width: 7px;"/>
          <path d="m1265.07,566c14,142-2,298-408,450" style="fill: none; stroke: #ffaf0a; stroke-miterlimit: 10; stroke-width: 7px;"/>
          <rect x="1377.26" y="478.98" width="62.64" height="33.46" transform="translate(-81.75 589.27) rotate(-22.98)" style="fill: #58d25b;"/>
          <path d="m1057.57,1159.5s54-82-69-79c0,0,7.37-102.02-98.31-81.01,0,0,52.31-81.99-16.69-120.99s-98.64,136.55-98.64,136.55c0,0,143.8,131.65,147.22,132.05s135.42,12.4,135.42,12.4Z" style="fill: #8d3b24;"/>
          <path d="m1231.57,484.5s16.52-3.55,55.76-33.78c39.24-30.22,70.24,5.78,117.24-3.22s12-78,12-78l-167-20.42-60,41.42-13.39,94h55.39Z" style="fill: #8d3b24;"/>
          <g>
            <ellipse cx="847.57" cy="924.5" rx="34" ry="54" style="fill: none; stroke: #d7712e; stroke-miterlimit: 10; stroke-width: 6px;"/>
            <ellipse cx="829.57" cy="922.5" rx="34" ry="40" style="fill: none; stroke: #d7712e; stroke-miterlimit: 10; stroke-width: 6px;"/>
            <ellipse cx="906.37" cy="1063.26" rx="49.12" ry="48.31" transform="translate(-438.72 685.43) rotate(-33.86)" style="fill: none; stroke: #d7712e; stroke-miterlimit: 10; stroke-width: 6px;"/>
            <ellipse cx="883.78" cy="1076.26" rx="49.12" ry="35.79" transform="translate(-449.8 675.06) rotate(-33.86)" style="fill: none; stroke: #d7712e; stroke-miterlimit: 10; stroke-width: 6px;"/>
            <ellipse cx="1005.63" cy="1135.1" rx="36.64" ry="37.72" transform="translate(-461.92 752.94) rotate(-33.87)" style="fill: none; stroke: #d7712e; stroke-miterlimit: 10; stroke-width: 6px;"/>
            <ellipse cx="988.74" cy="1144.75" rx="36.64" ry="27.94" transform="translate(-470.16 745.16) rotate(-33.86)" style="fill: none; stroke: #d7712e; stroke-miterlimit: 10; stroke-width: 6px;"/>
          </g>
        </g>
      </g>
      <ellipse cx="465.19" cy="960.72" rx="94.86" ry="299.32" transform="translate(-587.39 1138.11) rotate(-73.73)" style="fill: #fff;"/>
      <ellipse cx="476.97" cy="951.34" rx="46.24" ry="180.25" transform="translate(-569.91 1142.66) rotate(-73.73)" style="fill: #eee;"/>
      <g>
        <path d="m1531.45,1000.5c-8.42,50.23-43.44,92-97.03,92s-93.13-41.31-97.03-92c-5.76-74.84,69.98-85.69,95.29-69.41,7.3,4.69,16.39,5.68,24.47,2.52,43.43-17,86.33-4.95,74.29,66.89Z" style="fill: #bf1c2f;"/>
        <path d="m1459.69,777.23c-1.58,2.5-2.95,5.16-4.28,7.8-3.68,7.31-6.84,14.91-9.56,22.62-3.81,10.83-6.71,21.98-8.65,33.29-2.45,14.29-3.48,28.82-2.82,43.3.77,16.95,3.7,33.82,8.74,50.02.67,2.16,1.38,4.3,2.12,6.43s3.12,3.93,5.54,3.14c2.2-.71,3.97-3.15,3.14-5.54-2.87-8.27-5.22-16.72-6.98-25.3-.84-4.11-1.52-8.24-2.12-12.39-.08-.53.01.09.02.16-.04-.27-.07-.55-.11-.82-.05-.41-.1-.82-.15-1.23-.13-1.09-.25-2.18-.37-3.27-.2-1.95-.37-3.9-.52-5.85-.54-7.44-.65-14.91-.34-22.36.15-3.5.39-7,.73-10.49.16-1.69.35-3.37.55-5.06.05-.4.1-.8.15-1.2.06-.46.15-1.26.04-.34.1-.84.24-1.69.36-2.53,1.73-11.6,4.47-23.05,8.17-34.18,1.46-4.39,3.07-8.73,4.83-13.01.21-.51.78-1.83.2-.49.2-.47.4-.94.6-1.41.37-.86.75-1.72,1.14-2.58.69-1.53,1.4-3.05,2.13-4.55,1.58-3.25,3.34-6.37,5.11-9.51.02-.04.05-.08.08-.12,1.26-1.99.48-5.05-1.61-6.16-2.22-1.17-4.81-.51-6.16,1.61h0Z" style="fill: #82d645;"/>
        <path d="m1404.45,933.62c1.98,2.55,4.5,4.76,7.01,6.76,6.09,4.85,13.01,8.58,20.53,10.67,4.8,1.34,9.83,2,14.8,1.99,2.91,0,5.56-.28,8.33-1.08,3.71-1.07,7.39-2.57,10.64-4.67,1.93-1.24,3.78-2.7,5.29-4.43.44-.51.86-1.05,1.26-1.59.12-.16.22-.32.34-.47-.4.51.17-.17.21-.22.27-.3.56-.58.85-.86.17-.15.34-.3.51-.44.52-.44-.26.17.26-.2.91-.64,1.88-1.2,2.89-1.68.17-.08.34-.16.51-.24.63-.29-.27.1.33-.14.53-.21,1.06-.4,1.6-.58,1.97-.65,4-1.11,6.04-1.44.16-.03.32-.05.49-.08.08-.01,1.01-.14.54-.08-.49.06.24-.03.28-.03.21-.02.43-.05.64-.07.73-.08,1.46-.14,2.19-.18.63-.04,1.26-.07,1.89-.07,3.86,0,3.87-6.01,0-6-5.66,0-11.58,1.1-16.77,3.37-1.86.82-3.56,1.86-5.13,3.16s-2.54,2.96-3.81,4.28c-1.52,1.58-2.71,2.42-4.63,3.53-.83.48-1.69.92-2.56,1.33-.4.19-.79.37-1.2.54.57-.24-.28.11-.32.12-.25.1-.5.2-.76.29-2.04.76-4.18,1.47-6.34,1.83-.09.01-.13,0,.16-.03.68-.05-.62.02-.6.02-.66.04-1.31.07-1.97.08-1.27.03-2.54.02-3.81-.04-2.43-.11-4.34-.34-6.65-.79-2.16-.42-4.29-.98-6.38-1.68-.98-.33-1.96-.69-2.92-1.07-.19-.08-.38-.15-.56-.23.52.22-.38-.17-.39-.17-.45-.2-.9-.4-1.34-.61-3.21-1.52-6.27-3.36-9.12-5.47-.17-.12-1.18-.9-.57-.42-.34-.27-.68-.53-1.01-.8-.57-.46-1.12-.93-1.67-1.42-.91-.81-1.8-1.65-2.66-2.52-.76-.78-1.52-1.57-2.19-2.43-1-1.28-3.2-1.05-4.24,0-1.26,1.26-1,2.96,0,4.24h0Z" style="fill: #e04758;"/>
        <path d="m1370.56,967.41c-5.15,3.65-9.23,9.2-12.04,14.77-6.96,13.81-6.37,29.76-1.46,44.15s12.83,26.35,21.89,37.79c1.01,1.27,3.19,1.05,4.24,0,1.26-1.26,1.01-2.97,0-4.24-7.67-9.69-14.8-20.65-19.17-31.94-1.71-4.41-3.06-8.96-3.91-13.61-.08-.45-.16-.89-.23-1.34-.04-.26-.08-.53-.12-.79-.01-.1-.13-.97-.04-.25-.13-1.02-.24-2.04-.31-3.06-.14-1.84-.19-3.68-.14-5.53.05-1.7.19-3.4.4-5.09-.11.91.07-.44.11-.67.06-.34.11-.68.18-1.02.15-.79.31-1.58.5-2.37.35-1.48.78-2.95,1.29-4.38.22-.62.45-1.24.69-1.85.08-.19.5-1.17.1-.25.16-.37.32-.73.49-1.1,1-2.17,2.17-4.25,3.5-6.23.28-.42.57-.83.87-1.24.16-.21.31-.43.47-.64.54-.73-.36.44.08-.1.59-.72,1.18-1.45,1.8-2.14.99-1.1,2.03-2.14,3.15-3.11.31-.26.62-.51.93-.77-.02.01-.77.57-.23.19,1.32-.94,1.95-2.62,1.08-4.1-.76-1.31-2.78-2.02-4.1-1.08h0Z" style="fill: #e04758;"/>
      </g>
      <g>
        <path d="m1585.46,968.57c30.83,20.15,70.2,22.01,96.47-6.48,26.27-28.49,23.69-69.76-1.34-96.68-36.96-39.75-79.86-4.81-83.62,16.63-1.08,6.18-5.01,11.5-10.66,14.24-30.33,14.75-44.96,43.47-.86,72.29Z" style="fill: #bf1c2f;"/>
        <path d="m1439.94,800.14c.6-.17,1.22-.27,1.83-.37.33-.06.66-.1.99-.15.59-.09-1.14.14-.27.04.22-.03.44-.05.66-.08,1.03-.11,2.06-.19,3.09-.25,2.83-.14,5.66-.09,8.49.11.88.06,1.75.14,2.63.23.45.05.9.1,1.35.15.22.03.44.05.66.08.92.11-.67-.1.07,0,2.02.29,4.04.63,6.04,1.04,4.89,1,9.71,2.37,14.43,4.01,1.32.46,2.62.94,3.93,1.44.64.25,1.28.5,1.92.76.33.13.65.26.97.4.28.11,1.44.6.6.25,2.98,1.27,5.92,2.62,8.82,4.08,14.6,7.32,28,16.76,40.09,26.97,17.7,14.95,33.51,32.08,48,50.13,2.07,2.58,4.12,5.19,6.14,7.81,1.07,1.39,2.8,2.13,4.45,1.17,1.37-.8,2.24-3.05,1.17-4.45-15-19.54-31.31-38.17-49.74-54.57-12.97-11.53-27-22.06-42.29-30.32-10.55-5.7-21.79-10.41-33.48-13.2-7.31-1.75-14.9-2.81-22.43-2.65-3.18.07-6.64.2-9.72,1.08-.04.01-.07.02-.11.03-4.03,1.11-2.32,7.39,1.73,6.28h0Z" style="fill: #82d645;"/>
        <path d="m1614.91,870.94c.03.18.03.47-.04-.29.01.16.04.33.06.49.07.72.12,1.44.14,2.16.08,2.3-.04,4.63-.39,6.91-.7,4.49-2.29,8.66-4.95,12.36s-5.99,6.38-9.84,8.37c-1.99,1.03-4.09,1.63-6.17,2.43-2.2.84-4.33,1.85-6.36,3.04-5.23,3.07-9.78,7.19-13.72,11.77-1.82,2.1,1.24,5.19,3.07,3.07,3.59-4.16,7.63-7.95,12.35-10.8,2.06-1.25,4.23-2.33,6.49-3.15s4.54-1.57,6.69-2.7c8.55-4.48,14.75-12.82,16.46-22.32.74-4.08,1.05-8.38.38-12.5-.19-1.16-1.63-1.8-2.67-1.52-1.23.34-1.7,1.51-1.52,2.67h0Z" style="fill: #e04758;"/>
        <path d="m1647.95,870.98c.08-.02.17-.03.25-.05.09-.02.18-.03.27-.04.53-.1-.65.07-.12.02.87-.08,1.73-.16,2.6-.17,1.3-.02,2.61.04,3.9.19.19.02.38.05.58.07-.75-.09-.1-.01.08.01.43.07.86.14,1.29.22.83.16,1.66.36,2.48.59.94.26,1.86.57,2.77.91.21.08.43.17.64.25.48.19-.3-.14.27.11.49.22.98.44,1.46.68,1.02.51,2.01,1.06,2.97,1.67.46.29.91.59,1.35.9.25.18.5.36.75.54.1.07.2.15.3.22.4.3-.2-.16.16.13,4.72,3.76,8.11,8.2,10.97,13.45,4.8,8.83,7.3,18.79,8.86,28.66.18,1.16,1.63,1.8,2.67,1.52,1.23-.34,1.7-1.51,1.52-2.67-2.43-15.37-7.43-32.3-19.59-42.91-6.24-5.44-14.16-8.78-22.48-8.9-1.68-.02-3.44.05-5.09.4-2.73.58-1.57,4.76,1.15,4.18h0Z" style="fill: #e04758;"/>
      </g>
    </g>
  </g>
</svg>