<?xml version="1.0" encoding="UTF-8"?>
<svg id="Capa_2" data-name="Capa 2" xmlns="http://www.w3.org/2000/svg" xmlns:xlink="http://www.w3.org/1999/xlink" viewBox="0 0 1782.42 2006.37">
  <defs>
    <linearGradient id="Degradado_sin_nombre_2347" data-name="Degradado sin nombre 2347" x1="1134.63" y1="493.77" x2="690.49" y2="1712.53" gradientUnits="userSpaceOnUse">
      <stop offset="0" stop-color="#ff61d2"/>
      <stop offset="1" stop-color="#fe9090"/>
    </linearGradient>
    <linearGradient id="Degradado_sin_nombre_2347-2" data-name="Degradado sin nombre 2347" x1="14534" y1="6786.94" x2="14642.03" y2="6786.94" gradientTransform="translate(16337.45 6069.79) rotate(-139.8) scale(1 -1)" xlink:href="#Degradado_sin_nombre_2347"/>
    <linearGradient id="Degradado_sin_nombre_2347-3" data-name="Degradado sin nombre 2347" x1="14423.62" y1="6859.85" x2="14461.16" y2="6859.85" gradientTransform="translate(16337.45 6069.79) rotate(-139.8) scale(1 -1)" xlink:href="#Degradado_sin_nombre_2347"/>
    <linearGradient id="Degradado_sin_nombre_2347-4" data-name="Degradado sin nombre 2347" x1="14074.46" y1="6028.23" x2="14182.49" y2="6028.23" gradientTransform="translate(16337.45 6069.79) rotate(-139.8) scale(1 -1)" xlink:href="#Degradado_sin_nombre_2347"/>
    <linearGradient id="Degradado_sin_nombre_2347-5" data-name="Degradado sin nombre 2347" x1="14335.79" y1="6453.15" x2="14443.82" y2="6453.15" gradientTransform="translate(16337.45 6069.79) rotate(-139.8) scale(1 -1)" xlink:href="#Degradado_sin_nombre_2347"/>
    <linearGradient id="Degradado_sin_nombre_2347-6" data-name="Degradado sin nombre 2347" x1="15791.07" y1="6139.2" x2="15851.26" y2="6139.2" gradientTransform="translate(16337.45 6069.79) rotate(-139.8) scale(1 -1)" xlink:href="#Degradado_sin_nombre_2347"/>
    <linearGradient id="Degradado_sin_nombre_2347-7" data-name="Degradado sin nombre 2347" x1="10123.58" y1="-12988.56" x2="10289.48" y2="-12988.56" gradientTransform="translate(16157.81 -5375.05) rotate(107.89) scale(1 -1)" xlink:href="#Degradado_sin_nombre_2347"/>
    <linearGradient id="Degradado_sin_nombre_2347-8" data-name="Degradado sin nombre 2347" x1="6436.75" y1="-13911.62" x2="6602.65" y2="-13911.62" gradientTransform="translate(13192.49 -9025.3) rotate(73.62) scale(1 -1)" xlink:href="#Degradado_sin_nombre_2347"/>
    <linearGradient id="Degradado_sin_nombre_2347-9" data-name="Degradado sin nombre 2347" x1="6480.77" y1="-13836.46" x2="6600.88" y2="-13836.46" gradientTransform="translate(13192.49 -9025.3) rotate(73.62) scale(1 -1)" xlink:href="#Degradado_sin_nombre_2347"/>
    <linearGradient id="Degradado_sin_nombre_2347-10" data-name="Degradado sin nombre 2347" x1="11101.32" y1="6650.32" x2="11197.21" y2="6650.32" gradientTransform="translate(11268.35 7771.47) rotate(-118.57) scale(1 -1)" xlink:href="#Degradado_sin_nombre_2347"/>
    <linearGradient id="Degradado_sin_nombre_2347-11" data-name="Degradado sin nombre 2347" x1="10772.9" y1="6575.15" x2="10868.79" y2="6575.15" gradientTransform="translate(11268.35 7771.47) rotate(-118.57) scale(1 -1)" xlink:href="#Degradado_sin_nombre_2347"/>
    <linearGradient id="Degradado_sin_nombre_2347-12" data-name="Degradado sin nombre 2347" x1="10910.83" y1="5156.14" x2="11006.72" y2="5156.14" gradientTransform="translate(11268.35 7771.47) rotate(-118.57) scale(1 -1)" xlink:href="#Degradado_sin_nombre_2347"/>
    <linearGradient id="Degradado_sin_nombre_2347-13" data-name="Degradado sin nombre 2347" x1="11114.98" y1="6725" x2="11210.87" y2="6725" gradientTransform="translate(11268.35 7771.47) rotate(-118.57) scale(1 -1)" xlink:href="#Degradado_sin_nombre_2347"/>
    <clipPath id="clippath">
      <rect x="1319.15" y="342.87" width="258.04" height="94.71" rx="30.89" ry="30.89" transform="translate(118.94 -304.49) rotate(12.51)" style="fill: #ffae0c;"/>
    </clipPath>
    <clipPath id="clippath-1">
      <rect x="837.15" y="20.87" width="258.04" height="94.71" rx="30.89" ry="30.89" transform="translate(37.73 -207.71) rotate(12.51)" style="fill: #ffae0c;"/>
    </clipPath>
    <clipPath id="clippath-2">
      <path d="m978.63,978.39c-52.74-14.9-99.15-25.04-140.3-31.28-.02,0-.03,0-.05-.01-289.35-69.29-459.65-48.71-459.65-48.71l-121.24-133.33c-11.64-20.11-28.21-32.67-46.76-32.67-35.62,0-65,46.34-65,103.5,0,21.92,4.25,42.23,11.49,58.97-22.52,14.27-37.49,39.4-37.49,68.03,0,31.57,18.18,58.88,44.64,72.07-11.64,12.31-18.64,28.15-18.64,45.43,0,39.21,36.04,71,80.5,71,30.94,0,57.79-15.4,71.26-37.98h.01c106.77,41.03,203.83,96.48,203.83,96.48h0c65.97,93.54,179.13,208.68,324.4,256.5,325,107,617,164,673,44,55.75-119.47-200.96-441.84-520-532Z" style="fill: #06b2da;"/>
    </clipPath>
    <clipPath id="clippath-3">
      <path d="m1507.63,1502.39c-24.88-7.65-70,8-70.95,10.88-.65,1.96,4.95,51.12,39.77,67.28,13.58,6.3,30.56-.05,34.94-13.7,3.04-9.49,1.28-17.98-3.76-22.47,7.5.71,13.76-1,18.21-10.76,5.94-13.04-3.9-26.84-18.21-31.24Z" style="fill: #6acce3;"/>
    </clipPath>
    <clipPath id="clippath-4">
      <circle cx="1363.13" cy="1351.89" r="37.5" style="fill: #fff;"/>
    </clipPath>
    <clipPath id="clippath-5">
      <path d="m417.08,1154.8c16.82,53.8-36.91,101.69-111.45,132.59-82,34-150.63,8.39-167.45-45.41-16.82-53.8,31.98-116.92,109-141,77.02-24.08,153.08.02,169.9,53.82Z" style="fill: #e68511;"/>
    </clipPath>
    <clipPath id="clippath-6">
      <ellipse cx="451.13" cy="1117.39" rx="136.5" ry="109" style="fill: #e68511;"/>
    </clipPath>
    <clipPath id="clippath-7">
      <ellipse cx="461.13" cy="1280.64" rx="136.5" ry="106.25" style="fill: #e68511;"/>
    </clipPath>
  </defs>
  <g id="fondo_2">
    <path d="m1670.44,977.36c.76-5.52,16.18-126.46-58.6-207.19-48.36-52.21-84.95-37.03-133.53-88.98-48.85-52.23-42.73-100.59-64.91-166.66-47.7-142.09-197.5-294.21-351.59-283.99-82.16,5.45-157.14,40.6-187.13,57.14-27.17,14.98-73.07,40.28-117.27,89.22-55.03,60.94-56.66,102.34-105.24,124.02-31.93,14.25-46.09,3.01-101.9,3.4-28.64.2-185.77,1.31-249.66,94.6-27.39,39.99-30.1,86.44-32.27,118.22-4.7,68.97,17.82,87.63,5.69,137.94-13.64,56.58-48.53,59.54-71.65,110.61-39.93,88.2,12.37,193.19,24.26,217.12,57.95,116.56,162.62,151.39,167.11,227.1.46,7.69,1.3,39.9,7.87,84.95,1.23,8.43,4.36,30.04,8.52,47.9,3.12,13.36,17.52,70.58,54.09,115.98,65.56,81.4,174.06,89.26,209.44,92.31,203.83,17.58,224.87-130.96,472.62-163.35,141.16-18.46,240.93,15.9,355.79-63.15,16.57-11.4,48.1-33.51,75.45-72.5,7.6-10.84,35.93-53.59,45.71-119.76,13.49-91.31-26.09-107.79-17.75-188.37,8.7-83.99,53.37-82.12,64.96-166.54Z" style="fill: url(#Degradado_sin_nombre_2347);"/>
    <circle cx="814.43" cy="1837.92" r="54.01" style="fill: url(#Degradado_sin_nombre_2347-2);"/>
    <circle cx="878.6" cy="1987.6" r="18.76" style="fill: url(#Degradado_sin_nombre_2347-3);"/>
    <circle cx="1655.14" cy="1555.02" r="54.01" style="fill: url(#Degradado_sin_nombre_2347-4);"/>
    <circle cx="1181.27" cy="1710.91" r="54.01" style="fill: url(#Degradado_sin_nombre_2347-5);"/>
    <circle cx="290.62" cy="547.24" r="30.09" style="fill: url(#Degradado_sin_nombre_2347-6);"/>
    <path d="m699.95,327.81c7.61-8.52,23.76-25.15,19.49-39.93-.92-3.18-2.82-5.61-4.87-7.78-6.8-7.18-34.95-10.26-59.15,20.04-28.03,35.09-41.83,66.53-44.88,84.33-3.08,17.94-1.02,27.1,4.3,32.96,4.67,5.14,12.46,8.41,19.7,8,25.89-1.49,22-48.96,65.42-97.62Z" style="fill: url(#Degradado_sin_nombre_2347-7);"/>
    <path d="m1703.69,1114.63c1.49-11.33,5.47-34.16-6.38-43.97-2.55-2.11-5.49-3.05-8.41-3.69-9.66-2.11-34.66,11.2-37.6,49.87-3.41,44.78,2.89,78.53,10.39,94.96,7.55,16.56,14.41,22.97,22.11,24.82,6.75,1.62,15.04-.06,20.78-4.48,20.56-15.81-9.39-52.85-.9-117.51Z" style="fill: url(#Degradado_sin_nombre_2347-8);"/>
    <path d="m1776.43,1124.36c1.08-8.2,3.96-24.73-4.62-31.84-1.85-1.53-3.97-2.21-6.09-2.67-7-1.53-25.09,8.11-27.22,36.11-2.47,32.43,2.1,56.86,7.52,68.76,5.47,11.99,10.44,16.63,16.01,17.97,4.89,1.17,10.89-.05,15.05-3.25,14.89-11.45-6.8-38.27-.65-85.08Z" style="fill: url(#Degradado_sin_nombre_2347-9);"/>
    <path d="m89.46,1184.77c.54,6.58,1.08,19.97,8.97,24.06,1.7.88,3.47,1.05,5.2,1.06,5.72.01,18.21-10.56,15.16-32.76-3.54-25.72-11.22-44.01-17.46-52.38-6.29-8.43-10.95-11.22-15.52-11.32-4.01-.09-8.49,1.87-11.2,5.07-9.68,11.44,11.75,28.72,14.85,66.28Z" style="fill: url(#Degradado_sin_nombre_2347-10);"/>
    <path d="m312.55,1437.24c.54,6.58,1.08,19.97,8.97,24.06,1.7.88,3.47,1.05,5.2,1.06,5.72.01,18.21-10.56,15.16-32.76-3.54-25.72-11.22-44.01-17.46-52.38-6.29-8.43-10.95-11.22-15.52-11.32-4.01-.09-8.49,1.87-11.2,5.07-9.68,11.44,11.75,28.72,14.85,66.28Z" style="fill: url(#Degradado_sin_nombre_2347-11);"/>
    <path d="m1492.78,637.44c.54,6.58,1.08,19.97,8.97,24.06,1.7.88,3.47,1.05,5.2,1.06,5.72.01,18.21-10.56,15.16-32.76-3.54-25.72-11.22-44.01-17.46-52.38-6.29-8.43-10.95-11.22-15.52-11.32-4.01-.09-8.49,1.87-11.2,5.07-9.68,11.44,11.75,28.72,14.85,66.28Z" style="fill: url(#Degradado_sin_nombre_2347-12);"/>
    <path d="m17.34,1208.49c.54,6.58,1.08,19.97,8.97,24.06,1.7.88,3.47,1.05,5.2,1.06,5.72.01,18.21-10.56,15.16-32.76-3.54-25.72-11.22-44.01-17.46-52.38-6.29-8.43-10.95-11.22-15.52-11.32-4.01-.09-8.49,1.87-11.2,5.07-9.68,11.44,11.75,28.72,14.85,66.28Z" style="fill: url(#Degradado_sin_nombre_2347-13);"/>
    <g id="Capa_20" data-name="Capa 20">
      <g>
        <g>
          <path d="m1525.66,529.4l22.83-101.69-207.9-46.67-23.64,105.29-57.23,32.92c-17.9,10.29-30.66,27.62-35.19,47.76l-159.85,710.88,351.9,79,161.3-718.45c4.94-21.99-.45-45.02-14.62-62.54l-37.6-46.5Z" style="fill: #6acce3;"/>
          <path d="m1507.52,548.64l3.21-13.15c1.71-6.99-2.67-14.02-9.69-15.58l-147.38-32.71c-6.82-1.51-13.6,2.7-15.25,9.49l-3.16,12.94c-1.45,5.94-4.97,11.17-9.92,14.76l-35.91,25.97c-16.15,11.68-27.45,28.87-31.77,48.33l-134.39,605.55,272.64,60.51,135.33-609.78c3.75-16.88,2.02-34.51-4.92-50.34l-17.34-39.54c-2.27-5.18-2.77-10.95-1.43-16.45Z" style="fill: #fee102;"/>
          <g>
            <path d="m1508.47,485.7c-1.78,7.02-3.57,14.04-5.35,21.06-2.97,11.7-5.95,23.4-8.92,35.1-.83,3.28-1.67,6.57-2.5,9.85-1.92,7.57-1.71,15.47,1.3,22.74,1.36,3.29,3.1,5.88,5.09,8.75,2.75,3.98,5.49,7.95,8.24,11.93,6.93,10.03,13.86,20.06,20.79,30.1,2.14,3.1,4.28,6.2,6.42,9.3.46.67.93,1.33,1.37,2.02.72,1.11,1.36,2.26,1.93,3.45.13.28.26.56.39.84.31.71-.19-.51.08.21s.53,1.44.75,2.18c.38,1.25.66,2.52.9,3.8.17.91.07.38.04.17.04.3.07.61.1.92.07.77.12,1.53.13,2.3.06,3.32-.38,5.21-1.07,8.49s-1.39,6.64-2.09,9.97c-2.32,11.04-4.63,22.07-6.95,33.11-2.53,12.04-5.05,24.07-7.58,36.11-1.51,7.19-3.02,14.39-4.53,21.58-.07.34-.14.68-.22,1.03-.48,2.3.67,4.97,3.14,5.54,2.26.51,5.02-.68,5.54-3.14,1.08-5.13,2.15-10.26,3.23-15.39,2.39-11.4,4.79-22.8,7.18-34.2s4.96-23.63,7.44-35.44c1.34-6.38,2.69-12.77,4.02-19.15,1.77-8.49.7-17.24-3.47-24.9-1.35-2.48-3.09-4.78-4.69-7.1-6.37-9.22-12.74-18.44-19.1-27.66-5.41-7.83-10.82-15.67-16.23-23.5-.69-1-1.29-1.98-1.84-3.08-.14-.28-.27-.56-.41-.84-.39-.82-.19-.39-.1-.2-.27-.64-.5-1.3-.72-1.96-.44-1.31-.78-2.66-1.04-4.02-.06-.3-.11-.61-.16-.91-.13-.85.07,1.05-.05-.4-.05-.61-.11-1.22-.13-1.84-.06-1.39,0-2.77.11-4.16.07-.92.03-.4,0-.19.04-.31.09-.62.15-.92.12-.69.27-1.38.43-2.06.03-.11.06-.23.08-.34.07-.27.14-.53.2-.8l.98-3.85c2.73-10.75,5.46-21.5,8.2-32.26,2.4-9.44,4.8-18.87,7.19-28.31.13-.51.26-1.02.39-1.53.58-2.28-.74-4.99-3.14-5.54s-4.92.7-5.54,3.14h0Z" style="fill: #fff;"/>
            <path d="m1356.66,436.41c-1.2,7.53-2.41,15.05-3.61,22.58-1.95,12.16-3.89,24.32-5.84,36.48-.47,2.94-.93,5.87-1.41,8.81-.12.74-.25,1.48-.42,2.21-.26,1.16-.6,2.3-.99,3.43-.09.25-.18.5-.27.74,0-.02-.49,1.16-.22.56s-.27.57-.26.54c-.17.35-.35.71-.53,1.06-.55,1.04-1.16,2.06-1.82,3.03-.18.27-.37.54-.57.8-.13.18-.68.85-.13.18-.42.51-.84,1.01-1.28,1.5-.8.88-1.65,1.71-2.55,2.48-.3.26-.61.51-.92.76.14-.11.66-.48-.04.03-.11.08-.23.16-.34.25-5.86,4.24-11.76,8.42-17.64,12.63-10.39,7.45-20.79,14.89-31.18,22.34-5.66,4.05-11.39,8.03-16.98,12.17-8.9,6.6-15.56,15.63-19.06,26.17-1.05,3.16-1.64,6.4-2.23,9.67-1.68,9.32-3.36,18.65-5.04,27.97-2.29,12.69-4.58,25.39-6.87,38.08-1.48,8.21-2.96,16.42-4.44,24.64-.07.4-.14.8-.22,1.2-.42,2.31.63,4.96,3.14,5.54,2.2.5,5.09-.67,5.54-3.14,1.06-5.89,2.12-11.77,3.18-17.66,2.23-12.36,4.46-24.72,6.69-37.08,1.96-10.86,3.92-21.72,5.87-32.58.44-2.43.87-4.85,1.31-7.28s1.06-4.94,1.87-7.34c.21-.63.44-1.25.68-1.87.1-.25.2-.49.29-.74.47-1.18-.24.49.09-.21.57-1.19,1.12-2.39,1.75-3.56.6-1.1,1.24-2.18,1.92-3.23.29-.44.58-.88.89-1.31.19-.27.38-.54.58-.81.11-.15.96-1.25.37-.51,1.56-1.98,3.27-3.84,5.12-5.55.88-.82,1.8-1.59,2.73-2.35.67-.54.19-.14.04-.04.27-.2.54-.4.81-.6.06-.04.12-.09.19-.13.52-.38,1.04-.75,1.57-1.12l9.32-6.67c10.15-7.27,20.31-14.55,30.46-21.82,7.58-5.43,15.15-10.85,22.73-16.28,5.2-3.73,9.67-8.22,12.46-14.07,1.97-4.13,2.87-8.35,3.58-12.79,1.74-10.9,3.49-21.79,5.23-32.69,1.62-10.12,3.24-20.23,4.86-30.35.09-.55.18-1.1.27-1.66.37-2.31-.59-4.96-3.14-5.54-2.16-.49-5.14.66-5.54,3.14h0Z" style="fill: #fff;"/>
            <path d="m1234.47,604.09c2.3-9.56,5.05-19.04,8.2-28.35,1.19-3.54,2.46-7.05,3.85-10.52.16-.41.33-.82.5-1.22.07-.16.13-.32.2-.48.37-.89-.43.99-.05.12.35-.82.7-1.63,1.07-2.44.67-1.48,1.38-2.94,2.14-4.38.66-1.24,1.36-2.47,2.13-3.65.34-.53.71-1.04,1.07-1.55.62-.86-.72.86-.06.08.21-.25.42-.51.65-.75.34-.37.7-.72,1.07-1.06.76-.71-.64.42-.27.19.24-.15.47-.32.71-.47.97-.61,1.98-1.15,3.01-1.65.52-.26,1.06-.5,1.59-.73,1.05-.47-.61.23.06-.02.39-.15.77-.31,1.15-.45,4.71-1.77,9.66-2.91,14.62-3.68.44-.07.87-.13,1.31-.19.58-.08.78.18-.22.03.18.03.51-.07.69-.09.74-.09,1.48-.17,2.22-.25.67-.07,1.34-.13,2.01-.16,2.35-.13,4.61-1.97,4.5-4.5-.1-2.32-1.98-4.64-4.5-4.5-6.61.37-13.36,1.58-19.68,3.53-4.59,1.41-9.51,3.23-13.25,6.33-2.09,1.73-3.7,4.09-5.1,6.4-3.78,6.23-6.41,13.21-8.84,20.05s-4.55,13.76-6.5,20.73c-1.04,3.74-2.06,7.49-2.97,11.26-.55,2.28.72,4.98,3.14,5.54s4.95-.69,5.54-3.14h0Z" style="fill: #fff;"/>
          </g>
          <g>
            <rect x="1319.15" y="342.87" width="258.04" height="94.71" rx="30.89" ry="30.89" transform="translate(118.94 -304.49) rotate(12.51)" style="fill: #ffae0c;"/>
            <g style="clip-path: url(#clippath); fill: none;">
              <g>
                <path d="m1562.79,390.05c6.45,1.5,10.56,8.3,9.14,15.11h0c-2.37,11.35-13.09,18.59-23.84,16.09l-201.17-46.84c-10.74-2.5-17.59-13.83-15.23-25.18h0c1.42-6.81,7.86-11.15,14.3-9.65" style="fill: none; stroke: #fee102; stroke-miterlimit: 10; stroke-width: 4.11px;"/>
                <line x1="1356.54" y1="376.65" x2="1347.73" y2="418.91" style="fill: none; stroke: #fee102; stroke-miterlimit: 10; stroke-width: 4.11px;"/>
                <line x1="1401.62" y1="387.14" x2="1392.81" y2="429.4" style="fill: none; stroke: #fee102; stroke-miterlimit: 10; stroke-width: 4.11px;"/>
                <line x1="1446.7" y1="397.64" x2="1437.89" y2="439.9" style="fill: none; stroke: #fee102; stroke-miterlimit: 10; stroke-width: 4.11px;"/>
                <line x1="1502.08" y1="374.27" x2="1430.99" y2="357.71" style="fill: none; stroke: #fee102; stroke-miterlimit: 10; stroke-width: 4.11px;"/>
                <line x1="1491.78" y1="408.14" x2="1482.97" y2="450.4" style="fill: none; stroke: #fee102; stroke-miterlimit: 10; stroke-width: 4.11px;"/>
                <line x1="1536.86" y1="418.64" x2="1528.05" y2="460.89" style="fill: none; stroke: #fee102; stroke-miterlimit: 10; stroke-width: 4.11px;"/>
              </g>
            </g>
          </g>
        </g>
        <g>
          <path d="m1043.66,207.4l22.83-101.69-207.9-46.67-23.64,105.29-57.23,32.92c-17.9,10.29-30.66,27.62-35.19,47.76l-159.85,710.88,351.9,79,161.3-718.45c4.94-21.99-.45-45.02-14.62-62.54l-37.6-46.5Z" style="fill: #6acce3;"/>
          <path d="m1025.52,226.64l3.21-13.15c1.71-6.99-2.67-14.02-9.69-15.58l-147.38-32.71c-6.82-1.51-13.6,2.7-15.25,9.49l-3.16,12.94c-1.45,5.94-4.97,11.17-9.92,14.76l-35.91,25.97c-16.15,11.68-27.45,28.87-31.77,48.33l-144.39,653.55,272.64,60.51,145.33-657.78c3.75-16.88,2.02-34.51-4.92-50.34l-17.34-39.54c-2.27-5.18-2.77-10.95-1.43-16.45Z" style="fill: #fee102;"/>
          <g>
            <path d="m1026.47,163.7c-1.78,7.02-3.57,14.04-5.35,21.06-2.97,11.7-5.95,23.4-8.92,35.1l-2.5,9.85c-1.92,7.57-1.71,15.47,1.3,22.74,1.36,3.29,3.1,5.88,5.09,8.75,2.75,3.98,5.49,7.95,8.24,11.93,6.93,10.03,13.86,20.06,20.79,30.1l6.42,9.3c.46.67.93,1.33,1.37,2.02.72,1.11,1.36,2.26,1.93,3.45.13.28.26.56.39.84.31.71-.19-.51.08.21s.53,1.44.75,2.18c.38,1.25.66,2.52.9,3.8.17.91.07.38.04.17.04.3.07.61.1.92.07.77.12,1.53.13,2.3.06,3.32-.38,5.21-1.07,8.49s-1.39,6.64-2.09,9.97c-2.32,11.04-4.63,22.07-6.95,33.11-2.53,12.04-5.05,24.07-7.58,36.11-1.51,7.19-3.02,14.39-4.53,21.58l-.22,1.03c-.48,2.3.67,4.97,3.14,5.54,2.26.51,5.02-.68,5.54-3.14,1.08-5.13,2.15-10.26,3.23-15.39,2.39-11.4,4.79-22.8,7.18-34.2s4.96-23.63,7.44-35.44c1.34-6.38,2.69-12.77,4.02-19.15,1.77-8.49.7-17.24-3.47-24.9-1.35-2.48-3.09-4.78-4.69-7.1-6.37-9.22-12.74-18.44-19.1-27.66-5.41-7.83-10.82-15.67-16.23-23.5-.69-1-1.29-1.98-1.84-3.08-.14-.28-.27-.56-.41-.84-.39-.82-.19-.39-.1-.2-.27-.64-.5-1.3-.72-1.96-.44-1.31-.78-2.66-1.04-4.02-.06-.3-.11-.61-.16-.91-.13-.85.07,1.05-.05-.4-.05-.61-.11-1.22-.13-1.84-.06-1.39,0-2.77.11-4.16.07-.92.03-.4,0-.19.04-.31.09-.62.15-.92.12-.69.27-1.38.43-2.06.03-.11.06-.23.08-.34.07-.27.14-.53.2-.8l.98-3.85c2.73-10.75,5.46-21.5,8.2-32.26,2.4-9.44,4.8-18.87,7.19-28.31.13-.51.26-1.02.39-1.53.58-2.28-.74-4.99-3.14-5.54s-4.92.7-5.54,3.14h0Z" style="fill: #fff;"/>
            <path d="m874.66,114.41c-1.2,7.53-2.41,15.05-3.61,22.58-1.95,12.16-3.89,24.32-5.84,36.48-.47,2.94-.93,5.87-1.41,8.81-.12.74-.25,1.48-.42,2.21-.26,1.16-.6,2.3-.99,3.43-.09.25-.18.5-.27.74,0-.02-.49,1.16-.22.56s-.27.57-.26.54c-.17.35-.35.71-.53,1.06-.55,1.04-1.16,2.06-1.82,3.03-.18.27-.37.54-.57.8-.13.18-.68.85-.13.18-.42.51-.84,1.01-1.28,1.5-.8.88-1.65,1.71-2.55,2.48-.3.26-.61.51-.92.76.14-.11.66-.48-.04.03-.11.08-.23.16-.34.25-5.86,4.24-11.76,8.42-17.64,12.63-10.39,7.45-20.79,14.89-31.18,22.34-5.66,4.05-11.39,8.03-16.98,12.17-8.9,6.6-15.56,15.63-19.06,26.17-1.05,3.16-1.64,6.4-2.23,9.67-1.68,9.32-3.36,18.65-5.04,27.97-2.29,12.69-4.58,25.39-6.87,38.08-1.48,8.21-2.96,16.42-4.44,24.64-.07.4-.14.8-.22,1.2-.42,2.31.63,4.96,3.14,5.54,2.2.5,5.09-.67,5.54-3.14,1.06-5.89,2.12-11.77,3.18-17.66,2.23-12.36,4.46-24.72,6.69-37.08,1.96-10.86,3.92-21.72,5.87-32.58.44-2.43.87-4.85,1.31-7.28s1.06-4.94,1.87-7.34c.21-.63.44-1.25.68-1.87.1-.25.2-.49.29-.74.47-1.18-.24.49.09-.21.57-1.19,1.12-2.39,1.75-3.56.6-1.1,1.24-2.18,1.92-3.23.29-.44.58-.88.89-1.31.19-.27.38-.54.58-.81.11-.15.96-1.25.37-.51,1.56-1.98,3.27-3.84,5.12-5.55.88-.82,1.8-1.59,2.73-2.35.67-.54.19-.14.04-.04.27-.2.54-.4.81-.6.06-.04.12-.09.19-.13.52-.38,1.04-.75,1.57-1.12l9.32-6.67c10.15-7.27,20.31-14.55,30.46-21.82,7.58-5.43,15.15-10.85,22.73-16.28,5.2-3.73,9.67-8.22,12.46-14.07,1.97-4.13,2.87-8.35,3.58-12.79,1.74-10.9,3.49-21.79,5.23-32.69,1.62-10.12,3.24-20.23,4.86-30.35.09-.55.18-1.1.27-1.66.37-2.31-.59-4.96-3.14-5.54-2.16-.49-5.14.66-5.54,3.14h0Z" style="fill: #fff;"/>
            <path d="m752.47,282.09c2.3-9.56,5.05-19.04,8.2-28.35,1.19-3.54,2.46-7.05,3.85-10.52.16-.41.33-.82.5-1.22.07-.16.13-.32.2-.48.37-.89-.43.99-.05.12.35-.82.7-1.63,1.07-2.44.67-1.48,1.38-2.94,2.14-4.38.66-1.24,1.36-2.47,2.13-3.65.34-.53.71-1.04,1.07-1.55.62-.86-.72.86-.06.08.21-.25.42-.51.65-.75.34-.37.7-.72,1.07-1.06.76-.71-.64.42-.27.19.24-.15.47-.32.71-.47.97-.61,1.98-1.15,3.01-1.65.52-.26,1.06-.5,1.59-.73,1.05-.47-.61.23.06-.02.39-.15.77-.31,1.15-.45,4.71-1.77,9.66-2.91,14.62-3.68.44-.07.87-.13,1.31-.19.58-.08.78.18-.22.03.18.03.51-.07.69-.09.74-.09,1.48-.17,2.22-.25.67-.07,1.34-.13,2.01-.16,2.35-.13,4.61-1.97,4.5-4.5-.1-2.32-1.98-4.64-4.5-4.5-6.61.37-13.36,1.58-19.68,3.53-4.59,1.41-9.51,3.23-13.25,6.33-2.09,1.73-3.7,4.09-5.1,6.4-3.78,6.23-6.41,13.21-8.84,20.05s-4.55,13.76-6.5,20.73c-1.04,3.74-2.06,7.49-2.97,11.26-.55,2.28.72,4.98,3.14,5.54s4.95-.69,5.54-3.14h0Z" style="fill: #fff;"/>
          </g>
          <g>
            <rect x="837.15" y="20.87" width="258.04" height="94.71" rx="30.89" ry="30.89" transform="translate(37.73 -207.71) rotate(12.51)" style="fill: #ffae0c;"/>
            <g style="clip-path: url(#clippath-1); fill: none;">
              <g>
                <path d="m1080.79,68.05c6.45,1.5,10.56,8.3,9.14,15.11h0c-2.37,11.35-13.09,18.59-23.84,16.09l-201.17-46.84c-10.74-2.5-17.59-13.83-15.23-25.18h0c1.42-6.81,7.86-11.15,14.3-9.65" style="fill: none; stroke: #fee102; stroke-miterlimit: 10; stroke-width: 4.11px;"/>
                <line x1="874.54" y1="54.65" x2="865.73" y2="96.91" style="fill: none; stroke: #fee102; stroke-miterlimit: 10; stroke-width: 4.11px;"/>
                <line x1="919.62" y1="65.14" x2="910.81" y2="107.4" style="fill: none; stroke: #fee102; stroke-miterlimit: 10; stroke-width: 4.11px;"/>
                <line x1="964.7" y1="75.64" x2="955.89" y2="117.9" style="fill: none; stroke: #fee102; stroke-miterlimit: 10; stroke-width: 4.11px;"/>
                <line x1="1020.08" y1="52.27" x2="948.99" y2="35.71" style="fill: none; stroke: #fee102; stroke-miterlimit: 10; stroke-width: 4.11px;"/>
                <line x1="1009.78" y1="86.14" x2="1000.97" y2="128.4" style="fill: none; stroke: #fee102; stroke-miterlimit: 10; stroke-width: 4.11px;"/>
                <line x1="1054.86" y1="96.64" x2="1046.05" y2="138.89" style="fill: none; stroke: #fee102; stroke-miterlimit: 10; stroke-width: 4.11px;"/>
              </g>
            </g>
          </g>
        </g>
        <g>
          <g>
            <path d="m978.63,978.39c-52.74-14.9-99.15-25.04-140.3-31.28-.02,0-.03,0-.05-.01-289.35-69.29-459.65-48.71-459.65-48.71l-121.24-133.33c-11.64-20.11-28.21-32.67-46.76-32.67-35.62,0-65,46.34-65,103.5,0,21.92,4.25,42.23,11.49,58.97-22.52,14.27-37.49,39.4-37.49,68.03,0,31.57,18.18,58.88,44.64,72.07-11.64,12.31-18.64,28.15-18.64,45.43,0,39.21,36.04,71,80.5,71,30.94,0,57.79-15.4,71.26-37.98h.01c106.77,41.03,203.83,96.48,203.83,96.48h0c65.97,93.54,179.13,208.68,324.4,256.5,325,107,617,164,673,44,55.75-119.47-200.96-441.84-520-532Z" style="fill: #06b2da;"/>
            <g style="clip-path: url(#clippath-2); fill: none;">
              <g>
                <path d="m680.04,1274.6c-6.17-2.17-12.33-4.34-18.5-6.51-2.61-.92-5.3-1.76-7.81-2.92-5.32-2.47-10.07-5.92-14.02-10.26-7.57-8.31-11.53-19.46-11.11-30.61.44-11.86,6.02-23.23,15.04-31.01,8.82-7.6,20.57-11.19,32.08-10.14,2.73.25,5.97.56,8.36,2.01,2.23,1.35,3.57,3.51,4.12,5.92.98,4.29-1.8,8.69-6.24,10.27-3.32,1.18-6.15.28-9.09-1.37-2.59-1.46-5.03-3.16-7.26-5.12-4.46-3.94-8.03-8.71-10.59-14.08-5.18-10.85-5.37-23.62-.84-34.74s13.07-19.29,23.66-23.49c5.49-2.18,11.2-3.25,17.08-3.12,5.36.11,12.18.52,14.91,5.9,1.08,2.13,1.14,4.5.44,6.71s-2.3,4.04-4.47,5.15c-2.5,1.28-5.54,1.66-8.21.48s-5.17-2.84-7.45-4.57c-9.17-7.01-15.39-17.97-16.59-29.42-1.26-12.03,2.54-24.36,10.65-33.39s18.82-13.93,30.34-14.38c2.83-.11,5.71.01,8.49.47,2.94.49,5.72,1.05,7.8,3.36,3.35,3.73,2.87,9.2-.58,12.46-1.73,1.63-4.43,2.68-6.94,2.64-3.11-.05-5.96-1.99-8.47-3.65-4.87-3.21-9.06-7.48-12.22-12.38-6.45-10.01-8.58-22.36-5.65-33.92s10.16-20.96,20.18-26.77,21.88-7.31,32.96-4.25c6.65,1.83,13.13,4.5,19.62,6.79,2.13.75,4.26,1.5,6.38,2.25,1.53.54,3.28-.61,3.69-2.1.46-1.66-.56-3.15-2.1-3.69-6.7-2.36-13.4-4.72-20.11-7.08-3.72-1.31-7.42-2.52-11.34-3.11-6.65-.99-13.4-.72-19.91.98-12.74,3.32-23.92,11.88-30.36,23.37-6.78,12.09-8.23,26.89-3.66,40,2.24,6.44,5.76,12.37,10.38,17.39,2.33,2.54,4.96,4.79,7.76,6.79s6.22,4.24,9.69,5c6.94,1.52,14.69-2.08,17.58-8.67s.73-14.31-5.2-18.44c-3.06-2.13-6.9-2.67-10.52-3.12-3.27-.4-6.57-.47-9.85-.17-6.6.6-12.98,2.46-18.85,5.56-12.12,6.4-21.15,17.95-24.52,31.23-3.38,13.29-.95,27.79,6.68,39.2,3.83,5.73,8.8,10.62,14.62,14.31,3.3,2.09,6.82,3.96,10.82,4.03,3.4.05,7.04-1.18,9.75-3.22,5.63-4.24,7.52-11.78,4.64-18.2-1.44-3.21-4.15-5.89-7.37-7.31s-7.13-1.87-10.67-2.13c-13.38-.97-26.86,3.92-36.69,13s-16.01,23.24-15.65,37.11,6.35,26.54,16.43,35.45c5.47,4.83,12.68,9.99,20.35,8.53,6.76-1.29,11.91-6.8,12.57-13.65.7-7.26-4.42-14.03-11.43-15.7s-13.68-1.69-20.45-.43c-13.18,2.46-25.01,10.58-32.2,21.87s-9.49,25.88-5.96,39.01c3.42,12.72,12.06,23.84,23.62,30.19,3.46,1.9,7.14,3.22,10.85,4.53l12.48,4.39c2.42.85,4.83,1.7,7.25,2.55,1.53.54,3.28-.61,3.69-2.1.46-1.66-.56-3.15-2.1-3.69h0Z" style="fill: #66cbe3;"/>
                <path d="m1023.51,1175.73c-5.53-3.3-10.68-7.78-14.35-12.84s-5.95-10.01-7.01-16.02c-.15-.87-.13-.66-.21-1.49-.08-.76-.13-1.52-.16-2.28-.05-1.4,0-2.81.14-4.2.01-.14.11-.86.04-.39.05-.34.11-.69.17-1.03.12-.68.27-1.36.45-2.03s.37-1.34.6-2c.1-.28.2-.56.3-.84.07-.19.14-.37.22-.56.19-.47-.16.35.05-.11,2.4-5.39,6.18-9.35,11.26-12.11s11.37-3.98,17.5-3.79c3.38.1,6.41.57,9.72,1.44s6.95,2.03,9.94,3.86c1.32.81,2.44,1.92,3.23,3.23.64,1.07,1.04,2.34,1.06,3.27,0,.3,0,.61-.04.91.06-.53-.1.35-.14.5-.04.16-.37.92-.16.49-.15.3-.32.59-.51.86-.27.4.26-.29-.06.07-.1.11-.19.22-.3.32-.09.09-.62.55-.29.29-.28.22-.59.39-.9.56-.48.27-.21.16-.75.31-2.6.72-5.68.33-8.24-1.3-2.89-1.85-5.49-4.37-7.79-6.9-4.22-4.63-7.49-10.18-9.15-16.11-.85-3.03-1.19-5.25-1.19-8.32,0-.74.02-1.48.08-2.21.02-.31.05-.63.08-.94.02-.21.04-.42.07-.62-.04.33,0,.02.02-.13.24-1.44.57-2.87,1.02-4.26.77-2.38,2.16-5.05,3.77-7.16s3.92-4.21,6.12-5.64c5.07-3.3,10.93-4.85,16.9-5.04,6.73-.21,13.44,1.16,19.67,3.95,2.78,1.25,5.52,3.03,6.54,5.79.14.37.23.74.33,1.12.04.16.07.32.1.48-.06-.44,0,.08,0,.14.01.31,0,.61,0,.92,0,.1-.08.58,0,.09-.03.19-.08.38-.13.57s-.3.88-.23.73c.09-.18-.24.41-.32.53-.04.06-.38.54-.18.28.18-.23-.12.13-.13.14-.11.11-.83.76-.49.5-1.03.79-2.05,1.09-3.16,1.18-1.49.12-2.83.04-4.26-.42-3.19-1.01-5.97-3.76-8.31-6.06-4.52-4.43-8.31-9.97-10.35-15.75-.52-1.46-.95-2.96-1.28-4.47s-.47-2.47-.58-3.85c-.11-1.48-.13-2.96-.03-4.44.02-.37.05-.73.09-1.1.01-.12.11-.88.05-.45.11-.77.26-1.55.44-2.31,1.29-5.54,4.18-10.09,8.69-13.77.23-.19.74-.57,1.28-.93.65-.45,1.32-.86,2-1.26.6-.34,1.21-.66,1.82-.97.34-.16.67-.32,1.01-.47.37-.17.12-.06.62-.26,1.42-.56,2.87-1.02,4.35-1.4.7-.18,1.4-.33,2.11-.47.39-.07.77-.14,1.16-.2.55-.09.33-.06.88-.12,6.66-.77,12.97.06,19.29,2.21,3.24,1.1,6.31,2.57,9.26,4.3,3.34,1.96,6.36-3.22,3.03-5.18-13.13-7.71-29.85-10.43-44.02-3.93-6.1,2.8-11.35,7.57-14.5,13.51-3.32,6.26-4.21,13.31-3.18,20.27s4.24,13.86,8.58,19.53c2.41,3.15,5.11,6.03,8.16,8.57,3.53,2.93,7.25,5.33,11.99,5.48,3.56.11,7.38-.95,9.78-3.72s3.19-6.87,1.97-10.45c-1.34-3.95-4.34-7.14-8.07-8.94s-7.74-3.26-11.83-4.17c-14.19-3.15-30.6-.2-39.87,11.84s-7.54,27.39-.33,39.48c2,3.34,4.42,6.46,7.13,9.26,1.33,1.37,2.73,2.67,4.21,3.88,1.69,1.39,3.43,2.84,5.43,3.76,3.56,1.63,7.91,2.23,11.67.85,3.51-1.29,6.31-4.17,6.91-7.94.64-4.03-.93-7.91-3.64-10.87-2.92-3.2-7.28-4.83-11.28-6.2-7.4-2.53-15.33-3.34-23.07-2.19-6.99,1.04-13.75,4.03-18.93,8.87-4.86,4.54-8.16,10.76-9.16,17.34-2.15,14.05,4.74,27.92,14.97,37.25,2.86,2.61,6,4.92,9.32,6.9s6.34-3.2,3.03-5.18h0Z" style="fill: #66cbe3;"/>
                <path d="m1040.21,1338.6c-11.21-6.19-19.83-16.62-21.96-29.24-.02-.14-.16-1.02-.1-.6-.04-.31-.08-.62-.11-.93-.08-.77-.13-1.55-.16-2.32-.05-1.49,0-2.99.15-4.47.02-.15.03-.31.05-.46.06-.52-.06.4.01-.12.05-.36.11-.71.17-1.06.13-.71.28-1.41.46-2.11.34-1.34.89-3.02,1.33-4.05,2.25-5.34,6.36-10.01,11.32-13.06,5.33-3.28,11.54-4.9,17.76-5.05,3.44-.09,6.62.21,9.86.9s6.96,1.66,9.96,3.36c1.35.77,2.52,1.85,3.32,3.17.34.56.6,1.1.74,1.52.12.37.22.74.3,1.11.07.35.03.07.02,0,.04.26.05.52.05.78,0,.36,0,.71-.04,1.07.06-.48-.1.38-.14.52s-.33.95-.15.53c-.16.36-.36.7-.57,1.03-.27.43.09-.04-.25.33-.23.26-.48.51-.75.73-.03.03-.15.13-.5.35-.18.11-.36.21-.55.31-.07.04-.44.22-.16.1-.73.31-1.53.48-2.31.6-.11.02-.79.08-.38.05.45-.04-.21,0-.25,0-.33.01-.67.03-1,.02-1.68-.04-3.3-.59-4.73-1.47-2.91-1.8-5.53-4.2-7.87-6.71-4.4-4.7-7.73-10.39-9.42-16.53-1.58-5.76-1.66-11.64.13-17.37,3.69-11.77,15.07-19.26,27.12-20.35,6.97-.63,13.6.44,20.14,2.97,2.83,1.1,5.57,2.96,6.51,5.65.13.37.23.74.32,1.11.01.06.12.59.05.15.02.15.03.31.04.47.02.36,0,.72,0,1.08,0,.02-.06.51-.01.2.05-.33-.09.41-.11.48-.28,1.11-.69,1.8-1.63,2.67-.42.39-.21.19-.1.1-.12.09-.25.18-.38.26-.31.19-.63.38-.96.54.32-.15-.54.19-.66.22-.44.13-.89.23-1.35.3-.24.04-.47.08-.71.1.72-.07-.49,0-.69,0-.91,0-1.74-.11-2.61-.35-3.23-.92-6.06-3.6-8.44-5.87s-4.54-4.78-6.35-7.55-3.21-5.54-4.21-8.37c-.53-1.52-.98-3.08-1.31-4.66-.36-1.67-.47-2.43-.59-4.08-.23-3.14-.05-5.95.57-8.7,1.33-5.97,4.33-11.01,8.91-15.06,4.33-3.83,9.87-6.26,15.84-7.36s12.84-.63,19,1.14c3.33.96,6.42,2.25,9.46,3.9,3.39,1.84,6.43-3.34,3.03-5.18-13.51-7.34-30.45-9.02-44.36-1.74-6.26,3.27-11.57,8.47-14.77,14.78s-4.36,13.98-3.32,21.29,4.21,14.17,8.65,19.96c2.44,3.18,5.2,6.07,8.33,8.58,3.64,2.92,7.54,5.42,12.4,5.27,3.67-.11,7.42-1.36,9.82-4.26s3.26-7.14,2.03-10.86c-2.79-8.38-12.33-11.29-20.22-12.62-14.97-2.52-31.1,1.86-40.34,14.48s-7.78,28.62-.29,41.14c2.03,3.39,4.51,6.55,7.3,9.35,1.36,1.37,2.8,2.65,4.32,3.85,1.7,1.34,3.43,2.73,5.42,3.61,7.12,3.17,17.55.71,18.94-8.05.66-4.18-.93-8.3-3.85-11.31s-7.29-4.52-11.3-5.69c-7.55-2.21-15.63-2.63-23.34-1-14.17,2.99-26.18,13.97-28.38,28.61s4.47,28.83,15.27,38.31c2.94,2.59,6.16,4.86,9.59,6.75s6.41-3.31,3.03-5.18h0Z" style="fill: #66cbe3;"/>
                <path d="m593.62,1270.09c-8.12-2.1-15.31-7.27-18.61-14.99.13.31-.22-.59-.28-.76-.16-.45-.31-.9-.44-1.35-.28-.95-.5-1.93-.64-2.91.07.49-.02-.17-.03-.29-.02-.26-.05-.52-.06-.78-.02-.42-.04-.83-.04-1.25,0-.52.02-1.05.06-1.57.02-.21.04-.42.06-.63.11-1.01-.11.54.07-.46.68-3.87,2.3-7.06,4.93-9.76s6.1-4.7,9.81-5.8c4.04-1.21,8.58-1.6,12.75-.78.95.19,1.81.52,2.57,1.14.16.13.64.61.63.6.14.17.25.37.36.56.32.51.05-.06.22.44-.02-.06.23.9.16.49s.03.54.02.49c0,.09-.04.6.03.08-.03.19-.08.38-.13.57-.11.4-.58,1.06-.94,1.32-.21.15-1.28.68-.59.38-.48.21-.98.4-1.49.5-1.14.22-2.21,0-3.29-.39-2.01-.73-3.98-1.79-5.8-2.98-3.38-2.22-6.24-5.2-8.21-8.7s-2.81-6.97-2.56-10.86c.47-7.42,6.15-13.79,13.24-16.39,4.19-1.54,8.25-1.98,12.72-1.55,1.71.16,3.83.64,4.87,1.97.12.15.61,1.01.48.71.1.24.16.49.23.74.14.5.03-.63.05.24,0,.2,0,.39,0,.59,0-.14.15-.51-.02.07-.05.19-.09.38-.16.56.18-.5-.14.24-.2.35-.46.76.18-.15-.17.23-.17.19-.36.38-.56.54.19-.15-.61.32-.79.42.51-.29.25-.09.05-.02-.29.1-.55.21-.84.3-.58.17-1.13.22-1.74.19-2.09-.11-4.25-1.38-6.03-2.4-3.63-2.06-6.87-4.95-9.07-8.32-4.28-6.57-4.75-14.47-.35-21.01,2.02-3,5.13-5.42,8.72-7.09s7.94-2.41,12.07-2.28c2.23.07,4.18.36,6.37.9,3.75.93,5.35-4.86,1.6-5.79-10.44-2.58-22.2-.68-30.23,6.83-3.63,3.4-6.28,7.98-7.19,12.88-.95,5.16-.21,10.29,1.92,15.05s5.74,8.78,9.92,11.89c2.09,1.55,4.36,2.81,6.76,3.83,3.14,1.34,6.44,2.08,9.74.76,2.62-1.04,4.7-2.72,5.72-5.41s.46-5.58-1.08-7.8c-3.52-5.06-10.35-5.46-15.99-4.96-10.44.94-20.34,6.63-24.4,16.61s-.42,20.64,6.79,27.8c1.96,1.95,4.2,3.66,6.58,5.07s5.14,2.86,7.88,3.31c5.6.92,12.43-2.64,12.1-9.03-.15-3.03-1.79-5.61-4.2-7.37-2.54-1.85-5.69-2.21-8.75-2.38-5.42-.3-10.85.75-15.77,3.02-9.16,4.21-15.62,13.62-14.85,23.88s7.76,19.07,16.77,23.65c2.44,1.24,5.02,2.22,7.67,2.9,3.74.97,5.34-4.82,1.6-5.79h0Z" style="fill: #66cbe3;"/>
                <path d="m916.59,1152.54c-5.95-2.15-11.86-5.26-16.75-9.06-2.26-1.76-4.39-3.73-6.3-5.86-1.69-1.89-3.01-3.67-4.33-6.07-.28-.51-.54-1.02-.79-1.55-.14-.3-.28-.6-.41-.91.2.47-.11-.3-.17-.45-.39-1.05-.72-2.14-.95-3.24-.05-.26-.1-.51-.15-.77-.04-.23-.1-.77-.04-.23-.06-.55-.11-1.1-.12-1.66s0-1.1.03-1.64c.02-.25.04-.5.07-.75-.06.61.02-.09.06-.32.19-1.05.49-2.07.88-3.07-.18.46.06-.13.14-.29.12-.25.24-.49.37-.73.3-.56.64-1.1,1.01-1.62.09-.13.49-.64.19-.27.17-.21.35-.43.53-.63.4-.45.82-.88,1.27-1.3.21-.19.42-.38.63-.56.11-.09.62-.51.47-.4s.39-.29.51-.37c.28-.2.57-.39.86-.57,4.49-2.86,9.99-4.13,15.38-4.42,6.73-.37,13.87.45,20.26,2.66,2.42.84,5.03,2.55,6.04,4.84-.17-.39.09.38.13.52.11.33.02-.06,0-.13.02.13.02.26.02.39s0,.26,0,.38c0-.05.11-.5.02-.18-.07.25-.35.79-.07.33-.11.18-.43.6-.1.23-.18.2-.36.39-.57.56.37-.3-.21.1-.34.17,0,0-.43.22-.2.11.17-.08-.34.12-.4.14-.58.18-1.16.29-1.76.39-.66.11.45-.01-.35.04-.46.03-.92.05-1.39.04-1.65-.04-3.29-.43-4.82-1.04-3.11-1.24-6.1-2.96-8.91-4.77-4.86-3.13-9.61-7.28-12.74-11.81-.74-1.07-1.42-2.18-2.03-3.34-.28-.53-.54-1.07-.79-1.62-.22-.49.04.14-.15-.36-.12-.31-.24-.63-.35-.95-.4-1.15-.7-2.31-.92-3.51-.02-.13-.04-.27-.07-.4,0,.05.06.48.02.13-.03-.27-.06-.53-.08-.8-.04-.57-.06-1.15-.04-1.72.01-.53.05-1.05.11-1.57-.06.54,0-.02.05-.24.06-.34.14-.69.22-1.02.13-.51.28-1.02.46-1.51.06-.16.3-.76.1-.3.13-.29.27-.58.41-.86.25-.49.52-.96.82-1.42.15-.23.3-.45.46-.68.08-.11.16-.22.24-.33-.19.24-.1.13.04-.04.79-.93,1.65-1.78,2.59-2.55.41-.34-.13.08.3-.24.24-.17.47-.34.72-.5.54-.36,1.09-.7,1.65-1.01s1.08-.58,1.63-.84c.73-.35.73-.35,1.62-.68,2.48-.93,5.5-1.64,7.85-1.94,6.62-.83,13.38-.2,19.84,1.39,3.03.75,6,1.64,8.25,3.94.45.46.69.74,1.04,1.34.06.11.38.79.22.39.06.16.27.94.22.68-.05-.3,0,.39,0,.52.02.34.03-.11.04-.17-.03.12-.05.24-.09.36s-.07.24-.11.35c.02-.05.22-.43.04-.15-.07.11-.13.22-.2.32.31-.47,0-.02-.12.09-.1.09-.19.19-.3.27.05-.04.33-.23.04-.06-.14.09-.65.37-.58.34-.35.16-1.35.39-1.97.5-.16.03-.32.05-.49.07.71-.1-.2,0-.45.02-.81.04-1.65.03-2.45-.09-3.33-.5-6.47-2.3-9.36-3.94-5.38-3.06-10.29-6.87-14.23-11.68-.63-.77-1.42-1.86-2.11-2.94s-1.36-2.28-1.93-3.49c-.06-.13-.33-.75-.27-.59s-.18-.45-.23-.59c-.22-.58-.41-1.16-.58-1.76-.15-.53-.29-1.07-.4-1.62-.06-.27-.1-.54-.15-.81-.1-.5.01.28-.05-.41-.11-1.15-.11-2.29-.02-3.44.01-.13.03-.26.04-.39,0,.04-.08.5-.02.15.05-.26.09-.52.14-.77.12-.56.26-1.11.44-1.65.08-.26.18-.51.27-.76.18-.53-.12.21.12-.29.28-.57.56-1.14.89-1.68.28-.46.59-.92.92-1.35-.29.39.11-.13.22-.25.21-.24.43-.48.65-.72.39-.41.79-.79,1.21-1.16.21-.19.43-.37.65-.55.26-.22,0,0-.04.03.15-.12.31-.23.47-.34,1.05-.75,2.17-1.41,3.33-1.99.28-.14.56-.27.84-.4.1-.04.78-.33.44-.19.65-.26,1.3-.5,1.97-.72,1.39-.46,2.81-.82,4.24-1.11,5.83-1.17,12.47-.97,18.56.17,3.59.67,7.1,1.65,10.54,2.87,1.53.54,3.28-.61,3.69-2.1.46-1.66-.56-3.15-2.1-3.69-7.57-2.69-15.68-4.23-23.73-4-6.61.18-13.47,1.51-19.21,4.93-4.9,2.92-8.88,7.55-10.11,13.23s.17,11.52,2.93,16.58c3.28,6.01,8.33,10.92,13.82,14.92,3.02,2.2,6.24,4.1,9.6,5.73,3.83,1.86,7.86,3.28,12.19,2.74,3.2-.4,6.66-1.52,8.21-4.63,1.68-3.38.48-6.93-1.8-9.68-2.53-3.05-6.3-4.78-10.04-5.79-3.99-1.08-8.08-1.79-12.2-2.14-11.94-1.01-28.05,1.58-33.94,13.59s1.63,24.2,10.36,32.01c2.79,2.5,5.84,4.73,9.05,6.68s7.05,4.14,10.87,5.14c3.6.94,7.69.95,11.12-.62,3.13-1.43,4.97-4.58,4.49-8-.51-3.62-3.33-6.48-6.3-8.37-3.47-2.2-7.73-3.1-11.72-3.83-7.4-1.35-15.06-1.59-22.43.08-5.84,1.33-11.84,4.08-15.71,8.8s-5.13,10.02-4.32,15.75,3.85,10.91,7.51,15.3c4.42,5.31,10.14,9.59,16.18,12.9,3.36,1.84,6.88,3.37,10.48,4.68,1.52.55,3.29-.62,3.69-2.1.46-1.67-.57-3.14-2.1-3.69h0Z" style="fill: #66cbe3;"/>
                <path d="m621.6,1067c-5.46-1.7-10.74-4.51-14.94-8.21-.94-.83-1.85-1.71-2.71-2.62-.93-.99-1.88-2.13-2.5-2.99-.73-1.01-1.4-2.06-2.02-3.14-.29-.51-.56-1.02-.82-1.55-.14-.28-.28-.57-.41-.86-.26-.56-.17-.37-.32-.73-.46-1.15-.85-2.33-1.15-3.53-.13-.49-.24-.99-.34-1.49-.06-.3-.11-.6-.16-.9-.05-.37-.06-.4-.02-.11-.03-.2-.05-.4-.07-.6-.12-1.21-.16-2.42-.1-3.63.03-.61.08-1.21.15-1.81-.06.48,0-.03.02-.11.07-.4.14-.8.22-1.2,1.05-4.99,3.53-8.96,7.39-12.31,1.7-1.47,3.93-2.87,6.25-3.98,2.1-1,4.88-1.88,7.46-2.41,5.29-1.09,11.7-1.16,17.08.45,1.28.38,2.44,1.08,3.37,2.03.72.72,1.25,1.64,1.45,2.37.01.05.18,1,.11.38.03.29.01.58.03.87.03.77.18-.4-.04.33-.08.27-.14.55-.24.82.21-.55-.74,1.02-.41.65-.54.62-.52.6-1.18,1-.76.45-1.67.78-2.73.94-1.65.26-3.32-.09-4.85-.72-2.68-1.11-5.25-2.6-7.63-4.26-4.38-3.06-8.09-7.06-10.62-11.75-2.31-4.27-3.44-8.87-3.01-13.85.09-1.02.25-1.93.6-3.26s.84-2.65,1.24-3.5c1.13-2.37,2.38-4.16,4.02-5.88,3.49-3.66,7.94-6.09,12.83-7.48,5.39-1.54,11.15-1.81,16.71-.88,2.6.44,5.37,1.17,6.95,3.18.21.26.39.56.55.85-.01-.02.42.92.24.44.11.29.17.59.26.88.23.76.06-.41.06.37,0,.29,0,.57-.01.86.05-.64-.07.24-.09.32-.02.06-.35.89-.09.35-.16.34-.36.69-.59.99.34-.44-.8.71-.41.41-.35.28-1.18.73-1.33.78-1.24.5-2.51.72-3.84.65-2.88-.15-5.79-1.97-8.2-3.42-4.67-2.8-8.89-6.64-11.76-11.07-1.48-2.27-2.48-4.3-3.25-6.66-.39-1.21-.71-2.45-.93-3.7,0,0-.16-1.02-.08-.45-.04-.31-.07-.63-.1-.94-.06-.63-.09-1.25-.1-1.88-.04-2.76.25-4.62,1.15-7.31.41-1.23.6-1.65,1.2-2.8.63-1.21,1.36-2.37,2.2-3.45-.31.4.34-.4.32-.38.2-.24.41-.48.62-.71.35-.39.72-.77,1.1-1.14,1.01-.99,1.91-1.74,2.84-2.4,2.06-1.46,4.53-2.76,6.61-3.54,5.42-2.03,10.8-2.62,16.57-2.13,2.94.25,5.91.88,8.81,1.76,3.7,1.12,5.29-4.67,1.6-5.79-12.92-3.91-27.89-2.62-38.64,6.05-4.68,3.77-8.16,9.07-9.59,14.93s-.8,12.25,1.55,17.89c2.5,6,6.61,11.24,11.69,15.27,2.76,2.19,5.7,4.1,8.88,5.62,3.86,1.84,7.87,2.97,12.1,1.67,2.9-.89,5.6-2.64,6.89-5.48,1.42-3.11,1.09-6.75-.83-9.6-2.19-3.25-5.58-5.21-9.38-5.97-3.51-.7-7.11-1.06-10.69-.96-12.5.35-25.93,6.29-31.26,18.28s-1.25,25.22,7.56,34.37c2.35,2.45,5.04,4.6,7.88,6.44,3.02,1.95,6.61,4.07,10.18,4.74,6.57,1.23,15.19-2.4,14.68-10.22-.24-3.65-2.36-6.64-5.26-8.74-3.11-2.25-7.15-2.75-10.88-3.13-6.63-.68-13.6.1-19.81,2.6s-11.08,6.09-14.77,11.33c-3.4,4.83-5.11,10.9-4.8,16.79.68,12.76,9.55,23.62,20.4,29.66,3.03,1.68,6.25,3.03,9.56,4.06,3.69,1.15,5.28-4.64,1.6-5.79h0Z" style="fill: #66cbe3;"/>
                <path d="m531.6,1050c-5.46-1.7-10.74-4.51-14.94-8.21-.94-.83-1.85-1.71-2.71-2.62-.93-.99-1.88-2.13-2.5-2.99-.73-1.01-1.4-2.06-2.02-3.14-.29-.51-.56-1.02-.82-1.55-.14-.28-.28-.57-.41-.86-.26-.56-.17-.37-.32-.73-.46-1.15-.85-2.33-1.15-3.53-.13-.49-.24-.99-.34-1.49-.06-.3-.11-.6-.16-.9-.05-.37-.06-.4-.02-.11-.03-.2-.05-.4-.07-.6-.12-1.21-.16-2.42-.1-3.63.03-.61.08-1.21.15-1.81-.06.48,0-.03.02-.11.07-.4.14-.8.22-1.2,1.05-4.99,3.53-8.96,7.39-12.31,1.7-1.47,3.93-2.87,6.25-3.98,2.1-1,4.88-1.88,7.46-2.41,5.29-1.09,11.7-1.16,17.08.45,1.28.38,2.44,1.08,3.37,2.03.72.72,1.25,1.64,1.45,2.37.01.05.18,1,.11.38.03.29.01.58.03.87.03.77.18-.4-.04.33-.08.27-.14.55-.24.82.21-.55-.74,1.02-.41.65-.54.62-.52.6-1.18,1-.76.45-1.67.78-2.73.94-1.65.26-3.32-.09-4.85-.72-2.68-1.11-5.25-2.6-7.63-4.26-4.38-3.06-8.09-7.06-10.62-11.75-2.31-4.27-3.44-8.87-3.01-13.85.09-1.02.25-1.93.6-3.26s.84-2.65,1.24-3.5c1.13-2.37,2.38-4.16,4.02-5.88,3.49-3.66,7.94-6.09,12.83-7.48,5.39-1.54,11.15-1.81,16.71-.88,2.6.44,5.37,1.17,6.95,3.18.21.26.39.56.55.85-.01-.02.42.92.24.44.11.29.17.59.26.88.23.76.06-.41.06.37,0,.29,0,.57-.01.86.05-.64-.07.24-.09.32-.02.06-.35.89-.09.35-.16.34-.36.69-.59.99.34-.44-.8.71-.41.41-.35.28-1.18.73-1.33.78-1.24.5-2.51.72-3.84.65-2.88-.15-5.79-1.97-8.2-3.42-4.67-2.8-8.89-6.64-11.76-11.07-1.48-2.27-2.48-4.3-3.25-6.66-.39-1.21-.71-2.45-.93-3.7,0,0-.16-1.02-.08-.45-.04-.31-.07-.63-.1-.94-.06-.63-.09-1.25-.1-1.88-.04-2.76.25-4.62,1.15-7.31.41-1.23.6-1.65,1.2-2.8.63-1.21,1.36-2.37,2.2-3.45-.31.4.34-.4.32-.38.2-.24.41-.48.62-.71.35-.39.72-.77,1.1-1.14,1.01-.99,1.91-1.74,2.84-2.4,2.06-1.46,4.53-2.76,6.61-3.54,5.42-2.03,10.8-2.62,16.57-2.13,2.94.25,5.91.88,8.81,1.76,3.7,1.12,5.29-4.67,1.6-5.79-12.92-3.91-27.89-2.62-38.64,6.05-4.68,3.77-8.16,9.07-9.59,14.93s-.8,12.25,1.55,17.89c2.5,6,6.61,11.24,11.69,15.27,2.76,2.19,5.7,4.1,8.88,5.62,3.86,1.84,7.87,2.97,12.1,1.67,2.9-.89,5.6-2.64,6.89-5.48,1.42-3.11,1.09-6.75-.83-9.6-2.19-3.25-5.58-5.21-9.38-5.97-3.51-.7-7.11-1.06-10.69-.96-12.5.35-25.93,6.29-31.26,18.28s-1.25,25.22,7.56,34.37c2.35,2.45,5.04,4.6,7.88,6.44,3.02,1.95,6.61,4.07,10.18,4.74,6.57,1.23,15.19-2.4,14.68-10.22-.24-3.65-2.36-6.64-5.26-8.74-3.11-2.25-7.15-2.75-10.88-3.13-6.63-.68-13.6.1-19.81,2.6s-11.08,6.09-14.77,11.33c-3.4,4.83-5.11,10.9-4.8,16.79.68,12.76,9.55,23.62,20.4,29.66,3.03,1.68,6.25,3.03,9.56,4.06,3.69,1.15,5.28-4.64,1.6-5.79h0Z" style="fill: #66cbe3;"/>
                <path d="m323.49,1078.65c-6.28-2.71-11.88-6.39-16.56-11.28-4-4.17-7.28-9.34-8.96-14.68-.43-1.36-.77-2.74-1.02-4.15-.06-.35-.12-.69-.17-1.04.07.52-.04-.4-.06-.54-.07-.74-.12-1.49-.14-2.23-.04-1.38.03-2.77.19-4.14-.06.48.04-.23.06-.38.06-.34.12-.68.19-1.02.15-.73.33-1.45.53-2.17.8-2.77,1.87-4.96,3.65-7.47.39-.54.54-.75,1.11-1.4.49-.57.99-1.11,1.52-1.64,1.06-1.06,2.09-1.93,3.08-2.64,5.07-3.63,11.09-5.62,17.12-6.18,3.38-.31,6.91-.25,10.22.18s7.05,1.15,10.17,2.49c1.66.71,2.94,1.83,4.1,3.19-.49-.56,0,.01.18.28.22.34.42.69.6,1.05.13.26.46,1.21.55,1.85-.06-.47,0,.25,0,.39,0,.2-.01.39-.02.58,0,.03-.07.5-.01.17.03-.2-.14.52-.2.71,0,.02-.16.46-.05.17.12-.32-.18.35-.21.41-.14.25-.29.49-.46.72.28-.37-.29.27-.39.37-.04.04-.5.44-.26.25.21-.17-.19.13-.18.13-.35.23-.72.45-1.1.62.23-.11-.55.19-.69.23-.3.09-.6.16-.9.22-.6.13-1.13.22-1.75.24-1.69.05-3.39-.31-4.91-1.06-3.06-1.51-5.99-3.56-8.55-5.73-5-4.24-8.97-9.19-11.59-15.22-.05-.1-.13-.3-.26-.65-.12-.3-.23-.61-.34-.91-.27-.76-.52-1.53-.74-2.3-.2-.72-.38-1.44-.54-2.16-.12-.58-.31-1.65-.35-1.93.04.32-.04-.31-.04-.38-.02-.16-.03-.31-.05-.47-.03-.36-.06-.72-.08-1.09-.04-.72-.06-1.45-.05-2.17s.05-1.44.11-2.16c.01-.14.11-1.03.05-.58.05-.41.12-.82.2-1.22,1.09-5.8,3.85-10.51,8.3-14.37s10.29-6.19,16.38-7.2c6.44-1.07,13.62-.41,20.1,1.48,1.69.49,3.3,1.01,4.75,2.06.62.45,1.18,1,1.69,1.58.12.14.24.29.37.43-.11-.13-.47-.69-.03-.02.26.39.51.78.73,1.2.18.33.37.89.53,1.55.04.15.07.3.09.45-.07-.49-.01.01-.01.1,0,.39.02.78-.03,1.16.07-.5-.06.16-.1.32-.05.18-.11.36-.17.54.02-.05.18-.38.03-.07s-.31.59-.49.86c0,.01-.29.38-.11.16.2-.25-.29.3-.34.35-.46.46-.5.47-1.22.88-.46.26-1.16.48-1.97.66-1.26.28-2.55.35-3.84.11-3.44-.64-6.62-3-9.39-5.04-5.19-3.84-9.49-8.75-12.47-14.45-2.63-5.04-3.99-10.53-3.52-16.31.03-.36.06-.72.11-1.08-.06.49.07-.45.09-.58.13-.76.29-1.52.49-2.27.17-.66.36-1.3.58-1.94.12-.35.24-.69.38-1.03.06-.15.11-.29.18-.44.22-.54-.29.62.14-.31,1.27-2.74,2.7-4.89,4.59-6.88,3.99-4.22,9.04-6.88,14.71-8.36,6.17-1.61,12.95-1.68,19.28-.42,3.4.68,6.77,1.67,9.96,3.02,1.49.63,3.21.45,4.1-1.08.74-1.26.42-3.47-1.08-4.1-14.07-5.95-31.28-6.99-44.66,1.38-5.96,3.73-10.56,9.16-13.06,15.74s-2.41,13.51-.56,20.01c2.02,7.1,6.11,13.53,11.27,18.76,2.79,2.83,5.93,5.33,9.27,7.48,3.76,2.42,7.85,4.42,12.45,4,3.79-.34,7.4-1.78,9.66-4.98s2.16-7.2.62-10.61c-3.61-7.97-13.78-9.78-21.58-10.56-14.49-1.45-30.71,3.66-38.41,16.8-3.52,6.01-4.74,13.04-3.81,19.9.98,7.2,4.2,13.81,8.64,19.51,2.33,2.99,5.02,5.7,7.99,8.06,3.28,2.62,6.91,5.27,10.89,6.7,7.3,2.63,17.27-.63,17.87-9.33.26-3.8-1.84-7.61-4.65-10.05-3.35-2.9-7.65-4.09-11.91-4.98-7.74-1.61-15.88-1.65-23.53.48-6.79,1.89-13.31,5.55-17.89,10.99s-7.06,11.96-7.27,18.94c-.44,14.33,8.66,27.21,19.95,35.19,3.11,2.2,6.45,4.03,9.94,5.54,1.49.64,3.22.44,4.1-1.08.74-1.27.42-3.46-1.08-4.1h0Z" style="fill: #66cbe3;"/>
                <path d="m801.92,1067.21c-3.16-.86-5.83-2.06-8.61-3.95-2.15-1.47-4.67-3.87-6.18-5.89-3.75-5.02-5.68-10.8-5.64-16.87.08-12.7,9.16-23.82,21.52-26.63,1.65-.38,2.59-.51,4.29-.6s3.26-.04,4.88.13c1.24.13,2.66.5,3.7,1.57.52.53.51.57.85,1.18.03.05.3.64.18.36-.1-.24.07.24.07.23.06.19.28,1.14.22.71.05.35.04.71.05,1.07,0,.15-.01.3-.02.46.01-.14.12-.5-.02.11-.19.85-.21.98-.53,1.56-.6,1.1-1.21,1.64-2.53,2.26-2.91,1.37-5.74-.43-8.2-1.94-11.04-6.78-15.68-20.58-11.36-32.76,1.98-5.58,6.05-10.58,11.03-13.73,5.26-3.33,11.12-4.74,17.36-4.2,1.35.12,2.87.4,4.42.81,3.74.97,5.34-4.81,1.6-5.79-15.04-3.91-31.48,3.18-38.46,17.21-3.57,7.17-4.55,15.42-2.62,23.21s6.46,14.19,12.67,18.85c3.17,2.38,7.39,4.92,11.47,4.86s8.12-2.41,9.93-6.02,1.67-7.96-.7-11.24c-1.35-1.87-3.12-3.25-5.29-4.05-1.89-.7-4.1-.81-6.11-.87-15.66-.52-30.05,10.6-33.54,25.86s4.13,31.26,18.25,37.79c1.84.85,3.74,1.57,5.7,2.1,3.73,1.01,5.32-4.77,1.6-5.79h0Z" style="fill: #66cbe3;"/>
                <path d="m471.92,1033.21c-5.64-1.53-11.06-4.22-15.23-8.11-3.63-3.38-6.2-7.17-6.89-12.08.09.66-.01-.26-.02-.33-.02-.28-.04-.56-.04-.84-.02-.56,0-1.13.04-1.69,0-.07.12-.99.02-.32.04-.28.09-.56.15-.84.14-.67.32-1.33.55-1.98,0-.02.36-.92.13-.39.11-.27.24-.54.38-.8.27-.53.56-1.04.88-1.53.11-.16.22-.33.33-.49,0,0,.6-.77.25-.34.44-.54.92-1.06,1.42-1.55,3.43-3.34,8.69-5.31,13.64-5.85,3.08-.34,6.24-.31,9.31.14,1.33.19,2.71.4,3.89,1.05,1.11.61,2,1.35,2.42,2.41-.2-.51.06.39.06.41-.12-.63-.03.2-.03.31.03-.65-.06.12-.1.26.2-.58-.12.17-.19.26.33-.48-.25.22-.3.25.39-.33-.42.25-.42.25-.34.18-.82.33-1.37.47-2.82.71-5.83-.86-8.29-2.11-4.98-2.53-9.45-6.13-12.2-10.76-2.4-4.04-3.2-8.23-1.68-12.57,0-.02.36-.92.13-.38.15-.36.33-.71.51-1.06.32-.61.68-1.19,1.07-1.75,0-.01.59-.77.24-.33.19-.23.38-.46.58-.68.47-.52.97-1.02,1.49-1.48,1.81-1.61,4.61-3.11,7.05-3.92,6.38-2.13,13.27-1.98,19.88-.25,3.74.97,5.33-4.81,1.6-5.79-7.17-1.87-14.92-2.17-22.08-.06-5.99,1.77-11.78,5.38-14.86,10.98s-2.91,12.06-.38,17.82c2.68,6.11,7.93,10.99,13.61,14.31,3.38,1.98,7.3,3.93,11.26,4.18,3.5.22,7.65-1.16,9.5-4.32s.71-7.37-1.99-9.84c-3.07-2.8-7-3.46-10.99-3.83-12.28-1.14-28.79,3.95-31.17,17.94s9.45,24.54,21.02,29.27c1.71.7,3.46,1.28,5.24,1.76,3.73,1.01,5.32-4.78,1.6-5.79h0Z" style="fill: #66cbe3;"/>
                <path d="m963.05,1534.01c-7.04-2.98-13.48-7.09-18.64-12.71-2.15-2.34-3.88-4.74-5.39-7.75-.16-.31-.31-.62-.45-.94-.08-.18-.16-.36-.24-.54.02.06.15.36.02.04-.28-.71-.54-1.43-.75-2.16-.2-.66-.37-1.34-.51-2.02-.07-.36-.13-.71-.19-1.07.09.59-.03-.32-.05-.53-.05-.66-.08-1.32-.06-1.98,0-.3.02-.61.04-.91.01-.17.03-.35.05-.52.04-.59-.05.26,0-.1.11-.64.24-1.27.41-1.9.08-.29.17-.58.27-.87.05-.14.44-1.15.23-.65.27-.62.58-1.22.93-1.8.2-.33.41-.65.63-.97.08-.12.17-.24.25-.35.18-.25-.18.21.15-.19.47-.56.96-1.09,1.49-1.59.25-.24.51-.47.77-.69.15-.13.3-.25.46-.38-.32.25.11-.08.23-.16,1.31-.93,2.71-1.72,4.18-2.37-.34.15.53-.21.63-.25.36-.14.72-.27,1.09-.39.86-.29,1.73-.53,2.6-.75,3.59-.87,7.13-1.08,10.96-.88,4.18.22,8.3,1.04,12.3,2.26,1.83.56,3.62,1.17,5.17,2.34.61.46,1.23,1.07,1.69,1.64.5.63.8,1.33.92,1.76.04.14.07.28.1.43-.1-.53-.01-.09-.02.03-.01.18,0,.36-.02.54.01-.11.06-.61-.03-.03-.08.48.16-.26-.15.35-.2.39.3-.31,0,.03-.15.17-.31.33-.48.48.36-.3-.34.18-.48.25-.44.23.34-.11-.15.07-.16.06-.32.11-.48.15-.19.05-1.54.28-.7.18-.28.03-.57.07-.85.09-4.18.32-7.88-2.09-11.24-4.29-5.96-3.9-11.16-8.95-14.34-15.19-.16-.32-.32-.65-.48-.98-.09-.19-.17-.37-.25-.56.05.12.17.44-.05-.13-.29-.74-.55-1.49-.78-2.25-.19-.65-.35-1.3-.48-1.96-.07-.37-.14-.74-.19-1.12.08.56-.03-.39-.05-.59-.05-.69-.07-1.37-.04-2.06.01-.32.03-.63.06-.95.02-.18.03-.36.06-.54-.05.44-.02.11.03-.14.13-.67.28-1.32.48-1.97.09-.3.2-.6.31-.9.03-.07.24-.6.1-.28s.2-.43.2-.42c.29-.59.61-1.17.96-1.73.2-.32.42-.63.64-.93-.3.41.31-.38.42-.49.47-.54.97-1.05,1.5-1.52.25-.23.51-.45.77-.66.46-.37.19-.15.08-.07.2-.15.4-.29.6-.43,1.29-.89,2.69-1.66,4.14-2.27-.37.16.51-.19.61-.23.35-.13.71-.26,1.07-.37.84-.27,1.7-.51,2.56-.72,3.47-.82,6.96-1.03,10.71-.84,4.08.21,8.09.98,12,2.15,2.09.63,4.15,1.37,6.16,2.21,1.5.62,3.3-.67,3.69-2.1.47-1.73-.59-3.07-2.1-3.69-8.52-3.54-18.11-5.46-27.34-4.33-7.71.95-15.31,3.88-20.05,10.32-4.15,5.64-4.53,13.17-2.22,19.62,2.82,7.85,8.57,14.19,15.14,19.15,3.68,2.78,8.03,5.75,12.58,6.81,3.96.92,9.19.68,12.12-2.54,3.28-3.6,1.92-8.58-1.05-11.87-3.33-3.7-8.32-5.15-13.01-6.25-8.48-1.99-17.95-2.38-26.23.71-6.92,2.59-12.96,7.71-14.72,15.15-1.61,6.83.52,13.91,4.23,19.68,4.49,6.99,11.09,12.55,18.3,16.57,1.98,1.11,4.03,2.09,6.12,2.98,1.49.63,3.21.45,4.1-1.08.74-1.26.42-3.47-1.08-4.1h0Z" style="fill: #66cbe3;"/>
                <path d="m780.33,1464.07c-7.75-1.45-15.22-4.27-21.6-8.96-1.13-.83-2.47-1.97-3.63-3.12-.57-.56-1.13-1.14-1.66-1.74-.28-.31-.55-.63-.81-.95-.13-.16-.26-.32-.39-.48.19.25-.01-.03-.08-.12-.92-1.27-1.75-2.61-2.42-4.02-.07-.15-.39-.86-.31-.68.07.17-.19-.5-.25-.68-.24-.69-.45-1.39-.62-2.1-.08-.35-.14-.71-.21-1.06-.02-.12-.08-.59-.01,0-.02-.13-.03-.27-.04-.4-.06-.76-.1-1.51-.08-2.27.01-.31.04-.62.06-.94.06-.74-.05.12.05-.4.14-.72.29-1.43.5-2.13.11-.35.24-.69.35-1.03.03-.1.22-.53,0-.04.05-.12.11-.25.17-.37.34-.7.7-1.38,1.12-2.04.17-.27.36-.54.54-.8.04-.06.39-.52.18-.26-.19.24.1-.12.11-.14.48-.59.99-1.15,1.53-1.68s1.14-1.07,1.75-1.56c0,0,.39-.3.17-.13-.25.19.25-.18.3-.22.37-.27.75-.53,1.14-.78,1.34-.87,2.75-1.63,4.21-2.28,1.24-.56,3.11-1.21,4.74-1.66,1.81-.51,3.66-.89,5.52-1.18,3.7-.56,7.91-.6,11.79-.29,3.29.26,7.33,1.24,8.81,4.06.16.31.01,0-.01-.06.07.18.1.35.16.53.18.52.02.16.02,0,0,.17,0,.35,0,.52,0-.54-.03.05-.11.34-.13.43.2-.4-.02,0-.05.1-.39.58-.07.18-.72.91-1.68,1.29-3.02,1.67-3.99,1.13-8.29-.6-11.98-2.03-6.55-2.53-13.16-6.78-17.16-12.01-.96-1.25-1.8-2.6-2.5-4.01-.17-.35-.34-.7-.5-1.06.19.44-.13-.37-.18-.49-.26-.71-.48-1.44-.65-2.17-.08-.32-.14-.64-.2-.96-.03-.18-.06-.37-.09-.55.08.56.01.08,0-.03-.05-.74-.1-1.47-.08-2.21.01-.37.05-.74.07-1.1.03-.52-.07.27.06-.44s.3-1.42.51-2.11c.09-.3.21-.59.31-.89.18-.54.05-.15,0-.03.07-.16.15-.33.22-.49.31-.65.66-1.29,1.04-1.9.2-.31.4-.61.61-.91.01-.02.28-.39.09-.14-.21.27.15-.18.19-.24.48-.58.98-1.13,1.52-1.66,1.24-1.23,1.84-1.69,3.18-2.57s2.8-1.67,4.28-2.35c6.33-2.91,14.25-3.72,21.52-3.22,2.02.14,4.02.39,6.01.75,1.59.29,3.23-.43,3.69-2.1.4-1.45-.49-3.4-2.1-3.69-8.98-1.62-18.45-1.62-27.22,1.16-6.96,2.2-13.9,6.29-17.52,12.87s-3.03,14.11.51,20.48c4,7.19,11.05,12.52,18.38,15.98,4.42,2.09,9.44,4.17,14.38,4.45,4.18.24,9.39-1.15,11.72-4.93,2.54-4.12.22-8.73-3.29-11.33-3.99-2.97-9.07-3.37-13.88-3.48-14.67-.35-34.92,5.58-36.87,22.76-.81,7.14,2.77,13.99,7.52,19.06,5.89,6.29,13.91,10.49,22.07,12.99,2.24.69,4.52,1.23,6.82,1.66,1.59.3,3.24-.44,3.69-2.1.4-1.46-.49-3.39-2.1-3.69h0Z" style="fill: #66cbe3;"/>
                <path d="m664.19,1389.81c-5.84-2.7-11.11-6.33-15.3-11.22-.88-1.03-1.5-1.84-2.3-3.09-.73-1.13-1.39-2.31-1.96-3.53-.05-.11-.34-.79-.17-.38-.13-.32-.25-.64-.37-.96-.21-.59-.4-1.18-.55-1.78s-.28-1.18-.39-1.78c-.02-.14-.05-.27-.07-.41,0,.05.05.47.02.12-.03-.31-.06-.63-.08-.94-.03-.58-.03-1.16,0-1.73.01-.26.04-.53.06-.79.02-.35-.02.1-.03.15.02-.17.05-.35.08-.52.1-.56.23-1.11.4-1.65.08-.25.16-.5.25-.75.21-.63-.07.05.15-.38.28-.58.57-1.14.91-1.69.16-.25.32-.49.49-.73.2-.28.01-.03-.03.02.12-.15.25-.3.37-.45.42-.48.87-.94,1.34-1.37.63-.57.63-.56,1.16-.93,4.73-3.27,10.6-4,16.47-3.56,3.47.26,6.91,1.05,10.21,2.14,1.5.5,3,1.02,4.25,2.02.48.38.99.87,1.35,1.35.16.22.33.49.46.75.08.14.17.29.23.45-.11-.28-.02.07.02.17,0,.02.13.51.06.17-.06-.31.01.12.01.16,0,.14,0,.27,0,.41-.01.45.14-.43-.02-.02-.05.12-.07.25-.12.37.08-.2.17-.21.02-.14-.18.09-.01.05.09-.08-.11.14-.24.27-.37.38.34-.31-.17.1-.33.18,0,0-.44.19-.2.1.29-.11-.36.09-.41.1-.47.11-.68.14-1.27.17-3.36.15-6.28-1.92-8.93-3.76-4.96-3.45-9.15-7.84-11.7-13.25-.37-.79-.86-2.08-1.18-3.31-.16-.62-.28-1.24-.4-1.86-.06-.35,0,.03,0,.09-.02-.14-.03-.28-.05-.43-.03-.33-.06-.66-.07-.99-.03-.6-.02-1.21.02-1.81,0-.13.08-.85.04-.56-.04.34.02-.11.02-.15.03-.18.06-.36.1-.54.12-.58.27-1.16.46-1.72.04-.12.28-.77.19-.55-.07.18.24-.51.32-.67.28-.55.6-1.09.94-1.6.08-.12.47-.65.36-.5-.09.11.38-.43.5-.57.42-.46.87-.89,1.34-1.3.6-.52.42-.37,1.14-.86.54-.36,1.11-.69,1.68-1,.27-.14.55-.28.83-.41.14-.07.28-.13.42-.19-.29.13.05-.02.15-.06,1.32-.52,2.68-.92,4.06-1.22,2.77-.59,5.81-.71,8.89-.49,3.34.24,6.66.97,9.88,2,1.68.54,3.33,1.17,4.94,1.9,1.47.67,3.23.42,4.1-1.08.75-1.29.41-3.43-1.08-4.1-7.39-3.35-15.6-5.4-23.76-4.68-6.51.58-13.38,2.84-17.59,8.13-9.28,11.64-.65,26.7,9.26,34.63,3.22,2.58,6.9,5.35,10.94,6.43,3.5.94,8.12.76,10.81-2,3.01-3.09,2.14-7.53-.34-10.62-2.64-3.29-6.64-4.73-10.58-5.85-12.64-3.59-32.22-2.58-36.67,12.66-1.73,5.93-.08,12.29,2.95,17.5,3.63,6.24,9.24,11.28,15.38,14.98,1.65,1,3.37,1.89,5.12,2.7,1.47.68,3.23.42,4.1-1.08.76-1.3.4-3.42-1.08-4.1h0Z" style="fill: #66cbe3;"/>
                <path d="m206.37,911.36c-.38-.02-.77-.04-1.15-.08-.2-.02-.4-.05-.6-.07-.72-.07.69.13-.03,0-.88-.16-1.77-.31-2.65-.5-1.9-.43-3.78-.97-5.63-1.57-2.06-.67-4.1-1.4-6.13-2.19-2.24-.87-4.03-1.61-5.89-2.42-7.4-3.22-14.63-6.81-21.74-10.62-1.5-.8-3-1.61-4.48-2.44v5.18c1.09-.5,2.19-.99,3.29-1.47,1.17-.51,2.34-1.02,3.52-1.52.2-.08.39-.17.59-.25-.75.32-.04.02.09-.04.35-.15.7-.29,1.06-.44.83-.34,1.65-.68,2.48-1.02,7.75-3.16,15.62-6.11,23.68-8.39,1.92-.54,3.86-1.05,5.81-1.48.88-.2,1.77-.38,2.66-.54.4-.07.81-.14,1.22-.21.24-.04.48-.07.71-.11.79-.13-.65.06.13-.02,4.33-.45,8.52-.13,12.73,1.06,4.51,1.27,8.68,3.4,11.79,6.76.84.9.92,1.01,1.52,1.95.3.48.59.97.84,1.48.08.17.16.34.24.5-.25-.56.16.46.2.57.14.43.27.87.37,1.32.05.22.09.44.13.67.09.51-.03-.71.02.15.02.46.06.91.05,1.37,0,.28-.03.55-.04.83-.03.71.1-.35-.03.29-.11.54-.22,1.07-.39,1.59-.08.26-.18.52-.27.77-.18.5.14-.21-.19.42-.26.49-.52.98-.82,1.46-.13.2-.26.39-.39.59-.21.28-.22.31-.04.08-.12.15-.24.3-.37.45-1.69,2-3.19,3.11-5.42,4.35-4.98,2.76-10.99,3.77-16.83,3.56-3.86-.14-3.86,5.86,0,6,6.15.22,12.3-.83,17.91-3.39,4.5-2.06,8.83-5.43,11.09-9.93s2.31-9.56.22-14.15-6.2-8.13-10.56-10.47c-5.29-2.84-11.35-4.31-17.34-4.49-3.72-.11-7.49.6-11.1,1.42-8.69,1.97-17.13,5.05-25.41,8.31-5.43,2.14-10.84,4.38-16.14,6.81-2.08.96-1.83,4.15,0,5.18,4.23,2.39,8.56,4.63,12.9,6.8,8.34,4.17,16.88,8.16,25.73,11.13,4.09,1.37,8.36,2.58,12.7,2.78,1.62.08,3-1.43,3-3,0-1.69-1.38-2.92-3-3Z" style="fill: #66cbe3;"/>
                <path d="m214.56,1037.43c-.77.2-1.55.34-2.34.47-.14.02-.28.04-.42.06.85-.13.09-.01-.07,0-.53.05-1.06.11-1.6.15-1.94.15-3.9.18-5.85.15-4.45-.07-8.9-.44-13.32-.94s-8.26-1.05-13.01-1.84c-3.47-.57-6.93-1.2-10.39-1.88-1.67-.33-3.34-.66-5-1.03l1.32,5.01c3.05-2.72,6.2-5.34,9.36-7.93,1.51-1.24,3.04-2.46,4.57-3.67.37-.29.74-.58,1.11-.87.19-.15.38-.29.57-.44.09-.07.58-.45.19-.15.85-.66,1.71-1.31,2.57-1.96,3.41-2.57,6.89-5.06,10.47-7.39,3.2-2.09,6.49-4.08,9.96-5.69.38-.18.77-.35,1.16-.52.43-.19-.68.26,0,0,.2-.08.4-.16.6-.24.69-.26,1.39-.5,2.1-.7,2.5-.71,5.08-1.12,7.68-1.24s5.26.02,7.79.58c2.37.52,4.21,1.16,6.15,2.27.45.26.89.53,1.32.82.57.39.37.22.95.73.41.35.8.72,1.17,1.12.13.14.26.28.39.43.13.14.25.29.37.44-.18-.23-.16-.2.04.08.27.39.52.79.75,1.2.09.16.59,1.26.42.82.17.44.32.9.44,1.36.07.27.13.54.18.81.02.08.11.95.05.29.05.54.08,1.09.06,1.63,0,.27-.03.55-.05.82-.04.85.13-.55-.03.29-.22,1.11-.5,2.2-.94,3.25.23-.55-.16.33-.18.35-.13.27-.27.53-.41.79-.29.53-.61,1.05-.95,1.56-.66.98-1.18,1.61-2.15,2.62-4,4.15-9.38,6.87-15.06,8.39-3.73.99-2.15,6.78,1.6,5.79,5.86-1.56,11.42-4.29,16-8.3,3.7-3.24,6.9-7.65,7.83-12.56s-.36-9.97-3.73-13.85-8.4-6.1-13.32-7.05c-5.96-1.15-12.31-.84-18.14.86-3.62,1.05-7.04,2.85-10.29,4.74-7.77,4.51-14.98,9.99-22.01,15.57-4.37,3.47-8.68,7.03-12.85,10.74-1.65,1.47-.82,4.54,1.32,5.01,4.75,1.05,9.54,1.92,14.33,2.73,9.21,1.55,18.54,2.89,27.88,3.15,4.3.12,8.77.04,12.96-1.03,3.74-.96,2.15-6.74-1.6-5.79Z" style="fill: #66cbe3;"/>
                <path d="m378.63,895.39c-3.48-.1-7.14.79-10.47,1.68-9.84,2.63-19.17,7.29-27.79,12.64-7.76,4.81-15.06,10.34-22.03,16.22-1.24,1.05-1.08,3.16,0,4.24,1.23,1.23,3,1.05,4.24,0,10.56-8.92,22.04-16.99,34.64-22.76.54-.25,1.08-.49,1.63-.73.24-.11.49-.21.73-.32.32-.14-.07.03-.11.05.2-.08.4-.17.59-.25,1.02-.42,2.04-.82,3.07-1.2,1.78-.66,3.57-1.25,5.39-1.78,1.46-.42,2.94-.79,4.44-1.1.59-.12,1.18-.23,1.77-.34.25-.04.5-.08.76-.12.13-.02.25-.04.38-.06.56-.09-.44.05-.34.04,1.03-.09,2.06-.26,3.1-.23,3.86.11,3.86-5.89,0-6h0Z" style="fill: #66cbe3;"/>
                <path d="m963.76,1252.4c-.75.2.98-.03.18-.02-.59.01-1.17,0-1.76-.04-.79-.06.51.1.15.02-.24-.05-.48-.08-.72-.13-.55-.11-1.09-.25-1.62-.41-.63-.19-1.24-.4-1.85-.64-.18-.07-.36-.15-.54-.22.45.17.54.24.1.04-.39-.18-.78-.36-1.17-.55-1.77-.87-3.46-1.89-5.08-3-.48-.33-.96-.67-1.44-1.02-.23-.17-.47-.34-.7-.52-.12-.09-.24-.18-.35-.27-.29-.22.42.34-.02-.02-1.13-.89-2.23-1.81-3.31-2.77-5.76-5.09-10.85-10.93-15.56-16.99-6.68-8.59-12.31-17.88-18.45-26.85s-12.17-17-19-24.9c-11.79-13.64-25.71-26.51-42.39-33.86-7.67-3.38-15.76-5.55-24.15-6.03s-17.38.9-25.53,3.76c-2.3.8-4.55,1.73-6.77,2.72l1.51-.41c-6.29.51-10.44,6.94-12.54,12.2-2.9,7.25-3.45,15.45-3.41,23.17.03,6.31.58,12.62,1.38,18.87.25,1.95.52,3.89.81,5.83.14.92.28,1.84.44,2.76.07.42.33,1.15.26,1.56-.06.36-.02-1.12-.08-.52-.02.19,0,.41,0,.6,0,.14-.05.28-.04.42.02.26.19-.98.03-.3-.1.43-.18.86-.31,1.29-.07.23-.14.45-.22.67-.09.25-.54,1.17-.08.23-.31.62-.59,1.26-.93,1.86-.38.67-.79,1.33-1.23,1.97-.27.4-.56.79-.84,1.18-.51.68.38-.47-.17.22-.17.21-.34.43-.52.64-1.7,2.05-3.59,3.95-5.57,5.74-2.51,2.28-5.17,4.38-7.92,6.36-1.61,1.16-3.25,2.26-4.72,3.61-2.11,1.94-3.9,4.25-5.42,6.66-8.09,12.83-9.49,29.56-7.94,44.29,2.21,20.88,10.64,40.8,23.21,57.54,13.76,18.32,31.98,33.4,52.74,43.12,18.8,8.81,39.09,14.18,59.5,17.69s42.67,5.36,64.14,5.5c18.73.12,37.54-.91,56.07-3.77,6.99-1.08,13.96-2.43,20.76-4.4,4.92-1.42,9.98-3.13,14.34-5.87,1.52-.95,3.02-2.06,4.19-3.42,1.05-1.23,1.21-3.04,0-4.24-1.08-1.08-3.18-1.23-4.24,0-.33.39-.69.75-1.07,1.09-.19.17-.4.34-.6.5-.48.41.27-.19.18-.14-.14.08-.27.2-.41.3-1.08.77-2.23,1.43-3.41,2.03-.67.34-1.34.66-2.03.96-.19.08-.37.16-.56.24-.38.17.7-.28,0,0-.4.16-.8.32-1.2.48-1.75.68-3.54,1.28-5.33,1.83-4.23,1.29-8.53,2.31-12.86,3.18-2.53.51-5.06.96-7.61,1.38-1.3.21-2.61.41-3.92.6-.65.09-1.3.19-1.95.28-.17.02-.35.05-.52.07.6-.08.13-.02,0,0-.4.05-.8.1-1.2.16-12.45,1.6-25.01,2.4-37.56,2.65-14.14.29-28.29-.14-42.38-1.3-14.51-1.19-28.37-3.08-42.69-6.1s-27.08-6.68-39.96-11.96c-2.55-1.05-5.61-2.41-8.47-3.79s-5.64-2.84-8.37-4.4c-6.22-3.55-12.08-7.67-17.62-12.21-12.73-10.43-23.74-22.93-31.82-37.3-6.62-11.78-11.11-24.5-13.06-38.07-.01-.09-.08-.59-.01-.07-.02-.14-.04-.29-.06-.43-.05-.38-.1-.76-.14-1.15-.09-.76-.17-1.51-.24-2.27-.14-1.49-.24-2.98-.31-4.47-.13-2.81-.12-5.63.02-8.44.07-1.36.17-2.73.31-4.08.06-.62.14-1.24.21-1.86.09-.77-.06.34.06-.42.05-.36.11-.72.16-1.09.38-2.43.89-4.84,1.53-7.21.6-2.2,1.32-4.35,2.18-6.46.31-.76-.09.18.1-.23.1-.22.19-.44.29-.65.23-.52.48-1.03.73-1.54.46-.92.95-1.83,1.48-2.72.49-.82,1.01-1.62,1.56-2.4.14-.2.28-.39.42-.58.22-.3.36-.44.02-.03.31-.38.62-.77.94-1.14.57-.65,1.17-1.28,1.8-1.88.31-.3.64-.59.97-.87.14-.12.29-.24.43-.36.47-.4-.54.37.08-.06,6.72-4.73,13.34-9.82,18.36-16.41,2.26-2.98,4.28-6.44,4.64-10.24.07-.73,0-1.36-.1-2.09-.67-4.35-1.36-8.68-1.82-13.06-.78-7.45-1.18-14.99-.57-22.47.06-.73.13-1.46.21-2.19.04-.35.08-.7.12-1.04,0-.05.07-.48.01-.11-.06.43.04-.27.05-.35.19-1.24.4-2.46.67-3.69.44-1.99,1-3.96,1.74-5.86.04-.1.35-.86.13-.34s.06-.12.11-.24c.18-.4.37-.79.56-1.18.33-.64.68-1.27,1.07-1.87.18-.28.37-.56.56-.84.08-.11.17-.22.25-.34.31-.46-.51.61-.08.1.37-.43.73-.86,1.13-1.26.35-.35.75-.64,1.1-.98.27-.26-.72.5-.31.24.09-.06.17-.13.26-.19.17-.11.33-.23.5-.34.3-.19.62-.35.93-.52.13-.07.27-.11.39-.18-.15.09-.87.31-.29.13.36-.11.73-.19,1.08-.31.51-.16-.8.1-.57.07,1.51-.18,3-1.07,4.42-1.62,7.41-2.89,15-4.53,22.85-4.55,7.32-.01,14.24,1.35,21.23,3.93,14.93,5.52,27.92,16.36,38.86,27.94,6.26,6.63,12.03,13.71,17.43,21.05,6.01,8.16,11.34,16.75,17.05,25.12,8.32,12.18,17.64,24.4,29.6,33.24,4.62,3.42,10.19,6.66,16.09,6.96.83.04,1.74,0,2.55-.2,3.73-.98,2.15-6.77-1.6-5.79h0Z" style="fill: #66cbe3;"/>
                <path d="m954.65,1274.9c-4.61-2.48-9.19-5.03-13.75-7.59-9.28-5.22-18.51-10.55-27.55-16.17-4.24-2.63-8.44-5.33-12.53-8.2-.86-.6-1.71-1.21-2.55-1.84-.39-.29-.78-.58-1.16-.88-.42-.32.47.37-.05-.04-.21-.17-.42-.33-.63-.5-1.17-.94-2.32-1.91-3.35-2.99-.19-.2-.37-.4-.55-.6-.09-.11-.18-.22-.27-.33-.29-.32.4.56-.03-.04-.55-.76-1.07-1.53-1.57-2.32-1.29-2.04-2.45-4.17-3.57-6.3-2.92-5.53-5.62-11.17-8.39-16.78-6.03-12.2-12.13-24.74-20.7-35.4-.87-1.09-1.78-2.14-2.73-3.16-2.64-2.83-6.87,1.42-4.24,4.24.95,1.02,1.86,2.07,2.73,3.16.54.68.48.6,1.07,1.38.49.65.97,1.31,1.44,1.98,1.91,2.71,3.68,5.52,5.37,8.37,3.59,6.05,6.83,12.31,9.98,18.6,2.92,5.84,5.74,11.73,8.71,17.55,2.11,4.13,4.22,8.4,7.05,12.1,2.13,2.79,4.94,4.93,7.74,7.01,3.76,2.8,7.69,5.38,11.65,7.9,9.14,5.82,18.52,11.28,27.94,16.62,5.53,3.13,11.04,6.33,16.69,9.25.09.04.17.09.26.14,3.4,1.83,6.43-3.35,3.03-5.18h0Z" style="fill: #66cbe3;"/>
                <path d="m866.65,1229.3c-.2-.15-.4-.3-.6-.45-.1-.07-.19-.15-.29-.22-.54-.41.52.41.18.14s-.69-.54-1.03-.81c-2.03-1.62-4-3.32-5.92-5.06-6.25-5.66-12.06-11.84-17.24-18.49-3.15-4.04-6.04-8.3-8.65-12.71-2.93-4.96-5.57-10.08-8.61-14.98-5.34-8.59-11.27-16.8-17.63-24.66-3.01-3.72-6.1-7.43-9.42-10.88-2.68-2.79-6.92,1.46-4.24,4.24s5.27,5.84,7.77,8.87c6,7.25,11.54,14.81,16.72,22.88,6.05,9.44,10.86,19.55,17.59,28.56,5.37,7.19,11.38,13.9,17.96,20.01,3.3,3.07,6.73,6.08,10.4,8.73,1.31.95,3.34.23,4.1-1.08.88-1.51.24-3.15-1.08-4.1h0Z" style="fill: #66cbe3;"/>
                <path d="m814.47,1229.3c-.86-.57-1.7-1.15-2.54-1.74-.9-.63-1.8-1.28-2.69-1.93-.52-.38-1.03-.76-1.54-1.14-.29-.22-.58-.43-.86-.65-.13-.1-.26-.2-.39-.3-.1-.08-.2-.15-.3-.23.24.18.27.21.1.08-5.18-4.02-10.31-8.32-14.48-13.41-.14-.17-.27-.34-.41-.51-.36-.44.13.18-.08-.1-.25-.33-.49-.66-.73-1-.45-.64-.87-1.3-1.25-1.97-.18-.32-.35-.64-.51-.97-.08-.16-.15-.32-.23-.48-.25-.5.14.4.03.06-.21-.64-.43-1.25-.56-1.92-.31-1.59-2.22-2.5-3.69-2.1-1.66.46-2.4,2.09-2.1,3.69.54,2.79,2.1,5.37,3.78,7.61,2.13,2.84,4.55,5.42,7.14,7.85,4.65,4.36,9.71,8.3,14.9,12,1.11.79,2.24,1.58,3.38,2.34,1.35.89,3.32.27,4.1-1.08.86-1.46.28-3.21-1.08-4.1h0Z" style="fill: #66cbe3;"/>
                <path d="m939.13,1296.89c-3.7.14-7.42,0-11.11-.16-4.2-.19-8.39-.48-12.58-.88-2.57-.24-5.14-.52-7.7-.84-.69-.08-1.37-.17-2.05-.26-.19-.03-1.25-.17-.41-.05-.37-.05-.74-.1-1.12-.15-1.49-.21-2.98-.43-4.47-.66-13.64-2.12-27.14-5.23-40.31-9.38-15.77-4.97-30.38-11.15-44.79-19.33-15.95-9.05-30.48-20.01-43.32-33.1-1.7-1.74-3.37-3.51-5-5.31-1.09-1.2-3.14-1.11-4.24,0-1.19,1.19-1.09,3.04,0,4.24,12.73,14.02,27.57,26.08,43.73,35.93,14.53,8.86,30.14,15.95,46.24,21.45,13.54,4.62,27.47,8.11,41.57,10.54,10.44,1.8,20.98,3.06,31.55,3.66,4.58.26,9.25.55,13.84.31.06,0,.12,0,.19,0,1.62-.06,3-1.34,3-3s-1.37-3.06-3-3h0Z" style="fill: #66cbe3;"/>
                <path d="m903.12,1322.83c-2.81-.03-5.64-.28-8.44-.54-1.49-.14-2.97-.29-4.46-.47-.85-.1-1.7-.2-2.54-.31-.21-.03-.43-.06-.64-.08-.14-.02-.85-.11-.35-.05s-.22-.03-.37-.05c-.26-.04-.52-.07-.78-.11-4.35-.61-8.68-1.35-12.99-2.19-11.27-2.2-22.4-5.14-33.31-8.72-13.76-4.52-27.04-10.04-39.94-16.63-15.2-7.76-29.7-16.9-43.23-27.31-1.74-1.34-3.47-2.71-5.18-4.1-1.26-1.02-3.01-1.23-4.24,0-1.05,1.05-1.27,3.22,0,4.24,13.78,11.15,28.54,21.06,44.15,29.47,13.37,7.2,27.33,13.33,41.66,18.34,11.35,3.97,22.95,7.23,34.72,9.71,8.33,1.76,16.76,3.12,25.23,4.01,3.48.36,7.07.83,10.58.76.05,0,.09,0,.14,0,3.86.05,3.86-5.95,0-6h0Z" style="fill: #66cbe3;"/>
                <path d="m939.13,1352.85c-3.36-.07-6.71-.22-10.07-.38-8.45-.41-16.89-.99-25.32-1.75-11.33-1.01-22.25-2.28-33.04-3.94-11.68-1.8-23.31-4.05-34.71-7.19-5.29-1.46-10.52-3.11-15.64-5.08-.57-.22-1.14-.44-1.7-.67-.28-.11-.56-.23-.84-.34-.16-.07-.32-.13-.47-.2-.44-.18.65.28-.11-.05-1.11-.48-2.22-.97-3.31-1.48-2.11-.99-4.19-2.06-6.21-3.24-.97-.56-1.92-1.15-2.85-1.76-1.36-.89-3.32-.27-4.1,1.08-.85,1.46-.28,3.21,1.08,4.1,8.57,5.61,18.42,9.24,28.18,12.17,11.33,3.4,22.95,5.8,34.62,7.73s23.23,3.36,34.91,4.48c8.99.86,18,1.53,27.02,2.01,4.11.22,8.28.58,12.4.51.06,0,.12,0,.18,0,3.86.08,3.86-5.92,0-6h0Z" style="fill: #66cbe3;"/>
                <path d="m1214.63,1703.39c-117.17-67.59-122.71-207.46-72.81-363.49,49.89-156.03,154.91-231.96,303.77-215.65" style="fill: none; stroke: #66cbe3; stroke-miterlimit: 10; stroke-width: 8px;"/>
              </g>
            </g>
          </g>
          <g>
            <path d="m1507.63,1502.39c-24.88-7.65-70,8-70.95,10.88-.65,1.96,4.95,51.12,39.77,67.28,13.58,6.3,30.56-.05,34.94-13.7,3.04-9.49,1.28-17.98-3.76-22.47,7.5.71,13.76-1,18.21-10.76,5.94-13.04-3.9-26.84-18.21-31.24Z" style="fill: #6acce3;"/>
            <g style="clip-path: url(#clippath-3); fill: none;">
              <path d="m1431.63,1510.39c24.32,10.81,48.23,22.16,72.83,32.28,2.58,1.02,5.13,2.06,7.67,3.22-27.74-3.62-58.76-17.98-80.5-35.5h0Z" style="fill: #fff;"/>
            </g>
          </g>
          <g>
            <circle cx="1363.13" cy="1351.89" r="37.5" style="fill: #fff;"/>
            <g style="clip-path: url(#clippath-4); fill: none;">
              <path d="m1374.63,1354.39c0-8.28,6.72-15,15-15,1.21,0,2.38.16,3.5.43-2.9-17.82-18.36-31.43-37-31.43-20.71,0-37.5,16.79-37.5,37.5s16.79,37.5,37.5,37.5c12.05,0,22.77-5.69,29.63-14.52-6.4-1.71-11.13-7.53-11.13-14.48Z" style="fill: #064bd0;"/>
            </g>
          </g>
        </g>
        <g>
          <g>
            <path d="m417.08,1154.8c16.82,53.8-36.91,101.69-111.45,132.59-82,34-150.63,8.39-167.45-45.41-16.82-53.8,31.98-116.92,109-141,77.02-24.08,153.08.02,169.9,53.82Z" style="fill: #e68511;"/>
            <g style="clip-path: url(#clippath-5); fill: none;">
              <g>
                <path d="m124.12,1256.98c9.24,4.33,19.24,7.33,29.11,9.8,22.05,5.51,45.17,7.64,67.79,5.02,10.79-1.25,21.48-3.51,32.03-6.07s20.06-5.31,29.89-8.65c19.2-6.53,38.2-14.77,54.95-26.32,14.29-9.85,27.52-22.57,33.68-39.15.66-1.78,1.22-3.6,1.69-5.44.95-3.74-4.84-5.34-5.79-1.6-.48,1.89-1.05,3.75-1.74,5.57-.17.47-.36.93-.54,1.39-.07.17-.14.34-.21.5.25-.6-.1.23-.13.29-.41.92-.84,1.83-1.29,2.73-1.77,3.51-3.9,6.82-6.28,9.95-.57.75.35-.44-.23.3-.12.15-.24.3-.36.45-.3.38-.61.75-.91,1.12-.69.83-1.39,1.64-2.1,2.44-1.43,1.6-2.93,3.14-4.47,4.62s-3.23,3.01-4.91,4.44-3.33,2.75-4.83,3.88c-15.61,11.76-33.6,20.17-51.76,26.79-18.91,6.9-38.51,12.05-58.33,15.52-22.7,3.98-46.18,2.72-68.54-2.17-7.7-1.68-15.32-3.8-22.77-6.37-2.46-.85-4.9-1.75-7.32-2.71-.41-.16-.81-.33-1.22-.49-.18-.07-.36-.15-.54-.22-.08-.03-.17-.07-.25-.1-.52-.22.72.31.3.13-.47-.21-.94-.4-1.41-.61-.16-.07-.32-.14-.48-.22-1.47-.69-3.23-.41-4.1,1.08-.76,1.3-.4,3.41,1.08,4.1h0Z" style="fill: #fdac0a;"/>
                <path d="m208.72,1305.38c-.34-.68-.65-1.38-.96-2.07-.15-.34-.3-.68-.44-1.03-.29-.67.29.71,0,0-.11-.26-.21-.52-.32-.78-.46-1.13-.9-2.27-1.33-3.42-2.54-6.85-4.51-13.92-5.98-21.08-4.54-22.12-3.81-45.47,2.54-67.48,2.3-7.97,4.83-15.88,7.8-23.62.71-1.84,1.44-3.66,2.2-5.48.35-.83-.23.54.12-.29.07-.17.14-.33.21-.5.2-.46.39-.91.59-1.37.42-.95.84-1.9,1.27-2.84,1.6-3.49,3.33-6.94,5.18-10.3,7.93-14.42,17.64-26.37,29.87-37.51,7.14-6.5,14.36-12.07,22.28-17.53,9.53-6.57,19.47-12.54,29.61-18.13,2.75-1.52,5.51-3,8.29-4.47,1.43-.76,1.87-2.75,1.08-4.1-.85-1.45-2.67-1.83-4.1-1.08-19.94,10.52-39.44,22.27-56.66,36.91-12.88,10.95-24.18,23.71-32.87,38.24-8.36,13.96-14.22,29.26-18.95,44.78-3.55,11.64-6.18,23.41-7.04,35.58-.8,11.25-.2,22.55,1.53,33.69,1.94,12.42,5.25,25.01,10.68,36.4.08.17.16.34.25.5.73,1.45,2.77,1.86,4.1,1.08,1.47-.86,1.81-2.65,1.08-4.1h0Z" style="fill: #fdac0a;"/>
                <path d="m262.51,1159.53c-7.52,7.46-14.94,15.02-22.25,22.67-5.06,5.29-10.1,10.62-14.88,16.17-4.48,5.2-8.46,10.76-11.42,16.97-4.9,10.29-7.1,21.54-8.71,32.75-.23,1.6.39,3.22,2.1,3.69,1.41.39,3.46-.48,3.69-2.1.8-5.59,1.75-11.16,3.09-16.65.55-2.23,1.16-4.44,1.86-6.62.33-1.02.67-2.02,1.04-3.03.18-.49.36-.97.55-1.45.07-.19.15-.38.23-.57.04-.1.47-1.12.28-.69,1.55-3.61,3.43-7.07,5.59-10.34.55-.83,1.11-1.64,1.69-2.45.2-.28.41-.57.61-.84.11-.14.66-.86.34-.45s.26-.32.35-.44c.17-.21.34-.43.51-.64.46-.56.92-1.12,1.39-1.68,9.31-11.04,19.58-21.31,29.72-31.58,2.81-2.84,5.62-5.68,8.46-8.5s-1.5-6.97-4.24-4.24h0Z" style="fill: #fdac0a;"/>
                <path d="m238.97,1250.41c1.13-1.91,2.4-3.74,3.7-5.53.66-.92,1.34-1.83,2.03-2.73.25-.32-.34.44-.09.12.09-.11.17-.22.26-.33.2-.25.4-.51.6-.76.42-.53.85-1.05,1.28-1.57,1.93-2.34,3.95-4.59,6.07-6.76,4.98-5.09,9.8-9.14,15.76-12.73,3.2-1.93,6.45-3.52,9.62-4.65,1.78-.64,3.6-1.18,5.44-1.61.83-.19,1.66-.36,2.5-.51.32-.06,1.14-.19,1.19-.19.15-.02.97-.12,1.37-.15,4.53-.44,9.01-.8,13.44-1.89,4.1-1.01,8.09-2.49,11.86-4.38,6.81-3.41,12.83-8.36,17.79-14.12,10.81-12.53,17.41-28.26,23.19-43.58,3.42-9.06,6.57-18.22,10.18-27.21,3.3-8.21,7.04-16.37,12.11-23.65,1.16-1.67,2.1-2.87,3.42-4.41,1.06-1.23,1.2-3.04,0-4.24-1.08-1.08-3.18-1.23-4.24,0-5.82,6.74-10.08,14.6-13.69,22.69-3.96,8.87-7.24,18.02-10.57,27.13-5.71,15.61-11.65,31.7-21.6,45.21-1.02,1.39-1.96,2.56-3.26,4.05-1.23,1.41-2.52,2.78-3.87,4.08-2.82,2.71-5.25,4.63-8.56,6.67-6.75,4.16-14.44,6.58-22.39,7.35-4.17.4-8.26.72-12.32,1.84-3.76,1.03-7.41,2.52-10.88,4.3-6.44,3.3-12.3,7.73-17.57,12.66-4.49,4.2-8.55,8.83-12.29,13.7-1.91,2.5-3.82,5.06-5.43,7.78-.08.13-.16.27-.24.4-1.97,3.33,3.22,6.36,5.18,3.03h0Z" style="fill: #fdac0a;"/>
                <path d="m159.57,1233.61c.07-.58.08-.59-.01.08.09-.64.18-1.29.28-1.93.36-2.37.77-4.72,1.22-7.07,1.53-8.05,3.47-16.02,5.75-23.88,2.73-9.38,5.71-18.84,10.51-27.4,1.74-3.1,3.7-6.07,5.82-8.92.22-.29.43-.58.65-.87.11-.14.22-.28.32-.42-.33.44-.06.07,0-.01.46-.59.93-1.18,1.39-1.76.8-1.01,1.62-2.01,2.41-3.03,3.27-4.18,6.19-8.63,5.89-14.18-.09-1.62-1.32-3-3-3-1.56,0-3.09,1.37-3,3,.03.49.03.99,0,1.48-.01.26-.06.53-.07.8,0,.38.16-.63.04-.28-.05.13-.05.29-.08.43-.09.45-.2.89-.34,1.33-.07.22-.14.43-.22.65-.04.11-.09.21-.12.32-.21.58.32-.63.03-.08-1.01,1.92-2.14,3.68-3.46,5.4.41-.54-.03.03-.19.24-.18.23-.36.46-.55.69-.43.54-.86,1.08-1.3,1.62-.97,1.22-1.94,2.44-2.88,3.68-2.08,2.73-4.03,5.56-5.77,8.53-5.01,8.53-8.21,17.96-11.07,27.39-2.5,8.24-4.6,16.6-6.27,25.05-.8,4.03-1.53,8.08-2.02,12.16-.19,1.61,1.52,3,3,3,1.78,0,2.81-1.38,3-3h0Z" style="fill: #fdac0a;"/>
                <path d="m271.25,1291.02c.85-.75,1.74-1.44,2.63-2.14.47-.37-.54.41-.18.14.12-.09.24-.18.36-.27.28-.21.55-.42.83-.63.59-.44,1.19-.88,1.78-1.31,1.47-1.06,2.96-2.08,4.47-3.08,9.19-6.09,19.25-11.37,29.28-15.48,6.91-2.84,14-5.25,21.21-7.22s14.59-3,21.53-5.72c11.26-4.41,21.2-11.67,29.5-20.41,3-3.16,5.78-6.52,8.36-10.02,1.24-1.68,2.5-3.4,3.54-5.21.05-.08.1-.16.15-.25,1.95-3.34-3.24-6.37-5.18-3.03-.73,1.25-1.55,2.45-2.38,3.64-.43.61-.87,1.22-1.31,1.82-.25.34-.5.68-.76,1.02-.12.15-.23.3-.35.45-.24.32.36-.46.11-.14-.08.11-.16.21-.25.32-1.32,1.68-2.69,3.32-4.12,4.92-3.46,3.88-7.23,7.49-11.29,10.74-1.03.83-1.93,1.5-3.24,2.43-1.22.87-2.47,1.7-3.74,2.49-2.64,1.65-5.38,3.13-8.21,4.42s-5.85,2.34-8.96,3.18c-3.73,1-7.54,1.66-11.28,2.59-7.42,1.86-14.72,4.18-21.84,6.95-10.98,4.27-21.61,9.51-31.55,15.85-3.01,1.92-5.96,3.93-8.81,6.08-1.48,1.11-3.05,2.21-4.41,3.49-.05.05-.11.09-.16.14-1.21,1.07-1.1,3.15,0,4.24,1.21,1.21,3.03,1.08,4.24,0h0Z" style="fill: #fdac0a;"/>
              </g>
            </g>
          </g>
          <g>
            <ellipse cx="451.13" cy="1117.39" rx="136.5" ry="109" style="fill: #e68511;"/>
            <g style="clip-path: url(#clippath-6); fill: none;">
              <g>
                <path d="m339.15,1079.98c11.31-7.74,22.18-16.2,32.77-24.89,4.09-3.36,7.99-7.01,12.33-10.06,3.75-2.63,7.75-4.9,11.89-6.84,6.72-3.15,14.2-5.51,21.64-7.1,1.53-.33,3.06-.62,4.6-.88.68-.11,1.35-.22,2.03-.32.29-.04.57-.08.86-.12.94-.13-.53.06.22-.03,1.04-.13,2.09-.26,3.14-.33,1.62-.11,3-1.3,3-3,0-1.54-1.37-3.11-3-3-3.36.23-6.73.79-10.03,1.42-7.3,1.39-14.47,3.49-21.32,6.36-4.33,1.81-8.54,3.88-12.53,6.35-4.4,2.72-8.31,5.99-12.25,9.32-7.89,6.65-15.98,13.05-24.25,19.21-3.99,2.98-8.01,5.94-12.12,8.75-1.34.91-1.94,2.64-1.08,4.1.77,1.32,2.76,2,4.1,1.08h0Z" style="fill: #fdac0a;"/>
                <path d="m559.13,1038.89c-5.87-.71-11.8-1.07-17.71-1.36-14.09-.69-28.23-.61-42.31.39-17.24,1.22-34.54,3.75-51.1,8.81-16.33,5-31.53,13.12-45.41,23-13.54,9.64-26.65,21.04-35.81,35.05-.94,1.44-1.83,2.92-2.66,4.43-1.86,3.39,3.32,6.42,5.18,3.03,3.57-6.52,7.97-11.98,13.07-17.35,5.75-6.06,12.06-11.61,18.72-16.66,13.22-10.01,27.95-18.75,43.51-24.1s32.85-8.38,49.64-9.84c14.44-1.26,28.97-1.5,43.45-.93,4.76.18,9.51.46,14.25.84,2.29.18,4.59.5,6.88.65.1,0,.2.02.29.03,1.61.19,3-1.52,3-3,0-1.78-1.38-2.8-3-3h0Z" style="fill: #fdac0a;"/>
                <path d="m381.39,1119.52c2.31-2.85,4.97-5.47,7.65-7.98,1.31-1.22,2.64-2.41,4.01-3.57.75-.64,1.51-1.27,2.28-1.88.36-.29.73-.58,1.1-.87.73-.58-.45.34.29-.23.23-.18.46-.35.69-.52,3.65-2.75,7.48-5.26,11.49-7.45,4.53-2.48,8.75-4.32,13.67-5.79,5.43-1.62,10.38-2.16,15.95-2.55,9.51-.65,19.06-1.46,28.46-3.06,2.91-.49,5.94-.97,8.67-2.13,1.49-.63,1.82-2.83,1.08-4.1-.9-1.54-2.61-1.71-4.1-1.08,1.65-.7-.3.04-.72.15-1.63.45-3.29.79-4.96,1.09-1.43.26-2.87.5-4.31.71-.83.12-1.66.24-2.49.35.7-.1-.69.09-.91.12-.61.08-1.22.15-1.83.23-5.37.64-10.75,1.12-16.14,1.51-6.05.45-12.02.77-17.92,2.29-5.02,1.3-9.89,3.22-14.54,5.52-8.03,3.99-15.42,9.29-22.1,15.25-3.37,3.01-6.7,6.2-9.56,9.72-1.02,1.26-1.23,3.01,0,4.24,1.05,1.05,3.22,1.27,4.24,0h0Z" style="fill: #fdac0a;"/>
                <path d="m556.24,1105.55c-.1.33-.22.64-.35.96-.07.17-.14.34-.21.51-.2.5.36-.81,0-.02-.23.51-.46,1.01-.7,1.51-.66,1.35-1.4,2.66-2.2,3.94-.48.77-.98,1.52-1.5,2.27-.26.37-.53.74-.81,1.11-.14.19-.28.38-.43.57.51-.67-.13.16-.24.29-1.44,1.79-3,3.48-4.67,5.06-.93.88-1.89,1.72-2.88,2.53-.24.2-.48.39-.73.58-.45.36-.13.1-.03.03-.14.11-.29.22-.44.33-.56.42-1.12.82-1.7,1.22-5.47,3.76-11.03,6.22-17.33,7.94-8.3,2.27-16.91,2.87-25.37,1.08-3.98-.84-7.73-2.27-11.54-3.65-3.3-1.2-6.63-2.3-9.99-3.3-7.86-2.34-15.91-4.13-24.09-4.89-3.9-.36-7.85-.46-11.76-.11-4.43.4-8.83,1.29-13.18,2.18-6.53,1.35-13.01,3.02-19.31,5.21-2.88,1-5.87,2.05-8.57,3.48-.11.06-.22.11-.33.17-1.43.76-1.87,2.75-1.08,4.1.85,1.45,2.67,1.84,4.1,1.08.45-.24.91-.45,1.37-.66.25-.12.51-.23.76-.34.14-.06.28-.12.41-.18.55-.24-.65.26-.06.03.84-.34,1.67-.68,2.52-1,5.54-2.09,11.25-3.71,17.01-5.05,8.17-1.91,16.13-3.55,24.51-3.16s15.85,2.03,23.52,4.18c3.56,1,7.08,2.12,10.57,3.34s7.14,2.74,10.84,3.72c9.19,2.43,18.69,2.44,27.94.38,12.15-2.7,23.68-8.71,32.03-18.05,3.94-4.4,7.82-9.81,9.59-15.54.03-.08.06-.17.08-.25,1.15-3.7-4.64-5.28-5.79-1.6h0Z" style="fill: #fdac0a;"/>
                <path d="m319.08,1082.04c.17,1.2.49,2.39.8,3.55.94,3.45,2.23,6.79,3.67,10.06,2.08,4.71,4.61,9.21,7.49,13.47,3.92,5.82,8.45,11.25,13.42,16.19,6.2,6.17,13.12,11.63,20.44,16.42,9.14,5.99,18.94,10.87,29.05,14.97,12.47,5.06,25.44,8.81,38.59,11.62,16.62,3.55,33.55,5.62,50.5,6.68,10,.63,19.97.84,29.95-.15s20.5-3.04,30.36-6.2c16.76-5.37,33.71-13.76,45.72-26.94,2.89-3.17,5.48-6.63,7.65-10.32,1.96-3.33-3.22-6.36-5.18-3.03-8.55,14.53-23.53,24.01-38.74,30.43-18.19,7.68-38.01,11.14-57.72,10.76-17.25-.33-34.64-2.15-51.62-5.2-13.72-2.46-27.29-5.86-40.41-10.58-2.8-1.01-5.58-2.07-8.33-3.2-.32-.13-.63-.26-.95-.39-.18-.07-.36-.15-.54-.23.12.05.46.2-.09-.04-.66-.28-1.32-.57-1.98-.86-1.29-.57-2.57-1.15-3.85-1.75-4.76-2.23-9.42-4.68-13.94-7.37-4.02-2.39-7.92-4.96-11.68-7.73-.45-.33-.89-.66-1.33-.99-.2-.15-.41-.31-.61-.46-.35-.27.33.26-.25-.2-.84-.66-1.67-1.32-2.5-2-1.58-1.3-3.13-2.64-4.65-4.02-2.78-2.53-5.44-5.2-7.96-8-1.15-1.28-2.27-2.59-3.36-3.93-.24-.3-.49-.6-.73-.9-.18-.23-1.05-1.36-.44-.55-.48-.63-.96-1.27-1.43-1.91-3.21-4.37-6.06-9.01-8.44-13.89-.48-.99-.95-1.99-1.39-3-.1-.22-.19-.44-.29-.66-.23-.52.28.68.12.3-.06-.14-.12-.28-.17-.41-.18-.43-.35-.86-.52-1.29-.59-1.52-1.14-3.06-1.62-4.62-.51-1.66-.85-3.34-1.26-5.02-.02-.07-.02-.14-.03-.22-.23-1.61-2.27-2.49-3.69-2.1-1.72.47-2.33,2.08-2.1,3.69h0Z" style="fill: #fdac0a;"/>
              </g>
            </g>
          </g>
          <g>
            <ellipse cx="461.13" cy="1280.64" rx="136.5" ry="106.25" style="fill: #e68511;"/>
            <g style="clip-path: url(#clippath-7); fill: none;">
              <g>
                <path d="m321.67,1281.44c.09-.23.18-.46.27-.68.04-.09.07-.18.11-.27.19-.48-.38.88-.14.34.12-.27.23-.53.35-.8.7-1.6,1.46-3.17,2.25-4.73,2.69-5.31,5.78-10.42,9.14-15.32,1.08-1.57,2.18-3.12,3.32-4.65.3-.41.61-.81.92-1.22.12-.16.25-.33.37-.49.51-.67-.2.25.23-.3.66-.84,1.32-1.67,1.99-2.5,2.88-3.55,5.91-6.96,9.1-10.24,3.5-3.6,7.19-7.04,11.03-10.27,1.04-.87,2.08-1.73,3.14-2.57,1.3-1.04,1.56-1.24,2.9-2.24,2.25-1.69,4.55-3.31,6.89-4.87,10.48-6.98,21.71-12.56,33.32-16.66,14.94-5.29,30.44-7.89,46.12-9.92,15.3-1.98,30.69-3.37,46.12-3.77,10.49-.27,21.01-.09,31.46.89,1.96.18,3.92.4,5.87.64.34.04,1.56.21.63.08.46.06.92.13,1.37.19.78.11,1.57.23,2.35.36,2.62.42,5.22.92,7.81,1.53s4.99,1.29,7.41,2.19c.63.24-.76-.33-.42-.18,1.48.66,3.22.43,4.1-1.08.75-1.28.41-3.44-1.08-4.1-1.8-.8-3.7-1.38-5.6-1.9-5.4-1.47-10.94-2.37-16.48-3.07-9.48-1.21-19.05-1.64-28.6-1.66-14.33-.02-28.66.93-42.91,2.45-16.88,1.8-33.99,3.85-50.34,8.54-12.85,3.69-25.3,8.94-36.84,15.7-9.82,5.76-19.01,12.64-27.33,20.41-6.84,6.4-13.05,13.43-18.64,20.94-4.02,5.41-7.7,11.08-10.92,17.01-1.76,3.23-3.39,6.54-4.78,9.95-.09.22-.18.44-.27.66-.58,1.51.64,3.29,2.1,3.69,1.69.46,3.11-.58,3.69-2.1h0Z" style="fill: #fdac0a;"/>
                <path d="m346.15,1285.98c3.74-1.88,7.15-4.75,10.19-7.58,7.52-7.01,13.18-15.77,17.05-25.25.51-1.25.95-2.51,1.44-3.77.01-.03.37-.91.13-.35.11-.26.23-.53.35-.79.24-.52.49-1.04.75-1.55,1-1.94,2.16-3.79,3.44-5.56.71-.97.81-1.11,1.61-2.07s1.55-1.8,2.36-2.67c1.57-1.67,3.23-3.25,4.96-4.76,3.29-2.87,6.31-5.09,10.16-7.59,3.29-2.13,6.68-4.1,10.15-5.91,2.84-1.49,5.74-2.88,8.68-4.16.25-.11.5-.21.75-.32.23-.1.61-.35-.26.11.13-.07.28-.12.42-.18.35-.14.69-.29,1.04-.43.32-.13.64-.26.96-.38,1.52-.57,2.55-2.03,2.1-3.69-.4-1.46-2.16-2.66-3.69-2.1-11.21,4.18-21.98,10.35-31.35,17.74-7.06,5.57-13.68,12.44-17.39,20.75-1.09,2.44-1.9,4.99-2.99,7.43-1.19,2.68-2.54,5.28-4.06,7.79-2.53,4.19-5.02,7.48-8.37,10.99-1.45,1.52-2.98,2.96-4.59,4.32-.35.3-.71.59-1.06.88-.17.14-1.2.93-.48.38-.6.45-1.19.9-1.81,1.32-1.13.79-2.3,1.58-3.54,2.2-1.45.73-1.86,2.77-1.08,4.1.86,1.47,2.65,1.81,4.1,1.08h0Z" style="fill: #fdac0a;"/>
                <path d="m379.63,1380.39c0-1.09-.24-2.21-.38-3.29-.31-2.34-.59-4.68-.83-7.02-.77-7.51-1.12-15.06-1-22.6.08-4.78.34-9.55.81-14.31.12-1.25.26-2.51.42-3.76.18-1.42.24-1.92.48-3.49.4-2.62.86-5.23,1.4-7.82,2.33-11.27,5.97-22.1,11.26-32.15,2.84-5.4,6.16-10.65,9.89-15.44s7.67-8.88,11.7-13.13c6.98-7.36,14.23-14.5,21.97-21.07,1.83-1.55,3.69-3.07,5.58-4.55.22-.17.44-.34.66-.52-.37.29.16-.12.28-.21.48-.37.96-.73,1.44-1.09.92-.69,1.85-1.37,2.79-2.04,3.79-2.71,7.69-5.25,11.72-7.59s8.11-4.43,12.33-6.32c.51-.23,1.02-.45,1.52-.67.3-.13.6-.26.9-.38-.47.2.3-.12.44-.18,1.08-.45,2.17-.88,3.26-1.3,2.27-.87,4.56-1.67,6.87-2.42,4.78-1.54,9.65-2.82,14.56-3.87,2.62-.56,5.25-1.06,7.89-1.49,1.34-.22,2.68-.43,4.02-.62.65-.09,1.18-.17,1.5-.21.72-.09,1.44-.18,2.16-.27,12.52-1.5,25.16-1.86,37.76-1.58,3.54.08,7.07.21,10.6.38,1.62.08,3-1.43,3-3,0-1.69-1.38-2.92-3-3-13.37-.65-26.79-.71-40.14.38-11.14.9-22.25,2.58-33.05,5.47-9.55,2.56-18.85,6.11-27.66,10.62s-16.47,9.69-24,15.58-15.2,12.98-22.22,20.08c-8.39,8.49-16.74,17.19-23.23,27.27-6.54,10.17-11.34,21.46-14.54,33.11-2.86,10.42-4.47,21.2-5.11,31.98-.5,8.46-.38,16.95.28,25.39.37,4.68.99,9.33,1.55,13.99.05.38.1.76.1,1.13.03,3.86,6.03,3.87,6,0h0Z" style="fill: #fdac0a;"/>
                <path d="m316.66,1295.49c2.32,2.47,4.92,4.71,7.51,6.88,7.05,5.91,14.61,11.21,22.5,15.93,11.48,6.88,23.71,12.53,36.34,16.94,15.92,5.55,32.53,9,49.32,10.49,20.52,1.81,41.27.54,61.51-3.21,17.85-3.31,35.34-8.85,51.52-17.13,12.71-6.5,24.56-14.78,34.89-24.65,8.23-7.87,15.51-16.79,21.54-26.45,4.4-7.04,8.12-14.49,11.08-22.24,1.41-3.69,2.72-7.48,3.55-11.35.04-.17.08-.34.11-.51.31-1.59-.45-3.24-2.1-3.69-1.47-.4-3.38.5-3.69,2.1-.51,2.63-1.34,5.22-2.19,7.76-.45,1.33-.92,2.65-1.42,3.97-.28.73-.57,1.46-.86,2.19-.16.38-.31.77-.47,1.15-.29.71.19-.44,0,.02-.1.22-.19.45-.29.67-1.6,3.7-3.38,7.32-5.33,10.85-2.32,4.2-4.88,8.28-7.64,12.2-.75,1.06-1.51,2.1-2.28,3.14-.2.26-.4.53-.6.79-.1.13-.68.88-.29.38-.44.57-.89,1.13-1.33,1.69-1.79,2.22-3.64,4.39-5.57,6.5-9.05,9.9-18.98,17.95-30.32,24.83-14.27,8.67-29.84,14.81-46,18.94-19.6,5.01-39.98,7.28-60.21,6.8-17.23-.41-34.37-2.96-50.94-7.73-13.53-3.9-25.87-8.92-38.19-15.59-4.89-2.65-9.67-5.51-14.31-8.59-1.96-1.3-3.9-2.65-5.81-4.03-.85-.62-1.7-1.24-2.55-1.88-.4-.3-.8-.6-1.19-.91-.53-.4-.18-.14-.11-.09-.21-.16-.42-.33-.63-.49-3.77-2.95-7.47-6.06-10.83-9.47-.15-.15-.3-.3-.45-.46-2.65-2.82-6.88,1.43-4.24,4.24h0Z" style="fill: #fdac0a;"/>
                <path d="m421.15,1326.98c6.92-5.13,14.46-9.57,22.16-13.4,6.26-3.11,12.51-5.7,19.53-7.24.76-.17,1.53-.32,2.3-.45.4-.07.81-.13,1.22-.2.62-.1.24-.03.11-.02.25-.03.5-.06.75-.09,1.61-.17,3.23-.26,4.84-.22,1.83.05,3.66.21,5.48.38,8.51.79,16.99,1.85,25.55,1.37,10.9-.62,21.53-3.59,30.84-9.37,12.92-8.03,22.57-20.37,29.93-33.49,1.17-2.09,2.29-4.21,3.37-6.36.73-1.45.38-3.25-1.08-4.1-1.33-.78-3.38-.38-4.1,1.08-3.89,7.74-8.44,15.41-13.85,22.04-2.26,2.77-4.67,5.4-7.27,7.86-1.23,1.16-2.49,2.28-3.8,3.35-.27.22-.54.44-.81.65-.15.12-.31.24-.46.36.36-.28-.03.02-.09.07-.65.49-1.3.97-1.97,1.44-2.41,1.69-4.93,3.21-7.55,4.53-.58.29-1.16.57-1.74.84-.31.14-.62.28-.93.42-.15.07-.31.13-.46.2-.33.15.44-.18-.1.04-1.22.5-2.45.96-3.7,1.38-2.43.82-4.92,1.47-7.44,1.97-1.23.24-2.47.45-3.72.63.61-.09.11-.01-.21.02-.3.04-.59.07-.89.1-.63.07-1.25.13-1.88.18-8.64.73-17.24-.19-25.83-1.05-4.81-.48-9.46-.75-14.28-.06-7.03,1-13.78,3.5-20.23,6.39-9.22,4.13-18.09,9.31-26.28,15.23-.14.1-.29.21-.43.31-1.3.96-1.96,2.6-1.08,4.1.75,1.28,2.8,2.05,4.1,1.08h0Z" style="fill: #fdac0a;"/>
                <path d="m397.22,1317.91c1.2-2.67,2.6-5.25,4.04-7.79s3.06-5.2,4.72-7.72c2-3.02,4.05-5.85,6.16-8.41,4.84-5.9,10.21-11.19,16.73-14.84,6.94-3.89,14.19-7.12,21.4-10.45,8.14-3.75,15.66-8.4,22.88-13.71,1.3-.96,1.96-2.6,1.08-4.1-.75-1.29-2.79-2.04-4.1-1.08-6.6,4.85-13.47,9.25-20.88,12.77-6.93,3.3-13.97,6.32-20.75,9.94-7.23,3.86-13.42,8.93-18.8,15.1-4.74,5.44-8.9,11.4-12.55,17.62-1.84,3.13-3.62,6.33-5.11,9.65-.66,1.48-.43,3.23,1.08,4.1,1.28.75,3.44.41,4.1-1.08h0Z" style="fill: #fdac0a;"/>
                <path d="m441.43,1373.29c4.21-.84,8.46-1.53,12.71-2.16s7.84-1.11,12.38-1.59,9.45-.89,14.18-1.07,9.05-.19,13.56.19c2.09.17,4.15.47,6.25.41,2.29-.07,4.6-.39,6.84-.9,8.53-1.93,16.41-6.53,23.35-11.72,4.36-3.26,8.64-6.79,12.38-10.77,2.64-2.81-1.59-7.06-4.24-4.24-2.93,3.11-6.21,5.94-9.56,8.59-.14.11-.29.23-.43.34-.72.56.46-.35-.27.21-.34.26-.68.52-1.03.77-.83.62-1.67,1.22-2.52,1.82-1.75,1.21-3.54,2.37-5.38,3.44-3.85,2.25-7.3,3.91-11.45,5.13s-7.65,1.59-12.15,1.09-8.86-.54-13.29-.43c-9.22.24-18.41,1.26-27.54,2.55-5.15.73-10.3,1.54-15.4,2.56-1.59.32-2.5,2.21-2.1,3.69.46,1.66,2.1,2.41,3.69,2.1h0Z" style="fill: #fdac0a;"/>
              </g>
            </g>
          </g>
        </g>
      </g>
    </g>
  </g>
</svg>