<?xml version="1.0" encoding="UTF-8"?>
<svg id="Capa_2" data-name="Capa 2" xmlns="http://www.w3.org/2000/svg" xmlns:xlink="http://www.w3.org/1999/xlink" viewBox="0 0 1690.69 1769.12">
  <defs>
    <linearGradient id="Degradado_sin_nombre_75" data-name="Degradado sin nombre 75" x1="8019.1" y1="6795.52" x2="9521.38" y2="6795.52" gradientTransform="translate(2009.81 -10150.62) rotate(58.32)" gradientUnits="userSpaceOnUse">
      <stop offset="0" stop-color="#f29100"/>
      <stop offset=".03" stop-color="#f29100"/>
      <stop offset=".23" stop-color="#f08306"/>
      <stop offset=".61" stop-color="#eb5e16"/>
      <stop offset="1" stop-color="#e5332a"/>
    </linearGradient>
    <linearGradient id="Degradado_sin_nombre_75-2" data-name="Degradado sin nombre 75" x1="9271.27" y1="6195.16" x2="9380.3" y2="6195.16" xlink:href="#Degradado_sin_nombre_75"/>
    <linearGradient id="Degradado_sin_nombre_75-3" data-name="Degradado sin nombre 75" x1="8058.69" y1="6423.87" x2="8167.73" y2="6423.87" xlink:href="#Degradado_sin_nombre_75"/>
    <linearGradient id="Degradado_sin_nombre_75-4" data-name="Degradado sin nombre 75" x1="8224.82" y1="6009.09" x2="8285.62" y2="6009.09" xlink:href="#Degradado_sin_nombre_75"/>
    <linearGradient id="Degradado_sin_nombre_75-5" data-name="Degradado sin nombre 75" x1="8875.54" y1="6019.73" x2="8936.33" y2="6019.73" xlink:href="#Degradado_sin_nombre_75"/>
    <linearGradient id="Degradado_sin_nombre_75-6" data-name="Degradado sin nombre 75" x1="8648.02" y1="7682.6" x2="8708.81" y2="7682.6" xlink:href="#Degradado_sin_nombre_75"/>
    <linearGradient id="Degradado_sin_nombre_75-7" data-name="Degradado sin nombre 75" x1="9101.74" y1="6132.55" x2="9210.77" y2="6132.55" xlink:href="#Degradado_sin_nombre_75"/>
    <linearGradient id="Degradado_sin_nombre_75-8" data-name="Degradado sin nombre 75" x1="5454.57" y1="5483.2" x2="5621.99" y2="5483.2" gradientTransform="translate(-89.07 -6081.54) rotate(41.6)" xlink:href="#Degradado_sin_nombre_75"/>
    <linearGradient id="Degradado_sin_nombre_75-9" data-name="Degradado sin nombre 75" x1="1183.88" y1="1594.05" x2="1351.31" y2="1594.05" gradientTransform="translate(-122.73 -43.67) rotate(8.69)" xlink:href="#Degradado_sin_nombre_75"/>
    <linearGradient id="Degradado_sin_nombre_75-10" data-name="Degradado sin nombre 75" x1="1133.16" y1="1508.95" x2="1300.58" y2="1508.95" gradientTransform="translate(-122.73 -43.67) rotate(8.69)" xlink:href="#Degradado_sin_nombre_75"/>
    <linearGradient id="Degradado_sin_nombre_75-11" data-name="Degradado sin nombre 75" x1="289.27" y1="-7661.7" x2="456.7" y2="-7661.7" gradientTransform="translate(6533.2 7107.43) rotate(-44.62)" xlink:href="#Degradado_sin_nombre_75"/>
    <linearGradient id="Degradado_sin_nombre_75-12" data-name="Degradado sin nombre 75" x1="10121.82" y1="4425.65" x2="10289.25" y2="4425.65" gradientTransform="translate(2324.99 -10653.87) rotate(77.72)" xlink:href="#Degradado_sin_nombre_75"/>
    <linearGradient id="Degradado_sin_nombre_75-13" data-name="Degradado sin nombre 75" x1="10172.85" y1="4492.21" x2="10269.63" y2="4492.21" gradientTransform="translate(2324.99 -10653.87) rotate(77.72)" xlink:href="#Degradado_sin_nombre_75"/>
    <linearGradient id="Degradado_sin_nombre_75-14" data-name="Degradado sin nombre 75" x1="5526.36" y1="5539.1" x2="5586.44" y2="5539.1" gradientTransform="translate(-89.07 -6081.54) rotate(41.6)" xlink:href="#Degradado_sin_nombre_75"/>
  </defs>
  <g id="cartapapasfritas">
    <g>
      <path d="m413.79,263.17c4.12-3.83,95.08-86.69,205.13-71.72,71.17,9.68,79.84,48.71,150.92,58.72,71.46,10.07,107.87-23.02,175.3-43.01,145.02-42.98,357.54-7.43,438.44,125.77,43.14,71.02,57.57,153.34,61.3,187.71,3.38,31.13,9.1,83.71-5.71,148.6-18.44,80.79-51.69,106.14-41.43,158.85,6.74,34.63,24.24,39.81,56.27,86.15,16.44,23.77,106.63,154.22,66.61,261.08-17.15,45.81-53.95,74.98-78.94,95.2-54.25,43.87-82.72,36.09-117.24,75.28-38.83,44.07-21.04,74.61-49.82,123.32-49.7,84.12-166.76,101.8-193.42,105.84-129.88,19.71-219.34-46.56-284.49-6.37-6.62,4.08-33.72,22.06-74.73,42.75-7.67,3.87-27.34,13.82-44.51,20.73-12.84,5.17-68.46,26.45-127.16,22.56-105.25-6.96-174.65-92.03-197.68-119.49-132.7-158.18-22.2-261.69-139.08-485.11-66.6-127.3-152.82-189.8-154.13-330.51-.19-20.29-.21-59.16,16.14-104.36,4.54-12.56,23.44-60.75,72.43-107.19,67.6-64.09,104.17-40.95,165.89-94.56,64.34-55.88,36.89-91.7,99.9-150.22Z" style="fill: url(#Degradado_sin_nombre_75);"/>
      <circle cx="1636.17" cy="1039.14" r="54.5" style="fill: url(#Degradado_sin_nombre_75-2);"/>
      <circle cx="804.67" cy="127.41" r="54.5" style="fill: url(#Degradado_sin_nombre_75-3);"/>
      <circle cx="1232.22" cy="30.4" r="30.39" style="fill: url(#Degradado_sin_nombre_75-4);"/>
      <circle cx="1564.94" cy="589.72" r="30.39" style="fill: url(#Degradado_sin_nombre_75-5);"/>
      <circle cx="30.4" cy="1269.5" r="30.39" style="fill: url(#Degradado_sin_nombre_75-6);"/>
      <circle cx="1600.41" cy="861.99" r="54.5" style="fill: url(#Degradado_sin_nombre_75-7);"/>
      <path d="m369.01,1696.78c-10.98-3.51-33.55-9.69-37.41-24.73-.83-3.23-.43-6.32.25-9.26,2.23-9.73,25.13-26.83,61.7-12.89,42.36,16.14,70.46,36.4,82.24,50.31,11.87,14.02,14.78,23.04,13.15,30.86-1.42,6.86-6.52,13.7-13.03,17.05-23.28,11.97-44.22-31.29-106.9-51.34Z" style="fill: url(#Degradado_sin_nombre_75-8);"/>
      <path d="m853.51,1748.1c-11.13,3.02-33.43,10.09-44.84-.44-2.45-2.26-3.79-5.08-4.82-7.91-3.41-9.38,6.52-36.18,44.8-44.34,44.33-9.46,78.93-7.72,96.38-2.44,17.58,5.32,24.92,11.31,27.81,18.76,2.53,6.53,1.97,15.05-1.68,21.39-13.04,22.7-54.13-2.25-117.64,14.97Z" style="fill: url(#Degradado_sin_nombre_75-9);"/>
      <path d="m816.22,1656.31c-11.13,3.02-33.43,10.09-44.84-.44-2.45-2.26-3.79-5.08-4.82-7.91-3.41-9.38,6.52-36.18,44.8-44.34,44.33-9.46,78.93-7.72,96.38-2.44,17.58,5.32,24.92,11.31,27.81,18.76,2.53,6.53,1.97,15.05-1.68,21.39-13.04,22.7-54.13-2.25-117.64,14.97Z" style="fill: url(#Degradado_sin_nombre_75-10);"/>
      <path d="m1415.44,1435.37c-4.23,10.73-11.88,32.83-27.14,35.69-3.28.62-6.34,0-9.22-.86-9.56-2.87-25.11-26.84-8.79-62.42,18.9-41.2,40.98-67.9,55.63-78.74,14.77-10.92,23.96-13.23,31.66-11.09,6.75,1.87,13.24,7.41,16.15,14.13,10.41,24.02-34.15,42.06-58.29,103.28Z" style="fill: url(#Degradado_sin_nombre_75-11);"/>
      <path d="m134.58,234.42c-6.8-9.31-21.38-27.6-15.64-42.03,1.24-3.1,3.38-5.36,5.66-7.33,7.54-6.54,36.11-6.85,57.44,25.97,24.69,38.01,35.44,70.95,36.76,89.12,1.32,18.32-1.65,27.32-7.57,32.68-5.19,4.7-13.35,7.22-20.58,6.09-25.86-4.05-17.27-51.35-56.07-104.5Z" style="fill: url(#Degradado_sin_nombre_75-12);"/>
      <path d="m87.99,274.41c-3.93-5.38-12.36-15.96-9.04-24.29.71-1.79,1.96-3.1,3.27-4.24,4.36-3.78,20.87-3.96,33.2,15.01,14.27,21.97,20.49,41.01,21.25,51.51.77,10.59-.95,15.79-4.38,18.89-3,2.72-7.72,4.17-11.89,3.52-14.95-2.34-9.98-29.68-32.41-60.4Z" style="fill: url(#Degradado_sin_nombre_75-13);"/>
      <path d="m373.4,1749.95c-3.94-1.26-12.04-3.48-13.43-8.87-.3-1.16-.15-2.27.09-3.32.8-3.49,9.02-9.63,22.14-4.63,15.2,5.79,25.29,13.07,29.51,18.06,4.26,5.03,5.3,8.27,4.72,11.07-.51,2.46-2.34,4.92-4.68,6.12-8.35,4.3-15.87-11.23-38.37-18.43Z" style="fill: url(#Degradado_sin_nombre_75-14);"/>
    </g>
  </g>
</svg>