<?xml version="1.0" encoding="UTF-8"?>
<svg id="Capa_2" data-name="Capa 2" xmlns="http://www.w3.org/2000/svg" xmlns:xlink="http://www.w3.org/1999/xlink" viewBox="0 0 7690 10250">
  <defs>
    <clipPath id="clippath">
      <rect width="7690" height="10250" style="fill: none;"/>
    </clipPath>
    <linearGradient id="Degradado_sin_nombre_459" data-name="Degradado sin nombre 459" x1="7073.73" y1="9842.54" x2="7520.55" y2="9842.54" gradientUnits="userSpaceOnUse">
      <stop offset="0" stop-color="#ec7aff"/>
      <stop offset=".32" stop-color="#ef92cb"/>
      <stop offset="1" stop-color="#f7cd53"/>
    </linearGradient>
    <linearGradient id="Degradado_sin_nombre_459-2" data-name="Degradado sin nombre 459" x1="7121.21" y1="9974.32" x2="7568" y2="9974.32" xlink:href="#Degradado_sin_nombre_459"/>
    <linearGradient id="Degradado_sin_nombre_459-3" data-name="Degradado sin nombre 459" x1="7121.21" y1="9974.32" x2="7568" y2="9974.32" xlink:href="#Degradado_sin_nombre_459"/>
    <linearGradient id="Degradado_sin_nombre_459-4" data-name="Degradado sin nombre 459" x1="7121.21" y1="9974.32" x2="7568" y2="9974.32" xlink:href="#Degradado_sin_nombre_459"/>
  </defs>
  <g id="fondo">
    <g style="clip-path: url(#clippath); fill: none;">
      <g id="LINEAS_FONDO" data-name="LINEAS FONDO">
        <g id="CRUZES_FONDO" data-name="CRUZES FONDO">
          <rect width="7690" height="10250" style="fill: #965ea2;"/>
          <polygon points="6485.5 268.65 5958.31 795.84 6215.58 1053.11 5958.31 1310.38 6485.5 1837.57 6742.77 1580.3 7000.04 1837.57 7527.23 1310.38 7269.96 1053.11 7527.23 795.84 7000.04 268.65 6742.77 525.92 6485.5 268.65" style="fill: #694472; opacity: .29;"/>
          <polygon points="782.5 268.65 255.31 795.84 512.58 1053.11 255.31 1310.38 782.5 1837.57 1039.77 1580.3 1297.04 1837.57 1824.23 1310.38 1566.96 1053.11 1824.23 795.84 1297.04 268.65 1039.77 525.92 782.5 268.65" style="fill: #694472; opacity: .29;"/>
          <polygon points="6485.5 8406.65 5958.31 8933.84 6215.58 9191.11 5958.31 9448.38 6485.5 9975.57 6742.77 9718.3 7000.04 9975.57 7527.23 9448.38 7269.96 9191.11 7527.23 8933.84 7000.04 8406.65 6742.77 8663.92 6485.5 8406.65" style="fill: #694472; opacity: .29;"/>
          <polygon points="782.5 8406.65 255.31 8933.84 512.58 9191.11 255.31 9448.38 782.5 9975.57 1039.77 9718.3 1297.04 9975.57 1824.23 9448.38 1566.96 9191.11 1824.23 8933.84 1297.04 8406.65 1039.77 8663.92 782.5 8406.65" style="fill: #694472; opacity: .29;"/>
          <g style="fill: none; opacity: .29;">
            <path d="m7695.43,2843.5c-2553.33-1160.93-5106.67,1160.93-7660,0,0-61.33,0-122.67,0-184,2553.33,1160.93,5106.67-1160.93,7660,0v184Z" style="fill: #694472;"/>
            <path d="m7695.43,2843.5c-2553.33-1160.93-5106.67,1160.93-7660,0,0-61.33,0-122.67,0-184,2553.33,1160.93,5106.67-1160.93,7660,0v184Z" style="fill: none; stroke: #694472; stroke-miterlimit: 10; stroke-width: 80px;"/>
          </g>
          <g style="fill: none; opacity: .29;">
            <path d="m7695.43,3623.83c-2553.33-1160.93-5106.67,1160.93-7660,0,0-61.34,0-122.66,0-184,2553.33,1160.93,5106.67-1160.93,7660,0v184Z" style="fill: #694472;"/>
            <path d="m7695.43,3623.83c-2553.33-1160.93-5106.67,1160.93-7660,0,0-61.34,0-122.66,0-184,2553.33,1160.93,5106.67-1160.93,7660,0v184Z" style="fill: none; stroke: #694472; stroke-miterlimit: 10; stroke-width: 80px;"/>
          </g>
          <g style="fill: none; opacity: .29;">
            <path d="m7695.43,5964.83c-2553.33-1160.93-5106.67,1160.93-7660,0,0-61.33,0-122.67,0-184,2553.33,1160.93,5106.67-1160.93,7660,0v184Z" style="fill: #694472;"/>
            <path d="m7695.43,5964.83c-2553.33-1160.93-5106.67,1160.93-7660,0,0-61.33,0-122.67,0-184,2553.33,1160.93,5106.67-1160.93,7660,0v184Z" style="fill: none; stroke: #694472; stroke-miterlimit: 10; stroke-width: 80px;"/>
          </g>
          <g style="fill: none; opacity: .29;">
            <path d="m7695.43,4404.17c-2553.33-1160.93-5106.67,1160.93-7660,0,0-61.33,0-122.67,0-184,2553.33,1160.93,5106.67-1160.93,7660,0v184Z" style="fill: #694472;"/>
            <path d="m7695.43,4404.17c-2553.33-1160.93-5106.67,1160.93-7660,0,0-61.33,0-122.67,0-184,2553.33,1160.93,5106.67-1160.93,7660,0v184Z" style="fill: none; stroke: #694472; stroke-miterlimit: 10; stroke-width: 80px;"/>
          </g>
          <g style="fill: none; opacity: .29;">
            <path d="m7695.43,5184.5c-2553.33-1160.93-5106.67,1160.93-7660,0,0-61.33,0-122.67,0-184,2553.33,1160.93,5106.67-1160.93,7660,0v184Z" style="fill: #694472;"/>
            <path d="m7695.43,5184.5c-2553.33-1160.93-5106.67,1160.93-7660,0,0-61.33,0-122.67,0-184,2553.33,1160.93,5106.67-1160.93,7660,0v184Z" style="fill: none; stroke: #694472; stroke-miterlimit: 10; stroke-width: 80px;"/>
          </g>
          <g style="fill: none; opacity: .29;">
            <path d="m7695.43,7525.5c-2553.33-1160.93-5106.67,1160.93-7660,0,0-61.34,0-122.66,0-184,2553.33,1160.93,5106.67-1160.92,7660,0v184Z" style="fill: #694472;"/>
            <path d="m7695.43,7525.5c-2553.33-1160.93-5106.67,1160.93-7660,0,0-61.34,0-122.66,0-184,2553.33,1160.93,5106.67-1160.92,7660,0v184Z" style="fill: none; stroke: #694472; stroke-miterlimit: 10; stroke-width: 80px;"/>
          </g>
          <g style="fill: none; opacity: .29;">
            <path d="m7695.43,6745.17c-2553.33-1160.93-5106.67,1160.93-7660,0,0-61.33,0-122.66,0-184,2553.33,1160.93,5106.67-1160.93,7660,0v184Z" style="fill: #694472;"/>
            <path d="m7695.43,6745.17c-2553.33-1160.93-5106.67,1160.93-7660,0,0-61.33,0-122.66,0-184,2553.33,1160.93,5106.67-1160.93,7660,0v184Z" style="fill: none; stroke: #694472; stroke-miterlimit: 10; stroke-width: 80px;"/>
          </g>
        </g>
      </g>
    </g>
  </g>
</svg>