<?xml version="1.0" encoding="UTF-8"?>
<svg id="Capa_2" data-name="Capa 2" xmlns="http://www.w3.org/2000/svg" xmlns:xlink="http://www.w3.org/1999/xlink" viewBox="0 0 1680.59 2100.28">
  <defs>
    <linearGradient id="Degradado_sin_nombre_1949" data-name="Degradado sin nombre 1949" x1="1241.15" y1="4243.43" x2="1370.72" y2="4484.27" gradientTransform="translate(1585.94 -2498.19) rotate(28.28)" gradientUnits="userSpaceOnUse">
      <stop offset="0" stop-color="#dce930"/>
      <stop offset=".16" stop-color="#d7e831"/>
      <stop offset=".34" stop-color="#cbe636"/>
      <stop offset=".51" stop-color="#b6e23e"/>
      <stop offset=".69" stop-color="#98dd49"/>
      <stop offset=".87" stop-color="#73d757"/>
      <stop offset="1" stop-color="#54d263"/>
    </linearGradient>
    <linearGradient id="Degradado_sin_nombre_1949-2" data-name="Degradado sin nombre 1949" x1="380.67" y1="312.74" x2="1282.44" y2="1874.65" gradientTransform="matrix(1,0,0,1,0,0)" xlink:href="#Degradado_sin_nombre_1949"/>
    <linearGradient id="Degradado_sin_nombre_1949-3" data-name="Degradado sin nombre 1949" x1="37.61" y1="524.23" x2="159.58" y2="524.23" gradientTransform="translate(-361.38 794.33) rotate(-109.77)" xlink:href="#Degradado_sin_nombre_1949"/>
    <linearGradient id="Degradado_sin_nombre_1949-4" data-name="Degradado sin nombre 1949" x1="230.14" y1="172.56" x2="298.15" y2="172.56" gradientTransform="matrix(1,0,0,1,0,0)" xlink:href="#Degradado_sin_nombre_1949"/>
    <linearGradient id="Degradado_sin_nombre_1949-5" data-name="Degradado sin nombre 1949" x1="1211.46" y1="310.9" x2="1333.44" y2="310.9" gradientTransform="matrix(1,0,0,1,0,0)" xlink:href="#Degradado_sin_nombre_1949"/>
    <linearGradient id="Degradado_sin_nombre_1949-6" data-name="Degradado sin nombre 1949" x1="1391.13" y1="169.5" x2="1459.09" y2="169.5" gradientTransform="translate(2604.82 -647.78) rotate(138.5)" xlink:href="#Degradado_sin_nombre_1949"/>
    <linearGradient id="Degradado_sin_nombre_1949-7" data-name="Degradado sin nombre 1949" x1="385.09" y1="-2706.32" x2="572.39" y2="-2706.32" gradientTransform="translate(1688.04 4660.97) rotate(-16.72)" xlink:href="#Degradado_sin_nombre_1949"/>
    <linearGradient id="Degradado_sin_nombre_1949-8" data-name="Degradado sin nombre 1949" x1="327.19" y1="1064.14" x2="514.49" y2="1064.14" gradientTransform="translate(743.34 -1103.95) rotate(19.41)" xlink:href="#Degradado_sin_nombre_1949"/>
    <linearGradient id="Degradado_sin_nombre_1949-9" data-name="Degradado sin nombre 1949" x1="384.28" y1="1138.59" x2="492.54" y2="1138.59" gradientTransform="translate(743.34 -1103.95) rotate(19.41)" xlink:href="#Degradado_sin_nombre_1949"/>
    <linearGradient id="Degradado_sin_nombre_1949-10" data-name="Degradado sin nombre 1949" x1="465.4" y1="-2643.8" x2="532.62" y2="-2643.8" gradientTransform="translate(1688.04 4660.97) rotate(-16.72)" xlink:href="#Degradado_sin_nombre_1949"/>
    <clipPath id="clippath">
      <path d="m1494.38,1229.83c-39.29-69.48-84.32-101.27-170.32-180.27-70-62-118-157-139.9-323.74-2.17-27.99-9.05-56.14-21.01-83.27-33.04-74.97-72.62-117.73-116.15-138.22-64.89-30.56-117.21-82.59-146.67-147.98l-34.11-75.72-229.08,103.21,34.93,77.54c29.81,66.17,35.42,140.36,17.94,210.8-11.44,46.09-3.51,103.37,32.97,176.4,15.1,30.23,59.19,77.38,59.19,77.38h0s.02.02.05.04c50.84,43.56,173.84,149.56,185.85,347.56.31,78.34,21.64,154.84,56.55,229.48,53.1,91.97,171.06,122.91,262.46,68.83l139.2-82.35c90.04-53.27,120.41-169.09,68.1-259.68Z" style="fill: #6acce3;"/>
    </clipPath>
    <clipPath id="clippath-1">
      <path d="m574.17,951.03l-145.84-198.43c-.13-.18-.36-.26-.58-.2l-180.53,48.61-8.32-30.9,180.62-48.63c13.09-3.45,26.63,1.34,34.6,12.17l145.84,198.43-25.79,18.95Z" style="fill: #fff;"/>
    </clipPath>
    <clipPath id="clippath-2">
      <path d="m684.04,1490.68l-2.77,2.07c-4.77,3.56-6.66,9.74-4.58,15.24,4.02,10.62,15.31,25.4,47.05,22.76,37.03-3.07,39.4-30.93,33.15-47.8-2.58-6.97-10.45-10.6-17.6-8.1l-4.86,1.69c-3.82,1.33-7.01,4.13-8.48,7.82-1.27,3.2-4.32,6.89-11.54,7.97-6.26.94-11.39-.74-15.1-2.8-4.83-2.69-10.87-2.14-15.28,1.15Z" style="fill: #ff0e7c;"/>
    </clipPath>
    <clipPath id="clippath-3">
      <path d="m819.57,213.38l-211.53,104.33c-7.3,3.6-10.3,12.43-6.7,19.73l33.77,68.47h.01c6.76,13.04,25.45,17.02,42.01,8.85,15.35-7.57,23.53-22.95,19.68-35.75,7.81,10.85,24.99,13.72,40.34,6.15s23.53-22.95,19.68-35.75c7.81,10.85,24.99,13.72,40.34,6.15,14.38-7.09,22.46-21.02,20.27-33.28,8.84,6.95,23.05,7.97,35.97,1.6,16.73-8.25,24.95-25.77,18.36-39.13-.57-1.16-21.54-42.9-32.52-64.77-3.63-7.23-12.42-10.18-19.68-6.6Z" style="fill: #bf1c2f;"/>
    </clipPath>
  </defs>
  <g id="fondo_1">
    <path d="m533.74,2000.79c-38.44-2.97-116.6-5.69-140.75-51.64-5.19-9.88-6.25-20.24-6.32-30.32-.24-33.37,61.09-106.64,190.82-89.46,150.24,19.9,257.28,64.19,306.31,100.37,49.42,36.46,65.83,63.57,66.56,90.27.65,23.41-10.67,49.61-29.27,65.51-66.52,56.88-167.99-67.76-387.36-84.72Z" style="fill: url(#Degradado_sin_nombre_1949);"/>
    <path d="m4.86,1088.44c-1.22-6.17-26.66-141.45,52.25-237.42,51.03-62.06,93.28-47.39,144.57-109.17,51.58-62.11,41.46-116.21,62.06-192.15,44.29-163.31,203-344.73,377.34-343.48,92.96.67,179.8,35.3,214.71,51.94,31.62,15.07,85.04,40.53,138.1,92.75,66.08,65.02,70.67,111.57,126.87,132.77,36.93,13.93,52.14.32,115.07-2.95,32.29-1.68,209.46-10.89,287.68,89.99,33.53,43.25,39.68,95.42,44.24,131.09,9.89,77.42-14.25,99.95,2.77,155.84,19.14,62.86,58.66,63.87,88.12,119.89,50.88,96.74-1.08,218.56-12.89,246.32-57.56,135.22-173.2,181.45-173.22,267.08,0,8.7,1.19,45.06-3.21,96.26-.82,9.58-2.91,34.15-6.42,54.55-2.62,15.27-15.05,80.71-53.24,134.31-68.47,96.11-190.22,112.18-229.9,117.98-228.55,33.38-262.16-132.63-543.53-152.64-160.32-11.4-270.48,33.96-405.2-47.48-19.43-11.74-56.44-34.57-89.87-76.69-9.29-11.71-44.06-58-59.49-131.93-21.29-102.01,22.23-123.23,7.46-213.48-15.4-94.09-65.62-89-84.3-183.37Z" style="fill: url(#Degradado_sin_nombre_1949-2);"/>
    <circle cx="98.59" cy="524.23" r="60.97" style="fill: url(#Degradado_sin_nombre_1949-3);"/>
    <circle cx="264.15" cy="172.56" r="34" style="fill: url(#Degradado_sin_nombre_1949-4);"/>
    <circle cx="1272.45" cy="310.9" r="60.97" style="fill: url(#Degradado_sin_nombre_1949-5);"/>
    <circle cx="1425.11" cy="169.5" r="33.97" style="fill: url(#Degradado_sin_nombre_1949-6);"/>
    <path d="m1343.28,1973.42c-9.8,8.39-28.93,26.24-45.52,21.08-3.57-1.11-6.27-3.31-8.67-5.68-7.95-7.84-10.78-39.68,23.98-66.31,40.25-30.84,76.05-45.68,96.22-48.72,20.32-3.06,30.61-.53,37.11,5.61,5.69,5.39,9.21,14.26,8.57,22.42-2.28,29.19-55.77,23.71-111.69,71.6Z" style="fill: url(#Degradado_sin_nombre_1949-7);"/>
    <path d="m741.95,59.03c-12.86,1-38.84,4.14-49.2-9.81-2.23-3-3.11-6.37-3.65-9.7-1.8-11.02,14.69-38.41,58.47-39.42,50.69-1.17,88.36,7.94,106.44,17.37,18.22,9.5,25.04,17.62,26.66,26.41,1.42,7.71-.97,16.95-6.29,23.17-19.05,22.24-59.03-13.73-132.43-8.02Z" style="fill: url(#Degradado_sin_nombre_1949-8);"/>
    <path d="m752.65,126.87c-7.43.58-22.45,2.39-28.44-5.67-1.29-1.73-1.8-3.68-2.11-5.61-1.04-6.37,8.49-22.2,33.79-22.78,29.3-.68,51.07,4.59,61.52,10.04,10.53,5.49,14.47,10.18,15.41,15.26.82,4.45-.56,9.8-3.64,13.39-11.01,12.85-34.12-7.94-76.54-4.64Z" style="fill: url(#Degradado_sin_nombre_1949-9);"/>
    <path d="m1396.48,2000.49c-3.52,3.01-10.38,9.42-16.34,7.57-1.28-.4-2.25-1.19-3.11-2.04-2.85-2.81-3.87-14.24,8.61-23.8,14.45-11.07,27.29-16.39,34.53-17.49,7.29-1.1,10.99-.19,13.32,2.01,2.04,1.93,3.31,5.12,3.08,8.05-.82,10.48-20.02,8.51-40.08,25.7Z" style="fill: url(#Degradado_sin_nombre_1949-10);"/>
    <g id="bebida">
      <g>
        <path d="m1494.38,1229.83c-39.29-69.48-84.32-101.27-170.32-180.27-70-62-118-157-139.9-323.74-2.17-27.99-9.05-56.14-21.01-83.27-33.04-74.97-72.62-117.73-116.15-138.22-64.89-30.56-117.21-82.59-146.67-147.98l-34.11-75.72-229.08,103.21,34.93,77.54c29.81,66.17,35.42,140.36,17.94,210.8-11.44,46.09-3.51,103.37,32.97,176.4,15.1,30.23,59.19,77.38,59.19,77.38h0s.02.02.05.04c50.84,43.56,173.84,149.56,185.85,347.56.31,78.34,21.64,154.84,56.55,229.48,53.1,91.97,171.06,122.91,262.46,68.83l139.2-82.35c90.04-53.27,120.41-169.09,68.1-259.68Z" style="fill: #6acce3;"/>
        <g style="clip-path: url(#clippath); fill: none;">
          <path d="m1444.09,1219.75c-33.74-52.45-74.12-95.32-122.02-124.19l-82.51,41.5-118.41-234.66c61.38-73.53,48.58-184.13-10.09-292.84-28.66-53.11-78.67-86.62-133.67-100.54-.02-.01-.04-.02-.06-.03-61.73-33.57-96.27-103.43-96.27-103.43l-167,78.75c28,80.75,12,148.25,10.8,152h.01c-19.21,71.93,1.82,160.42,61.63,230.59,48.32,56.69,112.18,89.99,174,96.72l126.29,250.28-94.73,47.65c8.09,79.44,22.5,134.8,45.3,183.18,44.11,93.61,158.19,130.48,249.07,80.98l92.24-50.25c91.92-50.07,122.06-167.69,65.43-255.72Z" style="fill: #01213a;"/>
          <g>
            <path d="m953.92,767.21c12.26,1.56,23.55,8.99,29.54,20.86,9.58,18.98,1.95,42.14-17.03,51.72s-42.14,1.95-51.72-17.03c-5.99-11.86-5.25-25.36.77-36.15" style="fill: none; stroke: #fff; stroke-miterlimit: 10; stroke-width: 5px;"/>
            <path d="m1085.11,751.75c4.23.54,8.12,3.1,10.19,7.19,3.3,6.55.67,14.53-5.87,17.84s-14.53.67-17.84-5.87c-2.06-4.09-1.81-8.75.27-12.47" style="fill: none; stroke: #fff; stroke-miterlimit: 10; stroke-width: 5px;"/>
            <path d="m1093.11,685.75c4.23.54,8.12,3.1,10.19,7.19,3.3,6.55.67,14.53-5.87,17.84s-14.53.67-17.84-5.87c-2.06-4.09-1.81-8.75.27-12.47" style="fill: none; stroke: #fff; stroke-miterlimit: 10; stroke-width: 5px;"/>
            <path d="m1030.45,741.52c3.3,2.7,5.24,6.93,4.83,11.5-.67,7.3-7.13,12.68-14.43,12.01-7.3-.67-12.68-7.13-12.01-14.43.42-4.56,3.1-8.38,6.83-10.43" style="fill: none; stroke: #fff; stroke-miterlimit: 10; stroke-width: 5px;"/>
            <path d="m998.26,674.98c4.88.35,9.5,3.03,12.13,7.58,4.2,7.28,1.71,16.6-5.58,20.8s-16.6,1.71-20.8-5.58" style="fill: none; stroke: #fff; stroke-miterlimit: 10; stroke-width: 5px;"/>
            <path d="m1346.12,1270.52c9.59.68,18.67,5.95,23.84,14.9,8.26,14.32,3.35,32.63-10.97,40.89-14.32,8.26-32.63,3.35-40.89-10.97" style="fill: none; stroke: #fff; stroke-miterlimit: 10; stroke-width: 5px;"/>
            <path d="m900.86,708.77c-1.38,8.3-9.23,13.9-17.53,12.52-8.3-1.38-13.9-9.23-12.52-17.53" style="fill: none; stroke: #fff; stroke-miterlimit: 10; stroke-width: 5px;"/>
            <path d="m1306.73,1209.94c3.11,7.82.9,16.03-4.93,18.35s-13.08-2.14-16.18-9.95" style="fill: none; stroke: #fff; stroke-miterlimit: 10; stroke-width: 5px;"/>
            <path d="m1272.71,1192.17c-.42,8.4-5.83,14.96-12.1,14.65s-11.01-7.37-10.59-15.77" style="fill: none; stroke: #fff; stroke-miterlimit: 10; stroke-width: 5px;"/>
            <path d="m1078.33,646.01c3.85,3.02,6.18,7.83,5.8,13.07-.59,8.39-7.88,14.71-16.27,14.11-8.39-.59-14.71-7.88-14.11-16.27" style="fill: none; stroke: #fff; stroke-miterlimit: 10; stroke-width: 5px;"/>
            <path d="m1346.49,1145.07c7.21,2.12,13.26,7.66,15.71,15.35,3.92,12.31-2.88,25.47-15.19,29.39-12.31,3.92-25.47-2.88-29.39-15.19" style="fill: none; stroke: #fff; stroke-miterlimit: 10; stroke-width: 5px;"/>
            <path d="m966.77,624.7c2.71,2.13,4.36,5.52,4.09,9.22-.42,5.92-5.56,10.37-11.47,9.95s-10.37-5.56-9.95-11.47" style="fill: none; stroke: #fff; stroke-miterlimit: 10; stroke-width: 5px;"/>
            <path d="m1369.77,1205.7c2.71,2.13,4.36,5.52,4.09,9.22-.42,5.92-5.56,10.37-11.47,9.95s-10.37-5.56-9.95-11.47" style="fill: none; stroke: #fff; stroke-miterlimit: 10; stroke-width: 5px;"/>
            <path d="m1410.63,1267.91c2.09,1.64,3.36,4.26,3.16,7.11-.32,4.56-4.28,8-8.85,7.68-4.56-.32-8-4.28-7.68-8.85" style="fill: none; stroke: #fff; stroke-miterlimit: 10; stroke-width: 5px;"/>
            <circle cx="813.06" cy="773.56" r="35" style="fill: none; stroke: #fff; stroke-miterlimit: 10; stroke-width: 5px;"/>
            <circle cx="901.06" cy="636.31" r="9.75" style="fill: none; stroke: #fff; stroke-miterlimit: 10; stroke-width: 5px;"/>
            <path d="m765.56,695.06s-30.03-38.83-9-110c13-44,1.41-88.28,1.41-88.28" style="fill: none; stroke: #fff; stroke-miterlimit: 10; stroke-width: 5px;"/>
            <path d="m1296.29,1273.44c2.71,2.13,4.36,5.52,4.09,9.22-.42,5.92-5.56,10.37-11.47,9.95-5.92-.42-10.37-5.56-9.95-11.47" style="fill: none; stroke: #fff; stroke-miterlimit: 10; stroke-width: 5px;"/>
            <path d="m1027.51,1316.53s2.77,144.22,118.66,179.12" style="fill: none; stroke: #fff; stroke-miterlimit: 10; stroke-width: 5px;"/>
            <path d="m1429.06,1181.56s161.97,152.14-6.01,282.57" style="fill: none; stroke: #fff; stroke-miterlimit: 10; stroke-width: 5px;"/>
            <path d="m714.06,787.56c-3-3-31.25-54-8.62-161,22.62-107-35.38-195-35.38-195" style="fill: none; stroke: #fff; stroke-miterlimit: 10; stroke-width: 5px;"/>
            <path d="m885.73,367.82s33.43,120.17,107.88,128.96" style="fill: none; stroke: #fff; stroke-miterlimit: 10; stroke-width: 5px;"/>
          </g>
          <path d="m786.56,951.03s202.5-178.48,411.5-200.48,161,319,161,319c0,0-78.97,183.82-404.99,193.91s-167.51-312.43-167.51-312.43Z" style="fill: #bf1c2f;"/>
        </g>
      </g>
      <g>
        <path d="m574.17,951.03l-145.84-198.43c-.13-.18-.36-.26-.58-.2l-180.53,48.61-8.32-30.9,180.62-48.63c13.09-3.45,26.63,1.34,34.6,12.17l145.84,198.43-25.79,18.95Z" style="fill: #fff;"/>
        <g style="clip-path: url(#clippath-1); fill: none;">
          <rect x="335" y="753.81" width="48.72" height="9" transform="translate(-429.43 1044.64) rotate(-84.6)" style="fill: #e44c5c;"/>
          <rect x="345.99" y="754.06" width="54.15" height="9" transform="translate(-410.99 1074.55) rotate(-85.76)" style="fill: #0077ba;"/>
          <rect x="366.34" y="744.06" width="54.45" height="9" transform="translate(-399.39 1042.6) rotate(-82.61)" style="fill: #e44c5c;"/>
        </g>
      </g>
      <rect x="406.58" y="948.76" width="490.66" height="868.14" rx="44.14" ry="44.14" transform="translate(-553.05 441.94) rotate(-26.77)" style="fill: #0077ba;"/>
      <path d="m862.06,1436.56c31.03,78.59-5.29,165.13-86.87,197.63-81.58,32.5-159.65-8.9-197.13-84.63-61.4-124.07,64-201,104-160,8-43,130-89,180,47Z" style="fill: #bf1c2f;"/>
      <path d="m692.03,1401.3c-3.53,1.3-7.45-.48-8.82-3.98-13.35-33.99-25.46-46.11-32.19-50.42-3.66-2.35-6-6.29-6.24-10.65-.04-.77-.16-1.53-.2-2.3-.26-4.34,3.96-7.58,8.12-6.2,10.78,3.56,29.12,16.82,47.3,63.09,1.42,3.61-.41,7.69-4.05,9.02l-3.92,1.44Z" style="fill: #893d2a;"/>
      <path d="m636.06,1479.56s22-21,41-14" style="fill: none; stroke: #02223a; stroke-miterlimit: 10; stroke-width: 6px;"/>
      <path d="m732.06,1450.56s24.5-27.5,54.5-11.5" style="fill: none; stroke: #02223a; stroke-miterlimit: 10; stroke-width: 6px;"/>
      <ellipse cx="638.56" cy="1505.56" rx="21" ry="15.5" transform="translate(-372.82 220.42) rotate(-15.22)" style="fill: #ff0e7c;"/>
      <ellipse cx="793.56" cy="1466.56" rx="21" ry="15.5" transform="translate(-486.45 397.86) rotate(-21.72)" style="fill: #ff0e7c;"/>
      <g>
        <path d="m684.04,1490.68l-2.77,2.07c-4.77,3.56-6.66,9.74-4.58,15.24,4.02,10.62,15.31,25.4,47.05,22.76,37.03-3.07,39.4-30.93,33.15-47.8-2.58-6.97-10.45-10.6-17.6-8.1l-4.86,1.69c-3.82,1.33-7.01,4.13-8.48,7.82-1.27,3.2-4.32,6.89-11.54,7.97-6.26.94-11.39-.74-15.1-2.8-4.83-2.69-10.87-2.14-15.28,1.15Z" style="fill: #ff0e7c;"/>
        <g style="clip-path: url(#clippath-2); fill: none;">
          <path d="m869.87,1442.79c40.42,83.91-20.32,175.61-103.45,198.67-103.83,28.8-177.41-33.88-199.18-101.61-43.64-102.12,68.4-181.98,118.15-152.66,9.33-42.46,129.66-82.89,184.48,55.6Z" style="fill: none; stroke: #0077ba; stroke-miterlimit: 10; stroke-width: .99px;"/>
          <path d="m672.96,1486.26s18.75,32.22,63.27,11.56,19.64-44.93,19.64-44.93l-75.13,13.14-7.78,20.22Z" style="fill: #fff;"/>
          <ellipse cx="724.26" cy="1528.22" rx="35.76" ry="20.73" style="fill: #ffa793;"/>
        </g>
      </g>
      <path d="m617.21,1398.08c-30.45,11.07-47.21-17.35-61.14-49.34-.66-1.52-2.42-2.22-3.94-1.57h0c-1.53.65-2.23,2.42-1.58,3.94,18.25,42.87,24.24,63.92-6.37,78.27-1.47.69-2.14,2.41-1.5,3.91l.25.59c.63,1.47,2.29,2.16,3.79,1.64,25.87-9.06,45.46,13.93,60.9,48.89.67,1.51,2.42,2.22,3.94,1.56h.02c1.52-.66,2.22-2.41,1.59-3.94-13.31-32.11-18.94-64.71,6.7-77.83,1.42-.73,2.07-2.41,1.44-3.88l-.27-.62c-.63-1.47-2.31-2.18-3.82-1.63Z" style="fill: #fff;"/>
      <path d="m889.97,1506.45c-20.51,7.46-31.8-11.69-41.18-33.23-.45-1.02-1.63-1.5-2.66-1.06h0c-1.03.44-1.5,1.63-1.06,2.66,12.29,28.87,16.33,43.05-4.29,52.72-.99.46-1.44,1.63-1.01,2.63l.17.4c.42.99,1.54,1.46,2.55,1.1,17.42-6.11,30.62,9.39,41.02,32.93.45,1.02,1.63,1.49,2.65,1.05h.01c1.02-.44,1.5-1.62,1.07-2.65-8.96-21.62-12.75-43.58,4.51-52.42.96-.49,1.39-1.62.97-2.61l-.18-.42c-.43-.99-1.55-1.47-2.57-1.1Z" style="fill: #fff;"/>
      <g>
        <g>
          <path d="m351.66,1158.34c8.53-2.14,16.94-4.93,25.18-7.98,15.87-5.87,31.79-12.95,45-23.72,6.61-5.39,12.48-12.21,15.01-20.49.91-3-1.09-6.67-4.19-7.38s-6.4.98-7.38,4.19c-.22.71-.47,1.4-.74,2.1-.34.88.69-1.54.29-.68-.09.19-.17.37-.26.56-.18.37-.36.75-.55,1.11-.76,1.45-1.65,2.83-2.62,4.15-.09.12-.18.23-.26.35-.57.79,1.02-1.27.4-.51-.26.32-.51.64-.78.95-.56.67-1.15,1.32-1.75,1.96-1.25,1.33-2.58,2.58-3.95,3.78-.68.59-1.38,1.17-2.08,1.74-.33.26-.66.52-.98.78,1.78-1.41.13-.11-.3.21-1.57,1.16-3.17,2.26-4.8,3.32-3.39,2.19-6.89,4.19-10.47,6.06s-7.37,3.66-11.14,5.31c-.86.37-1.71.74-2.57,1.11,2.08-.89.21-.09-.27.11s-.97.4-1.45.59c-1.81.74-3.63,1.45-5.46,2.14-5.98,2.26-12.05,4.32-18.17,6.17-2.94.89-5.89,1.76-8.86,2.5s-5.17,4.35-4.19,7.38,4.12,5.01,7.38,4.19h0Z" style="fill: #fff;"/>
          <path d="m470.28,1188.15c.2.86.37,1.73.53,2.6.19.99.36,1.98.51,2.98.1.63.2,1.26.29,1.89.02.16.04.31.07.47.15,1.04-.09-.67-.12-.87.04.37.1.73.14,1.1.96,7.7,1.29,15.49.85,23.24-.13,2.32-.33,4.64-.61,6.95-.03.27-.07.54-.1.82-.12,1,.21-1.5.07-.5-.09.64-.19,1.28-.29,1.92-.19,1.2-.41,2.39-.65,3.58-.97,4.83-2.37,9.56-4.2,14.14-.47,1.17.48-1.1.1-.22-.12.27-.23.54-.35.8-.26.58-.52,1.15-.8,1.72-.55,1.15-1.14,2.28-1.76,3.39-1.26,2.26-2.68,4.41-4.21,6.49-.09.12-.19.24-.27.36-.06.09.88-1.11.48-.62-.19.23-.38.48-.57.71-.45.55-.91,1.1-1.37,1.63-.88,1.01-1.8,1.98-2.76,2.92s-1.91,1.8-2.91,2.65c-.53.45-1.08.88-1.62,1.32-.34.28,1.12-.86.23-.18-.55.42-1.1.84-1.65,1.27-6.77,5.26-12.34,11.97-17.08,19.07-5.1,7.62-9.14,15.94-12.34,24.52s-5.13,16.77-5.98,25.5c-.7,7.1-.47,14.78,2.03,21.54,1.31,3.55,3.05,6.73,5.58,9.56s5.63,4.68,9.06,6.03c7.62,3,16.6,1.62,24.17-.8,6.12-1.95,11.7-5.34,15.73-10.4s6.93-11.45,8.48-18.02c1.73-7.33,2.25-14.97,2.11-22.49-.16-8.88-1.24-17.75-2.7-26.51-1.57-9.38-3.71-18.66-6.2-27.83-2.67-9.81-5.75-19.51-9.14-29.1-3.6-10.16-7.56-20.19-11.79-30.11-3.95-9.26-8.17-18.4-12.69-27.39-4.18-8.32-8.62-16.52-13.39-24.52-4.09-6.85-8.43-13.58-13.19-19.98-2.21-2.98-4.5-5.91-6.91-8.73-2.05-2.39-6.41-2.26-8.49,0-2.34,2.55-2.19,5.93,0,8.49,1.05,1.23,2.08,2.47,3.08,3.74.25.31.49.62.73.93.3.39.92,1.21-.38-.5.14.19.29.38.43.56.52.68,1.04,1.37,1.55,2.07,2.24,3.03,4.38,6.13,6.44,9.28,4.73,7.21,9.1,14.65,13.23,22.22,4.59,8.42,8.88,17,12.92,25.7,2.12,4.56,4.16,9.15,6.14,13.77.23.55.47,1.1.7,1.65.53,1.25-.46-1.11-.08-.19.13.32.27.64.4.97.48,1.15.96,2.31,1.43,3.46.97,2.36,1.92,4.74,2.85,7.12,3.72,9.52,7.16,19.17,10.23,28.92s5.55,18.73,7.71,28.25c1.01,4.48,1.92,8.98,2.7,13.5.37,2.17.71,4.34,1.02,6.52.04.25.07.5.1.76.06.4-.22-1.7-.06-.47.07.54.14,1.08.2,1.62.13,1.03.24,2.05.35,3.08.81,7.69,1.14,15.47.51,23.18-.07.85-.15,1.69-.25,2.54-.05.43-.11.86-.16,1.29-.05.41.26-1.8.11-.81-.03.23-.06.45-.1.68-.24,1.6-.54,3.19-.9,4.77-.34,1.5-.74,2.98-1.22,4.44-.23.72-.48,1.43-.75,2.13-.12.32-.25.63-.37.95-.34.86.28-.68.35-.81-.09.17-.16.36-.23.54-.56,1.27-1.19,2.5-1.9,3.7-.35.59-.72,1.17-1.1,1.73-.18.26-.36.51-.54.76-.09.13-.19.25-.28.37-.42.59,1.11-1.39.51-.67-.83,1-1.68,1.97-2.63,2.86-.48.45-.98.87-1.48,1.29-.77.64,1.45-1.07.38-.29-.27.19-.53.38-.81.57-1.1.75-2.27,1.41-3.47,1.97-.31.14-1.45.63-.22.11s.01-.01-.32.11c-.9.34-1.83.63-2.75.91-2.04.62-4.12,1.13-6.23,1.48-.23.04-.46.07-.68.11-1.04.17,1.09-.13.7-.09-.47.04-.95.11-1.42.15-.9.08-1.8.11-2.7.11-.81,0-1.62-.04-2.43-.12-.19-.02-.37-.04-.56-.06-.51-.04,1.87.29.78.1-.38-.07-.77-.13-1.15-.21-.7-.15-1.4-.33-2.08-.56-.34-.11-.68-.25-1.02-.37-.85-.3,1.16.53.83.35-.17-.09-.35-.15-.52-.24-.62-.3-1.23-.63-1.81-1-.27-.17-.52-.35-.78-.53-1.11-.77,1.19,1.01.29.22-.51-.44-1.01-.89-1.48-1.38-.22-.23-.42-.46-.63-.7-.1-.12-.2-.24-.3-.36-.62-.71.91,1.25.5.66-.79-1.14-1.52-2.27-2.12-3.52-.15-.32-.27-.68-.45-.99.07.13.67,1.67.35.81-.07-.19-.14-.37-.21-.56-.25-.68-.48-1.38-.68-2.08-.43-1.51-.73-3.04-.97-4.59-.16-1.03.2,1.62.1.74-.02-.19-.05-.38-.07-.58-.05-.42-.09-.84-.12-1.27-.07-.83-.12-1.67-.14-2.5-.06-1.82-.03-3.65.08-5.46.05-.91.13-1.82.22-2.73.04-.44.09-.89.14-1.33.03-.26.07-.52.1-.78.1-.85-.24,1.71-.08.58.59-3.99,1.42-7.93,2.5-11.81,1.14-4.09,2.52-8.11,4.12-12.04.13-.33.79-1.9.33-.81s-.06.14.05-.1c.13-.31.27-.62.41-.93.43-.97.87-1.93,1.33-2.89.93-1.95,1.91-3.88,2.95-5.78,2.05-3.74,4.31-7.36,6.81-10.82.31-.43.63-.86.95-1.29.15-.2.3-.39.44-.59.51-.69-.98,1.25-.27.35.62-.79,1.25-1.57,1.9-2.34,1.32-1.56,2.69-3.08,4.13-4.53,1.36-1.37,2.78-2.69,4.26-3.93.34-.29.68-.57,1.03-.84.17-.14.35-.27.52-.41s-1.32,1.01-.43.34c1.43-1.08,2.86-2.18,4.21-3.36,4.23-3.67,7.89-8.04,10.94-12.73,5.58-8.57,9.02-18.56,10.76-28.6,1.57-9.09,2.05-18.34,1.53-27.55-.34-6.08-1.06-12.18-2.2-18.17-.15-.79-.3-1.58-.49-2.36-.72-3.06-4.37-5.16-7.38-4.19-3.19,1.03-4.97,4.11-4.19,7.38h0Z" style="fill: #fff;"/>
        </g>
        <path d="m486.78,1178.65c.78,2.24,1.6,4.47,2.43,6.7,2.01,5.36,4.12,10.69,6.34,15.96,2.89,6.87,5.92,13.68,9.33,20.31,3.08,5.98,6.48,11.76,10.65,17.05,3.37,4.27,7.8,8.32,13.48,8.7,6.93.47,11.01-5.83,13.25-11.44,1.4-3.5,2.21-7.23,2.85-10.93,1.36-7.81,2.34-15.73,2.97-23.63.92-11.62.86-23.25-.79-34.8-.97-6.8-2.68-13.39-5.46-19.68-1.23-2.78-2.77-5.57-4.82-7.83-.07-.08-.14-.16-.22-.24-1.81-1.81-5.05-2.37-7.27-.94-2.34,1.51-3.33,4.07-2.76,6.78,1.95,9.29,4.31,18.52,6.89,27.65,2.16,7.62,4.51,15.2,7.31,22.62,2.51,6.65,5.24,13.53,9.3,19.41,1.96,2.84,4.21,5.62,7.22,7.41,1.71,1.02,3.57,1.58,5.55,1.72s3.73-.44,5.55-1.22c1.28-.55,2.41-2.31,2.76-3.59.4-1.44.22-3.35-.6-4.62s-2.06-2.41-3.59-2.76c-1.68-.38-3.05-.06-4.62.6,2.39-1.02.85-.45.18-.23,2.06-.67,1.64-.12.92-.16-.18,0-.4-.04-.58-.03,2.04-.11,1.65.3.92.09-.2-.05-.39-.12-.58-.18-.91-.26,1.75.87.76.32-.19-.11-.39-.2-.58-.32s-.39-.25-.58-.38c-1.01-.66,1.31,1.1.54.42-.4-.34-.79-.69-1.15-1.06-.4-.41-.78-.84-1.15-1.28-.16-.2-.31-.4-.48-.59,1.57,1.88.53.69.18.19-1.72-2.42-3.14-5.05-4.44-7.71-.75-1.54-1.45-3.11-2.13-4.69-.54-1.24.61,1.48.08.19-.17-.42-.35-.84-.52-1.26-.36-.9-.72-1.8-1.06-2.7-5.15-13.43-8.94-27.41-12.29-41.38-.77-3.21-1.53-6.43-2.2-9.66l-10.03,5.84c.07.07.15.15.21.23.08.1.17.21.25.3.6.69-1.22-1.65-.57-.74.73,1.03,1.39,2.08,1.99,3.19.45.85.87,1.71,1.26,2.59.14.31.55,1.29.03.04s-.07-.17.05.15c.23.58.45,1.17.66,1.76,1.04,2.9,1.84,5.89,2.48,8.91.4,1.87.73,3.76,1,5.65.04.24.07.48.1.72.14.95-.2-1.57-.08-.61.07.59.15,1.18.21,1.77.13,1.11.23,2.22.33,3.34.45,5.38.55,10.79.41,16.19-.18,6.83-.73,13.64-1.56,20.42-.11.89-.22,1.78-.34,2.67-.09.71.05-.45.06-.46-.07.05-.08.59-.09.68-.07.54-.15,1.08-.23,1.61-.27,1.85-.55,3.7-.86,5.54-.35,2.09-.77,4.17-1.29,6.22-.41,1.61-.88,3.21-1.47,4.76-.12.32-.62,1.53-.1.29s-.03.04-.18.35c-.26.53-.53,1.05-.84,1.55-.13.22-.27.44-.42.65-.08.12-.17.23-.25.35-.45.69,1.04-1.25.62-.8-.32.34-.62.69-.95,1.02-.78.76.85-.6.69-.51-.17.1-.33.23-.5.33-.16.1-.35.16-.51.27-.11.07,1.86-.62.84-.38-.16.04-.33.07-.49.12-.81.25,2-.11.94-.13-.16,0-.34,0-.5,0-1.08.02,1.11.19.96.15-.36-.11-.75-.18-1.12-.29-1.03-.31,1.02.48.82.36s-.42-.2-.62-.31c-.39-.21-.76-.44-1.12-.69-.09-.06-.18-.13-.27-.19-.72-.49.77.59.81.63-.17-.18-.4-.32-.59-.48-.84-.71-1.62-1.5-2.35-2.31-.42-.46-.82-.93-1.22-1.41-.19-.23-.38-.47-.56-.7-.56-.69.51.65.56.73-.1-.17-.25-.33-.38-.5-.84-1.12-1.64-2.27-2.41-3.45-1.73-2.64-3.31-5.37-4.82-8.14-3.25-5.99-6.14-12.18-8.86-18.42-.34-.77-.67-1.55-1-2.33-.15-.35-.3-.71-.45-1.06s.68,1.62.31.73c-.09-.2-.17-.41-.26-.61-.61-1.46-1.22-2.93-1.81-4.4-1.03-2.55-2.04-5.11-3.02-7.68-1.16-3.02-2.27-6.06-3.36-9.11-.05-.14-.1-.28-.15-.42-1.02-2.96-4.16-5.23-7.38-4.19-2.93.95-5.29,4.2-4.19,7.38h0Z" style="fill: #fff;"/>
        <g>
          <path d="m585.56,1147.06c.55,0,1.09.07,1.64.1-2.1-.13-.61-.07,0,.08.44.11.88.24,1.3.39.47.16,1.27.64-.41-.21.33.17.67.31,1,.48.85.44,1.59,1,2.39,1.52-1.73-1.12-.07-.01.36.38s.87.85,1.28,1.29c.35.38.65.82,1.01,1.19-1.36-1.39-.03,0,.29.46.72,1.06,1.36,2.18,1.94,3.32.25.5.43,1.11.74,1.57-.84-1.25-.27-.66-.06-.12.13.34.26.67.38,1.01.46,1.28.84,2.59,1.16,3.91.18.74.34,1.49.48,2.25.05.25.09.51.13.77l.06.39c.1.66.08.52-.05-.43-.17.41.17,1.5.21,1.98.07.88.12,1.76.14,2.64.03,1.43,0,2.87-.11,4.3-.05.73-.14,1.46-.21,2.19-.1.89.26-1.55.03-.23-.09.51-.17,1.02-.27,1.53-.24,1.24-.53,2.47-.89,3.68-.21.7-.43,1.4-.68,2.09-.08.23-.16.45-.25.68-.08.22-.17.45-.26.67-.24.59-.18.44.19-.45-.67,1.02-1.08,2.29-1.71,3.36-.28.47-.57.94-.88,1.4-.18.27-.36.54-.55.8-.28.39-1.03,1.03.17-.2-.79.81-1.45,1.7-2.29,2.48-.36.33-.76.63-1.12.97,1.44-1.38.1-.1-.42.23-.47.3-.96.58-1.46.83-.17.08-.33.16-.5.24-.99.48,1.46-.53.42-.19-.43.14-.86.3-1.3.41-.26.07-.53.13-.79.19-1.49.3,1.28-.08.25,0-.92.06-1.82.07-2.74,0-1.11-.08,1.6.3.52.06-.27-.06-.53-.11-.8-.17-.53-.13-1.04-.31-1.56-.48-1-.33,1.21.58.54.24-.2-.1-.42-.19-.63-.29-.46-.23-.91-.48-1.34-.75s-.86-.6-1.3-.89c1.69,1.11.06.01-.36-.38-.83-.77-1.5-1.67-2.29-2.48,1.3,1.33.13.15-.2-.33-.37-.54-.72-1.1-1.06-1.67-.63-1.07-1.04-2.34-1.71-3.36.84,1.28.27.65.06.12-.09-.22-.17-.45-.25-.67-.27-.74-.52-1.5-.75-2.26-.38-1.27-.69-2.56-.94-3.86-.07-.38-.14-.76-.2-1.15-.03-.17-.1-1.41-.07-.37s-.02-.23-.04-.38c-.06-.53-.11-1.06-.14-1.6-.1-1.36-.13-2.73-.11-4.09.01-.82.05-1.63.11-2.44.02-.27.04-.53.07-.8.03-.36.3-1.26.17-1.58l-.11.81c.04-.26.08-.52.12-.77.06-.38.13-.76.2-1.15.14-.75.31-1.49.5-2.23.39-1.54.87-3.07,1.45-4.55.06-.15.49-1.27.1-.27s.18-.38.27-.56c.29-.62.61-1.23.94-1.82.35-.63.72-1.24,1.12-1.85.15-.23.3-.45.46-.67.3-.43,1.3-1.36.02-.06.86-.87,1.59-1.85,2.5-2.68.22-.2.45-.39.67-.58.83-.72-1.14.81-.3.23.55-.38,1.09-.75,1.67-1.08.49-.27.99-.49,1.49-.74-1.87.94-.21.12.37-.04.52-.15,1.06-.22,1.59-.36-1.77.46-1.09.13-.51.08.37-.03.73-.04,1.1-.04,3.14-.03,6.15-2.74,6-6s-2.64-6.03-6-6c-13.19.13-21.77,12.5-24.59,24.18-3.22,13.31-1.09,28.56,7.73,39.33,3.84,4.69,9.21,7.72,15.23,8.39s11.62-1.92,15.98-5.75c4.66-4.09,7.73-9.96,9.56-15.81,2.04-6.51,2.57-13.63,1.7-20.38-1.01-7.76-3.58-15.08-8.53-21.22-4.16-5.17-10.35-8.66-17.06-8.73-3.14-.03-6.14,2.78-6,6s2.64,5.97,6,6Z" style="fill: #fff;"/>
          <path d="m585.56,1147.06c.22,0,.44.02.65.03.11,0,.22.03.34.04.41.03-2.21-.35-1.11-.14.36.07.71.13,1.06.22.97.23,1.87.7,2.83.94-.1-.03-1.87-.83-.96-.4.13.06.27.12.4.19.3.14.59.29.88.44.64.34,1.27.7,1.89,1.09.68.43,1.33.9,1.98,1.37.83.6-1.4-1.11-.61-.47.17.14.34.27.51.41.39.32.77.64,1.14.98,1.64,1.47,3.15,3.1,4.55,4.81.19.23.37.46.56.7.44.55-1.15-1.51-.27-.34.42.56.83,1.13,1.23,1.71.83,1.19,1.62,2.42,2.36,3.66,1.73,2.88,3.25,5.89,4.62,8.96.18.41.36.83.54,1.24s.48,1.19-.23-.54c.09.22.18.43.27.65.41.99.8,1.98,1.17,2.97.76,2,1.46,4.02,2.12,6.05,1.56,4.81,2.87,9.7,3.99,14.63,1.36,5.92,2.44,11.9,3.36,17.91.24,1.58.47,3.17.7,4.76.11.77.22,1.54.32,2.32.21,1.51-.12-.95,0,0,.07.53.14,1.05.21,1.58.39,3.02.75,6.04,1.06,9.06,1.02,9.74,1.68,19.56,1.43,29.36-.1,3.76-.33,7.52-.79,11.25-.02.2-.05.4-.08.6-.09.74.25-1.76.1-.77-.06.38-.11.77-.17,1.15-.13.81-.26,1.62-.42,2.43-.27,1.43-.58,2.85-.95,4.25-.33,1.27-.71,2.52-1.15,3.75-.19.54-.4,1.08-.61,1.62-.43,1.08.71-1.58.22-.51-.12.27-.24.54-.37.81-.45.97-.95,1.91-1.51,2.82-.25.4-.51.8-.78,1.19-.13.19-.27.37-.4.56-.68.96,1.07-1.32.4-.52-.58.69-1.17,1.36-1.82,1.98-.3.28-.61.54-.91.81-.85.74,1.01-.73.65-.49-.2.13-.38.28-.57.41-.66.46-1.36.87-2.08,1.22-.17.08-.34.16-.51.24-.87.44,1.73-.67.81-.34-.39.14-.77.29-1.16.42-.75.24-1.52.43-2.29.56-.19.03-.37.05-.56.09-.44.09,2.05-.23.92-.13-.42.04-.84.08-1.26.1-.8.04-1.6.05-2.39,0-.19-.01-.39-.04-.58-.05-.11,0,2.02.36.93.12-.38-.09-.75-.19-1.12-.3-1-.29.89.39.87.38-.14-.08-.3-.14-.44-.22s-.28-.17-.42-.25c-.95-.56.65.32.71.57-.03-.14-.59-.55-.7-.67-.72-.72.47.54.56.76-.07-.17-.24-.34-.34-.5-.19-.3-.34-.62-.5-.93-.45-.86.65,1.73.35.82-.07-.22-.16-.43-.23-.66-.12-.39-.22-.79-.31-1.18-.04-.21-.08-.42-.12-.64-.25-1.31.17,1.67.08.66-.21-2.27-.16-4.53.06-6.8.07-.68.42-3.07.03-.51.11-.75.22-1.49.34-2.24.25-1.51.55-3.02.88-4.52,1.69-7.79,4.07-15.43,6.57-23,3.36-10.15,7.04-20.18,10.8-30.18,4.54-12.08,9.45-24.03,13.82-36.16,6.54-18.15,10.83-38.05,7.53-57.34-1.39-8.1-4.48-16.48-10.07-22.66-.23-.25-.46-.5-.71-.73-2.35-2.08-6.2-2.48-8.49,0-2.09,2.28-2.51,6.26,0,8.49.28.25.53.53.78.8.29.33.56.67.84,1,.52.64-1.14-1.52-.66-.85.08.11.16.22.25.33.2.27.39.54.57.81.95,1.39,1.77,2.87,2.5,4.39.21.43.4.87.6,1.31.53,1.17-.42-1.04-.25-.6.11.29.24.58.35.88.43,1.12.82,2.25,1.17,3.4.86,2.83,1.38,5.7,1.85,8.61-.38-2.34-.1-.74-.04-.21.05.4.09.79.13,1.19.09.91.16,1.82.21,2.73.11,1.88.15,3.77.12,5.66-.03,2.19-.15,4.38-.33,6.57-.09,1.07-.2,2.14-.33,3.21-.06.49-.38,2.46-.04.4-.11.68-.19,1.36-.3,2.05-.84,5.33-2.05,10.61-3.52,15.8-3.64,12.86-8.98,25.21-13.74,37.68-4.12,10.78-8.18,21.59-11.97,32.49-2.91,8.37-5.71,16.81-7.92,25.4-1.61,6.24-3.06,12.75-3.17,19.22-.08,4.85.81,10.23,4.4,13.8,3.33,3.3,8.11,4.08,12.6,3.58,4.21-.47,8.27-1.66,11.71-4.24,3.91-2.94,6.89-6.79,8.86-11.27,2.72-6.17,4.02-12.59,4.8-19.27.99-8.51.92-17.14.45-25.68-.68-12.42-2.23-24.81-4.17-37.09-1.72-10.89-4.04-21.74-7.57-32.21-2.52-7.47-5.6-14.88-9.77-21.59-2.81-4.52-6.13-8.9-10.16-12.41-4.63-4.03-10.21-7.33-16.44-7.79-.21-.02-.42-.03-.62-.03-3.13.11-6.15,2.68-6,6s2.64,6.11,6,6h0Z" style="fill: #fff;"/>
        </g>
        <g>
          <path d="m693.56,1121.06c0,1.92-.08,3.84-.24,5.75-.08.89-.24,1.78-.29,2.68,0-.14.21-1.44.05-.38-.03.2-.06.4-.09.6-.07.46-.15.92-.23,1.38-.62,3.41-1.53,6.77-2.79,10-.09.22-.55,1.36-.17.43s-.17.37-.26.55c-.33.71-.68,1.42-1.05,2.11-.68,1.27-1.43,2.49-2.27,3.66-.14.2-.82,1.09-.17.25s-.12.13-.28.32c-.43.51-.89,1.01-1.36,1.49-.42.42-.87.83-1.32,1.22-.4.34-1.31.82.27-.19-.26.16-.5.36-.75.53-.46.31-.94.59-1.43.85-.26.14-.53.25-.79.39-.54.28.97-.48.86-.36-.08.08-.35.14-.46.18-.51.16-1.01.33-1.53.45-.16.04-.71.24-.84.16-.11-.07,1.56-.14.99-.13-.16,0-.33.03-.49.04-.53.04-1.06.04-1.59,0-.3-.02-1.38-.15-.17,0s.13,0-.16-.06c-.52-.11-1.03-.26-1.53-.43-.15-.05-.31-.13-.46-.17-.46-.13.86.37.86.37-.06-.13-.77-.36-.9-.44-.49-.26-.97-.54-1.43-.85-.22-.14-.43-.31-.65-.45-.52-.33.83.58.68.54-.18-.05-.39-.31-.52-.43-.97-.82-1.87-1.74-2.69-2.71-.19-.23-.36-.47-.56-.69.03.03.93,1.26.39.49-.09-.13-.18-.25-.27-.37-.43-.6-.83-1.21-1.21-1.83-.78-1.27-1.48-2.59-2.11-3.95-.1-.22-.66-1.53-.26-.55s-.08-.21-.17-.43c-.31-.79-.6-1.58-.86-2.38-.54-1.62-.99-3.26-1.38-4.92-.19-.83-.36-1.67-.52-2.5-.08-.46-.16-.92-.24-1.38-.04-.26-.25-1.75-.13-.81.13,1-.07-.59-.09-.83-.04-.41-.09-.83-.12-1.24-.09-.98-.15-1.96-.2-2.95-.09-2.01-.09-4.02,0-6.02.04-.91.1-1.83.18-2.74.04-.41.08-.83.12-1.24.02-.21.04-.41.07-.62.01-.1.18-1.45.05-.42-.13.95.06-.38.1-.61.07-.46.15-.92.23-1.38.16-.9.35-1.8.56-2.7.38-1.66.84-3.3,1.38-4.92.25-.75.51-1.49.8-2.22.13-.33.27-.66.4-.99-.65,1.71-.1.25.09-.16.63-1.35,1.33-2.68,2.11-3.95.36-.58.73-1.15,1.12-1.7.16-.23.91-1.22.26-.37s.11-.12.28-.32c.85-1.01,1.78-1.95,2.79-2.79.87-.73-.35.06-.37.27.01-.11.55-.39.64-.46.53-.36,1.08-.69,1.66-.98.22-.11.46-.21.68-.33.53-.28-.97.48-.86.36.06-.06.36-.14.46-.18.54-.18,1.08-.35,1.64-.47.11-.02.63-.2.72-.13.07.05-1.76.16-.87.12.12,0,.24-.02.36-.03.57-.04,1.14-.04,1.71,0,.28.02,1.24.14.05-.02s-.12,0,.16.06c.56.12,1.1.3,1.64.47,1.02.33-.38.02-.51-.24.06.12.65.31.79.38.53.27,1.05.58,1.55.91.12.08.74.41.75.53-.03-.22-1.24-1-.37-.27.5.41.97.85,1.43,1.31s.86.9,1.27,1.38c.22.26.42.55.66.8.06.07-.83-1.14-.48-.62.11.17.24.33.36.49.84,1.17,1.59,2.4,2.27,3.66.37.69.72,1.4,1.05,2.11.14.31.27.64.42.95.03.05-.5-1.24-.26-.62.11.28.22.55.33.82.6,1.54,1.12,3.12,1.56,4.72.47,1.69.86,3.4,1.17,5.12.07.39.14.79.2,1.19.05.28.25,1.74.13.81s.04.4.07.63c.06.55.12,1.1.16,1.65.16,1.91.24,3.83.24,5.75,0,3.14,2.75,6.15,6,6s6.01-2.64,6-6c-.03-8.13-1.26-16.48-4.36-24.04-2.73-6.66-6.66-13.01-12.87-16.94-5.83-3.68-12.83-3.83-18.97-.87s-10.26,8.7-12.98,14.47c-3.61,7.64-5.37,15.94-5.74,24.36s.62,16.76,3.34,24.54c2.27,6.51,5.72,13.16,11.22,17.53s12.09,6.3,18.66,4.01,11.45-7.49,14.76-13.45c3.99-7.2,5.92-15.31,6.67-23.45.19-2.05.28-4.11.28-6.16,0-3.14-2.77-6.14-6-6s-5.99,2.64-6,6Z" style="fill: #fff;"/>
          <path d="m655.78,1104.64c4.21,4.34,9.38,8.02,14.59,11.06,10.84,6.31,23.18,9.56,35.68,7.55,8.72-1.4,16.56-5.84,23.26-11.45,2.42-2.02,2.24-6.43,0-8.49-2.57-2.36-5.91-2.16-8.49,0-.39.33-.79.64-1.18.96-.51.43.35-.27.37-.28-.18.09-.35.26-.5.38-.77.57-1.55,1.12-2.35,1.65-1.51.99-3.07,1.9-4.69,2.7-.33.16-.67.32-1,.48-.17.08-.33.15-.5.23-.92.42.33-.14.43-.18-.78.27-1.54.61-2.32.88-1.45.5-2.93.9-4.44,1.22-.7.15-1.4.26-2.11.38-1.04.18,1.45-.16.15-.02-.37.04-.75.08-1.12.11-1.47.12-2.94.16-4.41.11-.67-.02-1.34-.06-2-.11-.36-.03-.71-.06-1.07-.1-.28-.03-1.55-.19-.41-.04s-.11-.03-.4-.07-.59-.1-.89-.16c-.68-.13-1.36-.27-2.04-.43-2.58-.61-5.09-1.45-7.56-2.43-1.15-.46,1.12.5.27.12-.25-.11-.51-.22-.76-.33-.58-.26-1.16-.53-1.73-.81-1.11-.54-2.19-1.11-3.27-1.72-1.89-1.06-3.72-2.21-5.5-3.45-.78-.54-1.55-1.1-2.31-1.67-.11-.08-.49-.28-.55-.42.09.21,1.41,1.1.54.42-.33-.26-.65-.52-.97-.78-1.47-1.19-2.93-2.43-4.24-3.79-2.19-2.26-6.32-2.36-8.49,0s-2.34,6.08,0,8.49h0Z" style="fill: #fff;"/>
        </g>
      </g>
      <path d="m742.83,1365.5c-9.78,22.21-33.6,32.46-51.21,23.83-17.61-8.63-21.09-38.12-2.56-53.78,58-49,48-51,64-70,12.63-15,10,54-10.23,99.95Z" style="fill: #58d25b;"/>
      <path d="m690.56,1385.06c13.06-25.17,28.86-48.55,43.71-72.6,4.9-8.04,9.9-15.9,13.67-24.59-.11,1.19-.21,2.4-.43,3.57-5.97,29.65-35.73,71.94-56.95,93.62h0Z" style="fill: #6be946;"/>
      <path d="m735.56,1338.06c-3.14,7.25-12.41,8.8-19.38,7.17-4.24-4.3-5.91-10.98-4.3-16.75.47-1.74,1.23-3.38,2.25-4.83.17.87.2,1.71.34,2.57.69,5.07,2.18,10.22,5.4,14.16,0,0-1.6-.86-1.6-.86,5.87,1.22,11.77,1.29,17.29-1.46h0Z" style="fill: #6be946;"/>
      <path d="m741.56,1320.2c-2.05,6.13-9.76,7.55-15.37,6.18-4.57-4.44-5.47-12.42-1.25-17.35.93,4.41,2.09,9.02,4.93,12.5,0,0-1.6-.86-1.6-.86,4.5.93,8.85,1.23,13.28-.47h0Z" style="fill: #6be946;"/>
      <path d="m723.56,1356.39c-3.75,7.88-13.91,9.52-21.68,7.73-3.95-4.06-5.88-9.94-5.36-15.54.25-2.96,1.24-5.98,2.84-8.45.28,2.75.48,5.54,1.14,8.23.91,3.95,2.5,7.79,5.06,10.92,0,0-1.6-.86-1.6-.86,6.65,1.38,13.45,1.33,19.59-2.02h0Z" style="fill: #6be946;"/>
      <g>
        <path d="m966.15,1001.12c.8-6.66.96-13.47.69-20.16-.24-5.87-.84-11.83-2.3-17.52-1.37-5.35-3.66-10.89-7.69-14.81-9.76-9.5-25.77-4.61-34.02,4.53-8.98,9.96-9.96,24.2-6.49,36.66,4.22,15.21,14.37,28.07,26.8,37.49,7.15,5.42,15.27,9.48,23.75,12.35,3.92,1.33,7.96,2.21,11.82,3.71.38.15.76.3,1.14.46.42.17,1.15.54-.55-.23.21.09.42.18.63.27.88.39,1.74.8,2.6,1.22,1.64.82,3.24,1.71,4.81,2.66s3.19,2.03,4.72,3.14c.38.27.75.55,1.12.83.19.14.37.28.55.42-1.44-1.08-.86-.67-.55-.42.8.64,1.6,1.28,2.38,1.95,2.9,2.48,5.61,5.17,8.13,8.03.6.68,1.18,1.36,1.76,2.06.3.37.6.74.9,1.11.15.19.3.37.44.56.83,1.04-.8-1.06-.15-.2,1.15,1.53,2.27,3.08,3.34,4.67,2.16,3.24,4.13,6.61,5.87,10.09.89,1.77,1.68,3.57,2.49,5.37-.86-1.93-.12-.29.06.16s.36.89.53,1.34c.35.89.68,1.79,1,2.7,1.3,3.69,2.37,7.45,3.19,11.27.4,1.84.73,3.7,1,5.57.23,1.57-.18-1.5.01.08.06.46.11.93.16,1.39.1.93.18,1.85.25,2.78.28,3.76.28,7.54-.01,11.3-.07.91-.16,1.81-.27,2.71-.02.18-.04.36-.07.54-.13,1.06.21-1.42.09-.65-.08.49-.14.98-.23,1.47-.3,1.82-.68,3.62-1.14,5.4s-.99,3.52-1.61,5.24c-.29.8-.6,1.58-.91,2.37-.46,1.16.61-1.39.03-.08-.22.49-.44.97-.67,1.46-1.6,3.35-3.59,6.39-5.74,9.4,0,0,1-1.27.44-.57-.14.18-.28.36-.43.53-.26.32-.52.64-.79.95-.66.77-1.34,1.53-2.04,2.26-1.3,1.36-2.67,2.65-4.11,3.87-.37.31-.74.62-1.11.92-.19.15-.38.3-.57.45-.59.48,1.34-.94.26-.22-.52.34-1.03.68-1.58.98-.22.12-.43.23-.65.34-.22.11-.44.21-.66.31.82-.34,1.02-.42.59-.26-.52.17-1.02.36-1.55.51s-1.27.14-1.76.38l.89-.12c-.24.03-.47.05-.71.07-.24.02-.48.03-.71.04-.72.02-1.42-.03-2.14-.07-1.02-.07.45.02.54.07-.22-.14-.78-.15-1.05-.21-.52-.12-1.04-.27-1.54-.45-.65-.22-.63-.57.26.15-.21-.17-.57-.26-.82-.39-.6-.31-1.16-.66-1.72-1.02-1.06-.68.81.71.18.16-.24-.21-.48-.4-.71-.61s-.44-.41-.65-.62c-.44-.44-.84-.9-1.24-1.37-.81-.95.94,1.32.24.31-.19-.27-.37-.53-.55-.81-.4-.63-.77-1.28-1.1-1.94-.14-.28-.63-1.41-.14-.25s-.03-.12-.13-.4c-.27-.76-.49-1.53-.68-2.32-.09-.39-.17-.79-.24-1.19-.03-.16-.05-.33-.08-.49-.2-1.05.18,1.66.08.59-.09-.9-.16-1.79-.17-2.69-.02-.98.02-1.96.09-2.93.04-.52.1-1.04.15-1.56.1-.98-.08.58-.09.63.08-.38.12-.78.18-1.16.41-2.4,1.01-4.76,1.75-7.07.43-1.36.91-2.71,1.42-4.05.28-.71.55-1.43.86-2.13-.08.19-.5,1.15-.04.12.2-.45.4-.9.6-1.34.68-1.51,1.06-2.96.6-4.62-.38-1.39-1.46-2.9-2.76-3.59-2.63-1.39-6.83-.9-8.21,2.15-4.46,9.86-7.96,20.68-5.9,31.59,1.53,8.12,7.12,15.09,14.8,18.13,5.81,2.3,12.3,1.61,17.87-1,2.37-1.11,4.42-2.82,6.41-4.5,1.44-1.22,2.81-2.51,4.11-3.87,5.74-6.01,10.01-13.1,12.92-20.86,5.55-14.81,5.12-31.57,1.19-46.72s-12.26-30.76-23.46-42.68c-5.45-5.8-11.8-10.94-18.73-14.87-3.58-2.03-7.37-3.73-11.25-5.11s-8.18-2.34-12.18-3.81c-1.04-.38-2.06-.79-3.09-1.2-.36-.14-.99-.48.53.22-.25-.11-.5-.21-.75-.32-.54-.24-1.09-.48-1.62-.73-1.97-.92-3.9-1.91-5.78-2.99s-3.61-2.16-5.35-3.35c-.83-.57-1.64-1.15-2.45-1.75-.16-.12-.32-.24-.48-.36-.89-.66.99.79.39.3-.42-.34-.85-.67-1.27-1.01-3.03-2.47-5.86-5.18-8.45-8.1-.61-.69-1.2-1.39-1.79-2.1-.26-.32-.51-.64-.77-.96-.28-.34-.74-1.03.36.46-.16-.22-.33-.43-.49-.65-1.11-1.49-2.16-3.02-3.14-4.6-.91-1.46-1.75-2.95-2.54-4.47-.38-.74-.75-1.5-1.1-2.26-.16-.34-.31-.68-.46-1.02-.08-.19-.16-.38-.25-.57.84,1.84.4.97.23.53-1.19-3-2.18-6.07-2.82-9.24-.15-.74-.28-1.47-.39-2.22-.02-.15-.04-.29-.06-.44-.16-.99.2,1.71.1.72-.04-.36-.08-.73-.12-1.09-.14-1.49-.21-2.99-.18-4.49.01-.62.04-1.25.08-1.87.05-.72.48-3.42.04-.84.22-1.31.46-2.61.81-3.89.17-.62.37-1.24.59-1.85.11-.3.22-.6.34-.9.45-1.17-.73,1.63-.08.2.53-1.15,1.14-2.26,1.83-3.32.39-.59,1.86-2.29.28-.47.41-.48.8-.97,1.24-1.44s.89-.92,1.36-1.34c.24-.22.48-.43.73-.64.12-.1.25-.2.38-.31.83-.7-1.27.93-.52.4,1.1-.77,2.2-1.51,3.4-2.13.58-.3,1.25-.75,1.89-.89.1-.02-1.63.64-.84.36.22-.08.44-.17.66-.26.36-.13.72-.26,1.08-.38.68-.22,1.37-.41,2.06-.57.33-.07.65-.14.98-.2,1.6-.28-1.53.13-.27.03.57-.04,1.13-.08,1.71-.07.26,0,.51.01.77.03.17.01.33.03.5.05.83.06-1.79-.31-.94-.13.52.12,1.04.2,1.55.36.25.08.49.17.74.25,1.04.36-1.56-.76-.59-.25.45.24.9.46,1.33.74.21.14.41.29.63.43.67.44-1.27-1.03-.79-.61.13.12.28.23.41.34.37.32.72.67,1.06,1.03.16.17.32.35.47.53.1.12.2.25.3.37.54.61-.99-1.39-.54-.7.61.94,1.24,1.84,1.76,2.84.27.52.51,1.05.76,1.58.3.66-.73-1.79-.19-.44.14.34.26.68.39,1.03.43,1.19.79,2.4,1.11,3.62s.61,2.56.85,3.85c.12.66.23,1.32.34,1.99.05.33.1.67.15,1,.14.92-.21-1.6-.12-.89.03.24.06.47.09.71,1.07,8.76.92,17.72.09,26.49-.05.51-.1,1.03-.16,1.54-.17,1.42.79,3.28,1.76,4.24,1.04,1.04,2.75,1.82,4.24,1.76s3.16-.58,4.24-1.76c1.15-1.25,1.56-2.57,1.76-4.24h0Z" style="fill: #fff;"/>
        <path d="m1091.49,1071.38c.07.43.14.86.21,1.29.03.21.06.43.09.64.13.85-.13-1.16-.05-.31.09.92.2,1.83.27,2.75.14,1.78.2,3.56.17,5.35s-.12,3.4-.3,5.1c-.02.2-.21,1.77-.08.71s-.05.26-.09.5c-.14.84-.3,1.67-.49,2.5-.33,1.47-.73,2.92-1.22,4.34-.11.31-.22.63-.34.94-.09.23-.53,1.31-.12.34s-.1.2-.21.45c-.15.33-.32.66-.48.98-.59,1.15-1.27,2.24-2.02,3.3-.08.12-.18.23-.26.34-.05.08.92-1.08.5-.66-.23.23-.42.5-.63.74-.39.43-.81.85-1.24,1.25-.08.07-.63.63-.7.6.11.04,1.33-.98.39-.31-.45.32-.92.61-1.41.87-.26.14-.52.26-.79.39-.83.41,1.39-.5.51-.22-.56.18-1.11.36-1.68.49-.18.04-.6.03-.74.14.28-.21,1.67-.15.61-.1-.58.02-1.15.04-1.73,0-.17-.01-.59.03-.74-.07.25.16,1.66.28.61.06-.58-.12-1.15-.27-1.71-.45-.25-.08-.49-.17-.73-.26-.9-.31,1.33.62.47.2-.57-.28-1.13-.55-1.67-.87-.48-.28-.95-.59-1.41-.9-.19-.13-1.21-.9-.32-.21s-.11-.1-.31-.27c-1.02-.87-1.97-1.82-2.86-2.82-.22-.24-.43-.49-.63-.73-.14-.16-1-1.26-.36-.42s-.1-.14-.24-.33c-.24-.32-.47-.65-.69-.98-.91-1.32-1.74-2.7-2.5-4.11-.35-.66-.69-1.32-1.01-1.99-.16-.34-.33-.69-.48-1.03-.08-.17-.16-.35-.24-.52-.54-1.2.36.91.07.19-1.31-3.29-2.38-6.64-3.13-10.11-.2-.91-.37-1.82-.53-2.73-.07-.43-.14-.86-.21-1.29-.03-.21-.06-.43-.09-.64-.13-.85.13,1.16.05.31-.18-1.82-.36-3.62-.42-5.45s-.04-3.49.07-5.23c.05-.84.12-1.68.21-2.51.04-.38.1-.75.13-1.13,0-.05-.2,1.34-.08.66.05-.3.09-.61.15-.92.26-1.53.59-3.05,1.02-4.54.19-.66.39-1.31.61-1.96.13-.37.26-.73.39-1.1.06-.15.12-.31.18-.46.28-.77-.15.38-.23.53.62-1.19,1.13-2.42,1.84-3.58.33-.54.69-1.06,1.06-1.58.08-.12.18-.23.26-.34.06-.09-.92,1.1-.5.66.22-.24.42-.5.63-.74.39-.43.81-.85,1.24-1.25.19-.18.41-.34.6-.52.39-.37-.69.61-.7.53,0-.04.37-.27.42-.3.45-.32.92-.61,1.41-.87.22-.12.45-.23.67-.34,1.04-.52-1.21.43-.39.17.52-.17,1.03-.34,1.56-.46.25-.06.5-.09.74-.14.57-.14-1.09.22-.98.13.1-.09.49-.05.62-.05.49-.03.99-.03,1.48,0,.25.01.49.05.74.06.71.04-1.55-.26-.86-.11.16.04.33.06.49.09.5.1.99.23,1.47.39.29.09.57.2.85.3.82.28-1.41-.67-.35-.14s2.1,1.11,3.08,1.8c.2.14,1.05.79.2.13s.09.09.31.27c.5.43.98.87,1.45,1.33s.96.97,1.41,1.48c.22.24.43.49.63.73.16.2.98,1.23.36.42s.18.25.34.47c.2.28.4.56.59.84.43.63.84,1.27,1.24,1.92.86,1.41,1.64,2.87,2.36,4.36.16.34.32.69.48,1.04.08.17.15.35.23.53.28.6-.23-.56-.23-.54.31.86.69,1.71,1,2.57.6,1.66,1.12,3.35,1.57,5.06s.85,3.58,1.17,5.39c.55,3.1,4.5,5.12,7.38,4.19,3.33-1.08,4.78-4.06,4.19-7.38-2.47-14.03-9.75-30.12-23.75-35.84-5.64-2.3-12.52-1.66-17.53,1.86-5.76,4.05-9.26,10.27-11.2,16.93-2.18,7.48-2.51,15.59-1.51,23.29,1.09,8.41,3.4,16.62,7.58,24.04,3.27,5.82,7.91,11.51,13.9,14.69s12.83,3.56,18.89.36,9.74-9.41,11.99-15.61c2.57-7.11,3.19-15.08,2.57-22.57-.2-2.39-.52-4.78-.93-7.14-.53-3.1-4.51-5.12-7.38-4.19-3.35,1.08-4.75,4.06-4.19,7.38Z" style="fill: #fff;"/>
        <path d="m1049.66,1075.41c-.19,1.11-.46,2.2-.74,3.29-.3,1.15-.64,2.3-1.01,3.43-.19.58-.4,1.16-.61,1.74-.12.33-.25.65-.38.98-.57,1.42.67-1.53.05-.11s-1.26,2.65-2.02,3.9c-.35.57-.73,1.12-1.12,1.67-.71,1,1.13-1.38.16-.22-.27.32-.54.63-.83.92-.44.46-.93.86-1.41,1.29,1.69-1.51.77-.58.25-.24-.33.21-.67.41-1.02.59-.13.06-.35.12-.46.22-.06.05,1.63-.62.97-.41-.32.1-.64.22-.97.31s-.67.13-1.01.21c2.31-.52.92-.11.18-.11-.37,0-.74-.06-1.12-.06,1.95.02,1.41.23.83.1-.26-.06-.53-.1-.79-.17-.49-.12-.96-.28-1.43-.44-.54-.18-.98-.64.59.26-.27-.16-.59-.27-.87-.41-1.04-.52-2.03-1.14-2.98-1.82-.24-.17-.48-.36-.72-.53,1.62,1.11.34.25-.02-.05-.61-.51-1.2-1.04-1.78-1.59-2.29-2.15-6.24-2.44-8.49,0s-2.45,6.19,0,8.49c3.8,3.56,8.49,7.11,13.78,7.91,2.48.38,4.91.43,7.34-.31s4.24-1.89,6.13-3.4c5.29-4.24,8.18-11.37,9.99-17.7.43-1.49.82-3,1.08-4.52.28-1.63.26-3.15-.6-4.62-.73-1.24-2.16-2.43-3.59-2.76-2.91-.66-6.81.88-7.38,4.19h0Z" style="fill: #fff;"/>
        <path d="m1141.9,1045.97c.39,3.95.5,7.92.26,11.88-.06.94-.14,1.87-.24,2.8-.04.39-.11.78-.14,1.17.11-1.79.02-.13-.06.33-.27,1.72-.62,3.42-1.05,5.11s-.92,3.24-1.51,4.81c-.12.31-.25.62-.36.93-.27.71.54-1.21.22-.53-.07.15-.13.3-.2.44-.32.72-.67,1.42-1.05,2.11-.31.57-.64,1.14-.99,1.69-.18.29-.37.57-.56.85-.16.23-.99,1.33-.28.43s-.07.08-.22.26c-.18.21-.35.41-.54.61-.44.49-.91.95-1.4,1.39-.07.06-.69.54-.68.57-.04-.14,1.37-.97.41-.34-.51.34-1.02.66-1.56.95-.18.09-.56.38-.75.36.24.03,1.55-.58.55-.26-.56.18-1.12.33-1.7.46-1.1.26,1.48-.1.54-.06-.28.01-.55.05-.83.05-.55.02-1.09-.04-1.64-.06-.36-.02,1.71.33.54.06-.27-.06-.54-.12-.81-.19-.55-.14-1.07-.35-1.61-.53-.31-.11,1.48.69.41.15-.26-.13-.53-.27-.79-.41-.53-.3-1.05-.62-1.55-.97-.15-.1-.29-.22-.44-.31-.51-.33.77.61.67.53-.24-.21-.5-.41-.75-.62-.54-.47-1.07-.96-1.57-1.47-.45-.46-.89-.94-1.32-1.43-.23-.27-.46-.55-.69-.83-.13-.15-.49-.63.08.11.66.86,0-.02-.1-.16-.92-1.26-1.76-2.58-2.52-3.94-.83-1.46-1.55-2.97-2.24-4.5-.46-1.01.43,1.09.02.05-.16-.41-.33-.82-.49-1.24-.35-.91-.67-1.83-.97-2.75-1.2-3.68-2.07-7.46-2.64-11.29-.04-.28-.06-.58-.12-.86,0,.01.15,1.21.07.51-.05-.51-.12-1.02-.17-1.53-.1-1.02-.19-2.03-.25-3.05-.12-1.98-.16-3.97-.12-5.95s.16-3.79.36-5.68c.02-.2.23-1.79.08-.76-.14.97.07-.46.11-.74.14-.87.29-1.74.47-2.61.35-1.71.78-3.4,1.31-5.06.22-.71.46-1.41.72-2.1.14-.36.29-.72.42-1.08.22-.61-.32.74-.29.68.13-.23.22-.49.33-.74.6-1.3,1.27-2.57,2.04-3.78.33-.52.74-1.01,1.06-1.54,0,.01-1,1.24-.42.55.09-.11.17-.21.26-.32.23-.28.47-.55.72-.82.39-.42.79-.82,1.22-1.2.22-.2.46-.38.68-.58.45-.41-.81.69-.72.55s.37-.27.51-.36c.44-.3.89-.57,1.35-.82.24-.13.51-.23.75-.37.48-.28-.95.49-.89.37.04-.07.46-.17.55-.2.49-.17.98-.28,1.47-.4-.03,0,.45-.1.46-.09.04.06-1.5.15-1.01.13.31,0,.63-.06.94-.07.55-.02,1.1.06,1.64.06.37,0-1.69-.31-.66-.08.31.07.62.13.93.21.55.14,1.07.37,1.61.53.59.18-1.04-.37-.86-.36.1,0,.39.18.45.21.26.13.53.27.79.41.53.3,1.05.62,1.55.97.4.28,1.22,1.04-.24-.22.28.24.58.46.86.71,1.03.9,1.99,1.88,2.88,2.93.2.24.39.48.59.72.64.77-.81-1.12-.07-.09.47.67.95,1.33,1.39,2.02.87,1.36,1.67,2.78,2.39,4.23.35.71.69,1.42,1.01,2.15.6,1.35-.34-.88.05.12.19.47.38.94.56,1.42,1.33,3.54,2.33,7.19,3.04,10.9.19.98.36,1.97.5,2.96.03.21.06.43.09.64.1.69-.07-.51-.07-.52.16.54.14,1.19.2,1.75.17,1.63.55,3.04,1.76,4.24,1.04,1.04,2.75,1.82,4.24,1.76,2.97-.13,6.35-2.66,6-6-.95-8.97-3.09-17.71-7.19-25.79-3.09-6.07-7.67-12.2-13.82-15.43-6-3.15-13.21-3.32-19.01.44s-9.73,10.45-12.03,17.14c-2.69,7.85-3.45,16.5-2.97,24.75.54,9.21,2.55,18.16,6.28,26.6,2.91,6.57,7.23,12.73,13.22,16.82s12.84,4.53,19.1,1.57,10.28-9.46,12.83-15.72c3.05-7.48,4.09-15.87,3.97-23.89-.03-2.17-.17-4.33-.38-6.48-.16-1.63-.56-3.05-1.76-4.24-1.04-1.04-2.75-1.82-4.24-1.76-2.98.13-6.33,2.66-6,6Z" style="fill: #fff;"/>
        <path d="m1130.28,911.96c-.52,3.62-.91,7.26-1.23,10.91-.74,8.28-1.13,16.58-1.24,24.89-.15,11.65.27,23.31,1.35,34.91,1.29,13.78,3.44,27.52,6.86,40.93,3.57,13.98,8.56,27.7,15.35,40.45.81,1.52,1.65,3.03,2.51,4.52,1.57,2.72,5.49,3.9,8.21,2.15s3.84-5.3,2.15-8.21-3.41-6.14-4.94-9.3c-.75-1.55-1.48-3.11-2.18-4.69-.33-.73-.64-1.47-.96-2.2-.41-.96.49,1.18-.04-.1-.19-.45-.38-.91-.56-1.37-2.61-6.43-4.81-13.01-6.69-19.69s-3.36-13.25-4.6-19.96c-.61-3.31-1.16-6.64-1.64-9.97-.11-.75-.21-1.5-.32-2.25-.09-.67.11.81.1.73-.03-.23-.06-.46-.09-.69-.06-.46-.12-.92-.18-1.38-.2-1.59-.39-3.19-.56-4.78-1.27-11.76-1.84-23.59-1.81-35.42.02-8.71.36-17.43,1.06-26.11.21-2.65.46-5.3.75-7.95.09-.8.18-1.6.28-2.4.03-.27.07-.54.1-.8.12-.94-.3,2.07-.15,1.09,0-.05.01-.1.02-.15.24-1.66.28-3.11-.6-4.62-.73-1.24-2.16-2.43-3.59-2.76-2.84-.65-6.9.87-7.38,4.19h0Z" style="fill: #fff;"/>
        <path d="m1204.96,1021.57c.34,3.48.43,6.98.19,10.47-.06.79-.13,1.58-.22,2.37l-.05.39c-.08.66-.06.52.06-.44-.13.31-.12.8-.18,1.13-.26,1.58-.6,3.14-1.02,4.68-.36,1.33-.79,2.65-1.3,3.94-.17.44-.74,1.34.1-.21-.15.28-.26.59-.4.88-.31.66-.65,1.31-1.01,1.95-.3.52-.61,1.04-.94,1.54s-1.66,1.93-.25.41c-.81.86-1.56,1.72-2.44,2.52-.64.58.58-.49.61-.46,0,0-.57.41-.62.44-.41.28-.84.53-1.28.76-.2.11-.47.19-.66.32,1.24-.87,1.19-.45.54-.25-.54.17-1.07.31-1.62.44-.71.17-.85-.22.64-.07-.22-.02-.5.04-.72.05-.48.02-.96-.03-1.44-.04-1.03-.03,1.64.34.64.08-.23-.06-.48-.09-.71-.15-.56-.14-1.1-.34-1.64-.52-.99-.33,1.44.68.51.2-.23-.12-.46-.23-.69-.35-.46-.25-.92-.52-1.36-.82-.23-.15-.44-.31-.67-.47-.9-.63,1.18.98.34.26-.51-.44-1.01-.88-1.49-1.35-.43-.42-.84-.86-1.23-1.31-.37-.42-1.49-2.16-.44-.49-.76-1.22-1.65-2.36-2.38-3.61-.65-1.13-1.25-2.29-1.79-3.48-.14-.3-.25-.74-.45-1.01l.31.75c-.1-.23-.19-.46-.28-.7-.33-.83-.64-1.68-.92-2.53-1.09-3.25-1.81-6.57-2.38-9.94-.25-1.47.15,1.38-.02-.11-.05-.43-.1-.86-.15-1.29-.09-.86-.16-1.72-.21-2.58-.11-1.81-.14-3.63-.09-5.45.04-1.6.15-3.21.34-4.8l.05-.39c.08-.66.06-.52-.06.44.13-.31.12-.8.18-1.13.14-.86.31-1.72.5-2.57.28-1.28.62-2.55,1.02-3.8.21-.65.43-1.3.68-1.94.12-.31.26-.62.37-.93-.61,1.81-.15.37.05-.05.53-1.11,1.12-2.2,1.79-3.24.32-.49.67-.95,1-1.43-1.2,1.76.09-.05.5-.48.37-.38.75-.75,1.15-1.1.37-.32,1.16-.79-.41.29.21-.14.41-.3.62-.44.41-.28.84-.53,1.28-.76.2-.11.47-.19.66-.32-1.35.95-1.02.4-.31.17.46-.15.93-.25,1.4-.36.71-.17.85.22-.64.07.22.02.5-.04.72-.05.48-.02.96.03,1.44.04,1.03.03-1.64-.34-.64-.08.31.08.63.13.95.21.56.15,1.09.36,1.64.55-2.05-.73-.36-.13.18.18s1.07.64,1.57,1c.41.29.98.96-.34-.27.27.26.58.48.86.73,1.05.94,1.98,1.98,2.88,3.06.76.92-.86-1.19-.16-.21.25.36.51.7.75,1.07.44.65.86,1.32,1.26,1.99.85,1.44,1.57,2.93,2.27,4.45.56,1.21-.51-1.31-.02-.06.18.47.37.94.55,1.42.31.85.61,1.71.88,2.58.56,1.81,1.04,3.64,1.42,5.5.2.96.38,1.93.53,2.9.05.34.37,1.76.03.1.12.56.14,1.15.2,1.72.17,1.64.55,3.04,1.76,4.24,1.04,1.04,2.75,1.82,4.24,1.76,2.97-.13,6.35-2.66,6-6-.85-8.02-2.78-15.82-6.55-22.99-2.84-5.41-7.08-10.85-12.63-13.66s-12.31-3.03-17.8.39-9.04,9.38-11.23,15.46c-2.47,6.87-3.21,14.51-2.81,21.77.45,8.23,2.27,16.23,5.68,23.73,2.69,5.92,6.75,11.51,12.27,15.08s11.93,3.94,17.76,1.27c5.33-2.44,9.14-7.73,11.41-12.97,3.04-7.03,4.32-14.67,4.24-22.32-.02-1.92-.14-3.84-.33-5.76-.16-1.63-.56-3.05-1.76-4.24-1.04-1.04-2.75-1.82-4.24-1.76-2.99.13-6.33,2.66-6,6Z" style="fill: #fff;"/>
        <path d="m1192.45,994.99c1.27,3,2.66,5.95,4.08,8.89,3.04,6.29,6.32,12.49,10,18.43,2.15,3.47,4.48,6.81,6.99,10.02,1.9,2.43,3.96,4.8,6.37,6.75s5.33,3.98,8.61,4.52c4.16.68,7.94-.43,11.06-3.31s4.75-6.84,6.02-10.63c1.9-5.65,2.72-11.66,3.41-17.56.21-1.83.39-3.66.54-5.5.27-3.14-2.95-6.14-6-6-3.48.16-5.72,2.64-6,6-.15,1.78-.32,3.55-.52,5.32-.05.4-.09.8-.14,1.2-.04.29-.21,1.62-.06.53s-.03.24-.07.49c-.06.42-.12.83-.19,1.25-.41,2.63-.91,5.25-1.58,7.82-.27,1.06-.58,2.11-.92,3.15-.15.45-.31.9-.48,1.35-.08.21-.16.42-.25.63-.43,1.12.53-1.19.25-.58-.34.74-.68,1.48-1.09,2.19-.17.31-.36.61-.55.9-.09.14-.19.27-.28.41-.58.87.33-.53.53-.67-.44.32-.82.93-1.23,1.31-.91.86,1.39-.93.51-.38-.22.14-.44.29-.67.42-.1.06-.22.1-.32.16-.62.37,1.54-.54,1.02-.43-.25.05-.5.16-.75.23-.09.03-.19.03-.28.06-.76.22,1.43-.13,1.16-.15-.23-.02-.49.04-.73.03s-.46-.04-.69-.04c2.29.03,1.46.24.7.05-.22-.05-.44-.12-.66-.19-.12-.04-.24-.09-.36-.13-.9-.3.82.32.92.4-.93-.67-2.06-1.15-3.02-1.81-.49-.34,1.46,1.17.69.53-.1-.09-.21-.17-.32-.26-.29-.24-.57-.48-.85-.73-.53-.48-1.04-.97-1.54-1.49-1.09-1.11-2.11-2.29-3.08-3.5-.25-.31-.49-.62-.74-.93-.17-.21,1.09,1.43.46.6-.14-.19-.28-.37-.42-.56-.51-.69-1.02-1.39-1.51-2.09-1.02-1.46-2-2.94-2.95-4.44-3.67-5.81-6.92-11.89-9.95-18.05-1.64-3.34-3.07-6.8-4.7-10.14-.02-.05-.04-.1-.07-.16-.55-1.28-2.31-2.41-3.59-2.76-1.44-.4-3.35-.22-4.62.6s-2.41,2.06-2.76,3.59c-.38,1.68-.06,3.05.6,4.62h0Z" style="fill: #fff;"/>
      </g>
      <g>
        <path d="m819.57,213.38l-211.53,104.33c-7.3,3.6-10.3,12.43-6.7,19.73l33.77,68.47h.01c6.76,13.04,25.45,17.02,42.01,8.85,15.35-7.57,23.53-22.95,19.68-35.75,7.81,10.85,24.99,13.72,40.34,6.15s23.53-22.95,19.68-35.75c7.81,10.85,24.99,13.72,40.34,6.15,14.38-7.09,22.46-21.02,20.27-33.28,8.84,6.95,23.05,7.97,35.97,1.6,16.73-8.25,24.95-25.77,18.36-39.13-.57-1.16-21.54-42.9-32.52-64.77-3.63-7.23-12.42-10.18-19.68-6.6Z" style="fill: #bf1c2f;"/>
        <g style="clip-path: url(#clippath-3); fill: none;">
          <g>
            <path d="m700.98,355.11c2.52,6.52-3.6,25.8-3.6,25.8,0,0-17.49-10.17-20-16.68s.73-13.84,7.24-16.36,13.84.73,16.36,7.24Z" style="fill: none; stroke: #f91474; stroke-miterlimit: 10; stroke-width: 3.61px;"/>
            <path d="m761.98,326.11c2.52,6.52-3.6,25.8-3.6,25.8,0,0-17.49-10.17-20-16.68s.73-13.84,7.24-16.36,13.84.73,16.36,7.24Z" style="fill: none; stroke: #f91474; stroke-miterlimit: 10; stroke-width: 3.61px;"/>
            <path d="m822.98,297.11c2.52,6.52-3.6,25.8-3.6,25.8,0,0-17.49-10.17-20-16.68s.73-13.84,7.24-16.36,13.84.73,16.36,7.24Z" style="fill: none; stroke: #f91474; stroke-miterlimit: 10; stroke-width: 3.61px;"/>
          </g>
        </g>
      </g>
    </g>
  </g>
</svg>