<?xml version="1.0" encoding="UTF-8"?>
<svg id="Capa_2" data-name="Capa 2" xmlns="http://www.w3.org/2000/svg" xmlns:xlink="http://www.w3.org/1999/xlink" viewBox="0 0 1400.87 1423.95">
  <defs>
    <linearGradient id="Degradado_sin_nombre_377" data-name="Degradado sin nombre 377" x1="7.03" y1="696.92" x2="1400.87" y2="696.92" gradientTransform="translate(698.98 -293.64) rotate(45)" gradientUnits="userSpaceOnUse">
      <stop offset="0" stop-color="#00a1ff"/>
      <stop offset="1" stop-color="#00ff8f"/>
    </linearGradient>
    <linearGradient id="Degradado_sin_nombre_6" data-name="Degradado sin nombre 6" x1="107.77" y1="1803.72" x2="519.77" y2="1667.06" gradientTransform="translate(589.72 -1296.36) rotate(3.57)" gradientUnits="userSpaceOnUse">
      <stop offset="0" stop-color="#e4006c"/>
      <stop offset=".39" stop-color="#e84471"/>
      <stop offset=".72" stop-color="#f5a65b"/>
      <stop offset=".93" stop-color="#f49d00"/>
    </linearGradient>
    <linearGradient id="Degradado_sin_nombre_2" data-name="Degradado sin nombre 2" x1="405.86" y1="1544.73" x2="436.44" y2="1544.73" gradientTransform="translate(2458.48 -149.54) rotate(90)" gradientUnits="userSpaceOnUse">
      <stop offset="0" stop-color="#e62f75"/>
      <stop offset="1" stop-color="#672382"/>
    </linearGradient>
    <linearGradient id="Degradado_sin_nombre_4" data-name="Degradado sin nombre 4" x1="172.19" y1="1563.58" x2="187.31" y2="1563.58" gradientTransform="translate(2176.49 -185.62) rotate(79.53)" gradientUnits="userSpaceOnUse">
      <stop offset=".12" stop-color="#b85d9f"/>
      <stop offset=".88" stop-color="#0097c5"/>
    </linearGradient>
    <linearGradient id="Degradado_sin_nombre_3" data-name="Degradado sin nombre 3" x1="510.92" y1="1746.5" x2="548.22" y2="1746.5" gradientTransform="translate(2755.88 -49.82) rotate(90)" gradientUnits="userSpaceOnUse">
      <stop offset="0" stop-color="#e4006c"/>
      <stop offset="1" stop-color="#f8af00"/>
    </linearGradient>
    <linearGradient id="Degradado_sin_nombre_5" data-name="Degradado sin nombre 5" x1="375.31" y1="1964.45" x2="451.86" y2="1939.8" gradientTransform="translate(2844.94 242.43) rotate(90)" gradientUnits="userSpaceOnUse">
      <stop offset=".61" stop-color="#b85d9f"/>
      <stop offset=".88" stop-color="#0097c5"/>
    </linearGradient>
    <linearGradient id="Degradado_sin_nombre_2-2" data-name="Degradado sin nombre 2" x1="133.93" y1="1810.47" x2="87.58" y2="1746.11" gradientTransform="translate(589.72 -1296.36) rotate(3.57)" xlink:href="#Degradado_sin_nombre_2"/>
    <linearGradient id="Degradado_sin_nombre_4-2" data-name="Degradado sin nombre 4" x1="378.31" y1="1913.49" x2="441.58" y2="1887.57" gradientTransform="translate(589.72 -1296.36) rotate(3.57)" xlink:href="#Degradado_sin_nombre_4"/>
    <linearGradient id="Degradado_sin_nombre_3-2" data-name="Degradado sin nombre 3" x1="183.48" y1="1911" x2="236.78" y2="1942.29" gradientTransform="translate(589.72 -1296.36) rotate(3.57)" xlink:href="#Degradado_sin_nombre_3"/>
    <linearGradient id="Degradado_sin_nombre_2-3" data-name="Degradado sin nombre 2" x1="183.97" y1="1941.43" x2="205.06" y2="1941.43" gradientTransform="translate(589.72 -1296.36) rotate(3.57)" xlink:href="#Degradado_sin_nombre_2"/>
    <linearGradient id="Degradado_sin_nombre_372" data-name="Degradado sin nombre 372" x1="9461.04" y1="5607.02" x2="9992.16" y2="5607.02" gradientTransform="translate(-2345.96 -10245.2) rotate(45.92)" gradientUnits="userSpaceOnUse">
      <stop offset="0" stop-color="#f9e866"/>
      <stop offset=".06" stop-color="#f9df57"/>
      <stop offset=".23" stop-color="#fbcd37"/>
      <stop offset=".4" stop-color="#fdbf1f"/>
      <stop offset=".58" stop-color="#feb50d"/>
      <stop offset=".77" stop-color="#feaf03"/>
      <stop offset="1" stop-color="#ffae00"/>
    </linearGradient>
    <linearGradient id="Degradado_sin_nombre_691" data-name="Degradado sin nombre 691" x1="9903.74" y1="5394.77" x2="9942.28" y2="5394.77" gradientTransform="translate(-2345.96 -10245.2) rotate(45.92)" gradientUnits="userSpaceOnUse">
      <stop offset="0" stop-color="#ffae00"/>
      <stop offset="1" stop-color="#f9e866"/>
    </linearGradient>
    <linearGradient id="Degradado_sin_nombre_691-2" data-name="Degradado sin nombre 691" x1="9475.04" y1="5475.63" x2="9513.59" y2="5475.63" xlink:href="#Degradado_sin_nombre_691"/>
    <linearGradient id="Degradado_sin_nombre_691-3" data-name="Degradado sin nombre 691" x1="9533.78" y1="5328.99" x2="9555.27" y2="5328.99" xlink:href="#Degradado_sin_nombre_691"/>
    <linearGradient id="Degradado_sin_nombre_691-4" data-name="Degradado sin nombre 691" x1="9763.83" y1="5332.75" x2="9785.32" y2="5332.75" xlink:href="#Degradado_sin_nombre_691"/>
    <linearGradient id="Degradado_sin_nombre_691-5" data-name="Degradado sin nombre 691" x1="9683.39" y1="5920.64" x2="9704.89" y2="5920.64" xlink:href="#Degradado_sin_nombre_691"/>
    <linearGradient id="Degradado_sin_nombre_691-6" data-name="Degradado sin nombre 691" x1="9843.8" y1="5372.63" x2="9882.35" y2="5372.63" xlink:href="#Degradado_sin_nombre_691"/>
    <linearGradient id="Degradado_sin_nombre_691-7" data-name="Degradado sin nombre 691" x1="6138.28" y1="4491.84" x2="6197.47" y2="4491.84" gradientTransform="translate(-2883.74 -5974.33) rotate(29.2)" xlink:href="#Degradado_sin_nombre_691"/>
    <linearGradient id="Degradado_sin_nombre_691-8" data-name="Degradado sin nombre 691" x1="944.95" y1="1860.35" x2="1004.14" y2="1860.35" gradientTransform="translate(-617.02 -864.3) rotate(-3.71)" xlink:href="#Degradado_sin_nombre_691"/>
    <linearGradient id="Degradado_sin_nombre_691-9" data-name="Degradado sin nombre 691" x1="927.02" y1="1830.26" x2="986.21" y2="1830.26" gradientTransform="translate(-617.02 -864.3) rotate(-3.71)" xlink:href="#Degradado_sin_nombre_691"/>
    <linearGradient id="Degradado_sin_nombre_691-10" data-name="Degradado sin nombre 691" x1="-2283.67" y1="-6985.4" x2="-2224.48" y2="-6985.4" gradientTransform="translate(7719.45 2686.84) rotate(-57.01)" xlink:href="#Degradado_sin_nombre_691"/>
    <linearGradient id="Degradado_sin_nombre_691-11" data-name="Degradado sin nombre 691" x1="11538.73" y1="1988.67" x2="11597.92" y2="1988.67" gradientTransform="translate(-2905.39 -10864.31) rotate(65.33)" xlink:href="#Degradado_sin_nombre_691"/>
    <linearGradient id="Degradado_sin_nombre_691-12" data-name="Degradado sin nombre 691" x1="11556.78" y1="2012.19" x2="11590.99" y2="2012.19" gradientTransform="translate(-2905.39 -10864.31) rotate(65.33)" xlink:href="#Degradado_sin_nombre_691"/>
    <linearGradient id="Degradado_sin_nombre_370" data-name="Degradado sin nombre 370" x1="6163.66" y1="4511.6" x2="6184.9" y2="4511.6" gradientTransform="translate(-2883.74 -5974.33) rotate(29.2)" gradientUnits="userSpaceOnUse">
      <stop offset="0" stop-color="#f9e866"/>
      <stop offset="1" stop-color="#ffae00"/>
    </linearGradient>
    <linearGradient id="Degradado_sin_nombre_6-2" data-name="Degradado sin nombre 6" x1="898.03" y1="832.66" x2="1310.03" y2="696" gradientTransform="translate(236.55 -192.49) rotate(23.35)" xlink:href="#Degradado_sin_nombre_6"/>
    <linearGradient id="Degradado_sin_nombre_2-4" data-name="Degradado sin nombre 2" x1="1196.13" y1="573.67" x2="1226.7" y2="573.67" gradientTransform="translate(1695.13 -397.15) rotate(90)" xlink:href="#Degradado_sin_nombre_2"/>
    <linearGradient id="Degradado_sin_nombre_4-3" data-name="Degradado sin nombre 4" x1="962.45" y1="592.52" x2="977.57" y2="592.52" gradientTransform="translate(1298.66 -325.66) rotate(79.53)" xlink:href="#Degradado_sin_nombre_4"/>
    <linearGradient id="Degradado_sin_nombre_3-3" data-name="Degradado sin nombre 3" x1="1301.18" y1="775.44" x2="1338.48" y2="775.44" gradientTransform="translate(1916.49 -277.36) rotate(90)" xlink:href="#Degradado_sin_nombre_3"/>
    <linearGradient id="Degradado_sin_nombre_5-2" data-name="Degradado sin nombre 5" x1="1165.57" y1="993.39" x2="1242.12" y2="968.74" gradientTransform="translate(1946.64 -34.07) rotate(90)" xlink:href="#Degradado_sin_nombre_5"/>
    <linearGradient id="Degradado_sin_nombre_2-5" data-name="Degradado sin nombre 2" x1="924.19" y1="839.41" x2="877.84" y2="775.05" gradientTransform="translate(236.55 -192.49) rotate(23.35)" xlink:href="#Degradado_sin_nombre_2"/>
    <linearGradient id="Degradado_sin_nombre_4-4" data-name="Degradado sin nombre 4" x1="1168.57" y1="942.43" x2="1231.84" y2="916.51" gradientTransform="translate(236.55 -192.49) rotate(23.35)" xlink:href="#Degradado_sin_nombre_4"/>
    <linearGradient id="Degradado_sin_nombre_3-4" data-name="Degradado sin nombre 3" x1="973.75" y1="939.94" x2="1027.04" y2="971.23" gradientTransform="translate(236.55 -192.49) rotate(23.35)" xlink:href="#Degradado_sin_nombre_3"/>
    <linearGradient id="Degradado_sin_nombre_2-6" data-name="Degradado sin nombre 2" x1="974.23" y1="970.37" x2="995.32" y2="970.37" gradientTransform="translate(236.55 -192.49) rotate(23.35)" xlink:href="#Degradado_sin_nombre_2"/>
  </defs>
  <g id="icono_memorama">
    <g>
      <circle cx="703.95" cy="696.92" r="696.92" style="fill: url(#Degradado_sin_nombre_377);"/>
      <g>
        <g>
          <rect id="CARTA_1" data-name="CARTA 1" x="462.54" y="40.11" width="661.7" height="818.88" rx="78.18" ry="78.18" transform="translate(29.57 -48.59) rotate(3.57)" style="fill: #fff; stroke: #dbdbdb; stroke-miterlimit: 10;"/>
          <g>
            <g>
              <path d="m659.78,494.01c1.64-11.54-3.33-23.05-12.79-29.8-22.9-16.35-74.46-58.78-74.67-109.47-.16-37.03,24.52-51.85,73.91-39.62,49.39,12.24,57.3-17.01,101.02-60.04,43.72-43.03,95.04-43.83,111.75-.65,16.76,43.31,44.27,53.46,68.45,59.95,32.8,8.8,81.8,16.55,78.95,49.93-2.84,33.38-36.63,51.1-41.79,72.89-5.16,21.79,2.73,53.56,9.26,95.15,6.52,41.59-8.2,70.42-38.62,58.6-30.42-11.81-33.02-43.25-59.51-32.7-26.5,10.55-43.87,69.71-46.52,75.65-2.65,5.94-28.92,73.7-76.18,51.68-47.26-22.02-26.67-63.14-51.93-81.04-19.86-14.07-57.58,5.1-61.55-36.64-3.57-37.5,17.25-53,20.22-73.9Z" style="fill: url(#Degradado_sin_nombre_6);"/>
              <ellipse cx="913.75" cy="271.62" rx="15.34" ry="15.29" transform="translate(585.7 1166.66) rotate(-86.43)" style="fill: url(#Degradado_sin_nombre_2);"/>
              <ellipse cx="671.65" cy="275.38" rx="7.86" ry="7.55" transform="translate(241.47 860.09) rotate(-75.95)" style="fill: url(#Degradado_sin_nombre_4);"/>
              <ellipse cx="1009.38" cy="479.75" rx="18.71" ry="18.64" transform="translate(467.63 1457.26) rotate(-86.43)" style="fill: url(#Degradado_sin_nombre_3);"/>
              <ellipse cx="898.38" cy="673.28" rx="15.41" ry="15.35" transform="translate(170.4 1527.93) rotate(-86.43)" style="fill: url(#Degradado_sin_nombre_5);"/>
              <path d="m600.34,467.11c2.32,7.05,7.68,11.37,12.85,15.74,2.08,1.75,3.61,2.72,3.61,2.72,1.8,1.26,2.67,1.76,4.38,3.05,0,0,1.44,1.1,2.57,2.1,2.36,2.09,7.43,9.42,5.14,16.59-1.95,6.11-8.37,8.7-11.14,9.82-6.51,2.63-12.33,1.56-18.18.67-2.99-.45-10.42-1.85-18.55-6.66-10.85-6.42-16.42-15-19.26-19.49-3.51-5.55-8.08-12.79-8.78-23.15-.4-5.85-.99-15.99,6.47-23.22,5.76-5.59,14.4-7.55,21.96-5.6,1.26.33,9.19,2.49,13.31,9.35,1.41,2.35,2.16,4.89,3.63,9.91,1.5,5.14,1.17,5.66,2.01,8.2Z" style="fill: url(#Degradado_sin_nombre_2-2);"/>
              <path d="m853.58,660.37c-7.78-4.25-10.51-18.42-8.78-27.65,1.52-8.11,3.77-15.06,8.49-21.07,4.59-5.85,9.28-10.03,18.04-13.27,2.27-.84,11.69-2.72,19.89-1.1,3.19.63,10.98,2.73,16.96,9.88,1.05,1.26,8.23,11.76,4.31,21.14-1.78,4.26-5.05,7.06-5.05,7.06-2.42,2-4.82,2.82-5.92,3.18-2.96.98-5.25.95-6.44,1.02-9.43.52-17.76,10.37-18.8,11.63-3.81,4.61-3.7,7.16-7.69,9.31-3.67,1.99-7.47,1.83-8.25,1.79,0,0-3.58-.2-6.76-1.94Z" style="fill: url(#Degradado_sin_nombre_4-2);"/>
              <path d="m665.86,639.82c-4.25-1.3-14.86-3.1-15.53-3.54-.1-.07-.26-.17-.46-.31-1.01-.7-5.83-4.1-6.24-9.66-.41-5.56,3.88-9.38,4.33-9.78,1.73-1.5,4.69-3.18,11.49-3.08,14.82.21,25.96,8.56,26.89,9.28,2.95,2.27,13.54,11.02,16.37,25.28.86,4.34,1.96,10.37-1.67,14.97-2.36,2.99-6.87,5.33-11.27,4.44-3.99-.8-6.59-4.02-7.01-4.53-1.06-1.31-1.93-3-2.03-3.2-.67-1.3-1.03-2.37-1.34-3.3-1.05-3.21-1.14-4.09-1.69-5.66,0,0-1.11-3.16-3.4-5.82-2.87-3.32-6.59-4.51-8.45-5.08Z" style="fill: url(#Degradado_sin_nombre_3-2);"/>
              <path d="m660.19,653.22c-1.45-.44-5.08-1.06-5.31-1.21-.03-.02-.09-.06-.16-.11-.34-.24-1.99-1.4-2.13-3.3-.14-1.9,1.32-3.2,1.48-3.34.59-.51,1.6-1.09,3.92-1.05,5.06.07,8.87,2.92,9.19,3.17,1.01.78,4.63,3.76,5.59,8.64.29,1.48.67,3.54-.57,5.11-.81,1.02-2.35,1.82-3.85,1.52-1.36-.27-2.25-1.37-2.39-1.55-.36-.45-.66-1.02-.69-1.09-.23-.45-.35-.81-.46-1.13-.36-1.1-.39-1.4-.58-1.93,0,0-.38-1.08-1.16-1.99-.98-1.14-2.25-1.54-2.89-1.74Z" style="fill: url(#Degradado_sin_nombre_2-3);"/>
            </g>
            <g>
              <path d="m882.44,415.48c.59-9.42-4.68-15.87-12.17-18.63-.05-.02-.06-.09,0-.11,5.47-2.06,11.99-6.41,12.56-15.56.86-13.73-10.5-23.7-26.67-24.71l-49.13-3.07-5,79.98,50.75,3.17c19.27,1.2,28.89-8.97,29.65-21.07Z" style="fill: #fff;"/>
              <path d="m738.41,455.6c-17.66-1.1-31.11,8.45-32.01,22.81-.83,13.33,7.5,19.76,16.44,23.98,0,0,0,0,0,0l-22.43,19.86c4.48,8.17,13.36,15.87,31.39,16.99,18.77,1.17,32.52-9.12,33.45-23.97.88-14.07-8.62-20.47-18.19-24.68h0s20.89-18.5,20.89-18.5c-5.43-8.98-15.75-15.64-29.55-16.5Z" style="fill: #fff;"/>
              <polygon points="763.54 350.69 735.59 348.94 728.07 348.47 715.07 347.66 710.08 427.64 726.17 428.65 766.77 431.18 766.77 431.18 770.95 431.44 773.49 390.84 761.08 390.06 763.54 350.69" style="fill: #fff;"/>
              <polygon points="853.45 468.09 815.05 465.69 813.87 484.5 795.13 483.33 792.73 521.87 811.47 523.04 810.29 541.84 848.69 544.24 849.87 525.44 868.61 526.61 871.02 488.07 852.28 486.9 853.45 468.09" style="fill: #fff;"/>
            </g>
          </g>
        </g>
        <g>
          <rect id="CARTA_6" data-name="CARTA 6" x="65.45" y="239.08" width="661.7" height="815.95" rx="78.04" ry="78.04" transform="translate(-129.67 100.16) rotate(-12.4)" style="fill: #fff; stroke: #dbdbdb; stroke-miterlimit: 10;"/>
          <g>
            <g>
              <path d="m200.7,460.96c1.13-1.63,26.25-37.15,65.39-40.33,25.31-2.06,31.27,10.76,56.57,8.82,25.44-1.95,35.5-16.14,57.27-28.15,46.81-25.85,122.89-29.7,160.94,10.15,20.28,21.25,31.52,48.58,35.41,60.16,3.53,10.49,9.49,28.22,9.31,51.74-.23,29.3-9.79,40.57-2.25,57.99,4.96,11.45,11.39,11.91,25.97,25.48,7.48,6.96,48.52,45.16,42.82,85.09-2.45,17.12-12.94,29.99-20.03,38.86-15.4,19.27-25.82,18.74-34.77,34.89-10.06,18.17-1.6,27.36-7.84,46.36-10.78,32.82-49.86,47.81-58.75,51.23-43.35,16.66-79.27.57-98.72,19.39-1.97,1.91-9.97,10.18-22.56,20.43-2.36,1.92-8.39,6.85-13.79,10.54-4.04,2.76-21.63,14.33-42.2,17.44-36.87,5.58-67.29-18.52-77.33-26.26-57.83-44.55-27.53-88.68-84.84-156.95-32.66-38.9-67.17-53.94-78.3-102.43-1.61-6.99-4.56-20.41-2.35-37.26.62-4.68,3.48-22.75,16.87-42.51,18.48-27.26,32.86-22.04,50.11-45.24,17.98-24.18,5.78-34.46,23.1-59.45Z" style="fill: url(#Degradado_sin_nombre_372);"/>
              <circle cx="681.68" cy="636.12" r="19.27" style="fill: url(#Degradado_sin_nombre_691);"/>
              <circle cx="325.37" cy="384.41" r="19.27" style="fill: url(#Degradado_sin_nombre_691-2);"/>
              <circle cx="465.64" cy="318.47" r="10.74" style="fill: url(#Degradado_sin_nombre_691-3);"/>
              <circle cx="622.97" cy="486.35" r="10.74" style="fill: url(#Degradado_sin_nombre_691-4);"/>
              <circle cx="144.69" cy="837.54" r="10.74" style="fill: url(#Degradado_sin_nombre_691-5);"/>
              <circle cx="655.89" cy="577.67" r="19.27" style="fill: url(#Degradado_sin_nombre_691-6);"/>
              <path d="m294.04,959.37c-4.06-.38-12.32-.8-14.79-5.7-.53-1.05-.63-2.15-.62-3.22.03-3.53,6.64-11.17,20.33-9.13,15.85,2.36,27.09,7.22,32.21,11.13,5.16,3.94,6.85,6.83,6.88,9.66.03,2.48-1.21,5.23-3.21,6.88-7.13,5.9-17.65-7.45-40.81-9.62Z" style="fill: url(#Degradado_sin_nombre_691-7);"/>
              <path d="m465.23,940.32c-3.61,1.89-10.78,6.02-15.52,3.25-1.02-.6-1.69-1.46-2.27-2.37-1.89-2.98-.49-12.99,12.1-18.71,14.59-6.63,26.67-8.65,33.09-8.16,6.47.5,9.46,2.01,11.03,4.37,1.37,2.06,1.82,5.05,1.04,7.51-2.78,8.83-18.86,3.33-39.49,14.1Z" style="fill: url(#Degradado_sin_nombre_691-8);"/>
              <path d="m445.39,911.46c-3.61,1.89-10.78,6.02-15.52,3.25-1.02-.6-1.69-1.46-2.27-2.37-1.89-2.98-.49-12.99,12.1-18.71,14.59-6.63,26.67-8.65,33.09-8.16,6.47.5,9.46,2.01,11.03,4.37,1.37,2.06,1.82,5.05,1.04,7.51-2.78,8.83-18.86,3.33-39.49,14.1Z" style="fill: url(#Degradado_sin_nombre_691-9);"/>
              <path d="m635.53,789.69c-.65,4.02-1.61,12.24-6.66,14.38-1.09.46-2.19.48-3.25.4-3.52-.26-10.71-7.36-7.77-20.89,3.4-15.66,9-26.56,13.23-31.41,4.27-4.89,7.27-6.39,10.09-6.23,2.47.14,5.14,1.56,6.65,3.65,5.42,7.5-8.6,17.11-12.29,40.09Z" style="fill: url(#Degradado_sin_nombre_691-10);"/>
              <path d="m102.11,472.22c-3.05-2.7-9.48-7.91-8.59-13.33.19-1.16.76-2.11,1.4-2.96,2.11-2.83,11.95-5.11,21.8,4.61,11.41,11.25,17.62,21.81,19.46,27.98,1.85,6.23,1.51,9.56-.13,11.86-1.44,2.02-4.06,3.51-6.64,3.66-9.24.56-9.86-16.42-27.29-31.83Z" style="fill: url(#Degradado_sin_nombre_691-11);"/>
              <path d="m89.06,489.56c-1.77-1.56-5.48-4.57-4.96-7.7.11-.67.44-1.22.81-1.71,1.22-1.64,6.91-2.95,12.6,2.66,6.6,6.5,10.19,12.6,11.25,16.18,1.07,3.6.87,5.53-.08,6.85-.83,1.17-2.35,2.03-3.84,2.12-5.34.33-5.7-9.49-15.78-18.4Z" style="fill: url(#Degradado_sin_nombre_691-12);"/>
              <path d="m299.59,977.4c-1.46-.14-4.42-.29-5.31-2.05-.19-.38-.22-.77-.22-1.15.01-1.27,2.38-4.01,7.29-3.28,5.69.85,9.72,2.59,11.56,3.99,1.85,1.41,2.46,2.45,2.47,3.47.01.89-.44,1.88-1.15,2.47-2.56,2.12-6.33-2.67-14.65-3.45Z" style="fill: url(#Degradado_sin_nombre_370);"/>
            </g>
            <g>
              <polygon points="346.07 563.4 332.44 481.26 380.71 463.18 374.96 402.49 434.86 398.59 438.2 362.81 510.99 369.5 505.71 418.83 545.77 428.37 560.84 396.37 618.07 422.08 580.95 518.73 609.89 528.81 587.22 593.46 346.07 563.4" style="fill: #ffdb01;"/>
              <path d="m331.56,609.35l.25-35.55s2.54-10.48,23.55-14.03c21.01-3.56,138.96-11.21,226.33,30.67,0,0,20.34,3.76,15.25,26.56-5.1,22.8-52.52,185.28-52.52,185.28,0,0-9.38,17.37-35.93,19.04-26.55,1.67-128.9-16.65-128.9-16.65l-48.03-195.31Z" style="fill: #be1c2f;"/>
              <g>
                <path d="m461.34,762.3l-60.7-19.29,10.89-40.81,75.82,12.09c3.53.56,7.14.03,10.36-1.51,12.55-6.02,46.17-20.08,55.9-3.12,12.03,20.99,1.74,40.85-18.4,47.02,0,0,19.21,36.94-17.97,46.1-27.36,6.74-39.98-16.86-44.74-29.79-1.88-5.1-5.98-9.05-11.16-10.7Z" style="fill: #fffbdc;"/>
                <path d="m143.35,658.87s-5.83,59.3,43.41,96.16c49.24,36.86,175.16,35.97,225.05,7.7,49.89-28.27,17.83-36.6,17.83-36.6,0,0,15.02-3.19,9.82-15.97-5.2-12.78-17.19-8.34-17.19-8.34,0,0-33.24-101.47-137.12-112.21-103.88-10.73-138.59,42.71-141.78,69.26Z" style="fill: #ef9900;"/>
              </g>
              <ellipse cx="362.94" cy="489.87" rx="4.52" ry="2.16" transform="translate(-129.43 849.41) rotate(-89.6)" style="fill: #fff;"/>
              <ellipse cx="468.18" cy="391.07" rx="4.52" ry="2.16" transform="translate(73.88 856.53) rotate(-89.6)" style="fill: #fff;"/>
              <ellipse cx="419.42" cy="489.85" rx="4.52" ry="2.16" transform="translate(-73.31 905.87) rotate(-89.6)" style="fill: #fff;"/>
              <ellipse cx="517.05" cy="449.9" rx="4.52" ry="2.16" transform="translate(63.59 963.82) rotate(-89.6)" style="fill: #fff;"/>
              <ellipse cx="535.66" cy="554.65" rx="4.52" ry="2.16" transform="translate(-22.68 1086.46) rotate(-89.6)" style="fill: #fff;"/>
              <ellipse cx="602.74" cy="534.08" rx="4.52" ry="2.16" transform="translate(64.51 1133.11) rotate(-89.6)" style="fill: #fff;"/>
              <ellipse cx="581.5" cy="438.07" rx="4.52" ry="2.16" transform="translate(139.43 1016.53) rotate(-89.6)" style="fill: #fff;"/>
              <ellipse cx="589.77" cy="468.54" rx="4.52" ry="2.16" transform="translate(117.16 1055.05) rotate(-89.6)" style="fill: #fff;"/>
              <ellipse cx="490.25" cy="391.22" rx="4.52" ry="2.16" transform="translate(95.65 878.76) rotate(-89.6)" style="fill: #fff;"/>
              <ellipse cx="338.67" cy="486.32" rx="4.52" ry="2.16" transform="translate(-149.98 821.62) rotate(-89.6)" style="fill: #fff;"/>
              <ellipse cx="349.81" cy="503.45" rx="4.52" ry="2.16" transform="translate(-156.04 849.77) rotate(-89.6)" style="fill: #fff;"/>
              <ellipse cx="352.48" cy="522.11" rx="2.16" ry="4.52" transform="translate(-243.65 318.46) rotate(-37.12)" style="fill: #fff;"/>
              <ellipse cx="451.81" cy="424.92" rx="2.16" ry="4.52" transform="translate(-164.88 358.71) rotate(-37.12)" style="fill: #fff;"/>
              <ellipse cx="455.18" cy="377.82" rx="4.52" ry="2.16" transform="translate(-122.58 504.83) rotate(-52.09)" style="fill: #fff;"/>
              <ellipse cx="483.53" cy="454.18" rx="4.52" ry="2.16" transform="translate(-171.9 556.64) rotate(-52.09)" style="fill: #fff;"/>
              <ellipse cx="603.47" cy="428.76" rx="4.52" ry="2.16" transform="translate(-105.59 641.48) rotate(-52.09)" style="fill: #fff;"/>
              <ellipse cx="568.91" cy="431.01" rx="4.52" ry="2.16" transform="translate(-120.69 615.07) rotate(-52.09)" style="fill: #fff;"/>
              <ellipse cx="511.79" cy="507.87" rx="4.52" ry="2.16" transform="translate(-203.36 599.65) rotate(-52.09)" style="fill: #fff;"/>
              <ellipse cx="589.34" cy="530.85" rx="4.52" ry="2.16" transform="translate(-191.59 669.69) rotate(-52.09)" style="fill: #fff;"/>
              <ellipse cx="374.67" cy="476.74" rx="2.16" ry="4.52" transform="translate(-211.77 322.66) rotate(-37.12)" style="fill: #fff;"/>
              <ellipse cx="385.66" cy="414.27" rx="2.16" ry="4.52" transform="translate(-171.85 316.63) rotate(-37.12)" style="fill: #fff;"/>
              <ellipse cx="422" cy="429.99" rx="2.16" ry="4.52" transform="translate(-173.98 341.75) rotate(-37.12)" style="fill: #fff;"/>
              <ellipse cx="534.31" cy="437.74" rx="2.16" ry="4.52" transform="translate(-155.9 411.09) rotate(-37.12)" style="fill: #fff;"/>
              <ellipse cx="571.28" cy="415.56" rx="2.16" ry="4.52" transform="translate(-135.03 428.9) rotate(-37.12)" style="fill: #fff;"/>
              <ellipse cx="566.19" cy="505.98" rx="2.16" ry="4.52" transform="translate(-190.62 444.15) rotate(-37.12)" style="fill: #fff;"/>
              <ellipse cx="591.38" cy="547.94" rx="2.16" ry="4.52" transform="translate(-210.84 467.85) rotate(-37.12)" style="fill: #fff;"/>
              <path d="m384.89,822.14l-53.75-31.06,19.4-37.52,70.49,27.71c3.92,1.54,8.2,1.85,12.31.91,14.17-3.24,48.63-9.09,54.36,9.17,7.25,23.08-7.07,40.27-28.07,41.98,0,0,10.83,40.2-27.44,41.17-27.29.69-34.95-23.46-37.11-37.39-.97-6.28-4.69-11.78-10.19-14.96Z" style="fill: #fffbdc;"/>
              <path d="m97.92,653.66s-18.42,56.66,21.75,103.24c40.17,46.57,163.35,72.73,218.15,55.83s25.27-31.92,25.27-31.92c0,0,15.35.11,13.02-13.49s-15-11.83-15-11.83c0,0-10.68-106.25-109.84-139.03-99.15-32.78-144.53,11.96-153.34,37.21Z" style="fill: #ffad0d;"/>
              <path d="m533.38,756.25s-27.52,2.56-25.17-5.58c2.35-8.15,25.17,5.58,25.17,5.58Z" style="fill: none; stroke: #fee420; stroke-miterlimit: 10; stroke-width: 1.16px;"/>
              <path d="m458.35,832.75s-24.66,1.62-21.2-7.69,21.2,7.69,21.2,7.69Z" style="fill: none; stroke: #fee420; stroke-miterlimit: 10; stroke-width: 1.16px;"/>
              <path d="m361.63,780.74s-26.12,9.61-23.54-.16c2.58-9.78,23.54.16,23.54.16Z" style="fill: none; stroke: #fee420; stroke-miterlimit: 10; stroke-width: 1.16px;"/>
              <path d="m428.25,726.09s-23.1,9.08-20.77-.14c2.33-9.23,20.77.14,20.77.14Z" style="fill: none; stroke: #fee420; stroke-miterlimit: 10; stroke-width: 1.16px;"/>
              <path d="m380.71,463.18c5.73,26.19,9.92,52.71,12.49,79.4-5.75-26.19-9.91-52.71-12.49-79.4h0Z" style="fill: #ffb00a;"/>
              <path d="m580.95,518.73c-5.54,19.88-12.61,39.34-21.16,58.13,5.53-19.89,12.62-39.33,21.16-58.13h0Z" style="fill: #ffb00a;"/>
              <path d="m434.86,398.59c3.93,40.73,6.28,81.61,7.02,122.53-3.94-40.73-6.27-81.62-7.02-122.53h0Z" style="fill: #ffb00a;"/>
              <path d="m545.77,428.37c-6.24,26.95-14.03,53.53-23.34,79.58,6.23-26.95,14.04-53.53,23.34-79.58h0Z" style="fill: #ffb00a;"/>
              <path d="m505.71,418.83c-6.7,47.94-14.97,95.66-24.82,143.06,6.69-47.94,14.98-95.66,24.82-143.06h0Z" style="fill: #ffb00a;"/>
            </g>
          </g>
        </g>
        <g>
          <rect id="CARTA_1-2" data-name="CARTA 1" x="617.16" y="531.55" width="661.7" height="818.88" rx="78.18" ry="78.18" transform="translate(450.49 -298.63) rotate(23.35)" style="fill: #fff; stroke: #dbdbdb; stroke-miterlimit: 10;"/>
          <g>
            <g>
              <path d="m807.24,937.64c5.45-10.3,4.67-22.81-1.95-32.37-16.02-23.14-50.19-80.5-33.24-128.27,12.38-34.9,40.61-40.5,82.95-12.28,42.34,28.22,59.67,3.37,115.38-22.33,55.7-25.7,104.27-9.1,105.38,37.19,1.12,46.43,23.58,65.29,44.14,79.57,27.89,19.37,71.38,43.24,57.41,73.69-13.97,30.45-51.75,35.7-63.98,54.46-12.23,18.76-15.54,51.32-23.47,92.67-7.93,41.35-31.53,63.49-56.16,42.08-24.63-21.41-16.44-51.86-44.94-50.9-28.5.96-64.87,50.76-69.37,55.45-4.5,4.69-52.14,59.57-89.17,22.86-37.03-36.71-3.74-68.44-21.46-93.83-13.93-19.95-55.91-14.68-45.52-55.3,9.33-36.49,34.16-44.04,44.03-62.7Z" style="fill: url(#Degradado_sin_nombre_6-2);"/>
              <ellipse cx="1121.47" cy="814.26" rx="15.34" ry="15.29" transform="translate(-70.54 1521.25) rotate(-66.65)" style="fill: url(#Degradado_sin_nombre_2-4);"/>
              <ellipse cx="892.36" cy="735.91" rx="7.86" ry="7.55" transform="translate(-215.7 1067.69) rotate(-56.18)" style="fill: url(#Degradado_sin_nombre_4-3);"/>
              <ellipse cx="1141.05" cy="1042.47" rx="18.71" ry="18.64" transform="translate(-268.24 1677.01) rotate(-66.65)" style="fill: url(#Degradado_sin_nombre_3-3);"/>
              <ellipse cx="971.13" cy="1187.04" rx="15.41" ry="15.35" transform="translate(-503.56 1608.28) rotate(-66.65)" style="fill: url(#Degradado_sin_nombre_5-2);"/>
              <path d="m760.4,892.21c-.2,7.42,3.38,13.3,6.77,19.15,1.36,2.35,2.48,3.78,2.48,3.78,1.26,1.8,1.92,2.56,3.09,4.35,0,0,.98,1.52,1.71,2.84,1.52,2.77,3.81,11.38-.78,17.35-3.91,5.09-10.82,5.35-13.81,5.47-7.01.27-12.13-2.7-17.34-5.52-2.66-1.44-9.17-5.27-15.2-12.54-8.04-9.71-10.38-19.67-11.53-24.86-1.42-6.41-3.28-14.76-.43-24.76,1.61-5.64,4.47-15.38,13.94-19.66,7.31-3.31,16.11-2.24,22.56,2.16,1.08.73,7.8,5.46,9.36,13.3.54,2.69.38,5.33.06,10.55-.32,5.34-.81,5.72-.88,8.39Z" style="fill: url(#Degradado_sin_nombre_2-5);"/>
              <path d="m933.34,1159.74c-5.88-6.63-3.66-20.89,1.09-28.99,4.17-7.12,8.64-12.89,15.11-16.95,6.29-3.95,12.13-6.3,21.47-6.38,2.42-.02,11.93,1.39,19.09,5.7,2.79,1.68,9.42,6.28,12.62,15.04.56,1.54,3.77,13.85-3.09,21.35-3.11,3.41-7.15,4.94-7.15,4.94-2.95,1.07-5.49,1.02-6.65,1-3.11-.08-5.27-.88-6.41-1.22-9.05-2.7-20.22,3.75-21.63,4.59-5.15,3.05-5.9,5.48-10.38,6.16-4.12.63-7.65-.81-8.37-1.11,0,0-3.3-1.4-5.71-4.11Z" style="fill: url(#Degradado_sin_nombre_4-4);"/>
              <path d="m763.64,1076.91c-3.56-2.66-12.94-7.95-13.42-8.59-.07-.1-.19-.25-.33-.45-.71-1-4.1-5.83-2.6-11.2,1.49-5.37,6.82-7.52,7.39-7.73,2.13-.82,5.49-1.4,11.85.99,13.88,5.21,21.53,16.83,22.17,17.83,2.01,3.13,9.02,14.95,6.85,29.33-.66,4.37-1.66,10.42-6.63,13.52-3.24,2.02-8.27,2.69-12.1.37-3.49-2.11-4.84-6.01-5.06-6.64-.56-1.6-.8-3.47-.83-3.7-.19-1.45-.17-2.58-.14-3.56.09-3.37.31-4.23.33-5.89,0,0,.03-3.35-1.23-6.63-1.58-4.1-4.68-6.48-6.23-7.64Z" style="fill: url(#Degradado_sin_nombre_3-4);"/>
              <path d="m753.76,1087.6c-1.22-.91-4.42-2.72-4.58-2.93-.03-.03-.06-.09-.11-.15-.24-.34-1.4-1.99-.89-3.83.51-1.83,2.33-2.57,2.52-2.64.73-.28,1.88-.48,4.05.34,4.74,1.78,7.36,5.75,7.57,6.09.69,1.07,3.08,5.11,2.34,10.02-.22,1.49-.57,3.56-2.27,4.62-1.11.69-2.83.92-4.14.13-1.19-.72-1.65-2.05-1.73-2.27-.19-.55-.27-1.19-.28-1.26-.06-.5-.06-.88-.05-1.22.03-1.15.11-1.45.11-2.01,0,0,0-1.15-.42-2.26-.54-1.4-1.6-2.21-2.13-2.61Z" style="fill: url(#Degradado_sin_nombre_2-6);"/>
            </g>
            <g>
              <path d="m1043.34,939.05c3.74-8.67.97-16.52-5.15-21.64-.04-.04-.02-.1.03-.1,5.84-.09,13.45-1.97,17.09-10.4,5.45-12.63-1.86-25.86-16.73-32.28l-45.2-19.51-31.76,73.58,46.68,20.15c17.73,7.65,30.22,1.34,35.03-9.8Z" style="fill: #fff;"/>
              <path d="m894.23,928.08c-16.24-7.01-32.14-2.57-37.83,10.63-5.29,12.27.37,21.13,7.36,28.13,0,0,0,0,0,0l-27.83,11.11c1.45,9.21,7.21,19.45,23.79,26.61,17.27,7.45,33.69,2.42,39.59-11.24,5.59-12.94-1.19-22.18-8.77-29.38h0s25.91-10.34,25.91-10.34c-2.07-10.29-9.53-20.05-22.23-25.53Z" style="fill: #fff;"/>
              <polygon points="953.36 837.86 927.65 826.76 920.73 823.77 908.77 818.61 877.02 892.19 891.83 898.58 929.17 914.7 929.17 914.7 933.02 916.36 949.14 879.01 937.73 874.08 953.36 837.86" style="fill: #fff;"/>
              <polygon points="998.26 978.75 962.93 963.5 955.46 980.8 938.22 973.36 922.92 1008.82 940.16 1016.26 932.69 1033.56 968.02 1048.81 975.49 1031.51 992.73 1038.95 1008.03 1003.49 990.79 996.05 998.26 978.75" style="fill: #fff;"/>
            </g>
          </g>
        </g>
      </g>
    </g>
  </g>
</svg>