<?xml version="1.0" encoding="UTF-8"?>
<svg id="Capa_2" data-name="Capa 2" xmlns="http://www.w3.org/2000/svg" xmlns:xlink="http://www.w3.org/1999/xlink" viewBox="0 0 1344 1322.24">
  <defs>
    <linearGradient id="Degradado_sin_nombre_50" data-name="Degradado sin nombre 50" x1="98.81" y1="851.22" x2="1263.25" y2="464.99" gradientUnits="userSpaceOnUse">
      <stop offset="0" stop-color="#e4006c"/>
      <stop offset=".39" stop-color="#e84471"/>
      <stop offset=".72" stop-color="#f5a65b"/>
      <stop offset=".93" stop-color="#f49d00"/>
    </linearGradient>
    <linearGradient id="Degradado_sin_nombre_52" data-name="Degradado sin nombre 52" x1="941.61" y1="121.03" x2="1028.05" y2="121.03" gradientUnits="userSpaceOnUse">
      <stop offset="0" stop-color="#e62f75"/>
      <stop offset="1" stop-color="#672382"/>
    </linearGradient>
    <linearGradient id="Degradado_sin_nombre_89" data-name="Degradado sin nombre 89" x1="281.09" y1="174.12" x2="323.84" y2="174.12" gradientTransform="translate(413.08 -156.89) rotate(78.55)" gradientUnits="userSpaceOnUse">
      <stop offset=".12" stop-color="#b85d9f"/>
      <stop offset=".88" stop-color="#0097c5"/>
    </linearGradient>
    <linearGradient id="Degradado_sin_nombre_53" data-name="Degradado sin nombre 53" x1="1238.58" y1="689.33" x2="1344" y2="689.33" gradientUnits="userSpaceOnUse">
      <stop offset="0" stop-color="#e4006c"/>
      <stop offset="1" stop-color="#f8af00"/>
    </linearGradient>
    <linearGradient id="Degradado_sin_nombre_88" data-name="Degradado sin nombre 88" x1="855.3" y1="1303.37" x2="1071.6" y2="1233.71" gradientUnits="userSpaceOnUse">
      <stop offset=".61" stop-color="#b85d9f"/>
      <stop offset=".88" stop-color="#0097c5"/>
    </linearGradient>
    <linearGradient id="Degradado_sin_nombre_52-2" data-name="Degradado sin nombre 52" x1="172.87" y1="869.64" x2="42.11" y2="688.09" xlink:href="#Degradado_sin_nombre_52"/>
    <linearGradient id="Degradado_sin_nombre_89-2" data-name="Degradado sin nombre 89" x1="863.8" y1="1159.72" x2="1042.5" y2="1086.52" gradientTransform="matrix(1,0,0,1,0,0)" xlink:href="#Degradado_sin_nombre_89"/>
    <linearGradient id="Degradado_sin_nombre_53-2" data-name="Degradado sin nombre 53" x1="313.1" y1="1152.5" x2="463.58" y2="1240.85" xlink:href="#Degradado_sin_nombre_53"/>
    <linearGradient id="Degradado_sin_nombre_52-3" data-name="Degradado sin nombre 52" x1="314.39" y1="1238.36" x2="374.01" y2="1238.36" xlink:href="#Degradado_sin_nombre_52"/>
  </defs>
  <g id="logo_cartaTrasera">
    <g>
      <g>
        <path d="m307.53,790.79c2.6-32.72-13.44-64.2-41.32-81.53-67.5-41.95-220.42-152.16-229.96-294.61-6.97-104.05,60.03-150.07,201.53-124.35,141.5,25.73,158.65-57.89,274.42-186.52,115.77-128.63,260.4-139.91,315.15-21.44,54.91,118.81,134.32,142.52,203.67,156.5,94.08,18.97,233.68,32.16,231.54,126.49s-94.33,150.07-105.05,212.25c-10.72,62.17,17.15,150.07,42.88,265.84,25.73,115.77-10.72,199.38-98.62,171.51-87.9-27.87-100.76-115.77-173.66-81.47-72.89,34.3-111.48,203.67-117.91,220.82-6.43,17.15-68.6,212.25-205.81,158.65-137.21-53.6-86.38-172.81-160.79-218.68-58.5-36.06-161.53,24.44-180.09-92.19-16.67-104.78,39.32-152.01,44.03-211.29Z" style="fill: url(#Degradado_sin_nombre_50);"/>
        <circle cx="984.83" cy="121.03" r="43.21" style="fill: url(#Degradado_sin_nombre_52);"/>
        <ellipse cx="302.47" cy="174.12" rx="22.15" ry="21.34" transform="translate(71.77 436) rotate(-78.55)" style="fill: url(#Degradado_sin_nombre_89);"/>
        <circle cx="1291.29" cy="689.33" r="52.7" style="fill: url(#Degradado_sin_nombre_53);"/>
        <circle cx="1012.23" cy="1252.83" r="43.4" style="fill: url(#Degradado_sin_nombre_88);"/>
        <path d="m135.08,725.61c7.79,19.41,23.68,30.62,39.02,41.98,6.16,4.57,10.66,7,10.66,7,5.29,3.24,7.86,4.47,12.89,7.81,0,0,4.25,2.83,7.62,5.44,7.03,5.47,22.63,25.16,17.42,45.72-4.44,17.51-22.08,25.92-29.71,29.55-17.9,8.53-34.5,6.54-51.18,5.08-8.53-.75-29.71-3.38-53.51-15.47-31.75-16.13-48.96-39.29-57.76-51.41-10.88-14.99-25.04-34.52-28.85-63.54-2.15-16.39-5.62-44.76,14.15-66.41,15.27-16.72,39.29-23.77,60.96-19.6,3.62.7,26.36,5.4,39.19,23.95,4.41,6.37,6.94,13.36,11.98,27.22,5.15,14.17,4.3,15.69,7.11,22.69Z" style="fill: url(#Degradado_sin_nombre_52-2);"/>
        <path d="m883.58,1224.41c-22.69-10.58-32.9-49.92-29.66-76.18,2.85-23.06,7.99-42.98,20.24-60.71,11.91-17.24,24.42-29.82,48.57-40.47,6.26-2.76,32.51-9.71,55.92-6.57,9.12,1.22,31.47,5.73,49.6,24.8,3.18,3.35,25.29,31.6,15.9,58.67-4.26,12.29-13.01,20.74-13.01,20.74-6.47,6.05-13.09,8.77-16.13,9.99-8.17,3.27-14.65,3.61-18,4-26.51,3.12-48.27,32.26-51,36-9.94,13.63-9.18,20.77-20.04,27.53-10,6.23-20.76,6.46-22.96,6.47,0,0-10.14.06-19.42-4.26Z" style="fill: url(#Degradado_sin_nombre_89-2);"/>
        <path d="m350.37,1199.61c-12.21-2.91-42.48-6.11-44.43-7.23-.3-.17-.77-.44-1.36-.8-2.97-1.79-17.16-10.52-19.3-26.07-2.14-15.55,9.28-27.05,10.51-28.24,4.62-4.51,12.67-9.75,31.86-10.68,41.85-2.02,74.74,19.5,77.5,21.36,8.72,5.87,40.14,28.59,50.63,68.2,3.19,12.05,7.36,28.8-2.07,42.37-6.14,8.83-18.45,16.18-31,14.47-11.4-1.56-19.3-10.13-20.56-11.51-3.23-3.51-5.98-8.09-6.3-8.64-2.11-3.55-3.33-6.48-4.35-9.05-3.54-8.83-3.93-11.29-5.75-15.61,0,0-3.68-8.7-10.63-15.77-8.69-8.84-19.39-11.53-24.73-12.8Z" style="fill: url(#Degradado_sin_nombre_53-2);"/>
        <path d="m336.73,1238.28c-4.17-.99-14.51-2.09-15.18-2.47-.1-.06-.26-.15-.47-.27-1.02-.61-5.86-3.59-6.59-8.91-.73-5.31,3.17-9.24,3.59-9.65,1.58-1.54,4.33-3.33,10.88-3.65,14.3-.69,25.53,6.66,26.48,7.3,2.98,2,13.71,9.77,17.3,23.3,1.09,4.12,2.52,9.84-.71,14.47-2.1,3.02-6.3,5.53-10.59,4.94-3.9-.53-6.59-3.46-7.03-3.93-1.1-1.2-2.04-2.76-2.15-2.95-.72-1.21-1.14-2.21-1.49-3.09-1.21-3.02-1.34-3.86-1.97-5.33,0,0-1.26-2.97-3.63-5.39-2.97-3.02-6.62-3.94-8.45-4.37Z" style="fill: url(#Degradado_sin_nombre_52-3);"/>
      </g>
      <g>
        <path d="m921.85,530.95c0-26.58-15.99-43.79-37.6-50.23-.15-.05-.18-.24-.03-.3,15.06-6.75,32.7-20.12,32.7-45.95,0-38.74-33.81-64.79-79.58-64.79h-139.14v225.72h143.72c54.59,0,79.94-30.28,79.94-64.44Z" style="fill: #fff;"/>
        <path d="m522.58,669.01c-50,0-86.27,29.23-86.27,69.73,0,37.63,24.64,54.23,50.62,64.52,0,0,0,0,0,0l-59.78,59.78c14.09,22.19,40.5,42.26,91.56,42.26s90.15-31.34,90.15-73.24c0-39.7-27.92-56.02-55.66-66.18h0l55.66-55.66c-16.91-24.3-47.19-41.2-86.27-41.2Z" style="fill: #fff;"/>
        <polygon points="574.99 369.68 495.82 369.68 474.52 369.68 437.72 369.68 437.72 595.39 483.31 595.39 598.29 595.39 598.29 595.39 610.13 595.39 610.13 480.8 574.99 480.8 574.99 369.68" style="fill: #fff;"/>
        <polygon points="849.33 683.91 740.57 683.91 740.57 736.99 687.49 736.99 687.49 845.76 740.57 845.76 740.57 898.83 849.33 898.83 849.33 845.76 902.41 845.76 902.41 736.99 849.33 736.99 849.33 683.91" style="fill: #fff;"/>
      </g>
    </g>
  </g>
</svg>