<?xml version="1.0" encoding="UTF-8"?>
<svg id="Capa_2" data-name="Capa 2" xmlns="http://www.w3.org/2000/svg" xmlns:xlink="http://www.w3.org/1999/xlink" viewBox="0 0 5159 4157">
  <defs>
    <linearGradient id="Degradado_sin_nombre_1839" data-name="Degradado sin nombre 1839" x1="4061.82" y1="-488.95" x2="1097.18" y2="4645.95" gradientUnits="userSpaceOnUse">
      <stop offset="0" stop-color="#8500ff"/>
      <stop offset=".18" stop-color="#920aff"/>
      <stop offset=".5" stop-color="#b525ff"/>
      <stop offset=".95" stop-color="#ed52ff"/>
      <stop offset="1" stop-color="#f558ff"/>
    </linearGradient>
  </defs>
  <g id="mensaje_fondo_1">
    <rect width="5159" height="4157" rx="342.06" ry="342.06" style="fill: url(#Degradado_sin_nombre_1839);"/>
    <g>
      <path d="m249.98,1486.61h99.82c44.02,0,78.21,28.69,78.21,67.6,0,29.87-21.62,47.16-38.51,53.84,25.15,7.47,46.77,27.51,46.77,60.52,0,37.34-30.65,69.56-80.17,69.56h-106.11v-251.52Zm35.37,31.44v76.64h60.92c25.55,0,44.8-16.51,44.8-38.12s-19.26-38.51-44.8-38.51h-60.92Zm0,106.5v81.75h66.42c27.12,0,47.55-17.69,47.55-40.87s-20.44-40.87-47.16-40.87h-66.81Z" style="fill: #fff;"/>
      <path d="m474.39,1643.82c0-54.63,39.69-98.64,93.14-98.64s92.75,42.05,92.75,95.11c0,4.72-.39,9.83-1.18,12.58h-149.34c3.93,33.8,28.69,58.95,64.45,58.95,21.22,0,40.09-8.25,52.66-20.83l18.47,23.97c-15.33,16.51-42.05,27.9-72.31,27.9-57.38,0-98.64-44.41-98.64-99.04Zm36.16-14.15h113.97c-5.5-34.98-27.12-54.63-56.59-54.63s-52.27,23.19-57.38,54.63Z" style="fill: #fff;"/>
      <path d="m902.37,1644.21c0,55.81-38.91,98.64-91.57,98.64-28.3,0-51.09-12.18-65.63-32.23v27.51h-34.98v-270.39h34.98v110.83c14.54-20.44,37.34-33.41,65.63-33.41,51.09,0,91.57,42.05,91.57,99.04Zm-157.2,0c0,36.94,25.55,66.02,61.31,66.02s60.92-29.08,60.92-66.02-25.55-66.42-60.92-66.42-61.31,29.87-61.31,66.42Z" style="fill: #fff;"/>
      <path d="m942.45,1643.82c0-54.63,39.69-98.64,93.14-98.64s92.75,42.05,92.75,95.11c0,4.72-.39,9.83-1.18,12.58h-149.34c3.93,33.8,28.69,58.95,64.45,58.95,21.22,0,40.09-8.25,52.66-20.83l18.47,23.97c-15.33,16.51-42.05,27.9-72.31,27.9-57.38,0-98.64-44.41-98.64-99.04Zm36.16-14.15h113.97c-5.5-34.98-27.12-54.63-56.59-54.63s-52.27,23.19-57.38,54.63Z" style="fill: #fff;"/>
      <path d="m1213.23,1738.14h-34.98v-188.25h34.98v23.58c10.22-17.29,26.33-28.3,47.16-28.3,11.79,0,22.01,2.75,28.69,8.25l-14.54,32.62c-6.29-4.32-15.33-7.47-24.37-7.47-22.79,0-36.94,19.65-36.94,51.09v108.47Z" style="fill: #fff;"/>
      <path d="m1569.29,1545.96c0,23.97-13.36,43.62-34.58,54.63,27.51,12.18,45.2,36.55,45.2,66.02,0,44.02-36.55,76.24-86.85,76.24s-86.07-32.23-86.07-76.24c0-29.48,18.08-53.84,45.98-66.02-21.62-10.61-34.98-30.65-34.98-54.63,0-37.34,31.83-64.45,75.06-64.45s76.24,27.12,76.24,64.45Zm-75.46,69.96c-29.87,0-51.88,20.83-51.88,48.34s22.01,48.73,51.88,48.73,51.09-20.83,51.09-48.73-21.62-48.34-51.09-48.34Zm0-104.54c-23.97,0-42.05,16.11-42.05,38.12s18.08,37.73,42.05,37.73,41.27-16.11,41.27-37.73-17.69-38.12-41.27-38.12Z" style="fill: #fff;"/>
      <path d="m1885.26,1549.89l-71.13,188.25h-45.2l-71.13-188.25h38.51l56.2,156.81,56.99-156.81h35.76Z" style="fill: #fff;"/>
      <path d="m2063.29,1708.66c-14.54,20.83-37.34,34.19-66.02,34.19-51.09,0-91.18-42.05-91.18-99.04s38.51-98.64,91.18-98.64c28.69,0,51.48,12.58,66.02,33.01v-28.3h34.98v188.25h-34.98v-29.48Zm0-64.85c0-36.94-25.55-66.02-60.92-66.02s-61.31,29.08-61.31,66.02,25.94,66.42,61.31,66.42,60.92-29.87,60.92-66.42Z" style="fill: #fff;"/>
      <path d="m2294.76,1686.65c0,31.83-26.33,56.2-73.49,56.2-34.58,0-60.52-12.18-75.46-30.65l20.44-22.79c12.97,15.72,32.62,25.15,57.38,25.15s36.55-11,36.55-27.12c0-42.84-106.5-23.19-106.5-90,0-27.51,23.97-52.27,67.99-52.27,32.23,0,56.99,10.61,69.95,29.08l-20.83,20.83c-12.58-15.72-27.9-21.62-48.34-21.62s-34.58,10.22-34.58,23.97c0,40.48,106.9,19.65,106.9,89.21Z" style="fill: #fff;"/>
      <path d="m2331.7,1643.82c0-54.63,42.05-98.64,95.89-98.64s96.29,44.02,96.29,98.64-42.05,99.04-96.29,99.04-95.89-44.41-95.89-99.04Zm157.2,0c0-36.94-25.55-66.02-60.92-66.02s-61.31,29.08-61.31,66.02,25.94,66.42,61.31,66.42,60.92-29.87,60.92-66.42Z" style="fill: #fff;"/>
      <path d="m2704.27,1686.65c0,31.83-26.33,56.2-73.49,56.2-34.58,0-60.52-12.18-75.46-30.65l20.44-22.79c12.97,15.72,32.62,25.15,57.38,25.15s36.55-11,36.55-27.12c0-42.84-106.5-23.19-106.5-90,0-27.51,23.97-52.27,67.99-52.27,32.23,0,56.99,10.61,69.95,29.08l-20.83,20.83c-12.58-15.72-27.9-21.62-48.34-21.62s-34.58,10.22-34.58,23.97c0,40.48,106.9,19.65,106.9,89.21Z" style="fill: #fff;"/>
      <path d="m3022.99,1467.75v270.39h-34.98v-29.48c-14.54,20.83-37.34,34.19-66.02,34.19-51.09,0-91.18-42.05-91.18-99.04s38.51-98.64,91.18-98.64c28.69,0,51.48,12.58,66.02,33.01v-110.43h34.98Zm-34.98,176.07c0-36.94-25.55-66.02-60.92-66.02s-61.31,29.08-61.31,66.02,25.94,66.42,61.31,66.42,60.92-29.87,60.92-66.42Z" style="fill: #fff;"/>
      <path d="m3076.83,1643.82c0-54.63,39.69-98.64,93.14-98.64s92.75,42.05,92.75,95.11c0,4.72-.39,9.83-1.18,12.58h-149.34c3.93,33.8,28.69,58.95,64.45,58.95,21.22,0,40.09-8.25,52.66-20.83l18.47,23.97c-15.33,16.51-42.05,27.9-72.31,27.9-57.38,0-98.64-44.41-98.64-99.04Zm36.16-14.15h113.97c-5.5-34.98-27.12-54.63-56.59-54.63s-52.27,23.19-57.38,54.63Z" style="fill: #fff;"/>
      <path d="m3545.68,1708.66c-14.54,20.83-37.34,34.19-66.02,34.19-51.09,0-91.18-42.05-91.18-99.04s38.51-98.64,91.18-98.64c28.69,0,51.48,12.58,66.02,33.01v-28.3h34.98v188.25h-34.98v-29.48Zm0-64.85c0-36.94-25.55-66.02-60.92-66.02s-61.31,29.08-61.31,66.02,25.94,66.42,61.31,66.42,60.92-29.87,60.92-66.42Z" style="fill: #fff;"/>
      <path d="m3727.64,1788.05c39.69,0,62.49-21.22,62.49-61.31v-22.4c-14.54,20.44-37.34,33.41-66.02,33.41-50.3,0-89.6-40.87-89.6-96.29s39.3-95.5,89.6-95.5c28.69,0,51.48,12.18,66.02,31.83v-27.9h34.58v174.89c0,69.56-44.02,95.11-95.11,95.11-34.58,0-62.09-8.65-80.17-23.97l17.69-27.51c12.58,9.43,33.41,19.65,60.52,19.65Zm62.49-146.98c0-34.98-25.15-63.27-60.13-63.27s-60.52,28.3-60.52,63.27,25.55,64.06,60.52,64.06,60.13-28.69,60.13-64.06Z" style="fill: #fff;"/>
      <path d="m3924.14,1654.04c0,33.01,19.26,55.02,48.34,55.02s49.13-22.01,49.13-55.02v-104.15h34.98v106.9c0,51.09-33.41,84.89-84.1,84.89s-83.32-33.8-83.32-84.89v-106.9h34.98v104.15Z" style="fill: #fff;"/>
      <path d="m4264.48,1708.66c-14.54,20.83-37.34,34.19-66.02,34.19-51.09,0-91.18-42.05-91.18-99.04s38.51-98.64,91.18-98.64c28.69,0,51.48,12.58,66.02,33.01v-28.3h34.98v188.25h-34.98v-29.48Zm0-64.85c0-36.94-25.55-66.02-60.92-66.02s-61.31,29.08-61.31,66.02,25.94,66.42,61.31,66.42,60.92-29.87,60.92-66.42Z" style="fill: #fff;"/>
      <path d="m4600.1,1708.66c-14.54,20.83-37.34,34.19-66.02,34.19-51.09,0-91.18-42.05-91.18-99.04s38.51-98.64,91.18-98.64c28.69,0,51.48,12.58,66.02,33.01v-28.3h34.98v188.25h-34.98v-29.48Zm0-64.85c0-36.94-25.55-66.02-60.92-66.02s-61.31,29.08-61.31,66.02,25.94,66.42,61.31,66.42,60.92-29.87,60.92-66.42Z" style="fill: #fff;"/>
      <path d="m4702.67,1467.75h34.98v270.39h-34.98v-270.39Z" style="fill: #fff;"/>
      <path d="m426.44,1939.35v270.39h-34.98v-29.48c-14.54,20.83-37.34,34.19-66.02,34.19-51.09,0-91.18-42.05-91.18-99.04s38.51-98.64,91.18-98.64c28.69,0,51.48,12.58,66.02,33.01v-110.43h34.98Zm-34.98,176.07c0-36.94-25.55-66.02-60.92-66.02s-61.31,29.08-61.31,66.02,25.94,66.42,61.31,66.42,60.92-29.87,60.92-66.42Z" style="fill: #fff;"/>
      <path d="m571.46,1939.35l-48.34,61.31h-31.83l38.51-61.31h41.66Zm-42.44,270.39h-34.98v-188.25h34.98v188.25Z" style="fill: #fff;"/>
      <path d="m739.66,2180.26c-14.54,20.83-37.34,34.19-66.02,34.19-51.09,0-91.18-42.05-91.18-99.04s38.51-98.64,91.18-98.64c28.69,0,51.48,12.58,66.02,33.01v-28.3h34.98v188.25h-34.98v-29.48Zm0-64.85c0-36.94-25.55-66.02-60.92-66.02s-61.31,29.08-61.31,66.02,25.94,66.42,61.31,66.42,60.92-29.87,60.92-66.42Z" style="fill: #fff;"/>
      <path d="m1075.29,2180.26c-14.54,20.83-37.34,34.19-66.02,34.19-51.09,0-91.18-42.05-91.18-99.04s38.51-98.64,91.18-98.64c28.69,0,51.48,12.58,66.02,33.01v-28.3h34.98v188.25h-34.98v-29.48Zm0-64.85c0-36.94-25.55-66.02-60.92-66.02s-61.31,29.08-61.31,66.02,25.94,66.42,61.31,66.42,60.92-29.87,60.92-66.42Z" style="fill: #fff;"/>
      <path d="m1250.96,2168.47l53.45-146.98h35.37l-81.35,218.9c-12.18,34.19-31.83,51.09-60.92,51.09-16.51,0-33.41-6.68-45.2-17.29l16.51-27.12c8.25,7.86,18.86,11.79,29.48,11.79,13.76,0,22.79-7.86,31.05-30.65l5.9-16.11-85.28-190.61h38.12l62.88,146.98Z" style="fill: #fff;"/>
      <path d="m1413.66,2125.63c0,33.01,19.26,55.02,48.34,55.02s49.13-22.01,49.13-55.02v-104.15h34.98v106.9c0,51.09-33.41,84.89-84.1,84.89s-83.32-33.8-83.32-84.89v-106.9h34.98v104.15Z" style="fill: #fff;"/>
      <path d="m1788.97,1939.35v270.39h-34.98v-29.48c-14.54,20.83-37.34,34.19-66.02,34.19-51.09,0-91.18-42.05-91.18-99.04s38.51-98.64,91.18-98.64c28.69,0,51.48,12.58,66.02,33.01v-110.43h34.98Zm-34.98,176.07c0-36.94-25.55-66.02-60.92-66.02s-61.31,29.08-61.31,66.02,25.94,66.42,61.31,66.42,60.92-29.87,60.92-66.42Z" style="fill: #fff;"/>
      <path d="m2000.01,2180.26c-14.54,20.83-37.34,34.19-66.02,34.19-51.09,0-91.18-42.05-91.18-99.04s38.51-98.64,91.18-98.64c28.69,0,51.48,12.58,66.02,33.01v-28.3h34.98v188.25h-34.98v-29.48Zm0-64.85c0-36.94-25.55-66.02-60.92-66.02s-61.31,29.08-61.31,66.02,25.94,66.42,61.31,66.42,60.92-29.87,60.92-66.42Z" style="fill: #fff;"/>
      <path d="m2335.64,2180.26c-14.54,20.83-37.34,34.19-66.02,34.19-51.09,0-91.18-42.05-91.18-99.04s38.51-98.64,91.18-98.64c28.69,0,51.48,12.58,66.02,33.01v-28.3h34.98v188.25h-34.98v-29.48Zm0-64.85c0-36.94-25.55-66.02-60.92-66.02s-61.31,29.08-61.31,66.02,25.94,66.42,61.31,66.42,60.92-29.87,60.92-66.42Z" style="fill: #fff;"/>
      <path d="m2527.81,1939.35h34.98v270.39h-34.98v-270.39Z" style="fill: #fff;"/>
      <path d="m2773.44,2180.26c-14.54,20.83-37.34,34.19-66.02,34.19-51.09,0-91.18-42.05-91.18-99.04s38.51-98.64,91.18-98.64c28.69,0,51.48,12.58,66.02,33.01v-28.3h34.98v188.25h-34.98v-29.48Zm0-64.85c0-36.94-25.55-66.02-60.92-66.02s-61.31,29.08-61.31,66.02,25.94,66.42,61.31,66.42,60.92-29.87,60.92-66.42Z" style="fill: #fff;"/>
      <path d="m3144.04,1939.35v270.39h-34.98v-29.48c-14.54,20.83-37.34,34.19-66.02,34.19-51.09,0-91.18-42.05-91.18-99.04s38.51-98.64,91.18-98.64c28.69,0,51.48,12.58,66.02,33.01v-110.43h34.98Zm-34.98,176.07c0-36.94-25.55-66.02-60.92-66.02s-61.31,29.08-61.31,66.02,25.94,66.42,61.31,66.42,60.92-29.87,60.92-66.42Z" style="fill: #fff;"/>
      <path d="m3207.31,1967.25c0-11.79,9.83-21.62,21.62-21.62s21.62,9.83,21.62,21.62-9.83,21.62-21.62,21.62-21.62-9.83-21.62-21.62Zm39.3,242.48h-34.98v-188.25h34.98v188.25Z" style="fill: #fff;"/>
      <path d="m3393.2,2259.65c39.69,0,62.49-21.22,62.49-61.31v-22.4c-14.54,20.44-37.34,33.41-66.02,33.41-50.3,0-89.6-40.87-89.6-96.29s39.3-95.5,89.6-95.5c28.69,0,51.48,12.18,66.02,31.83v-27.9h34.58v174.89c0,69.56-44.02,95.11-95.11,95.11-34.58,0-62.09-8.65-80.17-23.97l17.69-27.51c12.58,9.43,33.41,19.65,60.52,19.65Zm62.49-146.98c0-34.98-25.15-63.27-60.13-63.27s-60.52,28.3-60.52,63.27,25.55,64.06,60.52,64.06,60.13-28.69,60.13-64.06Z" style="fill: #fff;"/>
      <path d="m3544.11,2115.42c0-54.63,39.69-98.64,93.14-98.64s92.75,42.05,92.75,95.11c0,4.72-.39,9.83-1.18,12.58h-149.34c3.93,33.8,28.69,58.95,64.45,58.95,21.22,0,40.09-8.25,52.66-20.83l18.47,23.97c-15.33,16.51-42.05,27.9-72.31,27.9-57.38,0-98.64-44.41-98.64-99.04Zm36.16-14.15h113.97c-5.5-34.98-27.12-54.63-56.59-54.63s-52.27,23.19-57.38,54.63Z" style="fill: #fff;"/>
      <path d="m3906.46,2158.25c0,31.83-26.33,56.2-73.49,56.2-34.58,0-60.52-12.18-75.46-30.65l20.44-22.79c12.97,15.72,32.62,25.15,57.38,25.15s36.55-11,36.55-27.12c0-42.84-106.5-23.19-106.5-90,0-27.51,23.97-52.27,67.99-52.27,32.23,0,56.99,10.61,69.95,29.08l-20.83,20.83c-12.58-15.72-27.9-21.62-48.34-21.62s-34.58,10.22-34.58,23.97c0,40.48,106.9,19.65,106.9,89.21Z" style="fill: #fff;"/>
      <path d="m3935.93,2021.49h31.44v-46.77h34.58v46.77h53.45v31.05h-53.06v99.43c0,20.04,9.04,29.87,25.94,29.87,9.43,0,18.86-3.54,24.37-9.83l16.11,26.33c-8.65,8.65-24.37,16.11-45.2,16.11-35.37,0-56.59-20.83-56.59-61.31v-100.61h-31.05v-31.05Z" style="fill: #fff;"/>
      <path d="m4106.49,1967.25c0-11.79,9.83-21.62,21.62-21.62s21.62,9.83,21.62,21.62-9.83,21.62-21.62,21.62-21.62-9.83-21.62-21.62Zm39.3,242.48h-34.98v-188.25h34.98v188.25Z" style="fill: #fff;"/>
      <path d="m4199.24,2115.42c0-54.63,42.05-98.64,95.89-98.64s96.29,44.02,96.29,98.64-42.05,99.04-96.29,99.04-95.89-44.41-95.89-99.04Zm157.2,0c0-36.94-25.55-66.02-60.92-66.02s-61.31,29.08-61.31,66.02,25.94,66.42,61.31,66.42,60.92-29.87,60.92-66.42Zm-1.18-176.07l-48.34,61.31h-31.83l38.51-61.31h41.66Z" style="fill: #fff;"/>
      <path d="m4480.24,2209.74h-34.98v-188.25h34.98v23.19c11.79-17.69,31.83-27.9,56.59-27.9,44.41,0,73.1,30.26,73.1,77.82v115.15h-34.98v-109.65c0-31.05-18.08-50.7-47.55-50.7s-47.16,19.65-47.16,50.7v109.65Z" style="fill: #fff;"/>
      <path d="m4836.69,2168.47l53.45-146.98h35.37l-81.35,218.9c-12.18,34.19-31.83,51.09-60.92,51.09-16.51,0-33.41-6.68-45.2-17.29l16.51-27.12c8.25,7.86,18.86,11.79,29.48,11.79,13.75,0,22.79-7.86,31.05-30.65l5.9-16.11-85.28-190.61h38.12l62.88,146.98Z" style="fill: #fff;"/>
      <path d="m391.47,2651.86c-14.54,20.83-37.34,34.19-66.02,34.19-51.09,0-91.18-42.05-91.18-99.04s38.51-98.64,91.18-98.64c28.69,0,51.48,12.58,66.02,33.01v-28.3h34.98v188.25h-34.98v-29.48Zm0-64.85c0-36.94-25.55-66.02-60.92-66.02s-61.31,29.08-61.31,66.02,25.94,66.42,61.31,66.42,60.92-29.87,60.92-66.42Z" style="fill: #fff;"/>
      <path d="m618.62,2681.34h-34.98v-188.25h34.98v23.58c11.4-17.29,30.26-28.3,54.23-28.3,29.48,0,51.48,14.15,62.88,38.12,10.22-22.01,31.05-38.12,61.31-38.12,43.62,0,71.92,29.48,71.92,77.82v115.15h-34.98v-109.65c0-31.05-16.9-50.7-44.8-50.7s-45.59,19.65-45.59,50.7v109.65h-34.58v-109.65c0-31.05-17.29-50.7-45.2-50.7s-45.2,19.65-45.2,50.7v109.65Z" style="fill: #fff;"/>
      <path d="m1076.86,2651.86c-14.54,20.83-37.34,34.19-66.02,34.19-51.09,0-91.18-42.05-91.18-99.04s38.51-98.64,91.18-98.64c28.69,0,51.48,12.58,66.02,33.01v-28.3h34.98v188.25h-34.98v-29.48Zm0-64.85c0-36.94-25.55-66.02-60.92-66.02s-61.31,29.08-61.31,66.02,25.94,66.42,61.31,66.42,60.92-29.87,60.92-66.42Z" style="fill: #fff;"/>
      <path d="m1214.41,2681.34h-34.98v-188.25h34.98v23.19c11.79-17.69,31.83-27.9,56.59-27.9,44.41,0,73.1,30.26,73.1,77.82v115.15h-34.98v-109.65c0-31.05-18.08-50.7-47.55-50.7s-47.16,19.65-47.16,50.7v109.65Z" style="fill: #fff;"/>
      <path d="m1386.93,2493.09h31.44v-46.77h34.58v46.77h53.45v31.05h-53.06v99.43c0,20.04,9.04,29.87,25.94,29.87,9.43,0,18.86-3.54,24.37-9.83l16.11,26.33c-8.65,8.65-24.37,16.11-45.2,16.11-35.37,0-56.59-20.83-56.59-61.31v-100.61h-31.05v-31.05Z" style="fill: #fff;"/>
      <path d="m1537.84,2587.02c0-54.63,39.69-98.64,93.14-98.64s92.75,42.05,92.75,95.11c0,4.72-.39,9.83-1.18,12.58h-149.34c3.93,33.8,28.69,58.95,64.45,58.95,21.22,0,40.09-8.25,52.66-20.83l18.47,23.97c-15.33,16.51-42.05,27.9-72.31,27.9-57.38,0-98.64-44.41-98.64-99.04Zm36.16-14.15h113.97c-5.5-34.98-27.12-54.63-56.59-54.63s-52.27,23.19-57.38,54.63Z" style="fill: #fff;"/>
      <path d="m1808.62,2681.34h-34.98v-188.25h34.98v23.19c11.79-17.69,31.83-27.9,56.59-27.9,44.41,0,73.1,30.26,73.1,77.82v115.15h-34.98v-109.65c0-31.05-18.08-50.7-47.55-50.7s-47.16,19.65-47.16,50.7v109.65Z" style="fill: #fff;"/>
      <path d="m1988.61,2587.02c0-54.63,39.69-98.64,93.14-98.64s92.75,42.05,92.75,95.11c0,4.72-.39,9.83-1.18,12.58h-149.34c3.93,33.8,28.69,58.95,64.45,58.95,21.22,0,40.09-8.25,52.66-20.83l18.47,23.97c-15.33,16.51-42.05,27.9-72.31,27.9-57.38,0-98.64-44.41-98.64-99.04Zm36.16-14.15h113.97c-5.5-34.98-27.12-54.63-56.59-54.63s-52.27,23.19-57.38,54.63Z" style="fill: #fff;"/>
      <path d="m2259.39,2681.34h-34.98v-188.25h34.98v23.58c10.22-17.29,26.33-28.3,47.16-28.3,11.79,0,22.01,2.75,28.69,8.25l-14.54,32.62c-6.29-4.32-15.33-7.47-24.37-7.47-22.79,0-36.94,19.65-36.94,51.09v108.47Z" style="fill: #fff;"/>
      <path d="m2356.07,2493.09h31.44v-46.77h34.58v46.77h53.45v31.05h-53.06v99.43c0,20.04,9.04,29.87,25.94,29.87,9.43,0,18.86-3.54,24.37-9.83l16.11,26.33c-8.65,8.65-24.37,16.11-45.2,16.11-35.37,0-56.59-20.83-56.59-61.31v-100.61h-31.05v-31.05Z" style="fill: #fff;"/>
      <path d="m2506.98,2587.02c0-54.63,39.69-98.64,93.14-98.64s92.75,42.05,92.75,95.11c0,4.72-.39,9.83-1.18,12.58h-149.34c3.93,33.8,28.69,58.95,64.45,58.95,21.22,0,40.09-8.25,52.66-20.83l18.47,23.97c-15.33,16.51-42.05,27.9-72.31,27.9-57.38,0-98.64-44.41-98.64-99.04Zm36.16-14.15h113.97c-5.5-34.98-27.12-54.63-56.59-54.63s-52.27,23.19-57.38,54.63Z" style="fill: #fff;"/>
      <path d="m2867.36,2681.34h-34.98v-270.39h34.98v105.33c11.79-17.69,31.83-27.9,56.59-27.9,44.41,0,73.1,30.26,73.1,77.82v115.15h-34.98v-109.65c0-31.05-18.08-50.7-47.55-50.7s-47.16,19.65-47.16,50.7v109.65Z" style="fill: #fff;"/>
      <path d="m3056.79,2438.85c0-11.79,9.83-21.62,21.62-21.62s21.62,9.83,21.62,21.62-9.83,21.62-21.62,21.62-21.62-9.83-21.62-21.62Zm39.3,242.48h-34.98v-188.25h34.98v188.25Z" style="fill: #fff;"/>
      <path d="m3341.72,2410.95v270.39h-34.98v-29.48c-14.54,20.83-37.34,34.19-66.02,34.19-51.09,0-91.18-42.05-91.18-99.04s38.51-98.64,91.18-98.64c28.69,0,51.48,12.58,66.02,33.01v-110.43h34.98Zm-34.98,176.07c0-36.94-25.55-66.02-60.92-66.02s-61.31,29.08-61.31,66.02,25.94,66.42,61.31,66.42,60.92-29.87,60.92-66.42Z" style="fill: #fff;"/>
      <path d="m3444.29,2681.34h-34.98v-188.25h34.98v23.58c10.22-17.29,26.33-28.3,47.16-28.3,11.79,0,22.01,2.75,28.69,8.25l-14.54,32.62c-6.29-4.32-15.33-7.47-24.37-7.47-22.79,0-36.94,19.65-36.94,51.09v108.47Z" style="fill: #fff;"/>
      <path d="m3689.91,2651.86c-14.54,20.83-37.34,34.19-66.02,34.19-51.09,0-91.18-42.05-91.18-99.04s38.51-98.64,91.18-98.64c28.69,0,51.48,12.58,66.02,33.01v-28.3h34.98v188.25h-34.98v-29.48Zm0-64.85c0-36.94-25.55-66.02-60.92-66.02s-61.31,29.08-61.31,66.02,25.94,66.42,61.31,66.42,60.92-29.87,60.92-66.42Z" style="fill: #fff;"/>
      <path d="m3771.26,2493.09h31.44v-46.77h34.58v46.77h53.45v31.05h-53.06v99.43c0,20.04,9.04,29.87,25.94,29.87,9.43,0,18.86-3.54,24.37-9.83l16.11,26.33c-8.65,8.65-24.37,16.11-45.2,16.11-35.37,0-56.59-20.83-56.59-61.31v-100.61h-31.05v-31.05Z" style="fill: #fff;"/>
      <path d="m4079.38,2651.86c-14.54,20.83-37.34,34.19-66.02,34.19-51.09,0-91.18-42.05-91.18-99.04s38.51-98.64,91.18-98.64c28.69,0,51.48,12.58,66.02,33.01v-28.3h34.98v188.25h-34.98v-29.48Zm0-64.85c0-36.94-25.55-66.02-60.92-66.02s-61.31,29.08-61.31,66.02,25.94,66.42,61.31,66.42,60.92-29.87,60.92-66.42Z" style="fill: #fff;"/>
      <path d="m4360.37,2410.95v270.39h-34.98v-29.48c-14.54,20.83-37.34,34.19-66.02,34.19-51.09,0-91.18-42.05-91.18-99.04s38.51-98.64,91.18-98.64c28.69,0,51.48,12.58,66.02,33.01v-110.43h34.98Zm-34.98,176.07c0-36.94-25.55-66.02-60.92-66.02s-61.31,29.08-61.31,66.02,25.94,66.42,61.31,66.42,60.92-29.87,60.92-66.42Z" style="fill: #fff;"/>
      <path d="m4414.21,2587.02c0-54.63,42.05-98.64,95.89-98.64s96.29,44.02,96.29,98.64-42.05,99.04-96.29,99.04-95.89-44.41-95.89-99.04Zm157.2,0c0-36.94-25.55-66.02-60.92-66.02s-61.31,29.08-61.31,66.02,25.94,66.42,61.31,66.42,60.92-29.87,60.92-66.42Z" style="fill: #fff;"/>
      <path d="m4636.26,2660.9c0-13.36,11-24.76,23.97-24.76,13.76,0,24.76,11.4,24.76,24.76s-11,23.97-24.76,23.97c-12.97,0-23.97-10.61-23.97-23.97Z" style="fill: #fff;"/>
    </g>
    <g id="botonx">
      <path d="m4694.15,257.65l5.34,5.34c4.81,4.81,9.61,9.61,14.42,14.42,7.12,7.12,14.25,14.25,21.37,21.37l26.07,26.07,28.47,28.47c9.61,9.61,19.21,19.21,28.82,28.82,8.96,8.96,17.91,17.91,26.87,26.87,7.55,7.55,15.09,15.09,22.64,22.64,5.46,5.46,10.92,10.92,16.37,16.37,2.57,2.57,5.12,5.14,7.7,7.7.11.11.22.22.33.33,3.81,3.81,9.46,6.15,14.85,6.15,2.89.11,5.59-.49,8.09-1.81,2.6-.85,4.86-2.29,6.76-4.34,3.67-4,6.4-9.26,6.15-14.85s-2.13-10.83-6.15-14.85l-5.34-5.34c-4.81-4.81-9.61-9.61-14.42-14.42-7.12-7.12-14.25-14.25-21.37-21.37l-26.07-26.07c-9.49-9.49-18.98-18.98-28.47-28.47s-19.21-19.21-28.82-28.82c-8.96-8.96-17.91-17.91-26.87-26.87-7.55-7.55-15.09-15.09-22.64-22.64-5.46-5.46-10.92-10.92-16.37-16.37-2.57-2.57-5.12-5.14-7.7-7.7-.11-.11-.22-.22-.33-.33-3.81-3.81-9.46-6.15-14.85-6.15-2.89-.11-5.59.49-8.09,1.81-2.6.85-4.86,2.29-6.76,4.34-3.67,4-6.4,9.26-6.15,14.85s2.13,10.83,6.15,14.85h0Z" style="fill: #fff;"/>
      <path d="m4892.56,227.95l-5.34,5.34c-4.81,4.81-9.61,9.61-14.42,14.42-7.12,7.12-14.25,14.25-21.37,21.37-8.69,8.69-17.38,17.38-26.07,26.07-9.49,9.49-18.98,18.98-28.47,28.47s-19.21,19.21-28.82,28.82c-8.96,8.96-17.91,17.91-26.87,26.87-7.55,7.55-15.09,15.09-22.64,22.64-5.46,5.46-10.92,10.92-16.37,16.37-2.57,2.57-5.14,5.12-7.7,7.7-.11.11-.22.22-.33.33-3.81,3.81-6.15,9.46-6.15,14.85-.11,2.89.49,5.59,1.81,8.09.85,2.6,2.29,4.86,4.34,6.76,4,3.67,9.26,6.4,14.85,6.15s10.83-2.13,14.85-6.15l5.34-5.34c4.81-4.81,9.61-9.61,14.42-14.42,7.12-7.12,14.25-14.25,21.37-21.37,8.69-8.69,17.38-17.38,26.07-26.07,9.49-9.49,18.98-18.98,28.47-28.47s19.21-19.21,28.82-28.82c8.96-8.96,17.91-17.91,26.87-26.87,7.55-7.55,15.09-15.09,22.64-22.64,5.46-5.46,10.92-10.92,16.37-16.37,2.57-2.57,5.14-5.12,7.7-7.7.11-.11.22-.22.33-.33,3.81-3.81,6.15-9.46,6.15-14.85.11-2.89-.49-5.59-1.81-8.09-.85-2.6-2.29-4.86-4.34-6.76-4-3.67-9.26-6.4-14.85-6.15s-10.83,2.13-14.85,6.15h0Z" style="fill: #fff;"/>
    </g>
  </g>
</svg>