<?xml version="1.0" encoding="UTF-8"?>
<svg id="Capa_2" data-name="Capa 2" xmlns="http://www.w3.org/2000/svg" xmlns:xlink="http://www.w3.org/1999/xlink" viewBox="0 0 5217 4610">
  <defs>
    <linearGradient id="Degradado_sin_nombre_50" data-name="Degradado sin nombre 50" x1="0" y1="2502.5" x2="5217" y2="2502.5" gradientUnits="userSpaceOnUse">
      <stop offset="0" stop-color="#e4006c"/>
      <stop offset=".39" stop-color="#e84471"/>
      <stop offset=".72" stop-color="#f5a65b"/>
      <stop offset=".93" stop-color="#f49d00"/>
    </linearGradient>
    <clipPath id="clippath">
      <rect x="29" y="424" width="5159" height="4157" rx="244.06" ry="244.06" style="fill: none; stroke: url(#Degradado_sin_nombre_50); stroke-miterlimit: 10; stroke-width: 58px;"/>
    </clipPath>
  </defs>
  <g id="mensajeAgua">
    <g>
      <path d="m4395.31,0h414.38c100.62,0,182.31,81.69,182.31,182.31v225.69h-779v-225.69c0-100.62,81.69-182.31,182.31-182.31Z" style="fill: #f49d00;"/>
      <g>
        <path d="m4444.03,110.81l1.76,1.76,5.03,5.03c2.67,2.67,5.33,5.33,8,8,3.51,3.51,7.02,7.02,10.53,10.53,4.25,4.25,8.49,8.49,12.74,12.74,4.87,4.87,9.73,9.73,14.6,14.6,5.37,5.37,10.73,10.73,16.1,16.1,5.75,5.75,11.5,11.5,17.25,17.25l18.13,18.13,18.49,18.49c6.19,6.19,12.38,12.38,18.57,18.57s12.2,12.2,18.31,18.31,11.79,11.79,17.68,17.68c5.57,5.57,11.14,11.14,16.71,16.71,5.15,5.15,10.3,10.3,15.45,15.45,4.56,4.56,9.12,9.12,13.68,13.68,3.88,3.88,7.76,7.76,11.64,11.64,3.08,3.08,6.17,6.17,9.25,9.25,2.17,2.17,4.33,4.33,6.5,6.5l3.41,3.41.42.42c2.44,2.63,5.33,4.49,8.67,5.57,3.21,1.69,6.67,2.46,10.38,2.32,3.71.14,7.17-.63,10.38-2.32,3.34-1.09,6.23-2.94,8.67-5.57l4.21-5.45c2.44-4.2,3.66-8.74,3.68-13.6l-.96-7.16c-1.28-4.57-3.59-8.53-6.93-11.89l-1.76-1.76-5.03-5.03c-2.67-2.67-5.33-5.33-8-8-3.51-3.51-7.02-7.02-10.53-10.53-4.25-4.25-8.49-8.49-12.74-12.74-4.87-4.87-9.73-9.73-14.6-14.6l-16.1-16.1c-5.75-5.75-11.5-11.5-17.25-17.25-6.04-6.04-12.09-12.09-18.13-18.13s-12.33-12.33-18.49-18.49c-6.19-6.19-12.38-12.38-18.57-18.57s-12.2-12.2-18.31-18.31c-5.89-5.89-11.79-11.79-17.68-17.68-5.57-5.57-11.14-11.14-16.71-16.71-5.15-5.15-10.3-10.3-15.45-15.45-4.56-4.56-9.12-9.12-13.68-13.68-3.88-3.88-7.76-7.76-11.64-11.64-3.08-3.08-6.17-6.17-9.25-9.25l-6.5-6.5-3.41-3.41-.42-.42c-2.44-2.63-5.33-4.49-8.67-5.57-3.21-1.69-6.67-2.46-10.38-2.32-3.71-.14-7.17.63-10.38,2.32-3.34,1.09-6.23,2.94-8.67,5.57l-4.21,5.45c-2.44,4.2-3.66,8.74-3.68,13.6l.96,7.16c1.28,4.57,3.59,8.53,6.93,11.89h0Z" style="fill: #fff;"/>
        <path d="m4698.28,72.7l-1.76,1.76-5.03,5.03c-2.67,2.67-5.33,5.33-8,8-3.51,3.51-7.02,7.02-10.53,10.53-4.25,4.25-8.49,8.49-12.74,12.74-4.87,4.87-9.73,9.73-14.6,14.6-5.37,5.37-10.73,10.73-16.1,16.1-5.75,5.75-11.5,11.5-17.25,17.25-6.04,6.04-12.09,12.09-18.13,18.13s-12.33,12.33-18.49,18.49-12.38,12.38-18.57,18.57-12.2,12.2-18.31,18.31c-5.89,5.89-11.79,11.79-17.68,17.68-5.57,5.57-11.14,11.14-16.71,16.71-5.15,5.15-10.3,10.3-15.45,15.45l-13.68,13.68c-3.88,3.88-7.76,7.76-11.64,11.64-3.08,3.08-6.17,6.17-9.25,9.25l-6.5,6.5-3.41,3.41-.42.42c-2.63,2.44-4.49,5.33-5.57,8.67-1.69,3.21-2.46,6.67-2.32,10.38-.14,3.71.63,7.17,2.32,10.38,1.09,3.34,2.94,6.23,5.57,8.67l5.45,4.21c4.2,2.44,8.74,3.66,13.6,3.68l7.16-.96c4.57-1.28,8.53-3.59,11.89-6.93l1.76-1.76,5.03-5.03c2.67-2.67,5.33-5.33,8-8,3.51-3.51,7.02-7.02,10.53-10.53,4.25-4.25,8.49-8.49,12.74-12.74,4.87-4.87,9.73-9.73,14.6-14.6,5.37-5.37,10.73-10.73,16.1-16.1,5.75-5.75,11.5-11.5,17.25-17.25,6.04-6.04,12.09-12.09,18.13-18.13s12.33-12.33,18.49-18.49c6.19-6.19,12.38-12.38,18.57-18.57s12.2-12.2,18.31-18.31c5.89-5.89,11.79-11.79,17.68-17.68,5.57-5.57,11.14-11.14,16.71-16.71,5.15-5.15,10.3-10.3,15.45-15.45,4.56-4.56,9.12-9.12,13.68-13.68,3.88-3.88,7.76-7.76,11.64-11.64,3.08-3.08,6.17-6.17,9.25-9.25,2.17-2.17,4.33-4.33,6.5-6.5l3.41-3.41.42-.42c2.63-2.44,4.49-5.33,5.57-8.67,1.69-3.21,2.46-6.67,2.32-10.38.14-3.71-.63-7.17-2.32-10.38-1.09-3.34-2.94-6.23-5.57-8.67l-5.45-4.21c-4.2-2.44-8.74-3.66-13.6-3.68-2.39.32-4.78.64-7.16.96-4.57,1.28-8.53,3.59-11.89,6.93h0Z" style="fill: #fff;"/>
      </g>
    </g>
    <g>
      <g style="clip-path: url(#clippath); fill: none;">
        <g id="LINEAS_FONDO" data-name="LINEAS FONDO">
          <g id="CRUZES_FONDO" data-name="CRUZES FONDO">
            <rect x="31" y="-931.96" width="5153.36" height="6868.92" style="fill: #73417f;"/>
            <polygon points="4377.18 -751.92 4023.89 -398.63 4196.3 -226.23 4023.89 -53.82 4377.18 299.47 4549.59 127.06 4721.99 299.47 5075.28 -53.82 4902.88 -226.23 5075.28 -398.63 4721.99 -751.92 4549.59 -579.52 4377.18 -751.92" style="fill: #694472; opacity: .29;"/>
            <polygon points="555.38 -751.92 202.09 -398.63 374.5 -226.23 202.09 -53.82 555.38 299.47 727.79 127.06 900.19 299.47 1253.48 -53.82 1081.08 -226.23 1253.48 -398.63 900.19 -751.92 727.79 -579.52 555.38 -751.92" style="fill: #694472; opacity: .29;"/>
          </g>
          <g style="fill: none; opacity: .29;">
            <path d="m5188,973.58c-1711.09-777.98-3422.17,777.98-5133.26,0,0-41.1,0-82.21,0-123.31,1711.09,777.98,3422.17-777.99,5133.26,0v123.31Z" style="fill: #8e6299;"/>
            <path d="m5188,973.58c-1711.09-777.98-3422.17,777.98-5133.26,0,0-41.1,0-82.21,0-123.31,1711.09,777.98,3422.17-777.99,5133.26,0v123.31Z" style="fill: none; stroke: #8e6299; stroke-miterlimit: 10; stroke-width: 53.61px;"/>
          </g>
          <g style="fill: none; opacity: .29;">
            <path d="m5188,1496.51c-1711.09-777.99-3422.17,777.98-5133.26,0,0-41.1,0-82.2,0-123.31,1711.09,777.98,3422.17-777.98,5133.26,0v123.31Z" style="fill: #8e6299;"/>
            <path d="m5188,1496.51c-1711.09-777.99-3422.17,777.98-5133.26,0,0-41.1,0-82.2,0-123.31,1711.09,777.98,3422.17-777.98,5133.26,0v123.31Z" style="fill: none; stroke: #8e6299; stroke-miterlimit: 10; stroke-width: 53.61px;"/>
          </g>
          <g style="fill: none; opacity: .29;">
            <path d="m5188,3065.3c-1711.09-777.98-3422.17,777.98-5133.26,0,0-41.1,0-82.21,0-123.31,1711.09,777.98,3422.17-777.98,5133.26,0v123.31Z" style="fill: #8e6299;"/>
            <path d="m5188,3065.3c-1711.09-777.98-3422.17,777.98-5133.26,0,0-41.1,0-82.21,0-123.31,1711.09,777.98,3422.17-777.98,5133.26,0v123.31Z" style="fill: none; stroke: #8e6299; stroke-miterlimit: 10; stroke-width: 53.61px;"/>
          </g>
          <g style="fill: none; opacity: .29;">
            <path d="m5188,2019.44c-1711.09-777.98-3422.17,777.98-5133.26,0,0-41.1,0-82.2,0-123.31,1711.09,777.98,3422.17-777.98,5133.26,0v123.31Z" style="fill: #8e6299;"/>
            <path d="m5188,2019.44c-1711.09-777.98-3422.17,777.98-5133.26,0,0-41.1,0-82.2,0-123.31,1711.09,777.98,3422.17-777.98,5133.26,0v123.31Z" style="fill: none; stroke: #8e6299; stroke-miterlimit: 10; stroke-width: 53.61px;"/>
          </g>
          <g style="fill: none; opacity: .29;">
            <path d="m5188,2542.37c-1711.09-777.98-3422.17,777.98-5133.26,0,0-41.1,0-82.2,0-123.31,1711.09,777.98,3422.17-777.98,5133.26,0v123.31Z" style="fill: #8e6299;"/>
            <path d="m5188,2542.37c-1711.09-777.98-3422.17,777.98-5133.26,0,0-41.1,0-82.2,0-123.31,1711.09,777.98,3422.17-777.98,5133.26,0v123.31Z" style="fill: none; stroke: #8e6299; stroke-miterlimit: 10; stroke-width: 53.61px;"/>
          </g>
          <g style="fill: none; opacity: .29;">
            <path d="m5188,4111.17c-1711.09-777.98-3422.17,777.98-5133.26,0,0-41.1,0-82.21,0-123.31,1711.09,777.98,3422.17-777.98,5133.26,0v123.31Z" style="fill: #8e6299;"/>
            <path d="m5188,4111.17c-1711.09-777.98-3422.17,777.98-5133.26,0,0-41.1,0-82.21,0-123.31,1711.09,777.98,3422.17-777.98,5133.26,0v123.31Z" style="fill: none; stroke: #8e6299; stroke-miterlimit: 10; stroke-width: 53.61px;"/>
          </g>
          <g style="fill: none; opacity: .29;">
            <path d="m5188,3588.24c-1711.09-777.98-3422.17,777.98-5133.26,0,0-41.1,0-82.21,0-123.31,1711.09,777.98,3422.17-777.98,5133.26,0v123.31Z" style="fill: #8e6299;"/>
            <path d="m5188,3588.24c-1711.09-777.98-3422.17,777.98-5133.26,0,0-41.1,0-82.21,0-123.31,1711.09,777.98,3422.17-777.98,5133.26,0v123.31Z" style="fill: none; stroke: #8e6299; stroke-miterlimit: 10; stroke-width: 53.61px;"/>
          </g>
        </g>
        <text transform="translate(243.22 2162.14)" style="font-family: Volte-Medium, Volte; font-size: 393px; font-weight: 500;"><tspan x="0" y="0" style="fill: #ff0049;">B</tspan><tspan x="240.12" y="0" style="fill: #fff;">eber 8 vasos de agua al </tspan><tspan style="fill: #fff;"><tspan x="0" y="471.6">día ayuda a la digestión y </tspan></tspan><tspan style="fill: #fff;"><tspan x="0" y="943.2">a mantenerte hidratado.</tspan></tspan></text>
      </g>
      <rect x="29" y="424" width="5159" height="4157" rx="244.06" ry="244.06" style="fill: none; stroke: url(#Degradado_sin_nombre_50); stroke-miterlimit: 10; stroke-width: 58px;"/>
    </g>
  </g>
</svg>