<?xml version="1.0" encoding="UTF-8"?>
<svg id="Capa_2" data-name="Capa 2" xmlns="http://www.w3.org/2000/svg" xmlns:xlink="http://www.w3.org/1999/xlink" viewBox="0 0 5159 4157">
  <defs>
    <linearGradient id="Degradado_sin_nombre_1839" data-name="Degradado sin nombre 1839" x1="4061.82" y1="-488.95" x2="1097.18" y2="4645.95" gradientUnits="userSpaceOnUse">
      <stop offset="0" stop-color="#8500ff"/>
      <stop offset=".18" stop-color="#920aff"/>
      <stop offset=".5" stop-color="#b525ff"/>
      <stop offset=".95" stop-color="#ed52ff"/>
      <stop offset="1" stop-color="#f558ff"/>
    </linearGradient>
  </defs>
  <g id="mensaje_fondo_3">
    <rect width="5159" height="4157" rx="342.06" ry="342.06" style="fill: url(#Degradado_sin_nombre_1839);"/>
    <g>
      <path d="m255.53,1239.99h157.92v32.98h-123v74.5h107.48v32.98h-107.48v75.27h123v32.98h-157.92v-248.71Z" style="fill: #fff;"/>
      <path d="m463.88,1221.75h34.53v266.94h-34.53v-266.94Z" style="fill: #fff;"/>
      <path d="m687.76,1302.85v28.32c14.36-20.18,36.86-32.98,64.8-32.98,50.44,0,90.4,41.52,90.4,97.78s-38.41,97.39-90.4,97.39c-27.94,0-50.44-12.03-64.8-31.82v103.21h-34.53v-261.9h34.53Zm0,93.12c0,36.47,25.22,65.18,60.53,65.18s60.14-28.71,60.14-65.18-25.22-65.57-60.14-65.57-60.53,29.49-60.53,65.57Z" style="fill: #fff;"/>
      <path d="m882.54,1395.58c0-53.93,39.19-97.39,91.96-97.39s91.57,41.52,91.57,93.9c0,4.66-.39,9.7-1.16,12.42h-147.44c3.88,33.37,28.32,58.2,63.63,58.2,20.95,0,39.58-8.15,51.99-20.56l18.24,23.67c-15.13,16.3-41.52,27.55-71.39,27.55-56.65,0-97.39-43.84-97.39-97.78Zm35.7-13.97h112.52c-5.43-34.53-26.77-53.93-55.87-53.93s-51.6,22.89-56.65,53.93Z" style="fill: #fff;"/>
      <path d="m1240.27,1437.87c0,31.43-26,55.48-72.56,55.48-34.14,0-59.75-12.03-74.5-30.26l20.18-22.5c12.8,15.52,32.2,24.83,56.65,24.83s36.08-10.86,36.08-26.77c0-42.29-105.15-22.89-105.15-88.85,0-27.16,23.67-51.6,67.12-51.6,31.82,0,56.26,10.48,69.06,28.71l-20.56,20.56c-12.42-15.52-27.55-21.34-47.72-21.34s-34.14,10.09-34.14,23.67c0,39.96,105.54,19.4,105.54,88.08Z" style="fill: #fff;"/>
      <path d="m1373.74,1330.39c-36.86,0-62.47,28.71-62.47,65.18s25.61,65.57,62.08,65.57c20.18,0,37.64-6.6,50.05-19.01l17.85,25.22c-14.74,15.91-40.74,26-69.06,26-54.32,0-95.45-43.84-95.45-97.78s41.52-97.39,95.84-97.39c29.88,0,54.32,10.09,69.84,26l-19.79,24.44c-12.42-11.64-28.71-18.24-48.89-18.24Z" style="fill: #fff;"/>
      <path d="m1620.51,1459.6c-14.36,20.56-36.86,33.76-65.18,33.76-50.44,0-90.02-41.52-90.02-97.78s38.02-97.39,90.02-97.39c28.32,0,50.83,12.42,65.18,32.59v-27.94h34.53v185.85h-34.53v-29.1Zm0-64.02c0-36.47-25.22-65.18-60.14-65.18s-60.53,28.71-60.53,65.18,25.61,65.57,60.53,65.57,60.14-29.49,60.14-65.57Z" style="fill: #fff;"/>
      <path d="m1897.93,1221.75v266.94h-34.53v-29.1c-14.36,20.56-36.86,33.76-65.18,33.76-50.44,0-90.02-41.52-90.02-97.78s38.02-97.39,90.02-97.39c28.32,0,50.83,12.42,65.18,32.59v-109.03h34.53Zm-34.53,173.82c0-36.47-25.22-65.18-60.14-65.18s-60.53,28.71-60.53,65.18,25.61,65.57,60.53,65.57,60.14-29.49,60.14-65.57Z" style="fill: #fff;"/>
      <path d="m1951.09,1395.58c0-53.93,41.52-97.39,94.67-97.39s95.06,43.46,95.06,97.39-41.52,97.78-95.06,97.78-94.67-43.84-94.67-97.78Zm155.2,0c0-36.47-25.22-65.18-60.14-65.18s-60.53,28.71-60.53,65.18,25.61,65.57,60.53,65.57,60.14-29.49,60.14-65.57Z" style="fill: #fff;"/>
      <path d="m2184.28,1534.87h-28.71l20.56-88.08h38.8l-30.65,88.08Z" style="fill: #fff;"/>
      <path d="m2353.83,1221.75h34.53v266.94h-34.53v-266.94Z" style="fill: #fff;"/>
      <path d="m2596.33,1459.6c-14.36,20.56-36.86,33.76-65.18,33.76-50.44,0-90.02-41.52-90.02-97.78s38.02-97.39,90.02-97.39c28.32,0,50.83,12.42,65.18,32.59v-27.94h34.53v185.85h-34.53v-29.1Zm0-64.02c0-36.47-25.22-65.18-60.14-65.18s-60.53,28.71-60.53,65.18,25.61,65.57,60.53,65.57,60.14-29.49,60.14-65.57Z" style="fill: #fff;"/>
      <path d="m2824.86,1437.87c0,31.43-26,55.48-72.56,55.48-34.14,0-59.75-12.03-74.5-30.26l20.18-22.5c12.8,15.52,32.2,24.83,56.65,24.83s36.08-10.86,36.08-26.77c0-42.29-105.15-22.89-105.15-88.85,0-27.16,23.67-51.6,67.12-51.6,31.82,0,56.26,10.48,69.06,28.71l-20.56,20.56c-12.42-15.52-27.55-21.34-47.72-21.34s-34.14,10.09-34.14,23.67c0,39.96,105.54,19.4,105.54,88.08Z" style="fill: #fff;"/>
      <path d="m3090.64,1437.87c0,31.43-26,55.48-72.56,55.48-34.14,0-59.75-12.03-74.5-30.26l20.18-22.5c12.8,15.52,32.2,24.83,56.65,24.83s36.08-10.86,36.08-26.77c0-42.29-105.15-22.89-105.15-88.85,0-27.16,23.67-51.6,67.12-51.6,31.82,0,56.26,10.48,69.06,28.71l-20.56,20.56c-12.42-15.52-27.55-21.34-47.72-21.34s-34.14,10.09-34.14,23.67c0,39.96,105.54,19.4,105.54,88.08Z" style="fill: #fff;"/>
      <path d="m3127.12,1395.58c0-53.93,39.19-97.39,91.96-97.39s91.57,41.52,91.57,93.9c0,4.66-.39,9.7-1.16,12.42h-147.44c3.88,33.37,28.32,58.2,63.63,58.2,20.95,0,39.58-8.15,51.99-20.56l18.24,23.67c-15.13,16.3-41.52,27.55-71.39,27.55-56.65,0-97.39-43.84-97.39-97.78Zm35.7-13.97h112.52c-5.43-34.53-26.77-53.93-55.87-53.93s-51.6,22.89-56.65,53.93Z" style="fill: #fff;"/>
      <path d="m3394.45,1488.7h-34.53v-185.85h34.53v23.28c11.25-17.07,29.88-27.94,53.54-27.94,29.1,0,50.83,13.97,62.08,37.64,10.09-21.73,30.65-37.64,60.53-37.64,43.07,0,71,29.1,71,76.82v113.68h-34.53v-108.25c0-30.65-16.68-50.05-44.23-50.05s-45.01,19.4-45.01,50.05v108.25h-34.14v-108.25c0-30.65-17.07-50.05-44.62-50.05s-44.62,19.4-44.62,50.05v108.25Z" style="fill: #fff;"/>
      <path d="m3700.97,1249.3c0-11.64,9.7-21.34,21.34-21.34s21.34,9.7,21.34,21.34-9.7,21.34-21.34,21.34-21.34-9.7-21.34-21.34Zm38.8,239.4h-34.53v-185.85h34.53v185.85Z" style="fill: #fff;"/>
      <path d="m3806.12,1221.75h34.53v266.94h-34.53v-266.94Z" style="fill: #fff;"/>
      <path d="m3907,1221.75h34.53v266.94h-34.53v-266.94Z" style="fill: #fff;"/>
      <path d="m4149.5,1459.6c-14.36,20.56-36.86,33.76-65.18,33.76-50.44,0-90.02-41.52-90.02-97.78s38.02-97.39,90.02-97.39c28.32,0,50.83,12.42,65.18,32.59v-27.94h34.53v185.85h-34.53v-29.1Zm0-64.02c0-36.47-25.22-65.18-60.14-65.18s-60.53,28.71-60.53,65.18,25.61,65.57,60.53,65.57,60.14-29.49,60.14-65.57Z" style="fill: #fff;"/>
      <path d="m4378.03,1437.87c0,31.43-26,55.48-72.56,55.48-34.14,0-59.75-12.03-74.5-30.26l20.18-22.5c12.8,15.52,32.2,24.83,56.65,24.83s36.08-10.86,36.08-26.77c0-42.29-105.15-22.89-105.15-88.85,0-27.16,23.67-51.6,67.12-51.6,31.82,0,56.26,10.48,69.06,28.71l-20.56,20.56c-12.42-15.52-27.55-21.34-47.72-21.34s-34.14,10.09-34.14,23.67c0,39.96,105.54,19.4,105.54,88.08Z" style="fill: #fff;"/>
      <path d="m4588.71,1447.96l52.77-145.11h34.92l-80.32,216.12c-12.03,33.76-31.43,50.44-60.14,50.44-16.3,0-32.98-6.6-44.62-17.07l16.3-26.77c8.15,7.76,18.62,11.64,29.1,11.64,13.58,0,22.5-7.76,30.65-30.26l5.82-15.91-84.2-188.18h37.64l62.08,145.11Z" style="fill: #fff;"/>
      <path d="m240.01,1861.18c0-53.93,39.19-97.39,91.96-97.39s91.57,41.52,91.57,93.9c0,4.66-.39,9.7-1.16,12.42h-147.44c3.88,33.37,28.32,58.2,63.63,58.2,20.95,0,39.58-8.15,51.99-20.56l18.24,23.67c-15.13,16.3-41.52,27.55-71.39,27.55-56.65,0-97.39-43.84-97.39-97.78Zm35.7-13.97h112.52c-5.43-34.53-26.77-53.93-55.87-53.93s-51.6,22.89-56.65,53.93Z" style="fill: #fff;"/>
      <path d="m472.81,1687.35h34.53v266.94h-34.53v-266.94Z" style="fill: #fff;"/>
      <path d="m803.77,1925.2c-14.36,20.56-36.86,33.76-65.18,33.76-50.44,0-90.02-41.52-90.02-97.78s38.02-97.39,90.02-97.39c28.32,0,50.83,12.42,65.18,32.59v-27.94h34.53v185.85h-34.53v-29.1Zm0-64.02c0-36.47-25.22-65.18-60.14-65.18s-60.53,28.71-60.53,65.18,25.61,65.57,60.53,65.57,60.14-29.49,60.14-65.57Z" style="fill: #fff;"/>
      <path d="m988.46,1795.99c-36.86,0-62.47,28.71-62.47,65.18s25.61,65.57,62.08,65.57c20.18,0,37.64-6.6,50.05-19.01l17.85,25.22c-14.74,15.91-40.74,26-69.06,26-54.32,0-95.45-43.84-95.45-97.78s41.52-97.39,95.84-97.39c29.88,0,54.32,10.09,69.84,26l-19.79,24.44c-12.42-11.64-28.71-18.24-48.89-18.24Z" style="fill: #fff;"/>
      <path d="m1080.03,1861.18c0-53.93,39.19-97.39,91.96-97.39s91.57,41.52,91.57,93.9c0,4.66-.39,9.7-1.16,12.42h-147.44c3.88,33.37,28.32,58.2,63.63,58.2,20.95,0,39.58-8.15,51.99-20.56l18.24,23.67c-15.13,16.3-41.52,27.55-71.39,27.55-56.65,0-97.39-43.84-97.39-97.78Zm35.7-13.97h112.52c-5.43-34.53-26.77-53.93-55.87-53.93s-51.6,22.89-56.65,53.93Z" style="fill: #fff;"/>
      <path d="m1308.56,1714.9c0-11.64,9.7-21.34,21.34-21.34s21.34,9.7,21.34,21.34-9.7,21.34-21.34,21.34-21.34-9.7-21.34-21.34Zm38.8,239.4h-34.53v-185.85h34.53v185.85Z" style="fill: #fff;"/>
      <path d="m1392.76,1768.45h31.04v-46.17h34.14v46.17h52.77v30.65h-52.38v98.16c0,19.79,8.92,29.49,25.61,29.49,9.31,0,18.62-3.49,24.06-9.7l15.91,26c-8.54,8.54-24.06,15.91-44.62,15.91-34.92,0-55.87-20.56-55.87-60.53v-99.33h-30.65v-30.65Z" style="fill: #fff;"/>
      <path d="m1541.75,1861.18c0-53.93,39.19-97.39,91.96-97.39s91.57,41.52,91.57,93.9c0,4.66-.39,9.7-1.16,12.42h-147.44c3.88,33.37,28.32,58.2,63.63,58.2,20.95,0,39.58-8.15,51.99-20.56l18.24,23.67c-15.13,16.3-41.52,27.55-71.39,27.55-56.65,0-97.39-43.84-97.39-97.78Zm35.7-13.97h112.52c-5.43-34.53-26.77-53.93-55.87-53.93s-51.6,22.89-56.65,53.93Z" style="fill: #fff;"/>
      <path d="m2039.16,1687.35v266.94h-34.53v-29.1c-14.36,20.56-36.86,33.76-65.18,33.76-50.44,0-90.02-41.52-90.02-97.78s38.02-97.39,90.02-97.39c28.32,0,50.83,12.42,65.18,32.59v-109.03h34.53Zm-34.53,173.82c0-36.47-25.22-65.18-60.14-65.18s-60.53,28.71-60.53,65.18,25.61,65.57,60.53,65.57,60.14-29.49,60.14-65.57Z" style="fill: #fff;"/>
      <path d="m2092.32,1861.18c0-53.93,39.19-97.39,91.96-97.39s91.57,41.52,91.57,93.9c0,4.66-.39,9.7-1.16,12.42h-147.44c3.88,33.37,28.32,58.2,63.63,58.2,20.95,0,39.58-8.15,51.99-20.56l18.24,23.67c-15.13,16.3-41.52,27.55-71.39,27.55-56.65,0-97.39-43.84-97.39-97.78Zm35.7-13.97h112.52c-5.43-34.53-26.77-53.93-55.87-53.93s-51.6,22.89-56.65,53.93Z" style="fill: #fff;"/>
      <path d="m2540.85,1903.47c0,31.43-26,55.48-72.56,55.48-34.14,0-59.75-12.03-74.5-30.26l20.18-22.5c12.8,15.52,32.2,24.83,56.65,24.83s36.08-10.86,36.08-26.77c0-42.29-105.15-22.89-105.15-88.85,0-27.16,23.67-51.6,67.12-51.6,31.82,0,56.26,10.48,69.06,28.71l-20.56,20.56c-12.42-15.52-27.55-21.34-47.72-21.34s-34.14,10.09-34.14,23.67c0,39.96,105.54,19.4,105.54,88.08Z" style="fill: #fff;"/>
      <path d="m2577.32,1861.18c0-53.93,41.52-97.39,94.67-97.39s95.06,43.46,95.06,97.39-41.52,97.78-95.06,97.78-94.67-43.84-94.67-97.78Zm155.2,0c0-36.47-25.22-65.18-60.14-65.18s-60.53,28.71-60.53,65.18,25.61,65.57,60.53,65.57,60.14-29.49,60.14-65.57Z" style="fill: #fff;"/>
      <path d="m2885,1913.56l52.77-145.11h34.92l-80.32,216.12c-12.03,33.76-31.43,50.44-60.14,50.44-16.3,0-32.98-6.6-44.62-17.07l16.3-26.77c8.15,7.76,18.62,11.64,29.1,11.64,13.58,0,22.5-7.76,30.65-30.26l5.82-15.91-84.2-188.18h37.64l62.08,145.11Z" style="fill: #fff;"/>
      <path d="m3148.46,1925.2c-14.36,20.56-36.86,33.76-65.18,33.76-50.44,0-90.02-41.52-90.02-97.78s38.02-97.39,90.02-97.39c28.32,0,50.83,12.42,65.18,32.59v-27.94h34.53v185.85h-34.53v-29.1Zm0-64.02c0-36.47-25.22-65.18-60.14-65.18s-60.53,28.71-60.53,65.18,25.61,65.57,60.53,65.57,60.14-29.49,60.14-65.57Z" style="fill: #fff;"/>
      <path d="m3421.61,1795.99c-36.86,0-62.47,28.71-62.47,65.18s25.61,65.57,62.08,65.57c20.18,0,37.64-6.6,50.05-19.01l17.85,25.22c-14.74,15.91-40.74,26-69.06,26-54.32,0-95.45-43.84-95.45-97.78s41.52-97.39,95.84-97.39c29.88,0,54.32,10.09,69.84,26l-19.79,24.44c-12.42-11.64-28.71-18.24-48.89-18.24Z" style="fill: #fff;"/>
      <path d="m3513.18,1861.18c0-53.93,41.52-97.39,94.67-97.39s95.06,43.46,95.06,97.39-41.52,97.78-95.06,97.78-94.67-43.84-94.67-97.78Zm155.2,0c0-36.47-25.22-65.18-60.14-65.18s-60.53,28.71-60.53,65.18,25.61,65.57,60.53,65.57,60.14-29.49,60.14-65.57Z" style="fill: #fff;"/>
      <path d="m3790.6,1954.3h-34.53v-185.85h34.53v22.89c11.64-17.46,31.43-27.55,55.87-27.55,43.84,0,72.17,29.88,72.17,76.82v113.68h-34.53v-108.25c0-30.65-17.85-50.05-46.95-50.05s-46.56,19.4-46.56,50.05v108.25Z" style="fill: #fff;"/>
      <path d="m3960.93,1768.45h31.04v-46.17h34.14v46.17h52.77v30.65h-52.38v98.16c0,19.79,8.92,29.49,25.61,29.49,9.31,0,18.62-3.49,24.06-9.7l15.91,26c-8.54,8.54-24.06,15.91-44.62,15.91-34.92,0-55.87-20.56-55.87-60.53v-99.33h-30.65v-30.65Z" style="fill: #fff;"/>
      <path d="m4129.32,1714.9c0-11.64,9.7-21.34,21.34-21.34s21.34,9.7,21.34,21.34-9.7,21.34-21.34,21.34-21.34-9.7-21.34-21.34Zm38.8,239.4h-34.53v-185.85h34.53v185.85Z" style="fill: #fff;"/>
      <path d="m4220.89,1861.18c0-53.93,39.19-97.39,91.96-97.39s91.57,41.52,91.57,93.9c0,4.66-.39,9.7-1.16,12.42h-147.44c3.88,33.37,28.32,58.2,63.63,58.2,20.95,0,39.58-8.15,51.99-20.56l18.24,23.67c-15.13,16.3-41.52,27.55-71.39,27.55-56.65,0-97.39-43.84-97.39-97.78Zm35.7-13.97h112.52c-5.43-34.53-26.77-53.93-55.87-53.93s-51.6,22.89-56.65,53.93Z" style="fill: #fff;"/>
      <path d="m4488.22,1954.3h-34.53v-185.85h34.53v22.89c11.64-17.46,31.43-27.55,55.87-27.55,43.84,0,72.17,29.88,72.17,76.82v113.68h-34.53v-108.25c0-30.65-17.85-50.05-46.95-50.05s-46.56,19.4-46.56,50.05v108.25Z" style="fill: #fff;"/>
      <path d="m4665.92,1861.18c0-53.93,39.19-97.39,91.96-97.39s91.57,41.52,91.57,93.9c0,4.66-.39,9.7-1.16,12.42h-147.44c3.88,33.37,28.32,58.2,63.63,58.2,20.95,0,39.58-8.15,51.99-20.56l18.24,23.67c-15.13,16.3-41.52,27.55-71.39,27.55-56.65,0-97.39-43.84-97.39-97.78Zm35.7-13.97h112.52c-5.43-34.53-26.77-53.93-55.87-53.93s-51.6,22.89-56.65,53.93Z" style="fill: #fff;"/>
      <path d="m496.48,2296.13c0,71-57.42,128.43-127.65,128.43s-127.26-57.81-127.26-128.82,57.04-129.2,127.26-129.2,127.65,58.2,127.65,129.59Zm-37.25,0c0-52.38-40.35-95.06-90.4-95.06s-90.02,42.29-90.02,94.67,40.35,94.28,90.02,94.28,90.4-42.29,90.4-93.9Z" style="fill: #fff;"/>
      <path d="m585.72,2419.9h-34.53v-185.85h34.53v23.28c11.25-17.07,29.88-27.94,53.54-27.94,29.1,0,50.83,13.97,62.08,37.64,10.09-21.73,30.65-37.64,60.53-37.64,43.07,0,71,29.1,71,76.82v113.68h-34.53v-108.25c0-30.65-16.68-50.05-44.23-50.05s-45.01,19.4-45.01,50.05v108.25h-34.14v-108.25c0-30.65-17.07-50.05-44.62-50.05s-44.62,19.4-44.62,50.05v108.25Z" style="fill: #fff;"/>
      <path d="m882.92,2326.78c0-53.93,39.19-97.39,91.96-97.39s91.57,41.52,91.57,93.9c0,4.66-.39,9.7-1.16,12.42h-147.44c3.88,33.37,28.32,58.2,63.63,58.2,20.95,0,39.58-8.15,51.99-20.56l18.24,23.67c-15.13,16.3-41.52,27.55-71.39,27.55-56.65,0-97.39-43.84-97.39-97.78Zm35.7-13.97h112.52c-5.43-34.53-26.77-53.93-55.87-53.93s-51.6,22.89-56.65,53.93Z" style="fill: #fff;"/>
      <path d="m1194.1,2469.17c39.19,0,61.69-20.95,61.69-60.53v-22.12c-14.36,20.18-36.86,32.98-65.18,32.98-49.66,0-88.46-40.35-88.46-95.06s38.8-94.28,88.46-94.28c28.32,0,50.83,12.03,65.18,31.43v-27.55h34.14v172.66c0,68.68-43.46,93.9-93.9,93.9-34.14,0-61.3-8.54-79.15-23.67l17.46-27.16c12.42,9.31,32.98,19.4,59.75,19.4Zm61.69-145.11c0-34.53-24.83-62.47-59.36-62.47s-59.75,27.94-59.75,62.47,25.22,63.24,59.75,63.24,59.36-28.32,59.36-63.24Z" style="fill: #fff;"/>
      <path d="m1498.29,2390.8c-14.36,20.56-36.86,33.76-65.18,33.76-50.44,0-90.02-41.52-90.02-97.78s38.02-97.39,90.02-97.39c28.32,0,50.83,12.42,65.18,32.59v-27.94h34.53v185.85h-34.53v-29.1Zm0-64.02c0-36.47-25.22-65.18-60.14-65.18s-60.53,28.71-60.53,65.18,25.61,65.57,60.53,65.57,60.14-29.49,60.14-65.57Z" style="fill: #fff;"/>
      <path d="m1662.03,2384.2l25.22-22.5c16.3,21.73,34.14,30.65,58.59,30.65,36.08,0,53.16-21.34,53.16-47.72,0-28.71-17.46-48.5-62.47-48.5h-21.34v-20.56l70.23-73.72h-110.19v-30.65h152.1v27.16l-70.23,72.56c54.32,5.82,76.44,35.7,76.44,73.72,0,43.84-30.26,79.93-89.24,79.93-37.25,0-64.02-14.36-82.26-40.35Z" style="fill: #fff;"/>
      <path d="m2151.3,2234.05v261.9h-34.53v-105.15c-14.36,20.56-36.86,33.76-65.18,33.76-50.44,0-90.02-41.52-90.02-97.78s38.02-97.39,90.02-97.39c28.32,0,50.83,12.42,65.18,32.59v-27.94h34.53Zm-34.53,92.73c0-36.47-25.22-65.18-60.14-65.18s-60.53,28.71-60.53,65.18,25.61,65.57,60.53,65.57,60.14-29.49,60.14-65.57Z" style="fill: #fff;"/>
      <path d="m2249.46,2336.87c0,32.59,19.01,54.32,47.72,54.32s48.5-21.73,48.5-54.32v-102.82h34.53v105.54c0,50.44-32.98,83.81-83.03,83.81s-82.26-33.37-82.26-83.81v-105.54h34.53v102.82Z" style="fill: #fff;"/>
      <path d="m2430.27,2326.78c0-53.93,39.19-97.39,91.96-97.39s91.57,41.52,91.57,93.9c0,4.66-.39,9.7-1.16,12.42h-147.44c3.88,33.37,28.32,58.2,63.63,58.2,20.95,0,39.58-8.15,51.99-20.56l18.24,23.67c-15.13,16.3-41.52,27.55-71.39,27.55-56.65,0-97.39-43.84-97.39-97.78Zm35.7-13.97h112.52c-5.43-34.53-26.77-53.93-55.87-53.93s-51.6,22.89-56.65,53.93Z" style="fill: #fff;"/>
      <path d="m2730.58,2234.05h31.04v-46.17h34.14v46.17h52.77v30.65h-52.38v98.16c0,19.79,8.92,29.49,25.61,29.49,9.31,0,18.62-3.49,24.06-9.7l15.91,26c-8.54,8.54-24.06,15.91-44.62,15.91-34.92,0-55.87-20.56-55.87-60.53v-99.33h-30.65v-30.65Z" style="fill: #fff;"/>
      <path d="m2879.57,2326.78c0-53.93,39.19-97.39,91.96-97.39s91.57,41.52,91.57,93.9c0,4.66-.39,9.7-1.16,12.42h-147.44c3.88,33.37,28.32,58.2,63.63,58.2,20.95,0,39.58-8.15,51.99-20.56l18.24,23.67c-15.13,16.3-41.52,27.55-71.39,27.55-56.65,0-97.39-43.84-97.39-97.78Zm35.7-13.97h112.52c-5.43-34.53-26.77-53.93-55.87-53.93s-51.6,22.89-56.65,53.93Z" style="fill: #fff;"/>
      <path d="m3342.46,2390.8c-14.36,20.56-36.86,33.76-65.18,33.76-50.44,0-90.02-41.52-90.02-97.78s38.02-97.39,90.02-97.39c28.32,0,50.83,12.42,65.18,32.59v-27.94h34.53v185.85h-34.53v-29.1Zm0-64.02c0-36.47-25.22-65.18-60.14-65.18s-60.53,28.71-60.53,65.18,25.61,65.57,60.53,65.57,60.14-29.49,60.14-65.57Z" style="fill: #fff;"/>
      <path d="m3515.89,2379.16l52.77-145.11h34.92l-80.32,216.12c-12.03,33.76-31.43,50.44-60.14,50.44-16.3,0-32.98-6.6-44.62-17.07l16.3-26.77c8.15,7.76,18.62,11.64,29.1,11.64,13.58,0,22.5-7.76,30.65-30.26l5.82-15.91-84.2-188.18h37.64l62.08,145.11Z" style="fill: #fff;"/>
      <path d="m3676.52,2336.87c0,32.59,19.01,54.32,47.72,54.32s48.5-21.73,48.5-54.32v-102.82h34.53v105.54c0,50.44-32.98,83.81-83.03,83.81s-82.26-33.37-82.26-83.81v-105.54h34.53v102.82Z" style="fill: #fff;"/>
      <path d="m4047.06,2152.95v266.94h-34.53v-29.1c-14.36,20.56-36.86,33.76-65.18,33.76-50.44,0-90.02-41.52-90.02-97.78s38.02-97.39,90.02-97.39c28.32,0,50.83,12.42,65.18,32.59v-109.03h34.53Zm-34.53,173.82c0-36.47-25.22-65.18-60.14-65.18s-60.53,28.71-60.53,65.18,25.61,65.57,60.53,65.57,60.14-29.49,60.14-65.57Z" style="fill: #fff;"/>
      <path d="m4255.42,2390.8c-14.36,20.56-36.86,33.76-65.18,33.76-50.44,0-90.02-41.52-90.02-97.78s38.02-97.39,90.02-97.39c28.32,0,50.83,12.42,65.18,32.59v-27.94h34.53v185.85h-34.53v-29.1Zm0-64.02c0-36.47-25.22-65.18-60.14-65.18s-60.53,28.71-60.53,65.18,25.61,65.57,60.53,65.57,60.14-29.49,60.14-65.57Z" style="fill: #fff;"/>
      <path d="m4391.22,2419.9h-34.53v-185.85h34.53v23.28c10.09-17.07,26-27.94,46.56-27.94,11.64,0,21.73,2.72,28.32,8.15l-14.36,32.2c-6.21-4.27-15.13-7.37-24.06-7.37-22.5,0-36.47,19.4-36.47,50.44v107.09Z" style="fill: #fff;"/>
      <path d="m4633.72,2390.8c-14.36,20.56-36.86,33.76-65.18,33.76-50.44,0-90.02-41.52-90.02-97.78s38.02-97.39,90.02-97.39c28.32,0,50.83,12.42,65.18,32.59v-27.94h34.53v185.85h-34.53v-29.1Zm0-64.02c0-36.47-25.22-65.18-60.14-65.18s-60.53,28.71-60.53,65.18,25.61,65.57,60.53,65.57,60.14-29.49,60.14-65.57Zm1.55-173.82l-47.72,60.53h-31.43l38.02-60.53h41.13Z" style="fill: #fff;"/>
      <path d="m4769.52,2419.9h-34.53v-185.85h34.53v22.89c11.64-17.46,31.43-27.55,55.87-27.55,43.84,0,72.17,29.88,72.17,76.82v113.68h-34.53v-108.25c0-30.65-17.85-50.05-46.95-50.05s-46.56,19.4-46.56,50.05v108.25Z" style="fill: #fff;"/>
      <path d="m395.21,2856.4c-14.36,20.56-36.86,33.76-65.18,33.76-50.44,0-90.02-41.52-90.02-97.78s38.02-97.39,90.02-97.39c28.32,0,50.83,12.42,65.18,32.59v-27.94h34.53v185.85h-34.53v-29.1Zm0-64.02c0-36.47-25.22-65.18-60.14-65.18s-60.53,28.71-60.53,65.18,25.61,65.57,60.53,65.57,60.14-29.49,60.14-65.57Z" style="fill: #fff;"/>
      <path d="m668.36,2727.19c-36.86,0-62.47,28.71-62.47,65.18s25.61,65.57,62.08,65.57c20.18,0,37.64-6.6,50.05-19.01l17.85,25.22c-14.74,15.91-40.74,26-69.06,26-54.32,0-95.45-43.84-95.45-97.78s41.52-97.39,95.84-97.39c29.88,0,54.32,10.09,69.84,26l-19.79,24.44c-12.42-11.64-28.71-18.24-48.89-18.24Z" style="fill: #fff;"/>
      <path d="m759.93,2792.38c0-53.93,41.52-97.39,94.67-97.39s95.06,43.46,95.06,97.39-41.52,97.78-95.06,97.78-94.67-43.84-94.67-97.78Zm155.2,0c0-36.47-25.22-65.18-60.14-65.18s-60.53,28.71-60.53,65.18,25.61,65.57,60.53,65.57,60.14-29.49,60.14-65.57Z" style="fill: #fff;"/>
      <path d="m1037.35,2885.5h-34.53v-185.85h34.53v22.89c11.64-17.46,31.43-27.55,55.87-27.55,43.84,0,72.17,29.88,72.17,76.82v113.68h-34.53v-108.25c0-30.65-17.85-50.05-46.95-50.05s-46.56,19.4-46.56,50.05v108.25Z" style="fill: #fff;"/>
      <path d="m1207.68,2699.65h31.04v-46.17h34.14v46.17h52.77v30.65h-52.38v98.16c0,19.79,8.92,29.49,25.61,29.49,9.31,0,18.62-3.49,24.06-9.7l15.91,26c-8.54,8.54-24.06,15.91-44.62,15.91-34.92,0-55.87-20.56-55.87-60.53v-99.33h-30.65v-30.65Z" style="fill: #fff;"/>
      <path d="m1414.87,2885.5h-34.53v-185.85h34.53v23.28c10.09-17.07,26-27.94,46.56-27.94,11.64,0,21.73,2.72,28.32,8.15l-14.36,32.2c-6.21-4.27-15.13-7.37-24.06-7.37-22.5,0-36.47,19.4-36.47,50.44v107.09Z" style="fill: #fff;"/>
      <path d="m1502.17,2792.38c0-53.93,41.52-97.39,94.67-97.39s95.06,43.46,95.06,97.39-41.52,97.78-95.06,97.78-94.67-43.84-94.67-97.78Zm155.2,0c0-36.47-25.22-65.18-60.14-65.18s-60.53,28.71-60.53,65.18,25.61,65.57,60.53,65.57,60.14-29.49,60.14-65.57Z" style="fill: #fff;"/>
      <path d="m1745.06,2618.55h34.53v266.94h-34.53v-266.94Z" style="fill: #fff;"/>
      <path d="m1987.56,2856.4c-14.36,20.56-36.86,33.76-65.18,33.76-50.44,0-90.02-41.52-90.02-97.78s38.02-97.39,90.02-97.39c28.32,0,50.83,12.42,65.18,32.59v-27.94h34.53v185.85h-34.53v-29.1Zm0-64.02c0-36.47-25.22-65.18-60.14-65.18s-60.53,28.71-60.53,65.18,25.61,65.57,60.53,65.57,60.14-29.49,60.14-65.57Z" style="fill: #fff;"/>
      <path d="m2123.36,2885.5h-34.53v-185.85h34.53v23.28c10.09-17.07,26-27.94,46.56-27.94,11.64,0,21.73,2.72,28.32,8.15l-14.36,32.2c-6.21-4.27-15.13-7.37-24.06-7.37-22.5,0-36.47,19.4-36.47,50.44v107.09Z" style="fill: #fff;"/>
      <path d="m2314.64,2792.38c0-53.93,39.19-97.39,91.96-97.39s91.57,41.52,91.57,93.9c0,4.66-.39,9.7-1.16,12.42h-147.44c3.88,33.37,28.32,58.2,63.63,58.2,20.95,0,39.58-8.15,51.99-20.56l18.24,23.67c-15.13,16.3-41.52,27.55-71.39,27.55-56.65,0-97.39-43.84-97.39-97.78Zm35.7-13.97h112.52c-5.43-34.53-26.77-53.93-55.87-53.93s-51.6,22.89-56.65,53.93Z" style="fill: #fff;"/>
      <path d="m2547.44,2618.55h34.53v266.94h-34.53v-266.94Z" style="fill: #fff;"/>
      <path d="m2820.21,2727.19c-36.86,0-62.47,28.71-62.47,65.18s25.61,65.57,62.08,65.57c20.18,0,37.64-6.6,50.05-19.01l17.85,25.22c-14.74,15.91-40.74,26-69.06,26-54.32,0-95.45-43.84-95.45-97.78s41.52-97.39,95.84-97.39c29.88,0,54.32,10.09,69.84,26l-19.79,24.44c-12.42-11.64-28.71-18.24-48.89-18.24Z" style="fill: #fff;"/>
      <path d="m2911.78,2792.38c0-53.93,41.52-97.39,94.67-97.39s95.06,43.46,95.06,97.39-41.52,97.78-95.06,97.78-94.67-43.84-94.67-97.78Zm155.2,0c0-36.47-25.22-65.18-60.14-65.18s-60.53,28.71-60.53,65.18,25.61,65.57,60.53,65.57,60.14-29.49,60.14-65.57Z" style="fill: #fff;"/>
      <path d="m3154.66,2618.55h34.53v266.94h-34.53v-266.94Z" style="fill: #fff;"/>
      <path d="m3241.96,2792.38c0-53.93,39.19-97.39,91.96-97.39s91.57,41.52,91.57,93.9c0,4.66-.39,9.7-1.16,12.42h-147.44c3.88,33.37,28.32,58.2,63.63,58.2,20.95,0,39.58-8.15,51.99-20.56l18.24,23.67c-15.13,16.3-41.52,27.55-71.39,27.55-56.65,0-97.39-43.84-97.39-97.78Zm35.7-13.97h112.52c-5.43-34.53-26.77-53.93-55.87-53.93s-51.6,22.89-56.65,53.93Z" style="fill: #fff;"/>
      <path d="m3599.7,2834.67c0,31.43-26,55.48-72.56,55.48-34.14,0-59.75-12.03-74.5-30.26l20.18-22.5c12.8,15.52,32.2,24.83,56.65,24.83s36.08-10.86,36.08-26.77c0-42.29-105.15-22.89-105.15-88.85,0-27.16,23.67-51.6,67.12-51.6,31.82,0,56.26,10.48,69.06,28.71l-20.56,20.56c-12.42-15.52-27.55-21.34-47.72-21.34s-34.14,10.09-34.14,23.67c0,39.96,105.54,19.4,105.54,88.08Z" style="fill: #fff;"/>
      <path d="m3628.8,2699.65h31.04v-46.17h34.14v46.17h52.77v30.65h-52.38v98.16c0,19.79,8.92,29.49,25.61,29.49,9.31,0,18.62-3.49,24.06-9.7l15.91,26c-8.54,8.54-24.06,15.91-44.62,15.91-34.92,0-55.87-20.56-55.87-60.53v-99.33h-30.65v-30.65Z" style="fill: #fff;"/>
      <path d="m3777.79,2792.38c0-53.93,39.19-97.39,91.96-97.39s91.57,41.52,91.57,93.9c0,4.66-.39,9.7-1.16,12.42h-147.44c3.88,33.37,28.32,58.2,63.63,58.2,20.95,0,39.58-8.15,51.99-20.56l18.24,23.67c-15.13,16.3-41.52,27.55-71.39,27.55-56.65,0-97.39-43.84-97.39-97.78Zm35.7-13.97h112.52c-5.43-34.53-26.77-53.93-55.87-53.93s-51.6,22.89-56.65,53.93Z" style="fill: #fff;"/>
      <path d="m4045.12,2885.5h-34.53v-185.85h34.53v23.28c10.09-17.07,26-27.94,46.56-27.94,11.64,0,21.73,2.72,28.32,8.15l-14.36,32.2c-6.21-4.27-15.13-7.37-24.06-7.37-22.5,0-36.47,19.4-36.47,50.44v107.09Z" style="fill: #fff;"/>
      <path d="m4132.42,2792.38c0-53.93,41.52-97.39,94.67-97.39s95.06,43.46,95.06,97.39-41.52,97.78-95.06,97.78-94.67-43.84-94.67-97.78Zm155.2,0c0-36.47-25.22-65.18-60.14-65.18s-60.53,28.71-60.53,65.18,25.61,65.57,60.53,65.57,60.14-29.49,60.14-65.57Z" style="fill: #fff;"/>
      <path d="m4375.31,2618.55h34.53v266.94h-34.53v-266.94Z" style="fill: #fff;"/>
      <path d="m4456.4,2865.32c0-13.19,10.86-24.44,23.67-24.44,13.58,0,24.44,11.25,24.44,24.44s-10.86,23.67-24.44,23.67c-12.8,0-23.67-10.48-23.67-23.67Z" style="fill: #fff;"/>
    </g>
    <g id="botonx">
      <path d="m4694.15,257.65l5.34,5.34c4.81,4.81,9.61,9.61,14.42,14.42,7.12,7.12,14.25,14.25,21.37,21.37l26.07,26.07,28.47,28.47c9.61,9.61,19.21,19.21,28.82,28.82,8.96,8.96,17.91,17.91,26.87,26.87,7.55,7.55,15.09,15.09,22.64,22.64,5.46,5.46,10.92,10.92,16.37,16.37,2.57,2.57,5.12,5.14,7.7,7.7.11.11.22.22.33.33,3.81,3.81,9.46,6.15,14.85,6.15,2.89.11,5.59-.49,8.09-1.81,2.6-.85,4.86-2.29,6.76-4.34,3.67-4,6.4-9.26,6.15-14.85s-2.13-10.83-6.15-14.85l-5.34-5.34c-4.81-4.81-9.61-9.61-14.42-14.42-7.12-7.12-14.25-14.25-21.37-21.37l-26.07-26.07c-9.49-9.49-18.98-18.98-28.47-28.47s-19.21-19.21-28.82-28.82c-8.96-8.96-17.91-17.91-26.87-26.87-7.55-7.55-15.09-15.09-22.64-22.64-5.46-5.46-10.92-10.92-16.37-16.37-2.57-2.57-5.12-5.14-7.7-7.7-.11-.11-.22-.22-.33-.33-3.81-3.81-9.46-6.15-14.85-6.15-2.89-.11-5.59.49-8.09,1.81-2.6.85-4.86,2.29-6.76,4.34-3.67,4-6.4,9.26-6.15,14.85s2.13,10.83,6.15,14.85h0Z" style="fill: #fff;"/>
      <path d="m4892.56,227.95l-5.34,5.34c-4.81,4.81-9.61,9.61-14.42,14.42-7.12,7.12-14.25,14.25-21.37,21.37-8.69,8.69-17.38,17.38-26.07,26.07-9.49,9.49-18.98,18.98-28.47,28.47s-19.21,19.21-28.82,28.82c-8.96,8.96-17.91,17.91-26.87,26.87-7.55,7.55-15.09,15.09-22.64,22.64-5.46,5.46-10.92,10.92-16.37,16.37-2.57,2.57-5.14,5.12-7.7,7.7-.11.11-.22.22-.33.33-3.81,3.81-6.15,9.46-6.15,14.85-.11,2.89.49,5.59,1.81,8.09.85,2.6,2.29,4.86,4.34,6.76,4,3.67,9.26,6.4,14.85,6.15s10.83-2.13,14.85-6.15l5.34-5.34c4.81-4.81,9.61-9.61,14.42-14.42,7.12-7.12,14.25-14.25,21.37-21.37,8.69-8.69,17.38-17.38,26.07-26.07,9.49-9.49,18.98-18.98,28.47-28.47s19.21-19.21,28.82-28.82c8.96-8.96,17.91-17.91,26.87-26.87,7.55-7.55,15.09-15.09,22.64-22.64,5.46-5.46,10.92-10.92,16.37-16.37,2.57-2.57,5.14-5.12,7.7-7.7.11-.11.22-.22.33-.33,3.81-3.81,6.15-9.46,6.15-14.85.11-2.89-.49-5.59-1.81-8.09-.85-2.6-2.29-4.86-4.34-6.76-4-3.67-9.26-6.4-14.85-6.15s-10.83,2.13-14.85,6.15h0Z" style="fill: #fff;"/>
    </g>
  </g>
</svg>