<?xml version="1.0" encoding="UTF-8"?>
<svg id="Capa_2" data-name="Capa 2" xmlns="http://www.w3.org/2000/svg" xmlns:xlink="http://www.w3.org/1999/xlink" viewBox="0 0 5159 4157">
  <defs>
    <linearGradient id="Degradado_sin_nombre_1839" data-name="Degradado sin nombre 1839" x1="4061.82" y1="-488.95" x2="1097.18" y2="4645.95" gradientUnits="userSpaceOnUse">
      <stop offset="0" stop-color="#8500ff"/>
      <stop offset=".18" stop-color="#920aff"/>
      <stop offset=".5" stop-color="#b525ff"/>
      <stop offset=".95" stop-color="#ed52ff"/>
      <stop offset="1" stop-color="#f558ff"/>
    </linearGradient>
  </defs>
  <g id="mensaje_fondo_2">
    <rect width="5159" height="4157" rx="342.06" ry="342.06" style="fill: url(#Degradado_sin_nombre_1839);"/>
    <g>
      <path d="m255.16,1023.8h34.56v213.51h127.49v32.64h-162.05v-246.15Z" style="fill: #fff;"/>
      <path d="m434.49,1177.79c0-53.38,41.09-96.38,93.7-96.38s94.08,43.01,94.08,96.38-41.09,96.77-94.08,96.77-93.7-43.39-93.7-96.77Zm153.6,0c0-36.1-24.96-64.51-59.52-64.51s-59.9,28.42-59.9,64.51,25.34,64.9,59.9,64.9,59.52-29.18,59.52-64.9Z" style="fill: #fff;"/>
      <path d="m798.52,1219.64c0,31.1-25.73,54.91-71.81,54.91-33.79,0-59.14-11.9-73.73-29.95l19.97-22.27c12.67,15.36,31.87,24.58,56.06,24.58s35.71-10.75,35.71-26.5c0-41.86-104.06-22.66-104.06-87.94,0-26.88,23.42-51.07,66.43-51.07,31.49,0,55.68,10.37,68.35,28.42l-20.35,20.35c-12.29-15.36-27.26-21.12-47.23-21.12s-33.79,9.98-33.79,23.42c0,39.55,104.45,19.2,104.45,87.17Z" style="fill: #fff;"/>
      <path d="m1075.77,1241.15c-14.21,20.35-36.48,33.41-64.51,33.41-49.92,0-89.09-41.09-89.09-96.77s37.63-96.38,89.09-96.38c28.03,0,50.3,12.29,64.51,32.26v-27.65h34.18v183.94h-34.18v-28.8Zm0-63.36c0-36.1-24.96-64.51-59.52-64.51s-59.9,28.42-59.9,64.51,25.34,64.9,59.9,64.9,59.52-29.18,59.52-64.9Z" style="fill: #fff;"/>
      <path d="m1176,1005.75h34.18v264.19h-34.18v-264.19Z" style="fill: #fff;"/>
      <path d="m1271.61,1033.02c0-11.52,9.6-21.12,21.12-21.12s21.12,9.6,21.12,21.12-9.6,21.12-21.12,21.12-21.12-9.6-21.12-21.12Zm38.4,236.93h-34.18v-183.94h34.18v183.94Z" style="fill: #fff;"/>
      <path d="m1409.85,1269.95h-34.18v-183.94h34.18v23.04c11.14-16.9,29.57-27.65,52.99-27.65,28.8,0,50.3,13.82,61.44,37.25,9.98-21.5,30.34-37.25,59.9-37.25,42.62,0,70.27,28.8,70.27,76.03v112.51h-34.18v-107.14c0-30.34-16.51-49.54-43.78-49.54s-44.54,19.2-44.54,49.54v107.14h-33.79v-107.14c0-30.34-16.9-49.54-44.16-49.54s-44.16,19.2-44.16,49.54v107.14Z" style="fill: #fff;"/>
      <path d="m1704,1177.79c0-53.38,38.78-96.38,91.01-96.38s90.62,41.09,90.62,92.93c0,4.61-.38,9.6-1.15,12.29h-145.92c3.84,33.02,28.03,57.6,62.98,57.6,20.74,0,39.17-8.06,51.46-20.35l18.05,23.42c-14.98,16.13-41.09,27.26-70.66,27.26-56.06,0-96.38-43.39-96.38-96.77Zm35.33-13.82h111.36c-5.38-34.18-26.5-53.38-55.3-53.38s-51.07,22.66-56.06,53.38Z" style="fill: #fff;"/>
      <path d="m1968.57,1269.95h-34.18v-183.94h34.18v22.66c11.52-17.28,31.1-27.26,55.3-27.26,43.39,0,71.42,29.57,71.42,76.03v112.51h-34.18v-107.14c0-30.34-17.66-49.54-46.46-49.54s-46.08,19.2-46.08,49.54v107.14Z" style="fill: #fff;"/>
      <path d="m2137.15,1086.01h30.72v-45.7h33.79v45.7h52.22v30.34h-51.84v97.15c0,19.58,8.83,29.18,25.34,29.18,9.22,0,18.43-3.46,23.81-9.6l15.74,25.73c-8.45,8.45-23.81,15.74-44.16,15.74-34.56,0-55.3-20.35-55.3-59.9v-98.3h-30.34v-30.34Z" style="fill: #fff;"/>
      <path d="m2284.6,1177.79c0-53.38,41.09-96.38,93.7-96.38s94.08,43.01,94.08,96.38-41.09,96.77-94.08,96.77-93.7-43.39-93.7-96.77Zm153.6,0c0-36.1-24.96-64.51-59.52-64.51s-59.9,28.42-59.9,64.51,25.34,64.9,59.9,64.9,59.52-29.18,59.52-64.9Z" style="fill: #fff;"/>
      <path d="m2648.64,1219.64c0,31.1-25.73,54.91-71.81,54.91-33.79,0-59.14-11.9-73.73-29.95l19.97-22.27c12.67,15.36,31.87,24.58,56.06,24.58s35.71-10.75,35.71-26.5c0-41.86-104.06-22.66-104.06-87.94,0-26.88,23.42-51.07,66.43-51.07,31.49,0,55.68,10.37,68.35,28.42l-20.35,20.35c-12.29-15.36-27.26-21.12-47.23-21.12s-33.79,9.98-33.79,23.42c0,39.55,104.45,19.2,104.45,87.17Z" style="fill: #fff;"/>
      <path d="m2883.26,1043.77c-5.76-6.14-15.74-10.75-26.11-10.75-17.66,0-27.65,11.52-27.65,32.26v20.74h48.77v30.34h-48.77v153.6h-33.79v-153.6h-29.18v-30.34h29.18v-21.12c0-40.7,23.04-63.74,58.37-63.74,21.5,0,36.1,6.53,46.46,17.66l-17.28,24.96Z" style="fill: #fff;"/>
      <path d="m2948.16,1269.95h-34.18v-183.94h34.18v23.04c9.98-16.9,25.73-27.65,46.08-27.65,11.52,0,21.5,2.69,28.03,8.06l-14.21,31.87c-6.14-4.22-14.98-7.3-23.81-7.3-22.27,0-36.1,19.2-36.1,49.92v105.98Z" style="fill: #fff;"/>
      <path d="m3059.13,1033.02c0-11.52,9.6-21.12,21.12-21.12s21.12,9.6,21.12,21.12-9.6,21.12-21.12,21.12-21.12-9.6-21.12-21.12Zm38.4,236.93h-34.18v-183.94h34.18v183.94Z" style="fill: #fff;"/>
      <path d="m3142.46,1086.01h30.72v-45.7h33.79v45.7h52.22v30.34h-51.84v97.15c0,19.58,8.83,29.18,25.34,29.18,9.22,0,18.43-3.46,23.81-9.6l15.74,25.73c-8.45,8.45-23.81,15.74-44.16,15.74-34.56,0-55.3-20.35-55.3-59.9v-98.3h-30.34v-30.34Z" style="fill: #fff;"/>
      <path d="m3289.92,1177.79c0-53.38,41.09-96.38,93.7-96.38s94.08,43.01,94.08,96.38-41.09,96.77-94.08,96.77-93.7-43.39-93.7-96.77Zm153.6,0c0-36.1-24.96-64.51-59.52-64.51s-59.9,28.42-59.9,64.51,25.34,64.9,59.9,64.9,59.52-29.18,59.52-64.9Z" style="fill: #fff;"/>
      <path d="m3653.95,1219.64c0,31.1-25.73,54.91-71.81,54.91-33.79,0-59.14-11.9-73.73-29.95l19.97-22.27c12.67,15.36,31.87,24.58,56.06,24.58s35.71-10.75,35.71-26.5c0-41.86-104.06-22.66-104.06-87.94,0-26.88,23.42-51.07,66.43-51.07,31.49,0,55.68,10.37,68.35,28.42l-20.35,20.35c-12.29-15.36-27.26-21.12-47.23-21.12s-33.79,9.98-33.79,23.42c0,39.55,104.45,19.2,104.45,87.17Z" style="fill: #fff;"/>
      <path d="m249.02,1493.82c0-11.52,9.6-21.12,21.12-21.12s21.12,9.6,21.12,21.12-9.6,21.12-21.12,21.12-21.12-9.6-21.12-21.12Zm38.4,236.93h-34.18v-183.94h34.18v183.94Z" style="fill: #fff;"/>
      <path d="m387.26,1730.75h-34.18v-183.94h34.18v22.66c11.52-17.28,31.1-27.26,55.3-27.26,43.39,0,71.42,29.57,71.42,76.03v112.51h-34.18v-107.14c0-30.34-17.66-49.54-46.46-49.54s-46.08,19.2-46.08,49.54v107.14Z" style="fill: #fff;"/>
      <path d="m659.13,1574.07c-36.48,0-61.82,28.42-61.82,64.51s25.34,64.9,61.44,64.9c19.97,0,37.25-6.53,49.54-18.82l17.66,24.96c-14.59,15.74-40.32,25.73-68.35,25.73-53.76,0-94.46-43.39-94.46-96.77s41.09-96.38,94.85-96.38c29.57,0,53.76,9.98,69.12,25.73l-19.58,24.19c-12.29-11.52-28.42-18.05-48.38-18.05Z" style="fill: #fff;"/>
      <path d="m802.75,1730.75h-34.18v-183.94h34.18v23.04c9.98-16.9,25.73-27.65,46.08-27.65,11.52,0,21.5,2.69,28.03,8.06l-14.21,31.87c-6.14-4.22-14.98-7.3-23.81-7.3-22.27,0-36.1,19.2-36.1,49.92v105.98Z" style="fill: #fff;"/>
      <path d="m889.15,1638.59c0-53.38,38.78-96.38,91.01-96.38s90.62,41.09,90.62,92.93c0,4.61-.38,9.6-1.15,12.29h-145.92c3.84,33.02,28.03,57.6,62.98,57.6,20.74,0,39.17-8.06,51.46-20.35l18.05,23.42c-14.98,16.13-41.09,27.26-70.66,27.26-56.06,0-96.38-43.39-96.38-96.77Zm35.33-13.82h111.36c-5.38-34.18-26.5-53.38-55.3-53.38s-51.07,22.66-56.06,53.38Z" style="fill: #fff;"/>
      <path d="m1153.72,1730.75h-34.18v-183.94h34.18v23.04c11.14-16.9,29.57-27.65,52.99-27.65,28.8,0,50.3,13.82,61.44,37.25,9.98-21.5,30.34-37.25,59.9-37.25,42.62,0,70.27,28.8,70.27,76.03v112.51h-34.18v-107.14c0-30.34-16.51-49.54-43.78-49.54s-44.54,19.2-44.54,49.54v107.14h-33.79v-107.14c0-30.34-16.9-49.54-44.16-49.54s-44.16,19.2-44.16,49.54v107.14Z" style="fill: #fff;"/>
      <path d="m1447.87,1638.59c0-53.38,38.78-96.38,91.01-96.38s90.62,41.09,90.62,92.93c0,4.61-.38,9.6-1.15,12.29h-145.92c3.84,33.02,28.03,57.6,62.98,57.6,20.74,0,39.17-8.06,51.46-20.35l18.05,23.42c-14.98,16.13-41.09,27.26-70.66,27.26-56.06,0-96.38-43.39-96.38-96.77Zm35.33-13.82h111.36c-5.38-34.18-26.5-53.38-55.3-53.38s-51.07,22.66-56.06,53.38Z" style="fill: #fff;"/>
      <path d="m1712.44,1730.75h-34.18v-183.94h34.18v22.66c11.52-17.28,31.1-27.26,55.3-27.26,43.39,0,71.42,29.57,71.42,76.03v112.51h-34.18v-107.14c0-30.34-17.66-49.54-46.46-49.54s-46.08,19.2-46.08,49.54v107.14Z" style="fill: #fff;"/>
      <path d="m1881.02,1546.81h30.72v-45.7h33.79v45.7h52.22v30.34h-51.84v97.15c0,19.58,8.83,29.18,25.34,29.18,9.22,0,18.43-3.46,23.81-9.6l15.74,25.73c-8.45,8.45-23.81,15.74-44.16,15.74-34.56,0-55.3-20.35-55.3-59.9v-98.3h-30.34v-30.34Z" style="fill: #fff;"/>
      <path d="m2182.08,1701.95c-14.21,20.35-36.48,33.41-64.51,33.41-49.92,0-89.09-41.09-89.09-96.77s37.63-96.38,89.09-96.38c28.03,0,50.3,12.29,64.51,32.26v-27.65h34.18v183.94h-34.18v-28.8Zm0-63.36c0-36.1-24.96-64.51-59.52-64.51s-59.9,28.42-59.9,64.51,25.34,64.9,59.9,64.9,59.52-29.18,59.52-64.9Z" style="fill: #fff;"/>
      <path d="m2316.48,1730.75h-34.18v-183.94h34.18v22.66c11.52-17.28,31.1-27.26,55.3-27.26,43.39,0,71.42,29.57,71.42,76.03v112.51h-34.18v-107.14c0-30.34-17.66-49.54-46.46-49.54s-46.08,19.2-46.08,49.54v107.14Z" style="fill: #fff;"/>
      <path d="m2579.9,1638.59c0-53.38,38.78-96.38,91.01-96.38s90.62,41.09,90.62,92.93c0,4.61-.38,9.6-1.15,12.29h-145.92c3.84,33.02,28.03,57.6,62.98,57.6,20.74,0,39.17-8.06,51.46-20.35l18.05,23.42c-14.98,16.13-41.09,27.26-70.66,27.26-56.06,0-96.38-43.39-96.38-96.77Zm35.33-13.82h111.36c-5.38-34.18-26.5-53.38-55.3-53.38s-51.07,22.66-56.06,53.38Z" style="fill: #fff;"/>
      <path d="m2810.3,1466.55h34.18v264.19h-34.18v-264.19Z" style="fill: #fff;"/>
      <path d="m3031.87,1730.75h-34.18v-183.94h34.18v23.04c9.98-16.9,25.73-27.65,46.08-27.65,11.52,0,21.5,2.69,28.03,8.06l-14.21,31.87c-6.14-4.22-14.98-7.3-23.81-7.3-22.27,0-36.1,19.2-36.1,49.92v105.98Z" style="fill: #fff;"/>
      <path d="m3142.84,1493.82c0-11.52,9.6-21.12,21.12-21.12s21.12,9.6,21.12,21.12-9.6,21.12-21.12,21.12-21.12-9.6-21.12-21.12Zm38.4,236.93h-34.18v-183.94h34.18v183.94Z" style="fill: #fff;"/>
      <path d="m3233.47,1638.59c0-53.38,38.78-96.38,91.01-96.38s90.62,41.09,90.62,92.93c0,4.61-.38,9.6-1.15,12.29h-145.92c3.84,33.02,28.03,57.6,62.98,57.6,20.74,0,39.17-8.06,51.46-20.35l18.05,23.42c-14.98,16.13-41.09,27.26-70.66,27.26-56.06,0-96.38-43.39-96.38-96.77Zm35.33-13.82h111.36c-5.38-34.18-26.5-53.38-55.3-53.38s-51.07,22.66-56.06,53.38Z" style="fill: #fff;"/>
      <path d="m3587.52,1680.44c0,31.1-25.73,54.91-71.81,54.91-33.79,0-59.14-11.9-73.73-29.95l19.97-22.27c12.67,15.36,31.87,24.58,56.06,24.58s35.71-10.75,35.71-26.5c0-41.86-104.06-22.66-104.06-87.94,0-26.88,23.42-51.07,66.43-51.07,31.49,0,55.68,10.37,68.35,28.42l-20.35,20.35c-12.29-15.36-27.26-21.12-47.23-21.12s-33.79,9.98-33.79,23.42c0,39.55,104.45,19.2,104.45,87.17Z" style="fill: #fff;"/>
      <path d="m3714.62,1779.51c38.78,0,61.06-20.74,61.06-59.9v-21.89c-14.21,19.97-36.48,32.64-64.51,32.64-49.15,0-87.55-39.94-87.55-94.08s38.4-93.31,87.55-93.31c28.03,0,50.3,11.9,64.51,31.1v-27.26h33.79v170.88c0,67.97-43.01,92.93-92.93,92.93-33.79,0-60.67-8.45-78.34-23.42l17.28-26.88c12.29,9.22,32.64,19.2,59.14,19.2Zm61.06-143.62c0-34.18-24.58-61.82-58.75-61.82s-59.14,27.65-59.14,61.82,24.96,62.59,59.14,62.59,58.75-28.03,58.75-62.59Z" style="fill: #fff;"/>
      <path d="m3862.08,1638.59c0-53.38,41.09-96.38,93.7-96.38s94.08,43.01,94.08,96.38-41.09,96.77-94.08,96.77-93.7-43.39-93.7-96.77Zm153.6,0c0-36.1-24.96-64.51-59.52-64.51s-59.9,28.42-59.9,64.51,25.34,64.9,59.9,64.9,59.52-29.18,59.52-64.9Z" style="fill: #fff;"/>
      <path d="m4364.35,1466.55v264.19h-34.18v-28.8c-14.21,20.35-36.48,33.41-64.51,33.41-49.92,0-89.09-41.09-89.09-96.77s37.63-96.38,89.09-96.38c28.03,0,50.3,12.29,64.51,32.26v-107.9h34.18Zm-34.18,172.03c0-36.1-24.96-64.51-59.52-64.51s-59.9,28.42-59.9,64.51,25.34,64.9,59.9,64.9,59.52-29.18,59.52-64.9Z" style="fill: #fff;"/>
      <path d="m4416.96,1638.59c0-53.38,38.78-96.38,91.01-96.38s90.62,41.09,90.62,92.93c0,4.61-.38,9.6-1.15,12.29h-145.92c3.84,33.02,28.03,57.6,62.98,57.6,20.74,0,39.17-8.06,51.46-20.35l18.05,23.42c-14.98,16.13-41.09,27.26-70.66,27.26-56.06,0-96.38-43.39-96.38-96.77Zm35.33-13.82h111.36c-5.38-34.18-26.5-53.38-55.3-53.38s-51.07,22.66-56.06,53.38Z" style="fill: #fff;"/>
      <path d="m427.58,1927.35v264.19h-34.18v-28.8c-14.21,20.35-36.48,33.41-64.51,33.41-49.92,0-89.09-41.09-89.09-96.77s37.63-96.38,89.09-96.38c28.03,0,50.3,12.29,64.51,32.26v-107.91h34.18Zm-34.18,172.03c0-36.1-24.96-64.51-59.52-64.51s-59.9,28.42-59.9,64.51,25.34,64.9,59.9,64.9,59.52-29.18,59.52-64.9Z" style="fill: #fff;"/>
      <path d="m480.19,2099.39c0-53.38,38.78-96.38,91.01-96.38s90.62,41.09,90.62,92.93c0,4.61-.38,9.6-1.15,12.29h-145.92c3.84,33.02,28.03,57.6,62.98,57.6,20.74,0,39.17-8.06,51.46-20.35l18.05,23.42c-14.98,16.13-41.09,27.26-70.66,27.26-56.06,0-96.38-43.39-96.38-96.77Zm35.33-13.82h111.36c-5.38-34.18-26.5-53.38-55.3-53.38s-51.07,22.66-56.06,53.38Z" style="fill: #fff;"/>
      <path d="m834.24,2141.24c0,31.1-25.73,54.91-71.81,54.91-33.79,0-59.14-11.9-73.73-29.95l19.97-22.27c12.67,15.36,31.87,24.58,56.06,24.58s35.71-10.75,35.71-26.5c0-41.86-104.06-22.66-104.06-87.94,0-26.88,23.42-51.07,66.43-51.07,31.49,0,55.68,10.37,68.35,28.42l-20.35,20.35c-12.29-15.36-27.26-21.12-47.23-21.12s-33.79,9.98-33.79,23.42c0,39.55,104.45,19.2,104.45,87.17Z" style="fill: #fff;"/>
      <path d="m1023.93,2162.75c-14.21,20.35-36.48,33.41-64.51,33.41-49.92,0-89.09-41.09-89.09-96.77s37.63-96.38,89.09-96.38c28.03,0,50.3,12.29,64.51,32.26v-27.65h34.18v183.94h-34.18v-28.8Zm0-63.36c0-36.1-24.96-64.51-59.52-64.51s-59.9,28.42-59.9,64.51,25.34,64.9,59.9,64.9,59.52-29.18,59.52-64.9Z" style="fill: #fff;"/>
      <path d="m1158.33,2191.55h-34.18v-183.94h34.18v23.04c9.98-16.9,25.73-27.65,46.08-27.65,11.52,0,21.5,2.69,28.03,8.06l-14.21,31.87c-6.14-4.22-14.98-7.3-23.81-7.3-22.27,0-36.1,19.2-36.1,49.92v105.99Z" style="fill: #fff;"/>
      <path d="m1307.71,2191.55h-34.18v-183.94h34.18v23.04c9.98-16.9,25.73-27.65,46.08-27.65,11.52,0,21.5,2.69,28.03,8.06l-14.21,31.87c-6.14-4.22-14.98-7.3-23.81-7.3-22.27,0-36.1,19.2-36.1,49.92v105.99Z" style="fill: #fff;"/>
      <path d="m1394.11,2099.39c0-53.38,41.09-96.38,93.7-96.38s94.08,43.01,94.08,96.38-41.09,96.77-94.08,96.77-93.7-43.39-93.7-96.77Zm153.6,0c0-36.1-24.96-64.51-59.52-64.51s-59.9,28.42-59.9,64.51,25.34,64.9,59.9,64.9,59.52-29.18,59.52-64.9Z" style="fill: #fff;"/>
      <path d="m1634.49,1927.35h34.18v264.19h-34.18v-264.19Z" style="fill: #fff;"/>
      <path d="m1734.33,1927.35h34.18v264.19h-34.18v-264.19Z" style="fill: #fff;"/>
      <path d="m1974.33,2162.75c-14.21,20.35-36.48,33.41-64.51,33.41-49.92,0-89.09-41.09-89.09-96.77s37.63-96.38,89.09-96.38c28.03,0,50.3,12.29,64.51,32.26v-27.65h34.18v183.94h-34.18v-28.8Zm0-63.36c0-36.1-24.96-64.51-59.52-64.51s-59.9,28.42-59.9,64.51,25.34,64.9,59.9,64.9,59.52-29.18,59.52-64.9Z" style="fill: #fff;"/>
      <path d="m2108.73,2191.55h-34.18v-183.94h34.18v23.04c9.98-16.9,25.73-27.65,46.08-27.65,11.52,0,21.5,2.69,28.03,8.06l-14.21,31.87c-6.14-4.22-14.98-7.3-23.81-7.3-22.27,0-36.1,19.2-36.1,49.92v105.99Z" style="fill: #fff;"/>
      <path d="m2298.04,2099.39c0-53.38,38.78-96.38,91.01-96.38s90.62,41.09,90.62,92.93c0,4.61-.38,9.6-1.15,12.29h-145.92c3.84,33.02,28.03,57.6,62.98,57.6,20.74,0,39.17-8.06,51.46-20.35l18.05,23.42c-14.98,16.13-41.09,27.26-70.66,27.26-56.06,0-96.38-43.39-96.38-96.77Zm35.33-13.82h111.36c-5.38-34.18-26.5-53.38-55.3-53.38s-51.07,22.66-56.06,53.38Z" style="fill: #fff;"/>
      <path d="m2562.62,2191.55h-34.18v-183.94h34.18v22.66c11.52-17.28,31.1-27.26,55.3-27.26,43.39,0,71.42,29.57,71.42,76.03v112.51h-34.18v-107.14c0-30.34-17.66-49.54-46.46-49.54s-46.08,19.2-46.08,49.54v107.14Z" style="fill: #fff;"/>
      <path d="m2849.47,1965.37c-5.76-6.14-15.74-10.75-26.11-10.75-17.66,0-27.65,11.52-27.65,32.26v20.74h48.77v30.34h-48.77v153.6h-33.79v-153.6h-29.18v-30.34h29.18v-21.12c0-40.7,23.04-63.74,58.37-63.74,21.5,0,36.1,6.53,46.46,17.66l-17.28,24.96Z" style="fill: #fff;"/>
      <path d="m2862.91,2099.39c0-53.38,38.78-96.38,91.01-96.38s90.62,41.09,90.62,92.93c0,4.61-.38,9.6-1.15,12.29h-145.92c3.84,33.02,28.03,57.6,62.98,57.6,20.74,0,39.17-8.06,51.46-20.35l18.05,23.42c-14.98,16.13-41.09,27.26-70.66,27.26-56.06,0-96.38-43.39-96.38-96.77Zm35.33-13.82h111.36c-5.38-34.18-26.5-53.38-55.3-53.38s-51.07,22.66-56.06,53.38Z" style="fill: #fff;"/>
      <path d="m3127.48,2191.55h-34.18v-183.94h34.18v23.04c9.98-16.9,25.73-27.65,46.08-27.65,11.52,0,21.5,2.69,28.03,8.06l-14.21,31.87c-6.14-4.22-14.98-7.3-23.81-7.3-22.27,0-36.1,19.2-36.1,49.92v105.99Z" style="fill: #fff;"/>
      <path d="m3276.86,2191.55h-34.18v-183.94h34.18v23.04c11.14-16.9,29.57-27.65,52.99-27.65,28.8,0,50.3,13.82,61.44,37.25,9.98-21.5,30.34-37.25,59.9-37.25,42.62,0,70.27,28.8,70.27,76.03v112.51h-34.18v-107.14c0-30.34-16.51-49.54-43.78-49.54s-44.54,19.2-44.54,49.54v107.14h-33.79v-107.14c0-30.34-16.9-49.54-44.16-49.54s-44.16,19.2-44.16,49.54v107.14Z" style="fill: #fff;"/>
      <path d="m3571,2099.39c0-53.38,38.78-96.38,91.01-96.38s90.62,41.09,90.62,92.93c0,4.61-.38,9.6-1.15,12.29h-145.92c3.84,33.02,28.03,57.6,62.98,57.6,20.74,0,39.17-8.06,51.46-20.35l18.05,23.42c-14.98,16.13-41.09,27.26-70.66,27.26-56.06,0-96.38-43.39-96.38-96.77Zm35.33-13.82h111.36c-5.38-34.18-26.5-53.38-55.3-53.38s-51.07,22.66-56.06,53.38Z" style="fill: #fff;"/>
      <path d="m3975.74,1927.35v264.19h-34.18v-28.8c-14.21,20.35-36.48,33.41-64.51,33.41-49.92,0-89.09-41.09-89.09-96.77s37.63-96.38,89.09-96.38c28.03,0,50.3,12.29,64.51,32.26v-107.91h34.18Zm-34.18,172.03c0-36.1-24.96-64.51-59.52-64.51s-59.9,28.42-59.9,64.51,25.34,64.9,59.9,64.9,59.52-29.18,59.52-64.9Z" style="fill: #fff;"/>
      <path d="m4181.95,2162.75c-14.21,20.35-36.48,33.41-64.51,33.41-49.92,0-89.09-41.09-89.09-96.77s37.63-96.38,89.09-96.38c28.03,0,50.3,12.29,64.51,32.26v-27.65h34.18v183.94h-34.18v-28.8Zm0-63.36c0-36.1-24.96-64.51-59.52-64.51s-59.9,28.42-59.9,64.51,25.34,64.9,59.9,64.9,59.52-29.18,59.52-64.9Z" style="fill: #fff;"/>
      <path d="m4456.51,1927.35v264.19h-34.18v-28.8c-14.21,20.35-36.48,33.41-64.51,33.41-49.92,0-89.09-41.09-89.09-96.77s37.63-96.38,89.09-96.38c28.03,0,50.3,12.29,64.51,32.26v-107.91h34.18Zm-34.18,172.03c0-36.1-24.96-64.51-59.52-64.51s-59.9,28.42-59.9,64.51,25.34,64.9,59.9,64.9,59.52-29.18,59.52-64.9Z" style="fill: #fff;"/>
      <path d="m4509.12,2099.39c0-53.38,38.78-96.38,91.01-96.38s90.62,41.09,90.62,92.93c0,4.61-.38,9.6-1.15,12.29h-145.92c3.84,33.02,28.03,57.6,62.98,57.6,20.74,0,39.17-8.06,51.46-20.35l18.05,23.42c-14.98,16.13-41.09,27.26-70.66,27.26-56.06,0-96.38-43.39-96.38-96.77Zm35.33-13.82h111.36c-5.38-34.18-26.5-53.38-55.3-53.38s-51.07,22.66-56.06,53.38Z" style="fill: #fff;"/>
      <path d="m4863.17,2141.24c0,31.1-25.73,54.91-71.81,54.91-33.79,0-59.14-11.9-73.73-29.95l19.97-22.27c12.67,15.36,31.87,24.58,56.06,24.58s35.71-10.75,35.71-26.5c0-41.86-104.06-22.66-104.06-87.94,0-26.88,23.42-51.07,66.43-51.07,31.49,0,55.68,10.37,68.35,28.42l-20.35,20.35c-12.29-15.36-27.26-21.12-47.23-21.12s-33.79,9.98-33.79,23.42c0,39.55,104.45,19.2,104.45,87.17Z" style="fill: #fff;"/>
      <path d="m335.8,2495.67c-36.48,0-61.82,28.42-61.82,64.51s25.34,64.9,61.44,64.9c19.97,0,37.25-6.53,49.54-18.82l17.66,24.96c-14.59,15.74-40.32,25.73-68.35,25.73-53.76,0-94.46-43.39-94.46-96.77s41.09-96.38,94.85-96.38c29.57,0,53.76,9.98,69.12,25.73l-19.58,24.19c-12.29-11.52-28.42-18.05-48.38-18.05Z" style="fill: #fff;"/>
      <path d="m580.03,2623.55c-14.21,20.35-36.48,33.41-64.51,33.41-49.92,0-89.09-41.09-89.09-96.77s37.63-96.38,89.09-96.38c28.03,0,50.3,12.29,64.51,32.26v-27.65h34.18v183.94h-34.18v-28.8Zm0-63.36c0-36.1-24.96-64.51-59.52-64.51s-59.9,28.42-59.9,64.51,25.34,64.9,59.9,64.9,59.52-29.18,59.52-64.9Z" style="fill: #fff;"/>
      <path d="m714.43,2652.35h-34.18v-183.94h34.18v23.04c9.98-16.9,25.73-27.65,46.08-27.65,11.52,0,21.5,2.69,28.03,8.06l-14.21,31.87c-6.14-4.22-14.98-7.3-23.81-7.3-22.27,0-36.1,19.2-36.1,49.92v105.98Z" style="fill: #fff;"/>
      <path d="m988.6,2388.15v264.19h-34.18v-28.8c-14.21,20.35-36.48,33.41-64.51,33.41-49.92,0-89.09-41.09-89.09-96.77s37.63-96.38,89.09-96.38c28.03,0,50.3,12.29,64.51,32.26v-107.91h34.18Zm-34.18,172.03c0-36.1-24.96-64.51-59.52-64.51s-59.9,28.42-59.9,64.51,25.34,64.9,59.9,64.9,59.52-29.18,59.52-64.9Z" style="fill: #fff;"/>
      <path d="m1050.43,2415.42c0-11.52,9.6-21.12,21.12-21.12s21.12,9.6,21.12,21.12-9.6,21.12-21.12,21.12-21.12-9.6-21.12-21.12Zm38.4,236.93h-34.18v-183.94h34.18v183.94Z" style="fill: #fff;"/>
      <path d="m1141.05,2560.19c0-53.38,41.09-96.38,93.7-96.38s94.08,43.01,94.08,96.38-41.09,96.77-94.08,96.77-93.7-43.39-93.7-96.77Zm153.6,0c0-36.1-24.96-64.51-59.52-64.51s-59.9,28.42-59.9,64.51,25.34,64.9,59.9,64.9,59.52-29.18,59.52-64.9Z" style="fill: #fff;"/>
      <path d="m1532.35,2468.41l-69.5,183.94h-44.16l-69.5-183.94h37.63l54.91,153.22,55.68-153.22h34.94Z" style="fill: #fff;"/>
      <path d="m1706.3,2623.55c-14.21,20.35-36.48,33.41-64.51,33.41-49.92,0-89.09-41.09-89.09-96.77s37.63-96.38,89.09-96.38c28.03,0,50.3,12.29,64.51,32.26v-27.65h34.18v183.94h-34.18v-28.8Zm0-63.36c0-36.1-24.96-64.51-59.52-64.51s-59.9,28.42-59.9,64.51,25.34,64.9,59.9,64.9,59.52-29.18,59.52-64.9Z" style="fill: #fff;"/>
      <path d="m1932.48,2602.04c0,31.1-25.73,54.91-71.81,54.91-33.79,0-59.14-11.9-73.73-29.95l19.97-22.27c12.67,15.36,31.87,24.58,56.06,24.58s35.71-10.75,35.71-26.5c0-41.86-104.06-22.66-104.06-87.94,0-26.88,23.42-51.07,66.43-51.07,31.49,0,55.68,10.37,68.35,28.42l-20.35,20.35c-12.29-15.36-27.26-21.12-47.23-21.12s-33.79,9.98-33.79,23.42c0,39.55,104.45,19.2,104.45,87.17Z" style="fill: #fff;"/>
      <path d="m2064.57,2495.67c-36.48,0-61.82,28.42-61.82,64.51s25.34,64.9,61.44,64.9c19.97,0,37.25-6.53,49.54-18.82l17.66,24.96c-14.59,15.74-40.32,25.73-68.35,25.73-53.76,0-94.46-43.39-94.46-96.77s41.09-96.38,94.85-96.38c29.57,0,53.76,9.98,69.12,25.73l-19.58,24.19c-12.29-11.52-28.42-18.05-48.38-18.05Z" style="fill: #fff;"/>
      <path d="m2205.12,2570.17c0,32.26,18.82,53.76,47.23,53.76s48-21.5,48-53.76v-101.76h34.18v104.45c0,49.92-32.64,82.94-82.18,82.94s-81.41-33.02-81.41-82.94v-104.45h34.18v101.76Z" style="fill: #fff;"/>
      <path d="m2397.5,2388.15h34.18v264.19h-34.18v-264.19Z" style="fill: #fff;"/>
      <path d="m2637.5,2623.55c-14.21,20.35-36.48,33.41-64.51,33.41-49.92,0-89.09-41.09-89.09-96.77s37.63-96.38,89.09-96.38c28.03,0,50.3,12.29,64.51,32.26v-27.65h34.18v183.94h-34.18v-28.8Zm0-63.36c0-36.1-24.96-64.51-59.52-64.51s-59.9,28.42-59.9,64.51,25.34,64.9,59.9,64.9,59.52-29.18,59.52-64.9Z" style="fill: #fff;"/>
      <path d="m2771.9,2652.35h-34.18v-183.94h34.18v23.04c9.98-16.9,25.73-27.65,46.08-27.65,11.52,0,21.5,2.69,28.03,8.06l-14.21,31.87c-6.14-4.22-14.98-7.3-23.81-7.3-22.27,0-36.1,19.2-36.1,49.92v105.98Z" style="fill: #fff;"/>
      <path d="m2858.3,2560.19c0-53.38,38.78-96.38,91.01-96.38s90.62,41.09,90.62,92.93c0,4.61-.38,9.6-1.15,12.29h-145.92c3.84,33.02,28.03,57.6,62.98,57.6,20.74,0,39.17-8.06,51.46-20.35l18.05,23.42c-14.98,16.13-41.09,27.26-70.66,27.26-56.06,0-96.38-43.39-96.38-96.77Zm35.33-13.82h111.36c-5.38-34.18-26.5-53.38-55.3-53.38s-51.07,22.66-56.06,53.38Z" style="fill: #fff;"/>
      <path d="m3212.35,2602.04c0,31.1-25.73,54.91-71.81,54.91-33.79,0-59.14-11.9-73.73-29.95l19.97-22.27c12.67,15.36,31.87,24.58,56.06,24.58s35.71-10.75,35.71-26.5c0-41.86-104.06-22.66-104.06-87.94,0-26.88,23.42-51.07,66.43-51.07,31.49,0,55.68,10.37,68.35,28.42l-20.35,20.35c-12.29-15.36-27.26-21.12-47.23-21.12s-33.79,9.98-33.79,23.42c0,39.55,104.45,19.2,104.45,87.17Z" style="fill: #fff;"/>
      <path d="m320.44,2843.19l21.12,19.58c-40.32,37.63-64.51,88.32-64.51,144.39s24.19,106.75,64.51,144.38l-21.12,19.58c-46.85-42.62-77.18-98.3-77.18-163.97s30.34-121.35,77.18-163.97Z" style="fill: #fff;"/>
      <path d="m376.51,2876.22c0-11.52,9.6-21.12,21.12-21.12s21.12,9.6,21.12,21.12-9.6,21.12-21.12,21.12-21.12-9.6-21.12-21.12Zm38.4,236.93h-34.18v-183.94h34.18v183.94Z" style="fill: #fff;"/>
      <path d="m514.75,3113.15h-34.18v-183.94h34.18v22.66c11.52-17.28,31.1-27.26,55.3-27.26,43.39,0,71.42,29.57,71.42,76.03v112.51h-34.18v-107.14c0-30.34-17.66-49.54-46.46-49.54s-46.08,19.2-46.08,49.54v107.14Z" style="fill: #fff;"/>
      <path d="m801.6,2886.97c-5.76-6.14-15.74-10.75-26.11-10.75-17.66,0-27.65,11.52-27.65,32.26v20.74h48.77v30.34h-48.77v153.6h-33.79v-153.6h-29.18v-30.34h29.18v-21.12c0-40.7,23.04-63.74,58.37-63.74,21.5,0,36.1,6.53,46.46,17.66l-17.28,24.96Z" style="fill: #fff;"/>
      <path d="m968.64,3084.35c-14.21,20.35-36.48,33.41-64.51,33.41-49.92,0-89.09-41.09-89.09-96.77s37.63-96.38,89.09-96.38c28.03,0,50.3,12.29,64.51,32.26v-27.65h34.18v183.94h-34.18v-28.8Zm0-63.36c0-36.1-24.96-64.51-59.52-64.51s-59.9,28.42-59.9,64.51,25.34,64.9,59.9,64.9,59.52-29.18,59.52-64.9Z" style="fill: #fff;"/>
      <path d="m1103.04,3113.15h-34.18v-183.94h34.18v23.04c9.98-16.9,25.73-27.65,46.08-27.65,11.52,0,21.5,2.69,28.03,8.06l-14.21,31.87c-6.14-4.22-14.98-7.3-23.81-7.3-22.27,0-36.1,19.2-36.1,49.92v105.98Z" style="fill: #fff;"/>
      <path d="m1197.5,2929.21h30.72v-45.7h33.79v45.7h52.22v30.34h-51.84v97.15c0,19.58,8.83,29.18,25.34,29.18,9.22,0,18.43-3.46,23.81-9.6l15.74,25.73c-8.45,8.45-23.81,15.74-44.16,15.74-34.56,0-55.3-20.35-55.3-59.91v-98.3h-30.34v-30.34Z" style="fill: #fff;"/>
      <path d="m1344.96,3020.99c0-53.38,41.09-96.38,93.7-96.38s94.08,43.01,94.08,96.38-41.09,96.77-94.08,96.77-93.7-43.39-93.7-96.77Zm153.6,0c0-36.1-24.96-64.51-59.52-64.51s-59.9,28.42-59.9,64.51,25.34,64.9,59.9,64.9,59.52-29.18,59.52-64.9Z" style="fill: #fff;"/>
      <path d="m1708.99,3062.84c0,31.1-25.73,54.91-71.81,54.91-33.79,0-59.14-11.9-73.73-29.95l19.97-22.27c12.67,15.36,31.87,24.58,56.06,24.58s35.71-10.75,35.71-26.5c0-41.86-104.06-22.66-104.06-87.94,0-26.88,23.42-51.07,66.43-51.07,31.49,0,55.68,10.37,68.35,28.42l-20.35,20.35c-12.29-15.36-27.26-21.12-47.23-21.12s-33.79,9.98-33.79,23.42c0,39.55,104.45,19.2,104.45,87.17Z" style="fill: #fff;"/>
      <path d="m1752.76,3171.13l-21.12-19.58c40.32-37.63,64.13-88.32,64.13-144.38s-23.81-106.75-64.13-144.39l21.12-19.58c46.85,42.62,77.18,98.69,77.18,163.97s-30.34,121.34-77.18,163.97Z" style="fill: #fff;"/>
      <path d="m2044.99,3072.83l52.22-143.62h34.56l-79.49,213.89c-11.9,33.41-31.1,49.92-59.52,49.92-16.13,0-32.64-6.53-44.16-16.9l16.13-26.5c8.06,7.68,18.43,11.52,28.8,11.52,13.44,0,22.27-7.68,30.34-29.95l5.76-15.74-83.33-186.24h37.25l61.44,143.62Z" style="fill: #fff;"/>
      <path d="m2434.75,2848.95v264.19h-34.18v-28.8c-14.21,20.35-36.48,33.41-64.51,33.41-49.92,0-89.09-41.09-89.09-96.77s37.63-96.38,89.09-96.38c28.03,0,50.3,12.29,64.51,32.26v-107.9h34.18Zm-34.18,172.03c0-36.1-24.96-64.51-59.52-64.51s-59.9,28.42-59.9,64.51,25.34,64.9,59.9,64.9,59.52-29.18,59.52-64.9Z" style="fill: #fff;"/>
      <path d="m2496.57,2876.22c0-11.52,9.6-21.12,21.12-21.12s21.12,9.6,21.12,21.12-9.6,21.12-21.12,21.12-21.12-9.6-21.12-21.12Zm38.4,236.93h-34.18v-183.94h34.18v183.94Z" style="fill: #fff;"/>
      <path d="m2740.8,3084.35c-14.21,20.35-36.48,33.41-64.51,33.41-49.92,0-89.09-41.09-89.09-96.77s37.63-96.38,89.09-96.38c28.03,0,50.3,12.29,64.51,32.26v-27.65h34.18v183.94h-34.18v-28.8Zm0-63.36c0-36.1-24.96-64.51-59.52-64.51s-59.9,28.42-59.9,64.51,25.34,64.9,59.9,64.9,59.52-29.18,59.52-64.9Z" style="fill: #fff;"/>
      <path d="m3028.8,3021.37c0,54.53-38.02,96.38-89.47,96.38-27.65,0-49.92-11.9-64.13-31.49v26.88h-34.18v-264.19h34.18v108.29c14.21-19.97,36.48-32.64,64.13-32.64,49.92,0,89.47,41.09,89.47,96.77Zm-153.6,0c0,36.1,24.96,64.51,59.9,64.51s59.52-28.42,59.52-64.51-24.96-64.9-59.52-64.9-59.9,29.18-59.9,64.9Z" style="fill: #fff;"/>
      <path d="m3067.96,3020.99c0-53.38,38.78-96.38,91.01-96.38s90.62,41.09,90.62,92.93c0,4.61-.38,9.6-1.15,12.29h-145.92c3.84,33.02,28.03,57.6,62.98,57.6,20.74,0,39.17-8.06,51.46-20.35l18.05,23.42c-14.98,16.13-41.09,27.26-70.66,27.26-56.06,0-96.38-43.39-96.38-96.77Zm35.33-13.82h111.36c-5.38-34.18-26.5-53.38-55.3-53.38s-51.07,22.66-56.06,53.38Z" style="fill: #fff;"/>
      <path d="m3277.63,2929.21h30.72v-45.7h33.79v45.7h52.22v30.34h-51.84v97.15c0,19.58,8.83,29.18,25.34,29.18,9.22,0,18.43-3.46,23.81-9.6l15.74,25.73c-8.45,8.45-23.81,15.74-44.16,15.74-34.56,0-55.3-20.35-55.3-59.91v-98.3h-30.34v-30.34Z" style="fill: #fff;"/>
      <path d="m3425.08,3020.99c0-53.38,38.78-96.38,91.01-96.38s90.62,41.09,90.62,92.93c0,4.61-.38,9.6-1.15,12.29h-145.92c3.84,33.02,28.03,57.6,62.98,57.6,20.74,0,39.17-8.06,51.46-20.35l18.05,23.42c-14.98,16.13-41.09,27.26-70.66,27.26-56.06,0-96.38-43.39-96.38-96.77Zm35.33-13.82h111.36c-5.38-34.18-26.5-53.38-55.3-53.38s-51.07,22.66-56.06,53.38Z" style="fill: #fff;"/>
      <path d="m3779.13,3062.84c0,31.1-25.73,54.91-71.81,54.91-33.79,0-59.14-11.9-73.73-29.95l19.97-22.27c12.67,15.36,31.87,24.58,56.06,24.58s35.71-10.75,35.71-26.5c0-41.86-104.06-22.66-104.06-87.94,0-26.88,23.42-51.07,66.43-51.07,31.49,0,55.68,10.37,68.35,28.42l-20.35,20.35c-12.29-15.36-27.26-21.12-47.23-21.12s-33.79,9.98-33.79,23.42c0,39.55,104.45,19.2,104.45,87.17Z" style="fill: #fff;"/>
      <path d="m3809.08,3093.18c0-13.06,10.75-24.19,23.42-24.19,13.44,0,24.19,11.14,24.19,24.19s-10.75,23.42-24.19,23.42c-12.67,0-23.42-10.37-23.42-23.42Z" style="fill: #fff;"/>
    </g>
    <g id="botonx">
      <path d="m4694.15,257.65l5.34,5.34c4.81,4.81,9.61,9.61,14.42,14.42,7.12,7.12,14.25,14.25,21.37,21.37l26.07,26.07,28.47,28.47c9.61,9.61,19.21,19.21,28.82,28.82,8.96,8.96,17.91,17.91,26.87,26.87,7.55,7.55,15.09,15.09,22.64,22.64,5.46,5.46,10.92,10.92,16.37,16.37,2.57,2.57,5.12,5.14,7.7,7.7.11.11.22.22.33.33,3.81,3.81,9.46,6.15,14.85,6.15,2.89.11,5.59-.49,8.09-1.81,2.6-.85,4.86-2.29,6.76-4.34,3.67-4,6.4-9.26,6.15-14.85s-2.13-10.83-6.15-14.85l-5.34-5.34c-4.81-4.81-9.61-9.61-14.42-14.42-7.12-7.12-14.25-14.25-21.37-21.37l-26.07-26.07c-9.49-9.49-18.98-18.98-28.47-28.47s-19.21-19.21-28.82-28.82c-8.96-8.96-17.91-17.91-26.87-26.87-7.55-7.55-15.09-15.09-22.64-22.64-5.46-5.46-10.92-10.92-16.37-16.37-2.57-2.57-5.12-5.14-7.7-7.7-.11-.11-.22-.22-.33-.33-3.81-3.81-9.46-6.15-14.85-6.15-2.89-.11-5.59.49-8.09,1.81-2.6.85-4.86,2.29-6.76,4.34-3.67,4-6.4,9.26-6.15,14.85s2.13,10.83,6.15,14.85h0Z" style="fill: #fff;"/>
      <path d="m4892.56,227.95l-5.34,5.34c-4.81,4.81-9.61,9.61-14.42,14.42-7.12,7.12-14.25,14.25-21.37,21.37-8.69,8.69-17.38,17.38-26.07,26.07-9.49,9.49-18.98,18.98-28.47,28.47s-19.21,19.21-28.82,28.82c-8.96,8.96-17.91,17.91-26.87,26.87-7.55,7.55-15.09,15.09-22.64,22.64-5.46,5.46-10.92,10.92-16.37,16.37-2.57,2.57-5.14,5.12-7.7,7.7-.11.11-.22.22-.33.33-3.81,3.81-6.15,9.46-6.15,14.85-.11,2.89.49,5.59,1.81,8.09.85,2.6,2.29,4.86,4.34,6.76,4,3.67,9.26,6.4,14.85,6.15s10.83-2.13,14.85-6.15l5.34-5.34c4.81-4.81,9.61-9.61,14.42-14.42,7.12-7.12,14.25-14.25,21.37-21.37,8.69-8.69,17.38-17.38,26.07-26.07,9.49-9.49,18.98-18.98,28.47-28.47s19.21-19.21,28.82-28.82c8.96-8.96,17.91-17.91,26.87-26.87,7.55-7.55,15.09-15.09,22.64-22.64,5.46-5.46,10.92-10.92,16.37-16.37,2.57-2.57,5.14-5.12,7.7-7.7.11-.11.22-.22.33-.33,3.81-3.81,6.15-9.46,6.15-14.85.11-2.89-.49-5.59-1.81-8.09-.85-2.6-2.29-4.86-4.34-6.76-4-3.67-9.26-6.4-14.85-6.15s-10.83,2.13-14.85,6.15h0Z" style="fill: #fff;"/>
    </g>
  </g>
</svg>