<?xml version="1.0" encoding="UTF-8"?>
<svg id="Capa_2" data-name="Capa 2" xmlns="http://www.w3.org/2000/svg" xmlns:xlink="http://www.w3.org/1999/xlink" viewBox="0 0 5159 4157">
  <defs>
    <linearGradient id="Degradado_sin_nombre_1839" data-name="Degradado sin nombre 1839" x1="4061.82" y1="-488.95" x2="1097.18" y2="4645.95" gradientUnits="userSpaceOnUse">
      <stop offset="0" stop-color="#8500ff"/>
      <stop offset=".18" stop-color="#920aff"/>
      <stop offset=".5" stop-color="#b525ff"/>
      <stop offset=".95" stop-color="#ed52ff"/>
      <stop offset="1" stop-color="#f558ff"/>
    </linearGradient>
  </defs>
  <g id="mensajeFrutas">
    <g>
      <rect width="5159" height="4157" rx="342.06" ry="342.06" style="fill: url(#Degradado_sin_nombre_1839);"/>
      <g>
        <path d="m251.98,1335.16h31.41v194.04h115.87v29.67h-147.28v-223.71Z" style="fill: #fff;"/>
        <path d="m554.56,1532.69c-12.91,18.5-33.16,30.36-58.63,30.36-45.37,0-80.97-37.34-80.97-87.95s34.2-87.6,80.97-87.6c25.48,0,45.72,11.17,58.63,29.32v-25.13h31.06v167.17h-31.06v-26.17Zm0-57.58c0-32.81-22.69-58.63-54.09-58.63s-54.44,25.83-54.44,58.63,23.03,58.98,54.44,58.98,54.09-26.52,54.09-58.98Z" style="fill: #fff;"/>
        <path d="m760.12,1513.15c0,28.27-23.38,49.91-65.26,49.91-30.71,0-53.75-10.82-67.01-27.22l18.15-20.24c11.52,13.96,28.97,22.34,50.95,22.34s32.46-9.77,32.46-24.08c0-38.04-94.58-20.59-94.58-79.92,0-24.43,21.29-46.42,60.38-46.42,28.62,0,50.6,9.42,62.12,25.83l-18.5,18.5c-11.17-13.96-24.78-19.19-42.93-19.19s-30.71,9.07-30.71,21.29c0,35.95,94.93,17.45,94.93,79.22Z" style="fill: #fff;"/>
        <path d="m973.36,1353.31c-5.24-5.58-14.31-9.77-23.73-9.77-16.05,0-25.13,10.47-25.13,29.32v18.85h44.32v27.57h-44.32v139.6h-30.71v-139.6h-26.52v-27.57h26.52v-19.2c0-36.99,20.94-57.93,53.05-57.93,19.54,0,32.81,5.93,42.23,16.05l-15.7,22.69Z" style="fill: #fff;"/>
        <path d="m1032.34,1558.87h-31.06v-167.17h31.06v20.94c9.07-15.36,23.38-25.13,41.88-25.13,10.47,0,19.54,2.44,25.48,7.33l-12.91,28.97c-5.58-3.84-13.61-6.63-21.64-6.63-20.24,0-32.81,17.45-32.81,45.37v96.32Z" style="fill: #fff;"/>
        <path d="m1165.31,1484.18c0,29.32,17.1,48.86,42.93,48.86s43.62-19.54,43.62-48.86v-92.48h31.06v94.93c0,45.37-29.67,75.38-74.69,75.38s-73.99-30.01-73.99-75.38v-94.93h31.06v92.48Z" style="fill: #fff;"/>
        <path d="m1321.31,1391.7h27.92v-41.53h30.71v41.53h47.46v27.57h-47.11v88.3c0,17.8,8.03,26.52,23.03,26.52,8.38,0,16.75-3.14,21.64-8.73l14.31,23.38c-7.68,7.68-21.64,14.31-40.14,14.31-31.41,0-50.26-18.5-50.26-54.44v-89.34h-27.57v-27.57Z" style="fill: #fff;"/>
        <path d="m1594.93,1532.69c-12.91,18.5-33.15,30.36-58.63,30.36-45.37,0-80.97-37.34-80.97-87.95s34.2-87.6,80.97-87.6c25.48,0,45.72,11.17,58.63,29.32v-25.13h31.06v167.17h-31.06v-26.17Zm0-57.58c0-32.81-22.68-58.63-54.09-58.63s-54.44,25.83-54.44,58.63,23.03,58.98,54.44,58.98,54.09-26.52,54.09-58.98Z" style="fill: #fff;"/>
        <path d="m1800.49,1513.15c0,28.27-23.38,49.91-65.26,49.91-30.71,0-53.75-10.82-67.01-27.22l18.15-20.24c11.52,13.96,28.97,22.34,50.95,22.34s32.46-9.77,32.46-24.08c0-38.04-94.58-20.59-94.58-79.92,0-24.43,21.29-46.42,60.38-46.42,28.62,0,50.6,9.42,62.12,25.83l-18.5,18.5c-11.17-13.96-24.78-19.19-42.93-19.19s-30.71,9.07-30.71,21.29c0,35.95,94.93,17.45,94.93,79.22Z" style="fill: #fff;"/>
        <path d="m1990,1522.22l47.46-130.53h31.41l-72.24,194.39c-10.82,30.36-28.27,45.37-54.09,45.37-14.66,0-29.67-5.93-40.13-15.36l14.66-24.08c7.33,6.98,16.75,10.47,26.18,10.47,12.22,0,20.24-6.98,27.57-27.22l5.23-14.31-75.73-169.26h33.85l55.84,130.53Z" style="fill: #fff;"/>
        <path d="m2329.58,1391.7l-63.17,167.17h-40.14l-63.17-167.17h34.2l49.91,139.25,50.6-139.25h31.76Z" style="fill: #fff;"/>
        <path d="m2348.07,1475.11c0-48.51,35.25-87.6,82.71-87.6s82.36,37.34,82.36,84.46c0,4.19-.35,8.73-1.05,11.17h-132.62c3.49,30.01,25.48,52.35,57.24,52.35,18.85,0,35.6-7.33,46.77-18.5l16.4,21.29c-13.61,14.66-37.34,24.78-64.22,24.78-50.95,0-87.6-39.44-87.6-87.95Zm32.11-12.56h101.21c-4.89-31.06-24.08-48.51-50.26-48.51s-46.42,20.59-50.95,48.51Z" style="fill: #fff;"/>
        <path d="m2588.53,1558.87h-31.06v-167.17h31.06v20.94c9.07-15.36,23.38-25.13,41.88-25.13,10.47,0,19.54,2.44,25.48,7.33l-12.91,28.97c-5.58-3.84-13.61-6.63-21.64-6.63-20.24,0-32.81,17.45-32.81,45.37v96.32Z" style="fill: #fff;"/>
        <path d="m2837.72,1318.76v240.11h-31.06v-26.17c-12.91,18.5-33.15,30.36-58.63,30.36-45.37,0-80.97-37.34-80.97-87.95s34.2-87.6,80.97-87.6c25.48,0,45.72,11.17,58.63,29.32v-98.07h31.06Zm-31.06,156.35c0-32.81-22.68-58.63-54.09-58.63s-54.44,25.83-54.44,58.63,23.03,58.98,54.44,58.98,54.09-26.52,54.09-58.98Z" style="fill: #fff;"/>
        <path d="m2926.02,1484.18c0,29.32,17.1,48.86,42.93,48.86s43.62-19.54,43.62-48.86v-92.48h31.06v94.93c0,45.37-29.67,75.38-74.69,75.38s-73.99-30.01-73.99-75.38v-94.93h31.06v92.48Z" style="fill: #fff;"/>
        <path d="m3131.93,1558.87h-31.06v-167.17h31.06v20.94c9.07-15.36,23.38-25.13,41.88-25.13,10.47,0,19.54,2.44,25.48,7.33l-12.91,28.97c-5.58-3.84-13.61-6.63-21.64-6.63-20.24,0-32.81,17.45-32.81,45.37v96.32Z" style="fill: #fff;"/>
        <path d="m3350.05,1532.69c-12.91,18.5-33.15,30.36-58.63,30.36-45.37,0-80.97-37.34-80.97-87.95s34.2-87.6,80.97-87.6c25.48,0,45.72,11.17,58.63,29.32v-25.13h31.06v167.17h-31.06v-26.17Zm0-57.58c0-32.81-22.69-58.63-54.09-58.63s-54.44,25.83-54.44,58.63,23.03,58.98,54.44,58.98,54.09-26.52,54.09-58.98Z" style="fill: #fff;"/>
        <path d="m3555.61,1513.15c0,28.27-23.38,49.91-65.26,49.91-30.71,0-53.75-10.82-67.01-27.22l18.15-20.24c11.52,13.96,28.97,22.34,50.95,22.34s32.46-9.77,32.46-24.08c0-38.04-94.58-20.59-94.58-79.92,0-24.43,21.29-46.42,60.38-46.42,28.62,0,50.6,9.42,62.12,25.83l-18.5,18.5c-11.17-13.96-24.78-19.19-42.93-19.19s-30.71,9.07-30.71,21.29c0,35.95,94.93,17.45,94.93,79.22Z" style="fill: #fff;"/>
        <path d="m3661.36,1391.7h27.92v-41.53h30.71v41.53h47.46v27.57h-47.11v88.3c0,17.8,8.03,26.52,23.03,26.52,8.38,0,16.75-3.14,21.64-8.73l14.31,23.38c-7.68,7.68-21.64,14.31-40.13,14.31-31.41,0-50.26-18.5-50.26-54.44v-89.34h-27.57v-27.57Z" style="fill: #fff;"/>
        <path d="m3812.83,1343.53c0-10.47,8.73-19.19,19.19-19.19s19.2,8.73,19.2,19.19-8.73,19.2-19.2,19.2-19.19-8.73-19.19-19.2Zm34.9,215.33h-31.06v-167.17h31.06v167.17Z" style="fill: #fff;"/>
        <path d="m3895.19,1475.11c0-48.51,35.25-87.6,82.71-87.6s82.36,37.34,82.36,84.46c0,4.19-.35,8.73-1.05,11.17h-132.62c3.49,30.01,25.48,52.35,57.24,52.35,18.85,0,35.6-7.33,46.77-18.5l16.4,21.29c-13.61,14.66-37.34,24.78-64.22,24.78-50.95,0-87.6-39.44-87.6-87.95Zm32.11-12.56h101.21c-4.89-31.06-24.08-48.51-50.26-48.51s-46.42,20.59-50.95,48.51Z" style="fill: #fff;"/>
        <path d="m4135.65,1558.87h-31.06v-167.17h31.06v20.59c10.47-15.71,28.27-24.78,50.26-24.78,39.44,0,64.91,26.87,64.91,69.1v102.26h-31.06v-97.37c0-27.57-16.05-45.02-42.23-45.02s-41.88,17.45-41.88,45.02v97.37Z" style="fill: #fff;"/>
        <path d="m4295.49,1475.11c0-48.51,35.25-87.6,82.71-87.6s82.36,37.34,82.36,84.46c0,4.19-.35,8.73-1.05,11.17h-132.62c3.49,30.01,25.48,52.35,57.24,52.35,18.85,0,35.6-7.33,46.77-18.5l16.4,21.29c-13.61,14.66-37.34,24.78-64.22,24.78-50.95,0-87.6-39.44-87.6-87.95Zm32.11-12.56h101.21c-4.89-31.06-24.08-48.51-50.26-48.51s-46.42,20.59-50.95,48.51Z" style="fill: #fff;"/>
        <path d="m4535.95,1558.87h-31.06v-167.17h31.06v20.59c10.47-15.71,28.27-24.78,50.26-24.78,39.44,0,64.91,26.87,64.91,69.1v102.26h-31.06v-97.37c0-27.57-16.05-45.02-42.23-45.02s-41.88,17.45-41.88,45.02v97.37Z" style="fill: #fff;"/>
        <path d="m394.02,1810.5l-63.17,167.17h-40.14l-63.17-167.17h34.2l49.91,139.25,50.6-139.25h31.76Z" style="fill: #fff;"/>
        <path d="m427.53,1762.33c0-10.47,8.72-19.19,19.19-19.19s19.19,8.73,19.19,19.19-8.72,19.19-19.19,19.19-19.19-8.72-19.19-19.19Zm34.9,215.33h-31.06v-167.17h31.06v167.17Z" style="fill: #fff;"/>
        <path d="m503.26,1810.5h27.92v-41.53h30.71v41.53h47.46v27.57h-47.11v88.3c0,17.8,8.03,26.52,23.03,26.52,8.38,0,16.75-3.14,21.64-8.73l14.31,23.38c-7.68,7.68-21.64,14.31-40.14,14.31-31.41,0-50.26-18.5-50.26-54.44v-89.34h-27.57v-27.57Z" style="fill: #fff;"/>
        <path d="m776.87,1951.49c-12.91,18.5-33.16,30.36-58.63,30.36-45.37,0-80.97-37.34-80.97-87.95s34.2-87.6,80.97-87.6c25.48,0,45.72,11.17,58.63,29.32v-25.13h31.06v167.17h-31.06v-26.17Zm0-57.58c0-32.81-22.69-58.63-54.09-58.63s-54.44,25.83-54.44,58.63,23.03,58.98,54.44,58.98,54.09-26.52,54.09-58.98Z" style="fill: #fff;"/>
        <path d="m899.02,1977.67h-31.06v-167.17h31.06v20.94c10.12-15.36,26.87-25.13,48.16-25.13,26.17,0,45.72,12.56,55.84,33.85,9.07-19.54,27.57-33.85,54.44-33.85,38.74,0,63.87,26.17,63.87,69.1v102.26h-31.06v-97.37c0-27.57-15.01-45.02-39.79-45.02s-40.48,17.45-40.48,45.02v97.37h-30.71v-97.37c0-27.57-15.36-45.02-40.14-45.02s-40.14,17.45-40.14,45.02v97.37Z" style="fill: #fff;"/>
        <path d="m1174.73,1762.33c0-10.47,8.72-19.19,19.19-19.19s19.19,8.73,19.19,19.19-8.72,19.19-19.19,19.19-19.19-8.72-19.19-19.19Zm34.9,215.33h-31.06v-167.17h31.06v167.17Z" style="fill: #fff;"/>
        <path d="m1300.37,1977.67h-31.06v-167.17h31.06v20.59c10.47-15.71,28.27-24.78,50.26-24.78,39.44,0,64.91,26.87,64.91,69.1v102.26h-31.06v-97.37c0-27.57-16.05-45.02-42.23-45.02s-41.88,17.45-41.88,45.02v97.37Z" style="fill: #fff;"/>
        <path d="m1599.82,1951.49c-12.91,18.5-33.16,30.36-58.63,30.36-45.37,0-80.97-37.34-80.97-87.95s34.2-87.6,80.97-87.6c25.48,0,45.72,11.17,58.63,29.32v-25.13h31.06v167.17h-31.06v-26.17Zm0-57.58c0-32.81-22.69-58.63-54.09-58.63s-54.44,25.83-54.44,58.63,23.03,58.98,54.44,58.98,54.09-26.52,54.09-58.98Z" style="fill: #fff;"/>
        <path d="m1805.38,1931.95c0,28.27-23.38,49.91-65.26,49.91-30.71,0-53.75-10.82-67.01-27.22l18.15-20.24c11.52,13.96,28.97,22.34,50.95,22.34s32.46-9.77,32.46-24.08c0-38.04-94.58-20.59-94.58-79.92,0-24.43,21.29-46.42,60.38-46.42,28.62,0,50.6,9.42,62.12,25.83l-18.5,18.5c-11.17-13.96-24.78-19.19-42.93-19.19s-30.71,9.07-30.71,21.29c0,35.95,94.93,17.45,94.93,79.22Z" style="fill: #fff;"/>
        <path d="m1845.16,2019.2h-25.83l18.5-79.22h34.9l-27.57,79.22Z" style="fill: #fff;"/>
        <path d="m2028.74,1977.67h-31.06v-167.17h31.06v20.94c10.12-15.36,26.87-25.13,48.16-25.13,26.17,0,45.72,12.56,55.84,33.85,9.07-19.54,27.57-33.85,54.44-33.85,38.74,0,63.87,26.17,63.87,69.1v102.26h-31.06v-97.37c0-27.57-15.01-45.02-39.79-45.02s-40.48,17.45-40.48,45.02v97.37h-30.71v-97.37c0-27.57-15.36-45.02-40.14-45.02s-40.14,17.45-40.14,45.02v97.37Z" style="fill: #fff;"/>
        <path d="m2304.45,1762.33c0-10.47,8.72-19.19,19.19-19.19s19.19,8.73,19.19,19.19-8.72,19.19-19.19,19.19-19.19-8.72-19.19-19.19Zm34.9,215.33h-31.06v-167.17h31.06v167.17Z" style="fill: #fff;"/>
        <path d="m2430.09,1977.67h-31.06v-167.17h31.06v20.59c10.47-15.71,28.27-24.78,50.26-24.78,39.44,0,64.91,26.87,64.91,69.1v102.26h-31.06v-97.37c0-27.57-16.05-45.02-42.23-45.02s-41.88,17.45-41.88,45.02v97.37Z" style="fill: #fff;"/>
        <path d="m2589.93,1893.91c0-48.51,35.25-87.6,82.71-87.6s82.36,37.34,82.36,84.46c0,4.19-.35,8.73-1.05,11.17h-132.62c3.49,30.01,25.48,52.35,57.24,52.35,18.85,0,35.6-7.33,46.77-18.5l16.4,21.29c-13.61,14.66-37.34,24.78-64.22,24.78-50.95,0-87.6-39.44-87.6-87.95Zm32.11-12.56h101.21c-4.89-31.06-24.08-48.51-50.26-48.51s-46.42,20.59-50.95,48.51Z" style="fill: #fff;"/>
        <path d="m2830.39,1977.67h-31.06v-167.17h31.06v20.94c9.07-15.36,23.38-25.13,41.88-25.13,10.47,0,19.54,2.44,25.48,7.33l-12.91,28.97c-5.58-3.84-13.61-6.63-21.64-6.63-20.24,0-32.81,17.45-32.81,45.37v96.32Z" style="fill: #fff;"/>
        <path d="m3048.52,1951.49c-12.91,18.5-33.15,30.36-58.63,30.36-45.37,0-80.97-37.34-80.97-87.95s34.2-87.6,80.97-87.6c25.48,0,45.72,11.17,58.63,29.32v-25.13h31.06v167.17h-31.06v-26.17Zm0-57.58c0-32.81-22.69-58.63-54.09-58.63s-54.44,25.83-54.44,58.63,23.03,58.98,54.44,58.98,54.09-26.52,54.09-58.98Z" style="fill: #fff;"/>
        <path d="m3139.6,1737.56h31.06v240.11h-31.06v-240.11Z" style="fill: #fff;"/>
        <path d="m3218.13,1893.91c0-48.51,35.25-87.6,82.71-87.6s82.36,37.34,82.36,84.46c0,4.19-.35,8.73-1.05,11.17h-132.62c3.49,30.01,25.48,52.35,57.24,52.35,18.85,0,35.6-7.33,46.77-18.5l16.4,21.29c-13.61,14.66-37.34,24.78-64.22,24.78-50.95,0-87.6-39.44-87.6-87.95Zm32.11-12.56h101.21c-4.89-31.06-24.08-48.51-50.26-48.51s-46.42,20.59-50.95,48.51Z" style="fill: #fff;"/>
        <path d="m3539.91,1931.95c0,28.27-23.38,49.91-65.26,49.91-30.71,0-53.75-10.82-67.01-27.22l18.15-20.24c11.52,13.96,28.97,22.34,50.95,22.34s32.46-9.77,32.46-24.08c0-38.04-94.58-20.59-94.58-79.92,0-24.43,21.29-46.42,60.38-46.42,28.62,0,50.6,9.42,62.12,25.83l-18.5,18.5c-11.17-13.96-24.78-19.19-42.93-19.19s-30.71,9.07-30.71,21.29c0,35.95,94.93,17.45,94.93,79.22Z" style="fill: #fff;"/>
        <path d="m3729.41,1941.02l47.46-130.53h31.41l-72.24,194.39c-10.82,30.36-28.27,45.37-54.09,45.37-14.66,0-29.67-5.93-40.13-15.36l14.66-24.08c7.33,6.98,16.75,10.47,26.17,10.47,12.22,0,20.24-6.98,27.57-27.22l5.23-14.31-75.73-169.26h33.85l55.84,130.53Z" style="fill: #fff;"/>
        <path d="m281.29,2229.3v25.48c12.91-18.15,33.15-29.67,58.28-29.67,45.37,0,81.32,37.34,81.32,87.95s-34.55,87.6-81.32,87.6c-25.13,0-45.37-10.82-58.28-28.62v92.83h-31.06v-235.57h31.06Zm0,83.76c0,32.8,22.68,58.63,54.44,58.63s54.09-25.83,54.09-58.63-22.68-58.98-54.09-58.98-54.44,26.52-54.44,58.98Z" style="fill: #fff;"/>
        <path d="m499.77,2396.47h-31.06v-167.17h31.06v20.94c9.07-15.36,23.38-25.13,41.88-25.13,10.47,0,19.54,2.44,25.48,7.33l-12.91,28.97c-5.58-3.84-13.61-6.63-21.64-6.63-20.24,0-32.81,17.45-32.81,45.37v96.32Z" style="fill: #fff;"/>
        <path d="m578.29,2312.71c0-48.51,37.34-87.6,85.16-87.6s85.5,39.09,85.5,87.6-37.34,87.95-85.5,87.95-85.16-39.44-85.16-87.95Zm139.6,0c0-32.81-22.68-58.63-54.09-58.63s-54.44,25.83-54.44,58.63,23.03,58.98,54.44,58.98,54.09-26.52,54.09-58.98Z" style="fill: #fff;"/>
        <path d="m777.92,2229.3h27.92v-41.53h30.71v41.53h47.46v27.57h-47.11v88.3c0,17.8,8.03,26.52,23.03,26.52,8.38,0,16.75-3.14,21.64-8.72l14.31,23.38c-7.68,7.68-21.64,14.31-40.13,14.31-31.41,0-50.26-18.5-50.26-54.44v-89.34h-27.57v-27.57Z" style="fill: #fff;"/>
        <path d="m911.94,2312.71c0-48.51,35.25-87.6,82.71-87.6s82.36,37.34,82.36,84.46c0,4.19-.35,8.72-1.05,11.17h-132.62c3.49,30.01,25.48,52.35,57.24,52.35,18.85,0,35.6-7.33,46.77-18.5l16.4,21.29c-13.61,14.66-37.34,24.78-64.22,24.78-50.95,0-87.6-39.44-87.6-87.95Zm32.11-12.56h101.21c-4.89-31.06-24.08-48.51-50.26-48.51s-46.42,20.59-50.95,48.51Z" style="fill: #fff;"/>
        <path d="m1190.09,2156.36l-42.93,54.44h-28.27l34.2-54.44h36.99Zm-37.69,240.11h-31.06v-167.17h31.06v167.17Z" style="fill: #fff;"/>
        <path d="m1243.14,2396.47h-31.06v-167.17h31.06v20.59c10.47-15.71,28.27-24.78,50.26-24.78,39.44,0,64.91,26.87,64.91,69.1v102.26h-31.06v-97.37c0-27.57-16.05-45.02-42.23-45.02s-41.88,17.45-41.88,45.02v97.37Z" style="fill: #fff;"/>
        <path d="m1542.58,2370.29c-12.91,18.5-33.15,30.36-58.63,30.36-45.37,0-80.97-37.34-80.97-87.95s34.2-87.6,80.97-87.6c25.48,0,45.72,11.17,58.63,29.32v-25.13h31.06v167.17h-31.06v-26.17Zm0-57.58c0-32.81-22.68-58.63-54.09-58.63s-54.44,25.83-54.44,58.63,23.03,58.98,54.44,58.98,54.09-26.52,54.09-58.98Z" style="fill: #fff;"/>
        <path d="m1748.14,2350.75c0,28.27-23.38,49.91-65.26,49.91-30.71,0-53.75-10.82-67.01-27.22l18.15-20.24c11.52,13.96,28.97,22.34,50.95,22.34s32.46-9.77,32.46-24.08c0-38.04-94.58-20.59-94.58-79.92,0-24.43,21.29-46.42,60.38-46.42,28.62,0,50.6,9.42,62.12,25.83l-18.5,18.5c-11.17-13.96-24.78-19.2-42.93-19.2s-30.71,9.07-30.71,21.29c0,35.95,94.93,17.45,94.93,79.22Z" style="fill: #fff;"/>
        <path d="m2031.18,2229.3v235.57h-31.06v-94.58c-12.91,18.5-33.15,30.36-58.63,30.36-45.37,0-80.97-37.34-80.97-87.95s34.2-87.6,80.97-87.6c25.48,0,45.72,11.17,58.63,29.32v-25.13h31.06Zm-31.06,83.41c0-32.81-22.68-58.63-54.09-58.63s-54.44,25.83-54.44,58.63,23.03,58.98,54.44,58.98,54.09-26.52,54.09-58.98Z" style="fill: #fff;"/>
        <path d="m2119.48,2321.78c0,29.32,17.1,48.86,42.93,48.86s43.62-19.54,43.62-48.86v-92.48h31.06v94.93c0,45.37-29.67,75.38-74.69,75.38s-73.99-30.01-73.99-75.38v-94.93h31.06v92.48Z" style="fill: #fff;"/>
        <path d="m2282.11,2312.71c0-48.51,35.25-87.6,82.71-87.6s82.36,37.34,82.36,84.46c0,4.19-.35,8.72-1.05,11.17h-132.62c3.49,30.01,25.48,52.35,57.24,52.35,18.85,0,35.6-7.33,46.77-18.5l16.4,21.29c-13.61,14.66-37.34,24.78-64.22,24.78-50.95,0-87.6-39.44-87.6-87.95Zm32.11-12.56h101.21c-4.89-31.06-24.08-48.51-50.26-48.51s-46.42,20.59-50.95,48.51Z" style="fill: #fff;"/>
        <path d="m2659.73,2190.91c-5.23-5.58-14.31-9.77-23.73-9.77-16.05,0-25.13,10.47-25.13,29.32v18.85h44.32v27.57h-44.32v139.6h-30.71v-139.6h-26.52v-27.57h26.52v-19.2c0-36.99,20.94-57.93,53.05-57.93,19.54,0,32.81,5.93,42.23,16.05l-15.71,22.68Z" style="fill: #fff;"/>
        <path d="m2671.94,2312.71c0-48.51,37.34-87.6,85.16-87.6s85.5,39.09,85.5,87.6-37.34,87.95-85.5,87.95-85.16-39.44-85.16-87.95Zm139.6,0c0-32.81-22.68-58.63-54.09-58.63s-54.44,25.83-54.44,58.63,23.03,58.98,54.44,58.98,54.09-26.52,54.09-58.98Z" style="fill: #fff;"/>
        <path d="m2921.48,2396.47h-31.06v-167.17h31.06v20.94c9.07-15.36,23.38-25.13,41.88-25.13,10.47,0,19.54,2.44,25.48,7.33l-12.91,28.97c-5.58-3.84-13.61-6.63-21.64-6.63-20.24,0-32.81,17.45-32.81,45.37v96.32Z" style="fill: #fff;"/>
        <path d="m3007.33,2229.3h27.92v-41.53h30.71v41.53h47.46v27.57h-47.11v88.3c0,17.8,8.03,26.52,23.03,26.52,8.38,0,16.75-3.14,21.64-8.72l14.31,23.38c-7.68,7.68-21.64,14.31-40.14,14.31-31.41,0-50.26-18.5-50.26-54.44v-89.34h-27.57v-27.57Z" style="fill: #fff;"/>
        <path d="m3280.95,2370.29c-12.91,18.5-33.15,30.36-58.63,30.36-45.37,0-80.97-37.34-80.97-87.95s34.2-87.6,80.97-87.6c25.48,0,45.72,11.17,58.63,29.32v-25.13h31.06v167.17h-31.06v-26.17Zm0-57.58c0-32.81-22.68-58.63-54.09-58.63s-54.44,25.83-54.44,58.63,23.03,58.98,54.44,58.98,54.09-26.52,54.09-58.98Z" style="fill: #fff;"/>
        <path d="m3372.04,2156.36h31.06v240.11h-31.06v-240.11Z" style="fill: #fff;"/>
        <path d="m3450.56,2312.71c0-48.51,35.25-87.6,82.71-87.6s82.36,37.34,82.36,84.46c0,4.19-.35,8.72-1.05,11.17h-132.62c3.49,30.01,25.48,52.35,57.24,52.35,18.85,0,35.6-7.33,46.77-18.5l16.4,21.29c-13.61,14.66-37.34,24.78-64.22,24.78-50.95,0-87.6-39.44-87.6-87.95Zm32.11-12.56h101.21c-4.89-31.06-24.08-48.51-50.26-48.51s-46.42,20.59-50.95,48.51Z" style="fill: #fff;"/>
        <path d="m3735,2254.08c-33.15,0-56.19,25.83-56.19,58.63s23.03,58.98,55.84,58.98c18.15,0,33.85-5.93,45.02-17.1l16.05,22.68c-13.26,14.31-36.65,23.38-62.12,23.38-48.86,0-85.85-39.44-85.85-87.95s37.34-87.6,86.2-87.6c26.87,0,48.86,9.07,62.82,23.38l-17.8,21.99c-11.17-10.47-25.83-16.4-43.97-16.4Z" style="fill: #fff;"/>
        <path d="m3817.36,2312.71c0-48.51,35.25-87.6,82.71-87.6s82.36,37.34,82.36,84.46c0,4.19-.35,8.72-1.05,11.17h-132.62c3.49,30.01,25.48,52.35,57.24,52.35,18.85,0,35.6-7.33,46.77-18.5l16.4,21.29c-13.61,14.66-37.34,24.78-64.22,24.78-50.95,0-87.6-39.44-87.6-87.95Zm32.11-12.56h101.21c-4.89-31.06-24.08-48.51-50.26-48.51s-46.42,20.59-50.95,48.51Z" style="fill: #fff;"/>
        <path d="m4057.82,2396.47h-31.06v-167.17h31.06v20.59c10.47-15.71,28.27-24.78,50.26-24.78,39.44,0,64.91,26.87,64.91,69.1v102.26h-31.06v-97.37c0-27.57-16.05-45.02-42.23-45.02s-41.88,17.45-41.88,45.02v97.37Z" style="fill: #fff;"/>
        <path d="m281.29,2815.27h-31.06v-167.17h31.06v20.59c10.47-15.71,28.27-24.78,50.26-24.78,39.44,0,64.91,26.87,64.91,69.1v102.26h-31.06v-97.37c0-27.57-16.05-45.02-42.23-45.02s-41.88,17.45-41.88,45.02v97.37Z" style="fill: #fff;"/>
        <path d="m481.62,2740.58c0,29.32,17.1,48.86,42.93,48.86s43.62-19.54,43.62-48.86v-92.49h31.06v94.93c0,45.37-29.66,75.38-74.69,75.38s-73.99-30.01-73.99-75.38v-94.93h31.06v92.49Z" style="fill: #fff;"/>
        <path d="m644.25,2731.51c0-48.51,35.25-87.6,82.71-87.6s82.36,37.34,82.36,84.46c0,4.19-.35,8.72-1.05,11.17h-132.62c3.49,30.01,25.48,52.35,57.24,52.35,18.85,0,35.6-7.33,46.77-18.5l16.4,21.29c-13.61,14.66-37.34,24.78-64.22,24.78-50.95,0-87.6-39.44-87.6-87.95Zm32.11-12.56h101.21c-4.89-31.06-24.08-48.51-50.26-48.51s-46.42,20.59-50.95,48.51Z" style="fill: #fff;"/>
        <path d="m966.03,2769.55c0,28.27-23.38,49.91-65.26,49.91-30.71,0-53.75-10.82-67.01-27.22l18.15-20.24c11.52,13.96,28.97,22.34,50.95,22.34s32.46-9.77,32.46-24.08c0-38.04-94.58-20.59-94.58-79.92,0-24.43,21.29-46.42,60.38-46.42,28.62,0,50.6,9.42,62.12,25.83l-18.5,18.5c-11.17-13.96-24.78-19.19-42.93-19.19s-30.71,9.07-30.71,21.29c0,35.95,94.93,17.45,94.93,79.22Z" style="fill: #fff;"/>
        <path d="m992.21,2648.1h27.92v-41.53h30.71v41.53h47.46v27.57h-47.11v88.3c0,17.8,8.03,26.52,23.03,26.52,8.38,0,16.75-3.14,21.64-8.72l14.31,23.38c-7.68,7.68-21.64,14.31-40.13,14.31-31.41,0-50.26-18.5-50.26-54.44v-89.34h-27.57v-27.57Z" style="fill: #fff;"/>
        <path d="m1178.57,2815.27h-31.06v-167.17h31.06v20.94c9.07-15.36,23.38-25.13,41.88-25.13,10.47,0,19.54,2.44,25.48,7.33l-12.91,28.97c-5.58-3.84-13.61-6.63-21.64-6.63-20.24,0-32.81,17.45-32.81,45.37v96.32Z" style="fill: #fff;"/>
        <path d="m1257.1,2731.51c0-48.51,37.34-87.6,85.16-87.6s85.5,39.09,85.5,87.6-37.34,87.95-85.5,87.95-85.16-39.44-85.16-87.95Zm139.6,0c0-32.81-22.68-58.63-54.09-58.63s-54.44,25.83-54.44,58.63,23.03,58.98,54.44,58.98,54.09-26.52,54.09-58.98Z" style="fill: #fff;"/>
        <path d="m1669.62,2769.55c0,28.27-23.38,49.91-65.26,49.91-30.71,0-53.75-10.82-67.01-27.22l18.15-20.24c11.52,13.96,28.97,22.34,50.95,22.34s32.46-9.77,32.46-24.08c0-38.04-94.58-20.59-94.58-79.92,0-24.43,21.29-46.42,60.38-46.42,28.62,0,50.6,9.42,62.12,25.83l-18.5,18.5c-11.17-13.96-24.78-19.19-42.93-19.19s-30.71,9.07-30.71,21.29c0,35.95,94.93,17.45,94.93,79.22Z" style="fill: #fff;"/>
        <path d="m1710.8,2599.93c0-10.47,8.72-19.2,19.19-19.2s19.19,8.72,19.19,19.2-8.72,19.19-19.19,19.19-19.19-8.72-19.19-19.19Zm34.9,215.33h-31.06v-167.17h31.06v167.17Z" style="fill: #fff;"/>
        <path d="m1919.85,2769.55c0,28.27-23.38,49.91-65.26,49.91-30.71,0-53.75-10.82-67.01-27.22l18.15-20.24c11.52,13.96,28.97,22.34,50.95,22.34s32.46-9.77,32.46-24.08c0-38.04-94.58-20.59-94.58-79.92,0-24.43,21.29-46.42,60.38-46.42,28.62,0,50.6,9.42,62.12,25.83l-18.5,18.5c-11.17-13.96-24.78-19.19-42.93-19.19s-30.71,9.07-30.71,21.29c0,35.95,94.93,17.45,94.93,79.22Z" style="fill: #fff;"/>
        <path d="m1946.02,2648.1h27.92v-41.53h30.71v41.53h47.46v27.57h-47.11v88.3c0,17.8,8.03,26.52,23.03,26.52,8.38,0,16.75-3.14,21.64-8.72l14.31,23.38c-7.68,7.68-21.64,14.31-40.13,14.31-31.41,0-50.26-18.5-50.26-54.44v-89.34h-27.57v-27.57Z" style="fill: #fff;"/>
        <path d="m2080.04,2731.51c0-48.51,35.25-87.6,82.71-87.6s82.36,37.34,82.36,84.46c0,4.19-.35,8.72-1.05,11.17h-132.62c3.49,30.01,25.48,52.35,57.24,52.35,18.85,0,35.6-7.33,46.77-18.5l16.4,21.29c-13.61,14.66-37.34,24.78-64.22,24.78-50.95,0-87.6-39.44-87.6-87.95Zm32.11-12.56h101.21c-4.89-31.06-24.08-48.51-50.26-48.51s-46.42,20.59-50.95,48.51Z" style="fill: #fff;"/>
        <path d="m2320.5,2815.27h-31.06v-167.17h31.06v20.94c10.12-15.36,26.87-25.13,48.16-25.13,26.17,0,45.72,12.56,55.84,33.85,9.07-19.54,27.57-33.85,54.44-33.85,38.74,0,63.87,26.17,63.87,69.1v102.26h-31.06v-97.37c0-27.57-15.01-45.02-39.79-45.02s-40.48,17.45-40.48,45.02v97.37h-30.71v-97.37c0-27.57-15.36-45.02-40.13-45.02s-40.14,17.45-40.14,45.02v97.37Z" style="fill: #fff;"/>
        <path d="m2727.44,2789.09c-12.91,18.5-33.15,30.36-58.63,30.36-45.37,0-80.97-37.34-80.97-87.95s34.2-87.6,80.97-87.6c25.48,0,45.72,11.17,58.63,29.32v-25.13h31.06v167.17h-31.06v-26.17Zm0-57.58c0-32.81-22.68-58.63-54.09-58.63s-54.44,25.83-54.44,58.63,23.03,58.98,54.44,58.98,54.09-26.52,54.09-58.98Z" style="fill: #fff;"/>
        <path d="m2894.26,2599.93c0-10.47,8.73-19.2,19.2-19.2s19.19,8.72,19.19,19.2-8.73,19.19-19.19,19.19-19.2-8.72-19.2-19.19Zm34.9,215.33h-31.06v-167.17h31.06v167.17Z" style="fill: #fff;"/>
        <path d="m3019.9,2815.27h-31.06v-167.17h31.06v20.94c10.12-15.36,26.87-25.13,48.16-25.13,26.17,0,45.72,12.56,55.84,33.85,9.07-19.54,27.57-33.85,54.44-33.85,38.74,0,63.87,26.17,63.87,69.1v102.26h-31.06v-97.37c0-27.57-15.01-45.02-39.79-45.02s-40.48,17.45-40.48,45.02v97.37h-30.71v-97.37c0-27.57-15.36-45.02-40.14-45.02s-40.13,17.45-40.13,45.02v97.37Z" style="fill: #fff;"/>
        <path d="m3327.72,2740.58c0,29.32,17.1,48.86,42.93,48.86s43.62-19.54,43.62-48.86v-92.49h31.06v94.93c0,45.37-29.67,75.38-74.69,75.38s-73.99-30.01-73.99-75.38v-94.93h31.06v92.49Z" style="fill: #fff;"/>
        <path d="m3533.63,2815.27h-31.06v-167.17h31.06v20.59c10.47-15.71,28.27-24.78,50.26-24.78,39.44,0,64.91,26.87,64.91,69.1v102.26h-31.06v-97.37c0-27.57-16.05-45.02-42.23-45.02s-41.88,17.45-41.88,45.02v97.37Z" style="fill: #fff;"/>
        <path d="m3693.47,2731.51c0-48.51,37.34-87.6,85.16-87.6s85.5,39.09,85.5,87.6-37.34,87.95-85.5,87.95-85.16-39.44-85.16-87.95Zm139.6,0c0-32.81-22.68-58.63-54.09-58.63s-54.44,25.83-54.44,58.63,23.03,58.98,54.44,58.98,54.09-26.52,54.09-58.98Z" style="fill: #fff;"/>
        <path d="m3911.94,2575.16h31.06v240.11h-31.06v-240.11Z" style="fill: #fff;"/>
        <path d="m3990.47,2731.51c0-48.51,37.34-87.6,85.16-87.6s85.5,39.09,85.5,87.6-37.34,87.95-85.5,87.95-85.16-39.44-85.16-87.95Zm139.6,0c0-32.81-22.68-58.63-54.09-58.63s-54.44,25.83-54.44,58.63,23.03,58.98,54.44,58.98,54.09-26.52,54.09-58.98Zm-1.05-156.35l-42.93,54.44h-28.27l34.2-54.44h36.99Z" style="fill: #fff;"/>
        <path d="m4279.44,2859.59c35.25,0,55.49-18.85,55.49-54.44v-19.89c-12.91,18.15-33.15,29.67-58.63,29.67-44.67,0-79.57-36.3-79.57-85.5s34.9-84.81,79.57-84.81c25.48,0,45.72,10.82,58.63,28.27v-24.78h30.71v155.3c0,61.77-39.09,84.46-84.46,84.46-30.71,0-55.14-7.68-71.2-21.29l15.7-24.43c11.17,8.38,29.67,17.45,53.75,17.45Zm55.49-130.53c0-31.06-22.34-56.19-53.4-56.19s-53.75,25.13-53.75,56.19,22.69,56.89,53.75,56.89,53.4-25.48,53.4-56.89Z" style="fill: #fff;"/>
        <path d="m4421.83,2599.93c0-10.47,8.73-19.2,19.19-19.2s19.2,8.72,19.2,19.2-8.73,19.19-19.2,19.19-19.19-8.72-19.19-19.19Zm34.9,215.33h-31.06v-167.17h31.06v167.17Z" style="fill: #fff;"/>
        <path d="m4591.44,2672.88c-33.15,0-56.19,25.83-56.19,58.63s23.03,58.98,55.84,58.98c18.15,0,33.85-5.93,45.02-17.1l16.05,22.68c-13.26,14.31-36.65,23.38-62.12,23.38-48.86,0-85.85-39.44-85.85-87.95s37.34-87.6,86.2-87.6c26.87,0,48.86,9.07,62.82,23.38l-17.8,21.99c-11.17-10.47-25.83-16.4-43.97-16.4Z" style="fill: #fff;"/>
        <path d="m4673.81,2731.51c0-48.51,37.34-87.6,85.16-87.6s85.5,39.09,85.5,87.6-37.34,87.95-85.5,87.95-85.16-39.44-85.16-87.95Zm139.6,0c0-32.81-22.68-58.63-54.09-58.63s-54.44,25.83-54.44,58.63,23.03,58.98,54.44,58.98,54.09-26.52,54.09-58.98Z" style="fill: #fff;"/>
        <path d="m4870.99,2797.12c0-11.87,9.77-21.99,21.29-21.99,12.21,0,21.99,10.12,21.99,21.99s-9.77,21.29-21.99,21.29c-11.52,0-21.29-9.42-21.29-21.29Z" style="fill: #fff;"/>
      </g>
    </g>
  </g>
</svg>