<?xml version="1.0" encoding="UTF-8"?>
<svg id="Capa_2" data-name="Capa 2" xmlns="http://www.w3.org/2000/svg" xmlns:xlink="http://www.w3.org/1999/xlink" viewBox="0 0 5159 4157">
  <defs>
    <linearGradient id="Degradado_sin_nombre_1839" data-name="Degradado sin nombre 1839" x1="4061.82" y1="-488.95" x2="1097.18" y2="4645.95" gradientUnits="userSpaceOnUse">
      <stop offset="0" stop-color="#8500ff"/>
      <stop offset=".18" stop-color="#920aff"/>
      <stop offset=".5" stop-color="#b525ff"/>
      <stop offset=".95" stop-color="#ed52ff"/>
      <stop offset="1" stop-color="#f558ff"/>
    </linearGradient>
  </defs>
  <g id="mensaje_fondo_5">
    <g>
      <rect width="5159" height="4157" rx="342.06" ry="342.06" style="fill: url(#Degradado_sin_nombre_1839);"/>
      <g>
        <path d="m255.98,1486.22h35.37v218.51h130.48v33.41h-165.85v-251.92Z" style="fill: #fff;"/>
        <path d="m596.72,1708.66c-14.54,20.83-37.34,34.19-66.02,34.19-51.09,0-91.18-42.05-91.18-99.04s38.51-98.64,91.18-98.64c28.69,0,51.48,12.58,66.02,33.01v-28.3h34.98v188.25h-34.98v-29.48Zm0-64.85c0-36.94-25.55-66.02-60.92-66.02s-61.31,29.08-61.31,66.02,25.94,66.42,61.31,66.42,60.92-29.87,60.92-66.42Z" style="fill: #fff;"/>
        <path d="m880.85,1580.94h-104.93v-31.05h150.13v31.05l-108.08,126.15h110.43v31.05h-155.24v-31.05l107.68-126.15Z" style="fill: #fff;"/>
        <path d="m1115.87,1708.66c-14.54,20.83-37.34,34.19-66.02,34.19-51.09,0-91.18-42.05-91.18-99.04s38.51-98.64,91.18-98.64c28.69,0,51.48,12.58,66.02,33.01v-28.3h34.98v188.25h-34.98v-29.48Zm0-64.85c0-36.94-25.55-66.02-60.92-66.02s-61.31,29.08-61.31,66.02,25.94,66.42,61.31,66.42,60.92-29.87,60.92-66.42Z" style="fill: #fff;"/>
        <path d="m1253.42,1738.14h-34.98v-188.25h34.98v23.19c11.79-17.69,31.83-27.9,56.59-27.9,44.41,0,73.1,30.26,73.1,77.82v115.15h-34.98v-109.65c0-31.05-18.08-50.7-47.55-50.7s-47.16,19.65-47.16,50.7v109.65Z" style="fill: #fff;"/>
        <path d="m1590.61,1708.66c-14.54,20.83-37.34,34.19-66.02,34.19-51.09,0-91.18-42.05-91.18-99.04s38.51-98.64,91.18-98.64c28.69,0,51.48,12.58,66.02,33.01v-28.3h34.98v188.25h-34.98v-29.48Zm0-64.85c0-36.94-25.55-66.02-60.92-66.02s-61.31,29.08-61.31,66.02,25.94,66.42,61.31,66.42,60.92-29.87,60.92-66.42Z" style="fill: #fff;"/>
        <path d="m1728.16,1738.14h-34.98v-270.39h34.98v105.33c11.79-17.69,31.83-27.9,56.59-27.9,44.41,0,73.1,30.26,73.1,77.82v115.15h-34.98v-109.65c0-31.05-18.08-50.7-47.55-50.7s-47.16,19.65-47.16,50.7v109.65Z" style="fill: #fff;"/>
        <path d="m1908.16,1643.82c0-54.63,42.05-98.64,95.89-98.64s96.29,44.02,96.29,98.64-42.05,99.04-96.29,99.04-95.89-44.41-95.89-99.04Zm157.2,0c0-36.94-25.55-66.02-60.92-66.02s-61.31,29.08-61.31,66.02,25.94,66.42,61.31,66.42,60.92-29.87,60.92-66.42Z" style="fill: #fff;"/>
        <path d="m2189.15,1738.14h-34.98v-188.25h34.98v23.58c10.22-17.29,26.33-28.3,47.16-28.3,11.79,0,22.01,2.75,28.69,8.25l-14.54,32.62c-6.29-4.32-15.33-7.47-24.37-7.47-22.79,0-36.94,19.65-36.94,51.09v108.47Z" style="fill: #fff;"/>
        <path d="m2302.73,1495.65c0-11.79,9.83-21.62,21.62-21.62s21.62,9.83,21.62,21.62-9.83,21.62-21.62,21.62-21.62-9.83-21.62-21.62Zm39.3,242.48h-34.98v-188.25h34.98v188.25Z" style="fill: #fff;"/>
        <path d="m2552.68,1708.66c-14.54,20.83-37.34,34.19-66.02,34.19-51.09,0-91.18-42.05-91.18-99.04s38.51-98.64,91.18-98.64c28.69,0,51.48,12.58,66.02,33.01v-28.3h34.98v188.25h-34.98v-29.48Zm0-64.85c0-36.94-25.55-66.02-60.92-66.02s-61.31,29.08-61.31,66.02,25.94,66.42,61.31,66.42,60.92-29.87,60.92-66.42Z" style="fill: #fff;"/>
        <path d="m2649.35,1784.91h-29.08l20.83-89.21h39.3l-31.05,89.21Z" style="fill: #fff;"/>
        <path d="m2807.34,1643.82c0-54.63,39.69-98.64,93.14-98.64s92.75,42.05,92.75,95.11c0,4.72-.39,9.83-1.18,12.58h-149.34c3.93,33.8,28.69,58.95,64.45,58.95,21.22,0,40.09-8.25,52.66-20.83l18.47,23.97c-15.33,16.51-42.05,27.9-72.31,27.9-57.38,0-98.64-44.41-98.64-99.04Zm36.16-14.15h113.97c-5.5-34.98-27.12-54.63-56.59-54.63s-52.27,23.19-57.38,54.63Z" style="fill: #fff;"/>
        <path d="m3043.14,1467.75h34.98v270.39h-34.98v-270.39Z" style="fill: #fff;"/>
        <path d="m3427.1,1644.21c0,55.81-38.91,98.64-91.57,98.64-28.3,0-51.09-12.18-65.63-32.23v27.51h-34.98v-270.39h34.98v110.83c14.54-20.44,37.34-33.41,65.63-33.41,51.09,0,91.57,42.05,91.57,99.04Zm-157.2,0c0,36.94,25.55,66.02,61.31,66.02s60.92-29.08,60.92-66.02-25.55-66.42-60.92-66.42-61.31,29.87-61.31,66.42Z" style="fill: #fff;"/>
        <path d="m3515.92,1738.14h-34.98v-188.25h34.98v23.58c10.22-17.29,26.33-28.3,47.16-28.3,11.79,0,22.01,2.75,28.69,8.25l-14.54,32.62c-6.29-4.32-15.33-7.47-24.37-7.47-22.79,0-36.94,19.65-36.94,51.09v108.47Z" style="fill: #fff;"/>
        <path d="m3604.34,1643.82c0-54.63,42.05-98.64,95.89-98.64s96.29,44.02,96.29,98.64-42.05,99.04-96.29,99.04-95.89-44.41-95.89-99.04Zm157.2,0c0-36.94-25.55-66.02-60.92-66.02s-61.31,29.08-61.31,66.02,25.94,66.42,61.31,66.42,60.92-29.87,60.92-66.42Zm-1.18-176.07l-48.34,61.31h-31.83l38.51-61.31h41.66Z" style="fill: #fff;"/>
        <path d="m3934.86,1577.79c-37.34,0-63.27,29.08-63.27,66.02s25.94,66.42,62.88,66.42c20.44,0,38.12-6.68,50.7-19.26l18.08,25.55c-14.93,16.11-41.27,26.33-69.96,26.33-55.02,0-96.68-44.41-96.68-99.04s42.05-98.64,97.07-98.64c30.26,0,55.02,10.22,70.74,26.33l-20.04,24.76c-12.58-11.79-29.08-18.47-49.52-18.47Z" style="fill: #fff;"/>
        <path d="m4027.6,1643.82c0-54.63,42.05-98.64,95.89-98.64s96.29,44.02,96.29,98.64-42.05,99.04-96.29,99.04-95.89-44.41-95.89-99.04Zm157.2,0c0-36.94-25.55-66.02-60.92-66.02s-61.31,29.08-61.31,66.02,25.94,66.42,61.31,66.42,60.92-29.87,60.92-66.42Z" style="fill: #fff;"/>
        <path d="m4273.62,1467.75h34.98v270.39h-34.98v-270.39Z" style="fill: #fff;"/>
        <path d="m4371.48,1495.65c0-11.79,9.83-21.62,21.62-21.62s21.62,9.83,21.62,21.62-9.83,21.62-21.62,21.62-21.62-9.83-21.62-21.62Zm39.3,242.48h-34.98v-188.25h34.98v188.25Z" style="fill: #fff;"/>
        <path d="m4640.69,1696.87l53.45-146.98h35.37l-81.35,218.9c-12.18,34.19-31.83,51.09-60.92,51.09-16.51,0-33.41-6.68-45.2-17.29l16.51-27.12c8.25,7.86,18.86,11.79,29.48,11.79,13.75,0,22.79-7.86,31.05-30.65l5.9-16.11-85.28-190.61h38.12l62.88,146.98Z" style="fill: #fff;"/>
        <path d="m254.02,1939.35h34.98v270.39h-34.98v-270.39Z" style="fill: #fff;"/>
        <path d="m499.65,2180.26c-14.54,20.83-37.34,34.19-66.02,34.19-51.09,0-91.18-42.05-91.18-99.04s38.51-98.64,91.18-98.64c28.69,0,51.48,12.58,66.02,33.01v-28.3h34.98v188.25h-34.98v-29.48Zm0-64.85c0-36.94-25.55-66.02-60.92-66.02s-61.31,29.08-61.31,66.02,25.94,66.42,61.31,66.42,60.92-29.87,60.92-66.42Z" style="fill: #fff;"/>
        <path d="m726.8,2209.74h-34.98v-188.25h34.98v23.19c11.79-17.69,31.83-27.9,56.59-27.9,44.41,0,73.1,30.26,73.1,77.82v115.15h-34.98v-109.65c0-31.05-18.08-50.7-47.55-50.7s-47.16,19.65-47.16,50.7v109.65Z" style="fill: #fff;"/>
        <path d="m1063.99,2180.26c-14.54,20.83-37.34,34.19-66.02,34.19-51.09,0-91.18-42.05-91.18-99.04s38.51-98.64,91.18-98.64c28.69,0,51.48,12.58,66.02,33.01v-28.3h34.98v188.25h-34.98v-29.48Zm0-64.85c0-36.94-25.55-66.02-60.92-66.02s-61.31,29.08-61.31,66.02,25.94,66.42,61.31,66.42,60.92-29.87,60.92-66.42Z" style="fill: #fff;"/>
        <path d="m1201.54,2209.74h-34.98v-188.25h34.98v23.58c10.22-17.29,26.33-28.3,47.16-28.3,11.79,0,22.01,2.75,28.69,8.25l-14.54,32.62c-6.29-4.32-15.33-7.47-24.37-7.47-22.79,0-36.94,19.65-36.94,51.09v108.47Z" style="fill: #fff;"/>
        <path d="m1447.17,2180.26c-14.54,20.83-37.34,34.19-66.02,34.19-51.09,0-91.18-42.05-91.18-99.04s38.51-98.64,91.18-98.64c28.69,0,51.48,12.58,66.02,33.01v-28.3h34.98v188.25h-34.98v-29.48Zm0-64.85c0-36.94-25.55-66.02-60.92-66.02s-61.31,29.08-61.31,66.02,25.94,66.42,61.31,66.42,60.92-29.87,60.92-66.42Z" style="fill: #fff;"/>
        <path d="m1584.72,2209.74h-34.98v-188.25h34.98v23.19c11.79-17.69,31.83-27.9,56.59-27.9,44.41,0,73.1,30.26,73.1,77.82v115.15h-34.98v-109.65c0-31.05-18.08-50.7-47.55-50.7s-47.16,19.65-47.16,50.7v109.65Z" style="fill: #fff;"/>
        <path d="m1813.44,2225.46c0,40.87-20.44,66.02-58.16,66.02-18.47,0-31.44-5.9-40.87-14.15l16.51-25.94c5.9,4.72,12.97,8.25,22.79,8.25,15.33,0,24.76-11,24.76-32.23v-205.94h34.98v203.97Zm3.93-258.21c0,11.79-9.83,21.62-21.62,21.62s-21.62-9.83-21.62-21.62,9.83-21.62,21.62-21.62,21.62,9.83,21.62,21.62Z" style="fill: #fff;"/>
        <path d="m2024.09,2180.26c-14.54,20.83-37.34,34.19-66.02,34.19-51.09,0-91.18-42.05-91.18-99.04s38.51-98.64,91.18-98.64c28.69,0,51.48,12.58,66.02,33.01v-28.3h34.98v188.25h-34.98v-29.48Zm0-64.85c0-36.94-25.55-66.02-60.92-66.02s-61.31,29.08-61.31,66.02,25.94,66.42,61.31,66.42,60.92-29.87,60.92-66.42Z" style="fill: #fff;"/>
        <path d="m2195.04,2021.49h31.44v-46.77h34.58v46.77h53.45v31.05h-53.06v99.43c0,20.04,9.04,29.87,25.94,29.87,9.43,0,18.86-3.54,24.37-9.83l16.11,26.33c-8.65,8.65-24.37,16.11-45.2,16.11-35.37,0-56.59-20.83-56.59-61.31v-100.61h-31.05v-31.05Z" style="fill: #fff;"/>
        <path d="m2345.96,2115.42c0-54.63,39.69-98.64,93.14-98.64s92.75,42.05,92.75,95.11c0,4.72-.39,9.83-1.18,12.58h-149.34c3.93,33.8,28.69,58.95,64.45,58.95,21.22,0,40.09-8.25,52.66-20.83l18.47,23.97c-15.33,16.51-42.05,27.9-72.31,27.9-57.38,0-98.64-44.41-98.64-99.04Zm36.16-14.15h113.97c-5.5-34.98-27.12-54.63-56.59-54.63s-52.27,23.19-57.38,54.63Z" style="fill: #fff;"/>
        <path d="m2814.81,2180.26c-14.54,20.83-37.34,34.19-66.02,34.19-51.09,0-91.18-42.05-91.18-99.04s38.51-98.64,91.18-98.64c28.69,0,51.48,12.58,66.02,33.01v-28.3h34.98v188.25h-34.98v-29.48Zm0-64.85c0-36.94-25.55-66.02-60.92-66.02s-61.31,29.08-61.31,66.02,25.94,66.42,61.31,66.42,60.92-29.87,60.92-66.42Z" style="fill: #fff;"/>
        <path d="m2990.48,2168.47l53.45-146.98h35.37l-81.35,218.9c-12.18,34.19-31.83,51.09-60.92,51.09-16.51,0-33.41-6.68-45.2-17.29l16.51-27.12c8.25,7.86,18.86,11.79,29.48,11.79,13.75,0,22.79-7.86,31.05-30.65l5.9-16.11-85.28-190.61h38.12l62.88,146.98Z" style="fill: #fff;"/>
        <path d="m3153.18,2125.63c0,33.01,19.26,55.02,48.34,55.02s49.13-22.01,49.13-55.02v-104.15h34.98v106.9c0,51.09-33.41,84.89-84.1,84.89s-83.32-33.8-83.32-84.89v-106.9h34.98v104.15Z" style="fill: #fff;"/>
        <path d="m3528.5,1939.35v270.39h-34.98v-29.48c-14.54,20.83-37.34,34.19-66.02,34.19-51.09,0-91.18-42.05-91.18-99.04s38.51-98.64,91.18-98.64c28.69,0,51.48,12.58,66.02,33.01v-110.43h34.98Zm-34.98,176.07c0-36.94-25.55-66.02-60.92-66.02s-61.31,29.08-61.31,66.02,25.94,66.42,61.31,66.42,60.92-29.87,60.92-66.42Z" style="fill: #fff;"/>
        <path d="m3739.54,2180.26c-14.54,20.83-37.34,34.19-66.02,34.19-51.09,0-91.18-42.05-91.18-99.04s38.51-98.64,91.18-98.64c28.69,0,51.48,12.58,66.02,33.01v-28.3h34.98v188.25h-34.98v-29.48Zm0-64.85c0-36.94-25.55-66.02-60.92-66.02s-61.31,29.08-61.31,66.02,25.94,66.42,61.31,66.42,60.92-29.87,60.92-66.42Z" style="fill: #fff;"/>
        <path d="m3877.09,2209.74h-34.98v-188.25h34.98v23.58c10.22-17.29,26.33-28.3,47.16-28.3,11.79,0,22.01,2.75,28.69,8.25l-14.54,32.62c-6.29-4.32-15.33-7.47-24.37-7.47-22.79,0-36.94,19.65-36.94,51.09v108.47Z" style="fill: #fff;"/>
        <path d="m4122.71,2180.26c-14.54,20.83-37.34,34.19-66.02,34.19-51.09,0-91.18-42.05-91.18-99.04s38.51-98.64,91.18-98.64c28.69,0,51.48,12.58,66.02,33.01v-28.3h34.98v188.25h-34.98v-29.48Zm0-64.85c0-36.94-25.55-66.02-60.92-66.02s-61.31,29.08-61.31,66.02,25.94,66.42,61.31,66.42,60.92-29.87,60.92-66.42Zm1.57-176.07l-48.34,61.31h-31.83l38.51-61.31h41.66Z" style="fill: #fff;"/>
        <path d="m4260.26,2209.74h-34.98v-188.25h34.98v23.19c11.79-17.69,31.83-27.9,56.59-27.9,44.41,0,73.1,30.26,73.1,77.82v115.15h-34.98v-109.65c0-31.05-18.08-50.7-47.55-50.7s-47.16,19.65-47.16,50.7v109.65Z" style="fill: #fff;"/>
        <path d="m4687.06,2180.26c-14.54,20.83-37.34,34.19-66.02,34.19-51.09,0-91.18-42.05-91.18-99.04s38.51-98.64,91.18-98.64c28.69,0,51.48,12.58,66.02,33.01v-28.3h34.98v188.25h-34.98v-29.48Zm0-64.85c0-36.94-25.55-66.02-60.92-66.02s-61.31,29.08-61.31,66.02,25.94,66.42,61.31,66.42,60.92-29.87,60.92-66.42Z" style="fill: #fff;"/>
        <path d="m232.8,2493.09h31.44v-46.77h34.58v46.77h53.45v31.05h-53.06v99.43c0,20.04,9.04,29.87,25.94,29.87,9.43,0,18.86-3.54,24.37-9.83l16.11,26.33c-8.65,8.65-24.37,16.11-45.2,16.11-35.37,0-56.59-20.83-56.59-61.31v-100.61h-31.05v-31.05Z" style="fill: #fff;"/>
        <path d="m383.71,2587.02c0-54.63,39.69-98.64,93.14-98.64s92.75,42.05,92.75,95.11c0,4.72-.39,9.83-1.18,12.58h-149.34c3.93,33.8,28.69,58.95,64.45,58.95,21.22,0,40.09-8.25,52.66-20.83l18.47,23.97c-15.33,16.51-42.05,27.9-72.31,27.9-57.38,0-98.64-44.41-98.64-99.04Zm36.16-14.15h113.97c-5.5-34.98-27.12-54.63-56.59-54.63s-52.27,23.19-57.38,54.63Z" style="fill: #fff;"/>
        <path d="m654.49,2681.34h-34.98v-188.25h34.98v23.19c11.79-17.69,31.83-27.9,56.59-27.9,44.41,0,73.1,30.26,73.1,77.82v115.15h-34.98v-109.65c0-31.05-18.08-50.7-47.55-50.7s-47.16,19.65-47.16,50.7v109.65Z" style="fill: #fff;"/>
        <path d="m834.48,2587.02c0-54.63,39.69-98.64,93.14-98.64s92.75,42.05,92.75,95.11c0,4.72-.39,9.83-1.18,12.58h-149.34c3.93,33.8,28.69,58.95,64.45,58.95,21.22,0,40.09-8.25,52.66-20.83l18.47,23.97c-15.33,16.51-42.05,27.9-72.31,27.9-57.38,0-98.64-44.41-98.64-99.04Zm36.16-14.15h113.97c-5.5-34.98-27.12-54.63-56.59-54.63s-52.27,23.19-57.38,54.63Z" style="fill: #fff;"/>
        <path d="m1105.26,2681.34h-34.98v-188.25h34.98v23.58c10.22-17.29,26.33-28.3,47.16-28.3,11.79,0,22.01,2.75,28.69,8.25l-14.54,32.62c-6.29-4.32-15.33-7.47-24.37-7.47-22.79,0-36.94,19.65-36.94,51.09v108.47Z" style="fill: #fff;"/>
        <path d="m1344.59,2597.23c0,33.01,19.26,55.02,48.34,55.02s49.13-22.01,49.13-55.02v-104.15h34.98v106.9c0,51.09-33.41,84.89-84.1,84.89s-83.32-33.8-83.32-84.89v-106.9h34.98v104.15Z" style="fill: #fff;"/>
        <path d="m1576.46,2681.34h-34.98v-188.25h34.98v23.19c11.79-17.69,31.83-27.9,56.59-27.9,44.41,0,73.1,30.26,73.1,77.82v115.15h-34.98v-109.65c0-31.05-18.08-50.7-47.55-50.7s-47.16,19.65-47.16,50.7v109.65Z" style="fill: #fff;"/>
        <path d="m1913.66,2651.86c-14.54,20.83-37.34,34.19-66.02,34.19-51.09,0-91.18-42.05-91.18-99.04s38.51-98.64,91.18-98.64c28.69,0,51.48,12.58,66.02,33.01v-28.3h34.98v188.25h-34.98v-29.48Zm0-64.85c0-36.94-25.55-66.02-60.92-66.02s-61.31,29.08-61.31,66.02,25.94,66.42,61.31,66.42,60.92-29.87,60.92-66.42Z" style="fill: #fff;"/>
        <path d="m2267.75,2493.09l-71.13,188.25h-45.2l-71.13-188.25h38.51l56.2,156.81,56.99-156.81h35.76Z" style="fill: #fff;"/>
        <path d="m2305.48,2438.85c0-11.79,9.83-21.62,21.62-21.62s21.62,9.83,21.62,21.62-9.83,21.62-21.62,21.62-21.62-9.83-21.62-21.62Zm39.3,242.48h-34.98v-188.25h34.98v188.25Z" style="fill: #fff;"/>
        <path d="m2540.89,2629.85c0,31.83-26.33,56.2-73.49,56.2-34.58,0-60.52-12.18-75.46-30.65l20.44-22.79c12.97,15.72,32.62,25.15,57.38,25.15s36.55-11,36.55-27.12c0-42.84-106.5-23.19-106.5-90,0-27.51,23.97-52.27,67.99-52.27,32.23,0,56.99,10.61,69.95,29.08l-20.83,20.83c-12.58-15.72-27.9-21.62-48.34-21.62s-34.58,10.22-34.58,23.97c0,40.48,106.9,19.65,106.9,89.21Z" style="fill: #fff;"/>
        <path d="m2570.36,2493.09h31.44v-46.77h34.58v46.77h53.45v31.05h-53.06v99.43c0,20.04,9.04,29.87,25.94,29.87,9.43,0,18.86-3.54,24.37-9.83l16.11,26.33c-8.65,8.65-24.37,16.11-45.2,16.11-35.37,0-56.59-20.83-56.59-61.31v-100.61h-31.05v-31.05Z" style="fill: #fff;"/>
        <path d="m2878.47,2651.86c-14.54,20.83-37.34,34.19-66.02,34.19-51.09,0-91.18-42.05-91.18-99.04s38.51-98.64,91.18-98.64c28.69,0,51.48,12.58,66.02,33.01v-28.3h34.98v188.25h-34.98v-29.48Zm0-64.85c0-36.94-25.55-66.02-60.92-66.02s-61.31,29.08-61.31,66.02,25.94,66.42,61.31,66.42,60.92-29.87,60.92-66.42Z" style="fill: #fff;"/>
        <path d="m3199.55,2629.85c0,31.83-26.33,56.2-73.49,56.2-34.58,0-60.52-12.18-75.46-30.65l20.44-22.79c12.97,15.72,32.62,25.15,57.38,25.15s36.55-11,36.55-27.12c0-42.84-106.5-23.19-106.5-90,0-27.51,23.97-52.27,67.99-52.27,32.23,0,56.99,10.61,69.95,29.08l-20.83,20.83c-12.58-15.72-27.9-21.62-48.34-21.62s-34.58,10.22-34.58,23.97c0,40.48,106.9,19.65,106.9,89.21Z" style="fill: #fff;"/>
        <path d="m3393.7,2651.86c-14.54,20.83-37.34,34.19-66.02,34.19-51.09,0-91.18-42.05-91.18-99.04s38.51-98.64,91.18-98.64c28.69,0,51.48,12.58,66.02,33.01v-28.3h34.98v188.25h-34.98v-29.48Zm0-64.85c0-36.94-25.55-66.02-60.92-66.02s-61.31,29.08-61.31,66.02,25.94,66.42,61.31,66.42,60.92-29.87,60.92-66.42Z" style="fill: #fff;"/>
        <path d="m3496.27,2410.95h34.98v270.39h-34.98v-270.39Z" style="fill: #fff;"/>
        <path d="m3630.28,2597.23c0,33.01,19.26,55.02,48.34,55.02s49.13-22.01,49.13-55.02v-104.15h34.98v106.9c0,51.09-33.41,84.89-84.1,84.89s-83.32-33.8-83.32-84.89v-106.9h34.98v104.15Z" style="fill: #fff;"/>
        <path d="m4005.6,2410.95v270.39h-34.98v-29.48c-14.54,20.83-37.34,34.19-66.02,34.19-51.09,0-91.18-42.05-91.18-99.04s38.51-98.64,91.18-98.64c28.69,0,51.48,12.58,66.02,33.01v-110.43h34.98Zm-34.98,176.07c0-36.94-25.55-66.02-60.92-66.02s-61.31,29.08-61.31,66.02,25.94,66.42,61.31,66.42,60.92-29.87,60.92-66.42Z" style="fill: #fff;"/>
        <path d="m4216.64,2651.86c-14.54,20.83-37.34,34.19-66.02,34.19-51.09,0-91.18-42.05-91.18-99.04s38.51-98.64,91.18-98.64c28.69,0,51.48,12.58,66.02,33.01v-28.3h34.98v188.25h-34.98v-29.48Zm0-64.85c0-36.94-25.55-66.02-60.92-66.02s-61.31,29.08-61.31,66.02,25.94,66.42,61.31,66.42,60.92-29.87,60.92-66.42Z" style="fill: #fff;"/>
        <path d="m4511.39,2587.41c0,55.81-38.91,98.64-91.57,98.64-28.3,0-51.09-12.18-65.63-32.23v27.51h-34.98v-270.39h34.98v110.83c14.54-20.44,37.34-33.41,65.63-33.41,51.09,0,91.57,42.05,91.57,99.04Zm-157.2,0c0,36.94,25.55,66.02,61.31,66.02s60.92-29.08,60.92-66.02-25.55-66.42-60.92-66.42-61.31,29.87-61.31,66.42Z" style="fill: #fff;"/>
        <path d="m4565.23,2410.95h34.98v270.39h-34.98v-270.39Z" style="fill: #fff;"/>
        <path d="m4653.65,2587.02c0-54.63,39.69-98.64,93.14-98.64s92.75,42.05,92.75,95.11c0,4.72-.39,9.83-1.18,12.58h-149.34c3.93,33.8,28.69,58.95,64.45,58.95,21.22,0,40.09-8.25,52.66-20.83l18.47,23.97c-15.33,16.51-42.05,27.9-72.31,27.9-57.38,0-98.64-44.41-98.64-99.04Zm36.16-14.15h113.97c-5.5-34.98-27.12-54.63-56.59-54.63s-52.27,23.19-57.38,54.63Z" style="fill: #fff;"/>
        <path d="m4865.48,2660.9c0-13.36,11-24.76,23.97-24.76,13.76,0,24.76,11.4,24.76,24.76s-11,23.97-24.76,23.97c-12.97,0-23.97-10.61-23.97-23.97Z" style="fill: #fff;"/>
      </g>
    </g>
    <g id="botonx">
      <path d="m4694.15,257.65l5.34,5.34c4.81,4.81,9.61,9.61,14.42,14.42,7.12,7.12,14.25,14.25,21.37,21.37l26.07,26.07,28.47,28.47c9.61,9.61,19.21,19.21,28.82,28.82,8.96,8.96,17.91,17.91,26.87,26.87,7.55,7.55,15.09,15.09,22.64,22.64,5.46,5.46,10.92,10.92,16.37,16.37,2.57,2.57,5.12,5.14,7.7,7.7.11.11.22.22.33.33,3.81,3.81,9.46,6.15,14.85,6.15,2.89.11,5.59-.49,8.09-1.81,2.6-.85,4.86-2.29,6.76-4.34,3.67-4,6.4-9.26,6.15-14.85s-2.13-10.83-6.15-14.85l-5.34-5.34c-4.81-4.81-9.61-9.61-14.42-14.42-7.12-7.12-14.25-14.25-21.37-21.37l-26.07-26.07c-9.49-9.49-18.98-18.98-28.47-28.47s-19.21-19.21-28.82-28.82c-8.96-8.96-17.91-17.91-26.87-26.87-7.55-7.55-15.09-15.09-22.64-22.64-5.46-5.46-10.92-10.92-16.37-16.37-2.57-2.57-5.12-5.14-7.7-7.7-.11-.11-.22-.22-.33-.33-3.81-3.81-9.46-6.15-14.85-6.15-2.89-.11-5.59.49-8.09,1.81-2.6.85-4.86,2.29-6.76,4.34-3.67,4-6.4,9.26-6.15,14.85s2.13,10.83,6.15,14.85h0Z" style="fill: #fff;"/>
      <path d="m4892.56,227.95l-5.34,5.34c-4.81,4.81-9.61,9.61-14.42,14.42-7.12,7.12-14.25,14.25-21.37,21.37-8.69,8.69-17.38,17.38-26.07,26.07-9.49,9.49-18.98,18.98-28.47,28.47s-19.21,19.21-28.82,28.82c-8.96,8.96-17.91,17.91-26.87,26.87-7.55,7.55-15.09,15.09-22.64,22.64-5.46,5.46-10.92,10.92-16.37,16.37-2.57,2.57-5.14,5.12-7.7,7.7-.11.11-.22.22-.33.33-3.81,3.81-6.15,9.46-6.15,14.85-.11,2.89.49,5.59,1.81,8.09.85,2.6,2.29,4.86,4.34,6.76,4,3.67,9.26,6.4,14.85,6.15s10.83-2.13,14.85-6.15l5.34-5.34c4.81-4.81,9.61-9.61,14.42-14.42,7.12-7.12,14.25-14.25,21.37-21.37,8.69-8.69,17.38-17.38,26.07-26.07,9.49-9.49,18.98-18.98,28.47-28.47s19.21-19.21,28.82-28.82c8.96-8.96,17.91-17.91,26.87-26.87,7.55-7.55,15.09-15.09,22.64-22.64,5.46-5.46,10.92-10.92,16.37-16.37,2.57-2.57,5.14-5.12,7.7-7.7.11-.11.22-.22.33-.33,3.81-3.81,6.15-9.46,6.15-14.85.11-2.89-.49-5.59-1.81-8.09-.85-2.6-2.29-4.86-4.34-6.76-4-3.67-9.26-6.4-14.85-6.15s-10.83,2.13-14.85,6.15h0Z" style="fill: #fff;"/>
    </g>
  </g>
</svg>