<?xml version="1.0" encoding="UTF-8"?>
<svg id="Capa_2" data-name="Capa 2" xmlns="http://www.w3.org/2000/svg" xmlns:xlink="http://www.w3.org/1999/xlink" viewBox="0 0 2746.64 2746.64">
  <defs>
    <linearGradient id="Degradado_sin_nombre_75" data-name="Degradado sin nombre 75" x1="8641.34" y1="7387.3" x2="10143.62" y2="7387.3" gradientTransform="translate(2808.81 -10399.17) rotate(58.32)" gradientUnits="userSpaceOnUse">
      <stop offset="0" stop-color="#f29100"/>
      <stop offset=".03" stop-color="#f29100"/>
      <stop offset=".23" stop-color="#f08306"/>
      <stop offset=".61" stop-color="#eb5e16"/>
      <stop offset="1" stop-color="#e5332a"/>
    </linearGradient>
    <linearGradient id="Degradado_sin_nombre_75-2" data-name="Degradado sin nombre 75" x1="9893.51" y1="6786.94" x2="10002.54" y2="6786.94" xlink:href="#Degradado_sin_nombre_75"/>
    <linearGradient id="Degradado_sin_nombre_75-3" data-name="Degradado sin nombre 75" x1="8680.94" y1="7015.65" x2="8789.97" y2="7015.65" xlink:href="#Degradado_sin_nombre_75"/>
    <linearGradient id="Degradado_sin_nombre_75-4" data-name="Degradado sin nombre 75" x1="8847.06" y1="6600.87" x2="8907.86" y2="6600.87" xlink:href="#Degradado_sin_nombre_75"/>
    <linearGradient id="Degradado_sin_nombre_75-5" data-name="Degradado sin nombre 75" x1="9497.78" y1="6611.51" x2="9558.57" y2="6611.51" xlink:href="#Degradado_sin_nombre_75"/>
    <linearGradient id="Degradado_sin_nombre_75-6" data-name="Degradado sin nombre 75" x1="9270.26" y1="8274.38" x2="9331.05" y2="8274.38" xlink:href="#Degradado_sin_nombre_75"/>
    <linearGradient id="Degradado_sin_nombre_75-7" data-name="Degradado sin nombre 75" x1="9723.98" y1="6724.32" x2="9833.01" y2="6724.32" xlink:href="#Degradado_sin_nombre_75"/>
    <linearGradient id="Degradado_sin_nombre_75-8" data-name="Degradado sin nombre 75" x1="6076.81" y1="6074.98" x2="6244.23" y2="6074.98" gradientTransform="translate(460.69 -6345.41) rotate(41.6)" xlink:href="#Degradado_sin_nombre_75"/>
    <linearGradient id="Degradado_sin_nombre_75-9" data-name="Degradado sin nombre 75" x1="1806.12" y1="2185.83" x2="1973.55" y2="2185.83" gradientTransform="translate(-26.2 -130.87) rotate(8.69)" xlink:href="#Degradado_sin_nombre_75"/>
    <linearGradient id="Degradado_sin_nombre_75-10" data-name="Degradado sin nombre 75" x1="1755.4" y1="2100.73" x2="1922.82" y2="2100.73" gradientTransform="translate(-26.2 -130.87) rotate(8.69)" xlink:href="#Degradado_sin_nombre_75"/>
    <linearGradient id="Degradado_sin_nombre_75-11" data-name="Degradado sin nombre 75" x1="911.52" y1="-7069.92" x2="1078.94" y2="-7069.92" gradientTransform="translate(6296.87 7715.03) rotate(-44.62)" xlink:href="#Degradado_sin_nombre_75"/>
    <linearGradient id="Degradado_sin_nombre_75-12" data-name="Degradado sin nombre 75" x1="10744.06" y1="5017.43" x2="10911.49" y2="5017.43" gradientTransform="translate(3393.18 -10795.93) rotate(77.72)" xlink:href="#Degradado_sin_nombre_75"/>
    <linearGradient id="Degradado_sin_nombre_75-13" data-name="Degradado sin nombre 75" x1="10795.1" y1="5083.98" x2="10891.87" y2="5083.98" gradientTransform="translate(3393.18 -10795.93) rotate(77.72)" xlink:href="#Degradado_sin_nombre_75"/>
    <linearGradient id="Degradado_sin_nombre_75-14" data-name="Degradado sin nombre 75" x1="6148.6" y1="6130.87" x2="6208.69" y2="6130.87" gradientTransform="translate(460.69 -6345.41) rotate(41.6)" xlink:href="#Degradado_sin_nombre_75"/>
  </defs>
  <g id="cartapapasfritas">
    <rect id="CARTA_6" data-name="CARTA 6" x="527.78" y="335.66" width="1870.41" height="2306.42" rx="220.59" ry="220.59" style="fill: #fff; stroke: #fff; stroke-miterlimit: 10;"/>
    <g>
      <path d="m1036.04,854.95c4.12-3.83,95.08-86.69,205.13-71.72,71.17,9.68,79.84,48.71,150.92,58.72,71.46,10.07,107.87-23.02,175.3-43.01,145.02-42.98,357.54-7.43,438.44,125.77,43.14,71.02,57.57,153.34,61.3,187.71,3.38,31.13,9.1,83.71-5.71,148.6-18.44,80.79-51.69,106.14-41.43,158.85,6.74,34.63,24.24,39.81,56.27,86.15,16.44,23.77,106.63,154.22,66.61,261.08-17.15,45.81-53.95,74.98-78.94,95.2-54.25,43.87-82.72,36.09-117.24,75.28-38.83,44.07-21.04,74.61-49.82,123.32-49.7,84.12-166.76,101.8-193.42,105.84-129.88,19.71-219.34-46.56-284.49-6.37-6.62,4.08-33.72,22.06-74.73,42.75-7.67,3.87-27.34,13.82-44.51,20.73-12.84,5.17-68.46,26.45-127.16,22.56-105.25-6.96-174.65-92.03-197.68-119.49-132.7-158.18-22.2-261.69-139.08-485.11-66.6-127.3-152.82-189.8-154.13-330.51-.19-20.29-.21-59.16,16.14-104.36,4.54-12.56,23.44-60.75,72.43-107.19,67.6-64.09,104.17-40.95,165.89-94.56,64.34-55.88,36.89-91.7,99.9-150.22Z" style="fill: url(#Degradado_sin_nombre_75);"/>
      <circle cx="2258.41" cy="1630.91" r="54.5" style="fill: url(#Degradado_sin_nombre_75-2);"/>
      <circle cx="1426.91" cy="719.19" r="54.5" style="fill: url(#Degradado_sin_nombre_75-3);"/>
      <circle cx="1854.46" cy="622.18" r="30.39" style="fill: url(#Degradado_sin_nombre_75-4);"/>
      <circle cx="2187.18" cy="1181.49" r="30.39" style="fill: url(#Degradado_sin_nombre_75-5);"/>
      <circle cx="652.64" cy="1861.28" r="30.39" style="fill: url(#Degradado_sin_nombre_75-6);"/>
      <circle cx="2222.65" cy="1453.76" r="54.5" style="fill: url(#Degradado_sin_nombre_75-7);"/>
      <path d="m991.25,2288.56c-10.98-3.51-33.55-9.69-37.41-24.73-.83-3.23-.43-6.32.25-9.26,2.23-9.73,25.13-26.83,61.7-12.89,42.36,16.14,70.46,36.4,82.24,50.31,11.87,14.02,14.78,23.04,13.15,30.86-1.42,6.86-6.52,13.7-13.03,17.05-23.28,11.97-44.22-31.29-106.9-51.34Z" style="fill: url(#Degradado_sin_nombre_75-8);"/>
      <path d="m1475.75,2339.87c-11.13,3.02-33.43,10.09-44.84-.44-2.45-2.26-3.79-5.08-4.82-7.91-3.41-9.38,6.52-36.18,44.8-44.34,44.33-9.46,78.93-7.72,96.38-2.44,17.58,5.32,24.92,11.31,27.81,18.76,2.53,6.53,1.97,15.05-1.68,21.39-13.04,22.7-54.13-2.25-117.64,14.97Z" style="fill: url(#Degradado_sin_nombre_75-9);"/>
      <path d="m1438.46,2248.09c-11.13,3.02-33.43,10.09-44.84-.44-2.45-2.26-3.79-5.08-4.82-7.91-3.41-9.38,6.52-36.18,44.8-44.34,44.33-9.46,78.93-7.72,96.38-2.44,17.58,5.32,24.92,11.31,27.81,18.76,2.53,6.53,1.97,15.05-1.68,21.39-13.04,22.7-54.13-2.25-117.64,14.97Z" style="fill: url(#Degradado_sin_nombre_75-10);"/>
      <path d="m2037.68,2027.14c-4.23,10.73-11.88,32.83-27.14,35.69-3.28.62-6.34,0-9.22-.86-9.56-2.87-25.11-26.84-8.79-62.42,18.9-41.2,40.98-67.9,55.63-78.74,14.77-10.92,23.96-13.23,31.66-11.09,6.75,1.87,13.24,7.41,16.15,14.13,10.41,24.02-34.15,42.06-58.29,103.28Z" style="fill: url(#Degradado_sin_nombre_75-11);"/>
      <path d="m756.82,826.2c-6.8-9.31-21.38-27.6-15.64-42.03,1.24-3.1,3.38-5.36,5.66-7.33,7.54-6.54,36.11-6.85,57.44,25.97,24.69,38.01,35.44,70.95,36.76,89.12,1.32,18.32-1.65,27.32-7.57,32.68-5.19,4.7-13.35,7.22-20.58,6.09-25.86-4.05-17.27-51.35-56.07-104.5Z" style="fill: url(#Degradado_sin_nombre_75-12);"/>
      <path d="m710.23,866.19c-3.93-5.38-12.36-15.96-9.04-24.29.71-1.79,1.96-3.1,3.27-4.24,4.36-3.78,20.87-3.96,33.2,15.01,14.27,21.97,20.49,41.01,21.25,51.51.77,10.59-.95,15.79-4.38,18.89-3,2.72-7.72,4.17-11.89,3.52-14.95-2.34-9.98-29.68-32.41-60.4Z" style="fill: url(#Degradado_sin_nombre_75-13);"/>
      <path d="m995.64,2341.73c-3.94-1.26-12.04-3.48-13.43-8.87-.3-1.16-.15-2.27.09-3.32.8-3.49,9.02-9.63,22.14-4.63,15.2,5.79,25.29,13.07,29.51,18.06,4.26,5.03,5.3,8.27,4.72,11.07-.51,2.46-2.34,4.92-4.68,6.12-8.35,4.3-15.87-11.23-38.37-18.43Z" style="fill: url(#Degradado_sin_nombre_75-14);"/>
    </g>
  </g>
</svg>