<?xml version="1.0" encoding="UTF-8"?>
<svg id="Capa_2" data-name="Capa 2" xmlns="http://www.w3.org/2000/svg" xmlns:xlink="http://www.w3.org/1999/xlink" viewBox="0 0 6539.19 7327.16">
  <defs>
    <linearGradient id="Degradado_sin_nombre_1578" data-name="Degradado sin nombre 1578" x1="3269.6" y1="7327.16" x2="3269.6" y2="1309.16" gradientUnits="userSpaceOnUse">
      <stop offset="0" stop-color="#8500ff"/>
      <stop offset=".39" stop-color="#ac44ff"/>
      <stop offset=".72" stop-color="#f558ff"/>
      <stop offset=".94" stop-color="#f49dff"/>
    </linearGradient>
    <linearGradient id="Degradado_sin_nombre_1131" data-name="Degradado sin nombre 1131" x1="3269.6" y1="5263.91" x2="3269.6" y2="4518.16" gradientUnits="userSpaceOnUse">
      <stop offset="0" stop-color="#007e9f"/>
      <stop offset="0" stop-color="#007e9e"/>
      <stop offset=".32" stop-color="#00b599"/>
      <stop offset=".59" stop-color="#00dd96"/>
      <stop offset=".8" stop-color="#00f593"/>
      <stop offset=".94" stop-color="#00ff93"/>
    </linearGradient>
    <linearGradient id="Degradado_sin_nombre_1131-2" data-name="Degradado sin nombre 1131" y1="6227.66" y2="5481.91" xlink:href="#Degradado_sin_nombre_1131"/>
    <linearGradient id="Degradado_sin_nombre_1131-3" data-name="Degradado sin nombre 1131" x1="580.89" y1="2201.16" x2="580.89" y2="1116.09" xlink:href="#Degradado_sin_nombre_1131"/>
    <linearGradient id="Degradado_sin_nombre_1131-4" data-name="Degradado sin nombre 1131" x1="862.26" y1="2200.82" x2="862.26" y2="1115.75" xlink:href="#Degradado_sin_nombre_1131"/>
    <linearGradient id="Degradado_sin_nombre_4" data-name="Degradado sin nombre 4" x1="681.96" y1="1802.44" x2="1188.36" y2="1814.35" gradientUnits="userSpaceOnUse">
      <stop offset=".07" stop-color="#007e9f"/>
      <stop offset=".24" stop-color="#008f9d"/>
      <stop offset=".58" stop-color="#00bd99"/>
      <stop offset="1" stop-color="#00ff93"/>
    </linearGradient>
    <linearGradient id="Degradado_sin_nombre_1131-5" data-name="Degradado sin nombre 1131" x1="6555.82" y1="2201.16" x2="6555.82" y2="1116.09" gradientTransform="translate(12514.11) rotate(-180) scale(1 -1)" xlink:href="#Degradado_sin_nombre_1131"/>
    <linearGradient id="Degradado_sin_nombre_1131-6" data-name="Degradado sin nombre 1131" x1="6837.18" y1="2200.82" x2="6837.18" y2="1115.75" gradientTransform="translate(12514.11) rotate(-180) scale(1 -1)" xlink:href="#Degradado_sin_nombre_1131"/>
    <linearGradient id="Degradado_sin_nombre_4-2" data-name="Degradado sin nombre 4" x1="6656.96" y1="1802.44" x2="7163.29" y2="1814.35" gradientTransform="translate(12514.11) rotate(-180) scale(1 -1)" xlink:href="#Degradado_sin_nombre_4"/>
    <linearGradient id="Degradado_sin_nombre_1131-7" data-name="Degradado sin nombre 1131" x1="3269.5" y1="2050.02" x2="3269.5" y2="714.17" xlink:href="#Degradado_sin_nombre_1131"/>
    <linearGradient id="Degradado_sin_nombre_2359" data-name="Degradado sin nombre 2359" x1="3457.66" y1="1260.43" x2="2883.14" y2="-254.73" gradientUnits="userSpaceOnUse">
      <stop offset="0" stop-color="#ffce01"/>
      <stop offset=".11" stop-color="#ffd31f"/>
      <stop offset=".35" stop-color="#ffe36f"/>
      <stop offset=".7" stop-color="#fffbec"/>
      <stop offset=".75" stop-color="#fff"/>
    </linearGradient>
    <linearGradient id="Degradado_sin_nombre_2359-2" data-name="Degradado sin nombre 2359" x1="5237.91" y1="1343.19" x2="4830.08" y2="267.65" gradientTransform="translate(457.75 -1608.94) rotate(20.31)" xlink:href="#Degradado_sin_nombre_2359"/>
    <linearGradient id="Degradado_sin_nombre_2359-3" data-name="Degradado sin nombre 2359" x1="8271.27" y1="220.57" x2="7863.44" y2="-854.96" gradientTransform="translate(9271.05 -1608.94) rotate(159.69) scale(1 -1)" xlink:href="#Degradado_sin_nombre_2359"/>
  </defs>
  <g id="ventanafianl">
    <g>
      <rect x="609.14" y="1309.16" width="5320.91" height="6018" rx="698.29" ry="698.29" style="fill: url(#Degradado_sin_nombre_1578);"/>
      <g id="boton6">
        <rect x="1701.99" y="4518.16" width="3135.2" height="745.75" rx="238.36" ry="238.36" style="fill: url(#Degradado_sin_nombre_1131);"/>
        <g>
          <path d="m2053.67,4906.93c7.57,10.1,16.59,16.59,27.05,16.59,17.31,0,24.53-10.82,24.53-30.66v-146.44h59.51v142.47c0,64.56-35.35,94.14-82.24,94.14-32.46,0-57.71-16.23-68.89-34.99l40.04-41.12Z" style="fill: #fff;"/>
          <path d="m2260.7,4895.75c0,19.84,10.82,32.82,27.41,32.82s27.05-12.98,27.05-32.82v-90.89h58.07v95.22c0,49.78-33.9,82.96-85.12,82.96s-85.48-33.18-85.48-82.96v-95.22h58.07v90.89Z" style="fill: #fff;"/>
          <path d="m2486.13,5000.71c21.64,0,37.15-11.18,37.15-32.46v-16.23c-10.46,12.62-24.89,20.56-44,20.56-42.2,0-78.27-33.9-78.27-86.57s36.07-85.12,78.27-85.12c19.12,0,33.9,6.49,44,18.03v-14.07h58.07v160.87c0,73.22-54.82,88.01-91.62,88.01-32.1,0-60.24-8.3-76.83-24.17l28.86-44.73c5.77,4.69,20.2,15.87,44.36,15.87Zm37.15-114.7c0-18.03-13.71-32.1-32.1-32.1s-32.1,14.07-32.1,32.1,13.71,32.1,32.1,32.1,32.1-14.07,32.1-32.1Z" style="fill: #fff;"/>
          <path d="m2736.81,4961.39c-10.46,13.35-24.89,21.64-44,21.64-44,0-81.88-36.07-81.88-91.62s34.63-91.98,81.88-91.98c19.12,0,33.9,7.21,44,19.84v-14.43h58.07v172.77h-58.07v-16.23Zm0-69.97c0-21.28-14.43-37.51-33.9-37.51s-33.9,16.23-33.9,37.51,14.43,37.15,33.9,37.15,33.9-16.23,33.9-37.15Z" style="fill: #fff;"/>
          <path d="m2892.62,4977.62h-58.07v-172.77h58.07v26.69c8.3-18.76,22.36-32.1,41.12-32.1,12.26,0,21.64,3.25,28.86,9.74l-23.81,54.82c-5.77-5.05-14.79-8.3-23.44-8.3-13.71,0-22.72,11.18-22.72,28.49v93.42Z" style="fill: #fff;"/>
          <path d="m3233.83,4729.47v248.15h-58.07v-16.23c-10.46,13.35-24.89,21.64-44,21.64-44,0-81.88-36.07-81.88-91.62s34.63-91.98,81.88-91.98c19.12,0,33.9,7.21,44,19.84v-89.81h58.07Zm-58.07,161.95c0-21.28-14.43-37.51-33.9-37.51s-33.9,16.23-33.9,37.51,14.43,37.15,33.9,37.15,33.9-16.23,33.9-37.15Z" style="fill: #fff;"/>
          <path d="m3263.4,4891.42c0-50.86,38.59-91.98,89.09-91.98s89.45,37.51,89.45,88.37c0,7.21-.36,14.43-1.08,18.03h-117.22c4.69,15.87,18.03,26.33,37.15,26.33,15.51,0,27.05-7.21,35.71-16.23l29.58,39.32c-12.26,14.79-36.79,27.77-67.45,27.77-54.82,0-95.22-41.12-95.22-91.62Zm61.32-20.92h57.71c-4.69-15.51-15.51-22.36-28.86-22.36-14.07,0-24.17,8.66-28.86,22.36Z" style="fill: #fff;"/>
          <path d="m3600.64,4977.62h-58.07v-172.77h58.07v21.28c8.66-16.95,24.17-26.69,44.73-26.69,39.32,0,64.2,28.13,64.2,75.02v103.16h-58.07v-95.22c0-17.31-10.1-28.49-25.25-28.49s-25.61,11.18-25.61,28.49v95.22Z" style="fill: #fff;"/>
          <path d="m3805.52,4895.75c0,19.84,10.82,32.82,27.41,32.82s27.05-12.98,27.05-32.82v-90.89h58.07v95.22c0,49.78-33.9,82.96-85.12,82.96s-85.48-33.18-85.48-82.96v-95.22h58.07v90.89Z" style="fill: #fff;"/>
          <path d="m3945.82,4891.42c0-50.86,38.59-91.98,89.09-91.98s89.45,37.51,89.45,88.37c0,7.21-.36,14.43-1.08,18.03h-117.22c4.69,15.87,18.03,26.33,37.15,26.33,15.51,0,27.05-7.21,35.71-16.23l29.58,39.32c-12.26,14.79-36.79,27.77-67.45,27.77-54.82,0-95.22-41.12-95.22-91.62Zm61.32-20.92h57.71c-4.69-15.51-15.51-22.36-28.86-22.36-14.07,0-24.17,8.66-28.86,22.36Z" style="fill: #fff;"/>
          <path d="m4321.3,4804.85l-58.79,172.77h-75.38l-59.51-172.77h63.84l34.63,121.55,36.43-121.55h58.79Z" style="fill: #fff;"/>
          <path d="m4325.63,4891.42c0-50.86,41.48-91.98,91.98-91.98s91.98,41.12,91.98,91.98-41.48,91.62-91.98,91.62-91.98-41.12-91.98-91.62Zm125.88,0c0-21.28-14.43-37.51-33.9-37.51s-33.9,16.23-33.9,37.51,14.43,37.15,33.9,37.15,33.9-16.23,33.9-37.15Z" style="fill: #fff;"/>
        </g>
      </g>
      <g id="boton12">
        <rect x="1701.99" y="5481.91" width="3135.2" height="745.75" rx="238.36" ry="238.36" style="fill: url(#Degradado_sin_nombre_1131-2);"/>
        <g>
          <path d="m3048.47,5827.49c-10.05-14.36-28-26.57-50.26-26.57-14.72,0-21.9,5.74-21.9,14,0,29.8,112.37,16.15,112.37,96.57,0,42.72-37.69,74.67-91.9,74.67s-78.98-20.46-93.34-43.08l42-39.49c13.28,18.31,31.23,26.92,52.41,26.92,17.95,0,27.28-5.74,27.28-16.51,0-31.23-112.37-16.51-112.37-97.65,0-41.28,36.98-71.08,87.95-71.08,39.85,0,70.72,17.23,87.95,42l-40.21,40.21Z" style="fill: #fff;"/>
          <path d="m3232.63,5964.62c-10.41,13.28-24.77,21.54-43.8,21.54-43.8,0-81.49-35.9-81.49-91.19s34.46-91.54,81.49-91.54c19.03,0,33.75,7.18,43.8,19.74v-14.36h57.8v171.96h-57.8v-16.15Zm0-69.65c0-21.18-14.36-37.34-33.75-37.34s-33.75,16.15-33.75,37.34,14.36,36.98,33.75,36.98,33.75-16.15,33.75-36.98Z" style="fill: #fff;"/>
          <path d="m3329.92,5733.79h57.8v246.99h-57.8v-246.99Z" style="fill: #fff;"/>
          <path d="m3423.62,5761.07c0-17.95,14.36-32.67,32.31-32.67s32.67,14.72,32.67,32.67-14.72,32.31-32.67,32.31-32.31-14.36-32.31-32.31Zm61.39,219.71h-57.8v-171.96h57.8v171.96Z" style="fill: #fff;"/>
          <path d="m3582.29,5980.78h-57.8v-171.96h57.8v26.57c8.26-18.67,22.26-31.95,40.93-31.95,12.21,0,21.54,3.23,28.72,9.69l-23.69,54.57c-5.74-5.03-14.72-8.26-23.33-8.26-13.64,0-22.62,11.13-22.62,28.36v92.98Z" style="fill: #fff;"/>
        </g>
      </g>
      <g>
        <g>
          <g>
            <path d="m81.21,2201.16h994.46c47.56,0,86.12-32.12,86.12-71.74v-1013.33H81.21c-59.47,0-98.72,51.55-73.37,96.37l220.77,390.37c19.98,35.33,19.98,76.25,0,111.58L7.83,2104.79c-25.35,44.82,13.9,96.37,73.37,96.37Z" style="fill: url(#Degradado_sin_nombre_1131-3);"/>
            <g>
              <path d="m1161.78,2129.42v-704.62l-599.05,175.75,521.27,600.27c43.65-3.49,77.78-34.12,77.78-71.4Z" style="fill: url(#Degradado_sin_nombre_1131-4);"/>
              <path d="m1161.78,2129.42v-704.62l-562.9,620.68,485.12,155.35c43.65-3.49,77.78-34.12,77.78-71.4Z" style="fill: url(#Degradado_sin_nombre_4);"/>
            </g>
          </g>
          <g>
            <path d="m6457.99,2201.16h-994.46c-47.56,0-86.12-32.12-86.12-71.74v-1013.33h1080.58c59.47,0,98.72,51.55,73.37,96.37l-220.77,390.37c-19.98,35.33-19.98,76.25,0,111.58l220.77,390.37c25.35,44.82-13.9,96.37-73.37,96.37Z" style="fill: url(#Degradado_sin_nombre_1131-5);"/>
            <g>
              <path d="m5377.41,2129.42v-704.62l599.05,175.75-521.27,600.27c-43.65-3.49-77.78-34.12-77.78-71.4Z" style="fill: url(#Degradado_sin_nombre_1131-6);"/>
              <path d="m5377.41,2129.42v-704.62l562.82,620.68-485.04,155.35c-43.65-3.49-77.78-34.12-77.78-71.4Z" style="fill: url(#Degradado_sin_nombre_4-2);"/>
            </g>
          </g>
          <path d="m5981.43,1993.5c0,38.67-45.6,65.91-89.55,53.49-307.11-86.83-1368.21-358.5-2622.39-358.5s-2315.28,271.67-2622.39,358.5c-43.95,12.43-89.55-14.82-89.55-53.49v-964.29c0-24.72,19.28-46.56,47.61-53.91,209.49-54.35,1108.62-261.12,2664.33-261.12s2454.84,206.77,2664.33,261.12c28.33,7.35,47.61,29.2,47.61,53.91v964.29Z" style="fill: url(#Degradado_sin_nombre_1131-7);"/>
        </g>
        <g>
          <g>
            <path d="m2850.95,1831.16c-62.17,0-120.8-26.85-160.87-73.68-46.38-54.19-68.23-139.38-56.1-224.86.25-10.99,4.44-13.5,6.31-24.39l49.61-289.27-241.65-235.55c-41.77-40.71-67.66-99.67-72.92-166.01-4.91-61.96-6.43-146.77,23.39-193.43,33.7-55.29,105.82-69.71,170.51-79.11l347.4-50.48,155.36-314.8c37.04-75.06,112.05-121.68,195.75-121.68s158.71,46.63,195.75,121.68l155.36,314.8,347.4,50.48c69.41,10.09,145.05,36.04,177.91,97.42,27.01,47.18,21.51,121.05,15.6,180.97-6.3,63.82-32.06,120.7-72.54,160.15l-241.65,235.55,49.61,289.27c1.46,8.49,2.43,17.09,2.91,25.64.1.59,2.27-15.93,2.35-15.34,11.77,85.35-10.84,180.45-59.89,236.73-41.32,47.41-100.1,74.61-161.26,74.61h0c-34.97,0-68.89-8.51-100.83-25.31l-310.72-163.36-310.72,163.36c-33.09,17.4-69.76,26.59-106.06,26.59Z" style="fill: #e5d1b5;"/>
            <path d="m2850.95,1773.25c-62.17,0-120.8-26.85-160.87-73.68-46.38-54.19-65.11-130.84-52.98-216.31.25-10.99,1.32-22.04,3.18-32.93l49.61-289.27-241.65-235.55c-41.77-40.71-67.66-99.67-72.92-166.01-4.91-61.96,9.37-124.13,39.18-170.79,33.7-55.29,90.02-92.35,154.71-101.75l347.4-50.48,155.36-314.8c37.04-75.06,112.05-121.68,195.75-121.68s158.71,46.63,195.75,121.68l155.36,314.8,347.4,50.48c69.41,10.09,127.93,51.02,160.79,112.41,27.01,47.18,38.63,106.06,32.72,165.98-6.3,63.82-32.06,120.7-72.54,160.15l-241.65,235.55,49.61,289.27c1.46,8.49,2.43,17.09,2.91,25.64.1.59.19,1.18.27,1.77,11.77,85.35-8.76,163.34-57.81,219.62-41.32,47.41-100.1,74.61-161.26,74.61h0c-34.97,0-68.89-8.51-100.83-25.31l-310.72-163.36-310.72,163.36c-33.09,17.4-69.76,26.59-106.06,26.59Z" style="fill: #fff;"/>
            <g>
              <path d="m3399.06,219.69l172.08,348.67,409.61,6.32c120.12,17.45,143.25,214.66,56.33,299.38l-278.43,271.4,68.54,342.09c22.54,163.42-107.86,251.99-215.3,195.51l-344.16-180.93-344.16,180.93c-107.44,56.48-245.93-19.42-213.53-201.15l66.77-336.46-278.43-271.4c-86.92-84.72-63.42-283.33,56.69-300.79l409.25-4.91,172.08-348.67c53.72-108.84,208.93-108.84,262.64,0Z" style="fill: #ffaf3b;"/>
              <path d="m3399.06,153.48l172.08,348.67,384.78,55.91c120.12,17.45,168.08,165.07,81.16,249.79l-278.43,271.4,65.73,383.22c20.52,119.63-105.05,210.86-212.48,154.38l-344.16-180.93-344.16,180.93c-107.44,56.48-233-34.75-212.48-154.38l65.73-383.22-278.43-271.4c-86.92-84.72-38.96-232.34,81.16-249.79l384.78-55.91,172.08-348.67c53.72-108.84,208.93-108.84,262.64,0Z" style="fill: url(#Degradado_sin_nombre_2359);"/>
            </g>
          </g>
          <g>
            <path d="m4359.33,1699.21c-41.39-15.32-73.81-47.64-88.94-88.68-17.52-47.5-11.08-109.6,18.05-163.51,2.87-7.25,6.28-7.89,10.21-14.68l104.3-180.35-102.84-216.35c-17.77-37.39-20.49-83.02-7.64-128.48,12-42.46,31.88-99.29,63.23-123.01,36.05-28.5,87.62-20.34,133-10.66l243.71,51.99,180.99-171.29c43.15-40.84,104.57-53.4,160.29-32.78,55.72,20.62,94.17,70.14,100.33,129.23l25.87,247.84,218.83,119.2c43.72,23.82,87.69,59.73,94.44,108.69,6.36,38.07-15.5,85.89-34.2,124.32-19.91,40.93-51.08,72.45-87.75,88.75l-218.91,97.27-38.24,204.79c-1.12,6.01-2.59,11.98-4.38,17.78-.08.42,5.43-10.04,5.34-9.63-13.19,59.72-51.67,117.46-98.19,142.84-39.19,21.38-85.02,25-125.74,9.94h0c-23.28-8.62-43.77-22.64-60.89-41.69l-166.61-185.3-247.1,32.19c-26.32,3.43-53,.51-77.16-8.43Z" style="fill: #e5d1b5;"/>
            <path d="m4373.59,1660.65c-41.39-15.32-73.81-47.64-88.94-88.68-17.52-47.5-11.11-103.14,18.02-157.06,2.87-7.25,6.31-14.35,10.23-21.14l104.3-180.35-102.84-216.35c-17.77-37.39-20.49-83.02-7.64-128.48,12-42.46,36.82-80.33,68.16-104.05,36.05-28.5,82.68-39.3,128.06-29.62l243.71,51.99,180.99-171.29c43.15-40.84,104.57-53.4,160.29-32.78,55.72,20.62,94.17,70.14,100.33,129.23l25.87,247.84,218.83,119.2c43.72,23.82,72.6,65.49,79.35,114.45,6.36,38.07-.41,80.13-19.11,118.56-19.91,40.93-51.08,72.45-87.75,88.75l-218.91,97.27-38.24,204.79c-1.12,6.01-2.59,11.98-4.38,17.78-.08.42-.17.83-.26,1.24-13.19,59.72-46.07,106.58-92.59,131.96-39.19,21.38-85.02,25-125.74,9.94h0c-23.28-8.62-43.77-22.64-60.89-41.69l-166.61-185.3-247.1,32.19c-26.32,3.43-53,.51-77.16-8.43Z" style="fill: #fff;"/>
            <g>
              <path d="m5121.24,761.46l28.65,274.51,271.13,105.13c75.66,41.21,42.48,178.19-36.26,213.18l-252.22,112.08-38.65,244.62c-25.26,114.34-133.89,141.18-191.5,77.11l-184.53-205.24-273.69,35.66c-85.44,11.13-158.94-73.52-92.59-186.52l127.35-207.53-118.49-249.27c-36.99-77.82,27.58-204.25,111.85-186.27l273.65,97.56,200.46-189.72c62.58-59.23,165.9-20.99,174.85,64.71Z" style="fill: #ffaf3b;"/>
              <path d="m5137.55,717.38l28.65,274.51,242.38,132.02c75.66,41.21,71.23,151.3-7.51,186.29l-252.22,112.08-50.66,271.31c-15.81,84.7-121.88,114.49-179.49,50.42l-184.53-205.24-273.69,35.66c-85.44,11.13-146.55-80.54-103.42-155.12l138.17-238.93-118.49-249.27c-36.99-77.82,31.31-164.27,115.57-146.29l269.93,57.58,200.46-189.72c62.58-59.23,165.9-20.99,174.85,64.71Z" style="fill: url(#Degradado_sin_nombre_2359-2);"/>
            </g>
          </g>
          <g>
            <path d="m2135.04,1699.21c41.39-15.32,73.81-47.64,88.94-88.68,17.52-47.5,11.08-109.6-18.05-163.51-2.87-7.25-6.28-7.89-10.21-14.68l-104.3-180.35,102.84-216.35c17.77-37.39,20.49-83.02,7.64-128.48-12-42.46-31.88-99.29-63.23-123.01-36.05-28.5-87.62-20.34-133-10.66l-243.71,51.99-180.99-171.29c-43.15-40.84-104.57-53.4-160.29-32.78-55.72,20.62-94.17,70.14-100.33,129.23l-25.87,247.84-218.83,119.2c-43.72,23.82-87.69,59.73-94.44,108.69-6.36,38.07,15.5,85.89,34.2,124.32,19.91,40.93,51.08,72.45,87.75,88.75l218.91,97.27,38.24,204.79c1.12,6.01,2.59,11.98,4.38,17.78.08.42-5.43-10.04-5.34-9.63,13.19,59.72,51.67,117.46,98.19,142.84,39.19,21.38,85.02,25,125.74,9.94h0c23.28-8.62,43.77-22.64,60.89-41.69l166.61-185.3,247.1,32.19c26.32,3.43,53,.51,77.16-8.43Z" style="fill: #e5d1b5;"/>
            <path d="m2120.77,1660.65c41.39-15.32,73.81-47.64,88.94-88.68,17.52-47.5,11.11-103.14-18.02-157.06-2.87-7.25-6.31-14.35-10.23-21.14l-104.3-180.35,102.84-216.35c17.77-37.39,20.49-83.02,7.64-128.48-12-42.46-36.82-80.33-68.16-104.05-36.05-28.5-82.68-39.3-128.06-29.62l-243.71,51.99-180.99-171.29c-43.15-40.84-104.57-53.4-160.29-32.78-55.72,20.62-94.17,70.14-100.33,129.23l-25.87,247.84-218.83,119.2c-43.72,23.82-72.6,65.49-79.35,114.45-6.36,38.07.41,80.13,19.11,118.56,19.91,40.93,51.08,72.45,87.75,88.75l218.91,97.27,38.24,204.79c1.12,6.01,2.59,11.98,4.38,17.78.08.42.17.83.26,1.24,13.19,59.72,46.07,106.58,92.59,131.96,39.19,21.38,85.02,25,125.74,9.94h0c23.28-8.62,43.77-22.64,60.89-41.69l166.61-185.3,247.1,32.19c26.32,3.43,53,.51,77.16-8.43Z" style="fill: #fff;"/>
            <g>
              <path d="m1373.12,761.46l-28.65,274.51-271.13,105.13c-75.66,41.21-42.48,178.19,36.26,213.18l252.22,112.08,38.65,244.62c25.26,114.34,133.89,141.18,191.5,77.11l184.53-205.24,273.69,35.66c85.44,11.13,158.94-73.52,92.59-186.52l-127.35-207.53,118.49-249.27c36.99-77.82-27.58-204.25-111.85-186.27l-273.65,97.56-200.46-189.72c-62.58-59.23-165.9-20.99-174.85,64.71Z" style="fill: #ffaf3b;"/>
              <path d="m1356.81,717.38l-28.65,274.51-242.38,132.02c-75.66,41.21-71.23,151.3,7.51,186.29l252.22,112.08,50.66,271.31c15.81,84.7,121.88,114.49,179.49,50.42l184.53-205.24,273.69,35.66c85.44,11.13,146.55-80.54,103.42-155.12l-138.17-238.93,118.49-249.27c36.99-77.82-31.31-164.27-115.57-146.29l-269.93,57.58-200.46-189.72c-62.58-59.23-165.9-20.99-174.85,64.71Z" style="fill: url(#Degradado_sin_nombre_2359-3);"/>
            </g>
          </g>
        </g>
      </g>
      <g>
        <g>
          <path d="m1518.16,3475.88c-43.61,6.1-79.05,3.41-106.34-8.06-27.3-11.47-49.22-28.9-65.77-52.28-16.56-23.36-28.82-51.24-36.81-83.61-7.99-32.35-14.49-66.38-19.48-102.05-4.6-32.83-7.19-65.8-7.79-98.92-.6-33.11,3.96-63.47,13.66-91.1,9.69-27.62,25.59-51.21,47.68-70.75,22.08-19.54,53.51-32.17,94.28-37.88,35.67-4.99,65.26-3.94,88.77,3.16,23.51,7.1,42.63,19.01,57.39,35.7,14.74,16.7,25.92,37.8,33.54,63.28,7.6,25.5,13.67,54.37,18.19,86.65,3.25,23.22-1.9,40.1-15.42,50.65-13.54,10.55-30.49,17.26-50.87,20.11-16.43,2.3-28.91.73-37.46-4.71-8.55-5.43-14.82-13.08-18.79-22.91-3.97-9.83-6.75-20.41-8.34-31.74-1.58-11.32-3.38-22.04-5.37-32.15-2-10.11-5.29-18.16-9.88-24.16-4.6-5.99-11.98-8.28-22.17-6.85-14.16,1.98-24.26,9.17-30.32,21.56-6.06,12.4-9.84,26.64-11.34,42.72-1.51,16.1-1.55,32.26-.14,48.51s2.79,29.2,4.13,38.82c1.35,9.63,3.31,21.62,5.9,35.98,2.58,14.36,6.64,27.94,12.19,40.72,5.54,12.8,12.79,23.32,21.74,31.59,8.95,8.27,20.5,11.42,34.66,9.44,14.15-1.98,23.93-5.37,29.32-10.17,5.39-4.79,8.96-10.2,10.72-16.22,1.76-6.01,2.56-12.62,2.42-19.82-.14-7.19.95-13.84,3.27-19.94,2.31-6.09,7.03-11.66,14.12-16.7,7.09-5.02,18.56-8.66,34.41-10.88,22.64-3.17,38.22.86,46.72,12.08,8.5,11.23,14.13,26.75,16.91,46.56,3.49,24.92,2.44,47.43-3.1,67.54-5.56,20.13-14.82,37.44-27.8,51.95-12.99,14.51-29.09,26.29-48.31,35.34-19.23,9.04-40.73,15.23-64.51,18.56Z" style="fill: #e5d1b5;"/>
          <path d="m1899.55,3423.45c-43.77,4.76-79.29,2.01-106.57-8.25-27.29-10.25-49.01-26.29-65.19-48.12-16.18-21.81-28.01-48.56-35.47-80.25-7.48-31.67-13.28-66.55-17.42-104.64-4.39-40.35-6.18-77.83-5.33-112.42.83-34.6,7.29-65.06,19.39-91.39,12.08-26.33,31.15-47.95,57.21-64.88,26.05-16.92,62.09-27.89,108.13-32.9,39.78-4.33,72.83-.59,99.13,11.21,26.3,11.8,47.59,29.05,63.85,51.71,16.27,22.68,28.38,49.53,36.37,80.58,7.97,31.05,13.79,63.35,17.44,96.87,4.21,38.66,6.16,75.24,5.9,109.77-.27,34.54-5.99,65.22-17.16,92.01-11.18,26.81-29.32,49.06-54.42,66.74-25.11,17.68-60.4,29-105.86,33.95Zm-79.48-238.93c1.11,10.23,2.47,21.45,4.09,33.63,1.61,12.2,4.71,23.51,9.3,33.92,4.59,10.43,10.95,18.8,19.12,25.09,8.15,6.31,19.34,8.68,33.56,7.13,13.64-1.48,24.06-6.07,31.28-13.76,7.21-7.69,12.25-16.86,15.12-27.52,2.86-10.66,4.21-22.02,4.06-34.08-.17-12.06-.8-23.2-1.91-33.44-1.11-10.23-2.76-23.99-4.92-41.3-2.18-17.3-6.02-34.13-11.53-50.5-5.53-16.35-13.09-30.35-22.68-41.96-9.6-11.6-22.08-16.58-37.42-14.91-13.64,1.48-23.56,8.17-29.74,20.06-6.19,11.89-10.15,25.69-11.89,41.41-1.74,15.72-2.05,31.43-.91,47.11,1.13,15.7,2.19,28.09,3.18,37.18l1.3,11.94Z" style="fill: #e5d1b5;"/>
          <path d="m2133.56,3329.39c-3.79-53.6-6.13-106.88-7-159.84-.88-52.94-.94-106.39-.15-160.33.09-14.9.66-31.13,1.72-48.69,1.04-17.55,4.04-34.1,8.96-49.64,4.92-15.53,12.87-28.7,23.86-39.51,10.98-10.8,26.17-16.89,45.56-18.26,17.11-1.21,30.63-.3,40.6,2.72,9.95,3.03,19.76,11.93,29.4,26.72,11.51,16.96,22.18,36.13,32,57.49,9.81,21.38,19.4,43.33,28.73,65.89,9.33,22.55,18.37,45.13,27.14,67.72,8.76,22.59,17.27,43.63,25.52,63.1,3.18-11.68,5.36-23.44,6.53-35.28,1.17-11.82,2.49-23.52,3.97-35.1,1.84-14.45,4.16-30.24,6.97-47.35,2.79-17.1,6.03-34.24,9.69-51.41,3.65-17.16,8.05-33.95,13.21-50.37,5.14-16.4,11.28-30.89,18.42-43.43,14.23-25.64,35.32-39.46,63.27-41.44,23.38-1.65,41.45.66,54.22,6.91,12.76,6.27,23.66,20.55,32.69,42.82,4.79,11.13,9.64,26.98,14.54,47.55,4.89,20.58,9.53,43.6,13.91,69.08,4.38,25.48,8.43,52.42,12.16,80.81,3.73,28.4,7.23,55.8,10.54,82.22,3.29,26.42,6.03,50.88,8.19,73.36,2.15,22.5,3.73,40.57,4.69,54.26,1.89,26.81-2.84,45.04-14.19,54.73-11.35,9.68-29.58,15.42-54.67,17.19-17.11,1.21-30.33-1.3-39.65-7.52-9.33-6.22-16.5-14.44-21.52-24.7-5.02-10.24-8.3-22.05-9.81-35.42-1.52-13.35-3.03-26.57-4.52-39.66l-15.82-163.09c-1.8,7.01-4.17,18.21-7.08,33.6-2.93,15.4-6.44,32.56-10.55,51.47-4.12,18.92-8.61,38.43-13.49,58.55-4.89,20.12-9.71,38.94-14.49,56.48-4.78,17.53-9.74,32.5-14.88,44.9-5.14,12.4-9.92,19.9-14.31,22.5-2.74,1.91-6.5,3.47-11.28,4.67-4.79,1.2-8.89,1.92-12.31,2.16-9.7.69-18.76-1.83-27.18-7.54-5.41-3.63-11.68-11.06-18.77-22.31-7.11-11.24-14.63-24.61-22.61-40.1-7.97-15.48-16.17-32.09-24.58-49.85-8.43-17.74-16.23-34.96-23.42-51.65-7.2-16.69-13.73-31.98-19.58-45.9-5.86-13.91-10.47-24.47-13.85-31.69,2.82,31.91,5.9,63.35,9.25,94.34,3.33,31.01,6.13,62.47,8.39,94.4,1.21,17.11,1.2,31.29,0,42.56-1.22,11.26-4.59,20.23-10.13,26.94-5.54,6.69-13.51,11.7-23.87,15.01-10.38,3.31-24.4,5.59-42.07,6.84-24.53,1.73-40.67-3.72-48.44-16.35s-12.4-29.5-13.89-50.6Z" style="fill: #e5d1b5;"/>
          <path d="m2701.3,3078.77c-.26-7.42-.8-18.7-1.62-33.84-.83-15.12-1.42-31.98-1.77-50.57-.37-18.57-.04-37.76.98-57.53,1.02-19.77,3.39-37.88,7.1-54.31,3.71-16.43,9.25-29.93,16.6-40.48,7.35-10.55,16.73-16.03,28.17-16.43l18.85-.66,38.51-3.07c36.56-1.28,69.04-.99,97.42.87,28.38,1.87,52.64,8.45,72.77,19.76,20.13,11.31,35.77,28.93,46.9,52.84,11.14,23.93,17.45,57.03,18.93,99.31,1.16,33.14-.08,62.94-3.73,89.37-3.66,26.45-11.74,48.76-24.25,66.92-12.53,18.18-30.18,32.38-52.99,42.62-22.81,10.24-52.79,16.01-89.92,17.31-4.58.16-9.15.19-13.73.05-4.59-.12-9.17-.39-13.76-.8.4,11.44,1.64,22.4,3.73,32.91,2.09,10.52,3.32,21.2,3.7,32.05.44,12.57.41,23.88-.1,33.9-.51,10.03-2.65,18.54-6.4,25.54-3.76,7-9.86,12.36-18.31,16.09s-20.11,5.85-34.96,6.38c-10.28.36-20.47-.14-30.52-1.5-10.06-1.36-19.03-4.35-26.91-8.92-7.88-4.59-14.26-10.8-19.1-18.64-4.86-7.83-7.5-18.04-7.94-30.61l-7.67-218.55Zm147.43,19.71c27.95-2.12,47.99-9.97,60.1-23.56,12.1-13.58,17.67-34.37,16.69-62.37-.6-17.14-5.57-32.12-14.88-44.96-9.33-12.83-23.4-18.91-42.26-18.25-4.58.16-9,.32-13.28.47-4.29.15-8.71.6-13.25,1.32,1.5,10.24,2.57,20.65,3.24,31.21.65,10.57,1.18,21.28,1.56,32.12.48,13.71.82,27.58,1.03,41.58.2,14.02.56,28.16,1.06,42.44Z" style="fill: #e5d1b5;"/>
          <path d="m3150.55,3340.18c-14.87.15-26.33-2.32-34.38-7.38-8.06-5.07-14.13-11.87-18.21-20.4-4.09-8.54-6.48-18.38-7.15-29.52-.69-11.14-1.08-22.72-1.2-34.72l-2.96-302.71c-.07-7.42-.32-17.43-.72-30.01-.42-12.56-.11-25.3.91-38.17,1.01-12.87,3.32-24.76,6.94-35.66,3.61-10.89,9.39-18.66,17.35-23.33,7.38-4.64,15.65-7.3,24.79-7.96,9.13-.65,17.7-1.03,25.72-1.11,13.72-.13,24.88.91,33.48,3.1,8.6,2.21,15.35,6.15,20.27,11.81,4.91,5.67,8.27,12.93,10.07,21.77,1.8,8.85,2.77,20.13,2.9,33.85l.54,55.74,1.95,111.47.55,55.74c.07,6.86,0,14.87-.19,24.02-.21,9.15-.68,18.31-1.45,27.46-.77,9.16-1.97,18.03-3.6,26.62-1.63,8.59-3.85,16.05-6.64,22.36,14.26-2.42,29.96-5.72,47.07-9.89,17.11-4.16,32.53-6.32,46.25-6.45,9.14-.09,16.61,3.13,22.39,9.64,5.77,6.52,10.29,14.48,13.53,23.88,3.23,9.4,5.47,19.11,6.72,29.09,1.24,10,1.9,18.42,1.96,25.28.16,16.01-1.87,28.32-6.07,36.94-4.2,8.62-10.29,14.81-18.26,18.62-7.98,3.79-17.24,5.88-27.81,6.28-10.58.38-22.44.65-35.58.78-13.16.13-26.45.54-39.87,1.25-13.43.69-26.72,1.12-39.87,1.25l-39.45.39Z" style="fill: #e5d1b5;"/>
          <path d="m3450.84,3347.59c-26.3-.33-44.23-7.13-53.78-20.4-9.56-13.27-14.18-32.19-13.87-56.78.75-59.45,1.34-118.62,1.8-177.51.44-58.88,1.05-118.05,1.8-177.51.11-9.14.67-18.99,1.66-29.57.99-10.56,3.11-20.54,6.38-29.94,3.25-9.39,8.22-17.33,14.88-23.83,6.65-6.48,15.7-10.52,27.17-12.09,32.07-4.17,64.41-7.19,97.03-9.08,32.61-1.87,65.21-2.61,97.8-2.2,6.28.08,12.25,2.87,17.91,8.37,5.64,5.51,10.57,12.01,14.76,19.48,4.19,7.49,7.53,15.25,10,23.28,2.47,8.04,3.68,14.63,3.61,19.77-.09,7.44-.62,14.87-1.57,22.28-.95,7.43-2.9,14.12-5.83,20.08-2.94,5.97-7.14,10.78-12.62,14.42-5.49,3.66-12.81,5.99-21.96,7.01l-116.74,7.97,3.62,53.22,84.04,1.05c17.71.22,29.64,6.24,35.79,18.03,6.14,11.8,9.12,25.41,8.92,40.85-.07,5.72-.58,12.43-1.54,20.14-.95,7.71-2.76,15.12-5.42,22.23-2.66,7.12-6.32,13.21-10.95,18.3-4.65,5.09-10.96,7.58-18.96,7.48l-93.47-1.17,4.19,76.38,46.31.58c6.28.08,11.3-1.71,15.08-5.39,3.76-3.66,7.52-7.91,11.31-12.72,3.77-4.8,8.11-9.04,13.02-12.7,4.9-3.65,11.07-5.44,18.51-5.34,18.29.23,33.09,5.28,44.41,15.14,11.31,9.87,16.85,24.22,16.61,43.09-.27,21.73-1.51,40.01-3.69,54.84-2.2,14.85-7.06,26.79-14.6,35.84-7.55,9.04-18.07,15.77-31.56,20.19-13.5,4.4-31.96,6.74-55.41,7.02-13.16.4-26.59.52-40.31.35-13.72-.17-27.16-.34-40.3-.51l-54.02-.68Z" style="fill: #e5d1b5;"/>
          <path d="m3808.83,2963.69c-17.14-.63-32.15-.89-45.02-.81-12.88.1-23.53-1.86-31.96-5.9-8.43-4.03-14.75-11.27-18.94-21.72-4.2-10.45-5.87-26.82-5.05-49.1.46-12.56,1.42-23.12,2.89-31.65,1.46-8.53,4.43-15.42,8.92-20.69,4.49-5.27,10.63-9.05,18.44-11.33,7.81-2.29,17.99-3.2,30.57-2.73,6.86.25,13.71.51,20.57.76,6.86.25,13.72.23,20.6-.1l82.33,1.33,41.14,1.52,63.42,2.34c10.28.38,18.19,2.97,23.74,7.74,5.54,4.79,9.48,10.65,11.79,17.6,2.32,6.95,3.6,14.72,3.86,23.31.25,8.59.23,16.89-.06,24.88-.84,22.86-5.66,40.55-14.41,53.1-8.76,12.55-25.71,18.36-50.85,17.43l-33.42-1.23-.92,24.85c-1.82,49.14-2.2,98.04-1.13,146.7,1.06,48.67.69,97.57-1.13,146.7-1.01,27.42-7.96,44.89-20.82,52.44-12.87,7.53-32.15,10.83-57.86,9.88-20.57-.76-37.85-5.41-51.83-13.93-13.99-8.54-20.56-24.21-19.71-47.07l.25-6.86c4.84-53.59,8.66-106.65,11.46-159.19,2.8-52.52,7.18-105.29,13.14-158.27Z" style="fill: #e5d1b5;"/>
          <path d="m4071.73,3353.05c-26.25-1.62-45.61-8.12-58.08-19.48-12.48-11.36-17.87-30.74-16.18-58.13.63-10.27,2.75-23.74,6.36-40.42,3.61-16.67,8.01-34.73,13.22-54.17,5.2-19.44,11.04-39.7,17.49-60.78,6.46-21.08,12.99-41.3,19.63-60.65,6.63-19.35,12.89-37.29,18.78-53.83,5.88-16.53,11.14-29.82,15.77-39.84,7.36-17.29,14.98-34.01,22.85-50.14,7.87-16.12,17.18-30.15,27.94-42.1,10.75-11.93,23.51-21.32,38.25-28.14,14.73-6.82,32.94-9.57,54.64-8.23,12.55.77,25.03,2.7,37.45,5.75,12.4,3.06,23.82,8.34,34.25,15.86,14.23,10.62,25.76,25.79,34.57,45.52,8.8,19.74,15.65,40.92,20.57,63.56,4.9,22.64,8.66,45.21,11.29,67.71,2.61,22.5,4.6,41.52,5.93,57.07,1.9,15.58,3.93,33.75,6.09,54.51,2.16,20.75,4.14,41.93,5.96,63.52,1.81,21.59,3.24,42.6,4.28,62.99,1.02,20.4,1.09,38.02.18,52.85-.7,11.42-3.42,20.56-8.13,27.42-4.72,6.86-10.76,11.93-18.12,15.21-7.37,3.26-15.51,5.34-24.44,6.23-8.94.87-18.25,1.02-27.95.43-18.27-1.13-32.05-5.13-41.36-12-9.32-6.88-16.22-15.61-20.72-26.19-4.5-10.59-7.5-22.51-8.96-35.78-1.48-13.26-3.48-27.13-6.03-41.61l-91.59-5.65c-2.38,10.74-4.67,22.2-6.85,34.38-2.19,12.19-5.72,23.14-10.62,32.85-4.9,9.73-11.83,17.61-20.79,23.63-8.96,6.03-20.87,8.59-35.7,7.68Zm158.69-218.76l.79-12.84c.21-3.42.38-11,.54-22.74.15-11.72.03-23.76-.35-36.11-.39-12.34-1.42-23.57-3.08-33.7-1.67-10.12-4.21-15.3-7.64-15.51-4.57-.28-9.33,5.01-14.3,15.87-4.97,10.86-9.59,23.18-13.88,36.95-4.29,13.78-7.97,27-11.04,39.7-3.08,12.7-4.73,21.05-4.98,25.04l53.92,3.32Z" style="fill: #e5d1b5;"/>
          <path d="m4556.29,3397.22c-18.79-1.72-36.16-4.75-52.13-9.08-15.96-4.34-29.71-11.05-41.21-20.14-11.52-9.09-20.2-20.8-26.06-35.11-5.87-14.32-8.12-32.03-6.75-53.15,3.6-51.91,7.18-103.4,10.71-154.46,3.52-51.05,7.67-102.49,12.42-154.3,1.83-19.92,4.86-37.45,9.12-52.56,4.25-15.11,10.55-27.45,18.89-37.02,8.33-9.57,19.58-16.29,33.71-20.16,14.13-3.87,31.73-4.84,52.8-2.91,44.97,4.12,84.03,11.73,117.18,22.8,33.13,11.08,60.08,27.18,80.83,48.32,20.74,21.14,35.35,48.02,43.85,80.66,8.49,32.64,10.57,72.59,6.24,119.84-3.71,40.43-10.74,77.96-21.09,112.6-10.36,34.65-25.55,64.12-45.56,88.4-20.03,24.29-45.81,42.45-77.33,54.48-31.54,12.03-70.07,15.97-115.62,11.79Zm11.68-146.19c-.57,6.27,1.32,10.6,5.7,13.01,4.37,2.42,9.12,3.85,14.24,4.32,15.93,1.46,29.42-3.18,40.46-13.94,11.02-10.75,19.99-24,26.89-39.73,6.89-15.73,12.14-32.32,15.76-49.79,3.61-17.46,5.94-31.88,6.98-43.28,3.24-35.29-1.05-63.67-12.86-85.14-11.81-21.45-36.72-34.8-74.7-40l-22.48,254.57Z" style="fill: #e5d1b5;"/>
          <path d="m5015.87,3446.65c-43.7-5.36-77.65-16.16-101.87-32.38-24.23-16.22-41.71-36.79-52.47-61.74-10.76-24.93-16.17-53.68-16.2-86.23-.04-32.54,2.28-67.83,6.95-105.85,4.95-40.28,11.77-77.18,20.5-110.67,8.72-33.49,21.96-61.67,39.76-84.54,17.78-22.87,41.28-39.56,70.52-50.1,29.22-10.52,66.82-12.96,112.79-7.32,39.71,4.88,71.04,16.06,93.94,33.57,22.91,17.5,39.69,39.15,50.35,64.93,10.66,25.8,16.31,54.71,17,86.76.67,32.05-1.05,64.82-5.16,98.3-4.74,38.6-11.19,74.66-19.33,108.22-8.16,33.56-20.74,62.12-37.73,85.66-17.01,23.55-39.75,41.06-68.23,52.54-28.49,11.47-65.43,14.43-110.82,8.86Zm-22.78-250.77c-1.25,10.21-2.5,21.44-3.7,33.67-1.22,12.24-.78,23.96,1.3,35.15,2.08,11.2,6.37,20.8,12.88,28.8,6.5,8.01,16.85,12.87,31.04,14.61,13.62,1.67,24.81-.41,33.6-6.24,8.78-5.84,15.78-13.62,21.01-23.34,5.22-9.73,9.13-20.48,11.74-32.26,2.59-11.78,4.52-22.77,5.78-32.99,1.25-10.21,2.8-23.98,4.64-41.33,1.83-17.34,1.94-34.61.31-51.8-1.64-17.19-5.81-32.53-12.49-46.03-6.7-13.49-17.7-21.18-33.03-23.06-13.62-1.67-24.8,2.57-33.53,12.73-8.74,10.16-15.75,22.69-21.03,37.59-5.29,14.9-9.18,30.13-11.65,45.66-2.49,15.54-4.28,27.85-5.4,36.92l-1.46,11.92Z" style="fill: #e5d1b5;"/>
        </g>
        <g>
          <path d="m1518.16,3442.88c-43.61,6.1-79.05,3.41-106.34-8.06-27.3-11.47-49.22-28.9-65.77-52.28-16.56-23.36-28.82-51.24-36.81-83.61-7.99-32.35-14.49-66.38-19.48-102.05-4.6-32.83-7.19-65.8-7.79-98.92-.6-33.11,3.96-63.47,13.66-91.1,9.69-27.62,25.59-51.21,47.68-70.75,22.08-19.54,53.51-32.17,94.28-37.88,35.67-4.99,65.26-3.94,88.77,3.16,23.51,7.1,42.63,19.01,57.39,35.7,14.74,16.7,25.92,37.8,33.54,63.28,7.6,25.5,13.67,54.37,18.19,86.65,3.25,23.22-1.9,40.1-15.42,50.65-13.54,10.55-30.49,17.26-50.87,20.11-16.43,2.3-28.91.73-37.46-4.71-8.55-5.43-14.82-13.08-18.79-22.91-3.97-9.83-6.75-20.41-8.34-31.74-1.58-11.32-3.38-22.04-5.37-32.15-2-10.11-5.29-18.16-9.88-24.16-4.6-5.99-11.98-8.28-22.17-6.85-14.16,1.98-24.26,9.17-30.32,21.56-6.06,12.4-9.84,26.64-11.34,42.72-1.51,16.1-1.55,32.26-.14,48.51s2.79,29.2,4.13,38.82c1.35,9.63,3.31,21.62,5.9,35.98,2.58,14.36,6.64,27.94,12.19,40.72,5.54,12.8,12.79,23.32,21.74,31.59,8.95,8.27,20.5,11.42,34.66,9.44,14.15-1.98,23.93-5.37,29.32-10.17,5.39-4.79,8.96-10.2,10.72-16.22,1.76-6.01,2.56-12.62,2.42-19.82-.14-7.19.95-13.84,3.27-19.94,2.31-6.09,7.03-11.66,14.12-16.7,7.09-5.02,18.56-8.66,34.41-10.88,22.64-3.17,38.22.86,46.72,12.08,8.5,11.23,14.13,26.75,16.91,46.56,3.49,24.92,2.44,47.43-3.1,67.54-5.56,20.13-14.82,37.44-27.8,51.95-12.99,14.51-29.09,26.29-48.31,35.34-19.23,9.04-40.73,15.23-64.51,18.56Z" style="fill: #fff;"/>
          <path d="m1899.55,3390.45c-43.77,4.76-79.29,2.01-106.57-8.25-27.29-10.25-49.01-26.29-65.19-48.12-16.18-21.81-28.01-48.56-35.47-80.25-7.48-31.67-13.28-66.55-17.42-104.64-4.39-40.35-6.18-77.83-5.33-112.42.83-34.6,7.29-65.06,19.39-91.39,12.08-26.33,31.15-47.95,57.21-64.88,26.05-16.92,62.09-27.89,108.13-32.9,39.78-4.33,72.83-.59,99.13,11.21,26.3,11.8,47.59,29.05,63.85,51.71,16.27,22.68,28.38,49.53,36.37,80.58,7.97,31.05,13.79,63.35,17.44,96.87,4.21,38.66,6.16,75.24,5.9,109.77-.27,34.54-5.99,65.22-17.16,92.01-11.18,26.81-29.32,49.06-54.42,66.74-25.11,17.68-60.4,29-105.86,33.95Zm-79.48-238.93c1.11,10.23,2.47,21.45,4.09,33.63,1.61,12.2,4.71,23.51,9.3,33.92,4.59,10.43,10.95,18.8,19.12,25.09,8.15,6.31,19.34,8.68,33.56,7.13,13.64-1.48,24.06-6.07,31.28-13.76,7.21-7.69,12.25-16.86,15.12-27.52,2.86-10.66,4.21-22.02,4.06-34.08-.17-12.06-.8-23.2-1.91-33.44-1.11-10.23-2.76-23.99-4.92-41.3-2.18-17.3-6.02-34.13-11.53-50.5-5.53-16.35-13.09-30.35-22.68-41.96-9.6-11.6-22.08-16.58-37.42-14.91-13.64,1.48-23.56,8.17-29.74,20.06-6.19,11.89-10.15,25.69-11.89,41.41-1.74,15.72-2.05,31.43-.91,47.11,1.13,15.7,2.19,28.09,3.18,37.18l1.3,11.94Z" style="fill: #fff;"/>
          <path d="m2133.56,3296.39c-3.79-53.6-6.13-106.88-7-159.84-.88-52.94-.94-106.39-.15-160.33.09-14.9.66-31.13,1.72-48.69,1.04-17.55,4.04-34.1,8.96-49.64,4.92-15.53,12.87-28.7,23.86-39.51,10.98-10.8,26.17-16.89,45.56-18.26,17.11-1.21,30.63-.3,40.6,2.72,9.95,3.03,19.76,11.93,29.4,26.72,11.51,16.96,22.18,36.13,32,57.49,9.81,21.38,19.4,43.33,28.73,65.89,9.33,22.55,18.37,45.13,27.14,67.72,8.76,22.59,17.27,43.63,25.52,63.1,3.18-11.68,5.36-23.44,6.53-35.28,1.17-11.82,2.49-23.52,3.97-35.1,1.84-14.45,4.16-30.24,6.97-47.35,2.79-17.1,6.03-34.24,9.69-51.41,3.65-17.16,8.05-33.95,13.21-50.37,5.14-16.4,11.28-30.89,18.42-43.43,14.23-25.64,35.32-39.46,63.27-41.44,23.38-1.65,41.45.66,54.22,6.91,12.76,6.27,23.66,20.55,32.69,42.82,4.79,11.13,9.64,26.98,14.54,47.55,4.89,20.58,9.53,43.6,13.91,69.08,4.38,25.48,8.43,52.42,12.16,80.81,3.73,28.4,7.23,55.8,10.54,82.22,3.29,26.42,6.03,50.88,8.19,73.36,2.15,22.5,3.73,40.57,4.69,54.26,1.89,26.81-2.84,45.04-14.19,54.73-11.35,9.68-29.58,15.42-54.67,17.19-17.11,1.21-30.33-1.3-39.65-7.52-9.33-6.22-16.5-14.44-21.52-24.7-5.02-10.24-8.3-22.05-9.81-35.42-1.52-13.35-3.03-26.57-4.52-39.66l-15.82-163.09c-1.8,7.01-4.17,18.21-7.08,33.6-2.93,15.4-6.44,32.56-10.55,51.47-4.12,18.92-8.61,38.43-13.49,58.55-4.89,20.12-9.71,38.94-14.49,56.48-4.78,17.53-9.74,32.5-14.88,44.9-5.14,12.4-9.92,19.9-14.31,22.5-2.74,1.91-6.5,3.47-11.28,4.67-4.79,1.2-8.89,1.92-12.31,2.16-9.7.69-18.76-1.83-27.18-7.54-5.41-3.63-11.68-11.06-18.77-22.31-7.11-11.24-14.63-24.61-22.61-40.1-7.97-15.48-16.17-32.09-24.58-49.85-8.43-17.74-16.23-34.96-23.42-51.65-7.2-16.69-13.73-31.98-19.58-45.9-5.86-13.91-10.47-24.47-13.85-31.69,2.82,31.91,5.9,63.35,9.25,94.34,3.33,31.01,6.13,62.47,8.39,94.4,1.21,17.11,1.2,31.29,0,42.56-1.22,11.26-4.59,20.23-10.13,26.94-5.54,6.69-13.51,11.7-23.87,15.01-10.38,3.31-24.4,5.59-42.07,6.84-24.53,1.73-40.67-3.72-48.44-16.35s-12.4-29.5-13.89-50.6Z" style="fill: #fff;"/>
          <path d="m2701.3,3045.77c-.26-7.42-.8-18.7-1.62-33.84-.83-15.12-1.42-31.98-1.77-50.57-.37-18.57-.04-37.76.98-57.53,1.02-19.77,3.39-37.88,7.1-54.31,3.71-16.43,9.25-29.93,16.6-40.48,7.35-10.55,16.73-16.03,28.17-16.43l18.85-.66,38.51-3.07c36.56-1.28,69.04-.99,97.42.87,28.38,1.87,52.64,8.45,72.77,19.76,20.13,11.31,35.77,28.93,46.9,52.84,11.14,23.93,17.45,57.03,18.93,99.31,1.16,33.14-.08,62.94-3.73,89.37-3.66,26.45-11.74,48.76-24.25,66.92-12.53,18.18-30.18,32.38-52.99,42.62-22.81,10.24-52.79,16.01-89.92,17.31-4.58.16-9.15.19-13.73.05-4.59-.12-9.17-.39-13.76-.8.4,11.44,1.64,22.4,3.73,32.91,2.09,10.52,3.32,21.2,3.7,32.05.44,12.57.41,23.88-.1,33.9-.51,10.03-2.65,18.54-6.4,25.54-3.76,7-9.86,12.36-18.31,16.09s-20.11,5.85-34.96,6.38c-10.28.36-20.47-.14-30.52-1.5-10.06-1.36-19.03-4.35-26.91-8.92-7.88-4.59-14.26-10.8-19.1-18.64-4.86-7.83-7.5-18.04-7.94-30.61l-7.67-218.55Zm147.43,19.71c27.95-2.12,47.99-9.97,60.1-23.56,12.1-13.58,17.67-34.37,16.69-62.37-.6-17.14-5.57-32.12-14.88-44.96-9.33-12.83-23.4-18.91-42.26-18.25-4.58.16-9,.32-13.28.47-4.29.15-8.71.6-13.25,1.32,1.5,10.24,2.57,20.65,3.24,31.21.65,10.57,1.18,21.28,1.56,32.12.48,13.71.82,27.58,1.03,41.58.2,14.02.56,28.16,1.06,42.44Z" style="fill: #fff;"/>
          <path d="m3150.55,3307.18c-14.87.15-26.33-2.32-34.38-7.38-8.06-5.07-14.13-11.87-18.21-20.4-4.09-8.54-6.48-18.38-7.15-29.52-.69-11.14-1.08-22.72-1.2-34.72l-2.96-302.71c-.07-7.42-.32-17.43-.72-30.01-.42-12.56-.11-25.3.91-38.17,1.01-12.87,3.32-24.76,6.94-35.66,3.61-10.89,9.39-18.66,17.35-23.33,7.38-4.64,15.65-7.3,24.79-7.96,9.13-.65,17.7-1.03,25.72-1.11,13.72-.13,24.88.91,33.48,3.1,8.6,2.21,15.35,6.15,20.27,11.81,4.91,5.67,8.27,12.93,10.07,21.77,1.8,8.85,2.77,20.13,2.9,33.85l.54,55.74,1.95,111.47.55,55.74c.07,6.86,0,14.87-.19,24.02-.21,9.15-.68,18.31-1.45,27.46-.77,9.16-1.97,18.03-3.6,26.62-1.63,8.59-3.85,16.05-6.64,22.36,14.26-2.42,29.96-5.72,47.07-9.89,17.11-4.16,32.53-6.32,46.25-6.45,9.14-.09,16.61,3.13,22.39,9.64,5.77,6.52,10.29,14.48,13.53,23.88,3.23,9.4,5.47,19.11,6.72,29.09,1.24,10,1.9,18.42,1.96,25.28.16,16.01-1.87,28.32-6.07,36.94-4.2,8.62-10.29,14.81-18.26,18.62-7.98,3.79-17.24,5.88-27.81,6.28-10.58.38-22.44.65-35.58.78-13.16.13-26.45.54-39.87,1.25-13.43.69-26.72,1.12-39.87,1.25l-39.45.39Z" style="fill: #fff;"/>
          <path d="m3450.84,3314.59c-26.3-.33-44.23-7.13-53.78-20.4-9.56-13.27-14.18-32.19-13.87-56.78.75-59.45,1.34-118.62,1.8-177.51.44-58.88,1.05-118.05,1.8-177.51.11-9.14.67-18.99,1.66-29.57.99-10.56,3.11-20.54,6.38-29.94,3.25-9.39,8.22-17.33,14.88-23.83,6.65-6.48,15.7-10.52,27.17-12.09,32.07-4.17,64.41-7.19,97.03-9.08,32.61-1.87,65.21-2.61,97.8-2.2,6.28.08,12.25,2.87,17.91,8.37,5.64,5.51,10.57,12.01,14.76,19.48,4.19,7.49,7.53,15.25,10,23.28,2.47,8.04,3.68,14.63,3.61,19.77-.09,7.44-.62,14.87-1.57,22.28-.95,7.43-2.9,14.12-5.83,20.08-2.94,5.97-7.14,10.78-12.62,14.42-5.49,3.66-12.81,5.99-21.96,7.01l-116.74,7.97,3.62,53.22,84.04,1.05c17.71.22,29.64,6.24,35.79,18.03,6.14,11.8,9.12,25.41,8.92,40.85-.07,5.72-.58,12.43-1.54,20.14-.95,7.71-2.76,15.12-5.42,22.23-2.66,7.12-6.32,13.21-10.95,18.3-4.65,5.09-10.96,7.58-18.96,7.48l-93.47-1.17,4.19,76.38s151.26-30.29,165.24,22.66c5.55,21.01-1.51,40.01-3.69,54.84-2.2,14.85-7.06,26.79-14.6,35.84-7.55,9.04-18.07,15.77-31.56,20.19-13.5,4.4-31.96,6.74-55.41,7.02-13.16.4-26.59.52-40.31.35-13.72-.17-27.16-.34-40.3-.51l-54.02-.68Z" style="fill: #fff;"/>
          <path d="m3808.83,2930.69c-17.14-.63-32.15-.89-45.02-.81-12.88.1-23.53-1.86-31.96-5.9-8.43-4.03-14.75-11.27-18.94-21.72-4.2-10.45-5.87-26.82-5.05-49.1.46-12.56,1.42-23.12,2.89-31.65,1.46-8.53,4.43-15.42,8.92-20.69,4.49-5.27,10.63-9.05,18.44-11.33,7.81-2.29,17.99-3.2,30.57-2.73,6.86.25,13.71.51,20.57.76,6.86.25,13.72.23,20.6-.1l82.33,1.33,41.14,1.52,63.42,2.34c10.28.38,18.19,2.97,23.74,7.74,5.54,4.79,9.48,10.65,11.79,17.6,2.32,6.95,3.6,14.72,3.86,23.31.25,8.59.23,16.89-.06,24.88-.84,22.86-5.66,40.55-14.41,53.1-8.76,12.55-25.71,18.36-50.85,17.43l-33.42-1.23-.92,24.85c-1.82,49.14-2.2,98.04-1.13,146.7,1.06,48.67.69,97.57-1.13,146.7-1.01,27.42-7.96,44.89-20.82,52.44-12.87,7.53-32.15,10.83-57.86,9.88-20.57-.76-37.85-5.41-51.83-13.93-13.99-8.54-20.56-24.21-19.71-47.07l.25-6.86c4.84-53.59,8.66-106.65,11.46-159.19,2.8-52.52,7.18-105.29,13.14-158.27Z" style="fill: #fff;"/>
          <path d="m4071.73,3320.05c-26.25-1.62-45.61-8.12-58.08-19.48-12.48-11.36-17.87-30.74-16.18-58.13.63-10.27,2.75-23.74,6.36-40.42,3.61-16.67,8.01-34.73,13.22-54.17,5.2-19.44,11.04-39.7,17.49-60.78,6.46-21.08,12.99-41.3,19.63-60.65,6.63-19.35,12.89-37.29,18.78-53.83,5.88-16.53,11.14-29.82,15.77-39.84,7.36-17.29,14.98-34.01,22.85-50.14,7.87-16.12,17.18-30.15,27.94-42.1,10.75-11.93,23.51-21.32,38.25-28.14,14.73-6.82,32.94-9.57,54.64-8.23,12.55.77,25.03,2.7,37.45,5.75,12.4,3.06,23.82,8.34,34.25,15.86,14.23,10.62,25.76,25.79,34.57,45.52,8.8,19.74,15.65,40.92,20.57,63.56,4.9,22.64,8.66,45.21,11.29,67.71,2.61,22.5,4.6,41.52,5.93,57.07,1.9,15.58,3.93,33.75,6.09,54.51,2.16,20.75,4.14,41.93,5.96,63.52,1.81,21.59,3.24,42.6,4.28,62.99,1.02,20.4,1.09,38.02.18,52.85-.7,11.42-3.42,20.56-8.13,27.42-4.72,6.86-10.76,11.93-18.12,15.21-7.37,3.26-15.51,5.34-24.44,6.23-8.94.87-18.25,1.02-27.95.43-18.27-1.13-32.05-5.13-41.36-12-9.32-6.88-16.22-15.61-20.72-26.19-4.5-10.59-7.5-22.51-8.96-35.78-1.48-13.26-3.48-27.13-6.03-41.61l-91.59-5.65c-2.38,10.74-4.67,22.2-6.85,34.38-2.19,12.19-5.72,23.14-10.62,32.85-4.9,9.73-11.83,17.61-20.79,23.63-8.96,6.03-20.87,8.59-35.7,7.68Zm158.69-218.76l.79-12.84c.21-3.42.38-11,.54-22.74.15-11.72.03-23.76-.35-36.11-.39-12.34-1.42-23.57-3.08-33.7-1.67-10.12-4.21-15.3-7.64-15.51-4.57-.28-9.33,5.01-14.3,15.87-4.97,10.86-9.59,23.18-13.88,36.95-4.29,13.78-7.97,27-11.04,39.7-3.08,12.7-4.73,21.05-4.98,25.04l53.92,3.32Z" style="fill: #fff;"/>
          <path d="m4556.29,3364.22c-18.79-1.72-36.16-4.75-52.13-9.08-15.96-4.34-29.71-11.05-41.21-20.14-11.52-9.09-20.2-20.8-26.06-35.11-5.87-14.32-8.12-32.03-6.75-53.15,3.6-51.91,7.18-103.4,10.71-154.46,3.52-51.05,7.67-102.49,12.42-154.3,1.83-19.92,4.86-37.45,9.12-52.56,4.25-15.11,10.55-27.45,18.89-37.02,8.33-9.57,19.58-16.29,33.71-20.16,14.13-3.87,31.73-4.84,52.8-2.91,44.97,4.12,84.03,11.73,117.18,22.8,33.13,11.08,60.08,27.18,80.83,48.32,20.74,21.14,35.35,48.02,43.85,80.66,8.49,32.64,10.57,72.59,6.24,119.84-3.71,40.43-10.74,77.96-21.09,112.6-10.36,34.65-25.55,64.12-45.56,88.4-20.03,24.29-45.81,42.45-77.33,54.48-31.54,12.03-70.07,15.97-115.62,11.79Zm11.68-146.19c-.57,6.27,1.32,10.6,5.7,13.01,4.37,2.42,9.12,3.85,14.24,4.32,15.93,1.46,29.42-3.18,40.46-13.94,11.02-10.75,19.99-24,26.89-39.73,6.89-15.73,12.14-32.32,15.76-49.79,3.61-17.46,5.94-31.88,6.98-43.28,3.24-35.29-1.05-63.67-12.86-85.14-11.81-21.45-36.72-34.8-74.7-40l-22.48,254.57Z" style="fill: #fff;"/>
          <path d="m5015.87,3413.65c-43.7-5.36-77.65-16.16-101.87-32.38-24.23-16.22-41.71-36.79-52.47-61.74-10.76-24.93-16.17-53.68-16.2-86.23-.04-32.54,2.28-67.83,6.95-105.85,4.95-40.28,11.77-77.18,20.5-110.67,8.72-33.49,21.96-61.67,39.76-84.54,17.78-22.87,41.28-39.56,70.52-50.1,29.22-10.52,66.82-12.96,112.79-7.32,39.71,4.88,71.04,16.06,93.94,33.57,22.91,17.5,39.69,39.15,50.35,64.93,10.66,25.8,16.31,54.71,17,86.76.67,32.05-1.05,64.82-5.16,98.3-4.74,38.6-11.19,74.66-19.33,108.22-8.16,33.56-20.74,62.12-37.73,85.66-17.01,23.55-39.75,41.06-68.23,52.54-28.49,11.47-65.43,14.43-110.82,8.86Zm-22.78-250.77c-1.25,10.21-2.5,21.44-3.7,33.67-1.22,12.24-.78,23.96,1.3,35.15,2.08,11.2,6.37,20.8,12.88,28.8,6.5,8.01,16.85,12.87,31.04,14.61,13.62,1.67,24.81-.41,33.6-6.24,8.78-5.84,15.78-13.62,21.01-23.34,5.22-9.73,9.13-20.48,11.74-32.26,2.59-11.78,4.52-22.77,5.78-32.99,1.25-10.21,2.8-23.98,4.64-41.33,1.83-17.34,1.94-34.61.31-51.8-1.64-17.19-5.81-32.53-12.49-46.03-6.7-13.49-17.7-21.18-33.03-23.06-13.62-1.67-24.8,2.57-33.53,12.73-8.74,10.16-15.75,22.69-21.03,37.59-5.29,14.9-9.18,30.13-11.65,45.66-2.49,15.54-4.28,27.85-5.4,36.92l-1.46,11.92Z" style="fill: #fff;"/>
        </g>
      </g>
    </g>
  </g>
</svg>