<?xml version="1.0" encoding="UTF-8"?>
<svg id="Capa_2" data-name="Capa 2" xmlns="http://www.w3.org/2000/svg" xmlns:xlink="http://www.w3.org/1999/xlink" viewBox="0 0 2796.44 2796.44">
  <defs>
    <linearGradient id="Degradado_sin_nombre_1009" data-name="Degradado sin nombre 1009" x1="26243.41" y1="4583.81" x2="26015.95" y2="3462.32" gradientTransform="translate(27659.25 4099.72) rotate(-165.29) scale(1 -1)" gradientUnits="userSpaceOnUse">
      <stop offset="0" stop-color="#ce1db6"/>
      <stop offset=".04" stop-color="#d12aa9"/>
      <stop offset=".23" stop-color="#df6076"/>
      <stop offset=".41" stop-color="#ea8d4c"/>
      <stop offset=".58" stop-color="#f3b12a"/>
      <stop offset=".74" stop-color="#f9ca13"/>
      <stop offset=".88" stop-color="#fdd904"/>
      <stop offset="1" stop-color="#ffdf00"/>
    </linearGradient>
    <linearGradient id="Degradado_sin_nombre_203" data-name="Degradado sin nombre 203" x1="17303.57" y1="17131.05" x2="17402.09" y2="17131.05" gradientTransform="translate(6149.69 26107.97) rotate(-56.94) scale(1 -1)" gradientUnits="userSpaceOnUse">
      <stop offset="0" stop-color="#ce1d40"/>
      <stop offset=".04" stop-color="#d12a3b"/>
      <stop offset=".23" stop-color="#df6029"/>
      <stop offset=".41" stop-color="#ea8d1a"/>
      <stop offset=".58" stop-color="#f3b10f"/>
      <stop offset=".74" stop-color="#f9ca06"/>
      <stop offset=".88" stop-color="#fdd901"/>
      <stop offset="1" stop-color="#ffdf00"/>
    </linearGradient>
    <linearGradient id="Degradado_sin_nombre_203-2" data-name="Degradado sin nombre 203" x1="8366.24" y1="11000.02" x2="8464.77" y2="11000.02" gradientTransform="translate(-12090.64 4082.24) rotate(44.63) scale(1 -1)" xlink:href="#Degradado_sin_nombre_203"/>
    <linearGradient id="Degradado_sin_nombre_1009-2" data-name="Degradado sin nombre 1009" x1="21534.04" y1="8194.55" x2="21632.57" y2="8194.55" gradientTransform="translate(24343.08 8152.89) rotate(-142.97) scale(1 -1)" xlink:href="#Degradado_sin_nombre_1009"/>
    <linearGradient id="Degradado_sin_nombre_1009-3" data-name="Degradado sin nombre 1009" x1="12484.53" y1="4633.52" x2="12539.42" y2="4633.52" gradientTransform="translate(-921.08 -12171.15) rotate(103.27) scale(1 -1)" xlink:href="#Degradado_sin_nombre_1009"/>
    <linearGradient id="Degradado_sin_nombre_1009-4" data-name="Degradado sin nombre 1009" x1="18838.19" y1="-17884.51" x2="18989.48" y2="-17884.51" gradientTransform="translate(24166.51 -12106.53) rotate(104.72) scale(1 -1)" xlink:href="#Degradado_sin_nombre_1009"/>
    <linearGradient id="Degradado_sin_nombre_1009-5" data-name="Degradado sin nombre 1009" x1="18326.57" y1="-19003.46" x2="18279.51" y2="-18901.26" gradientTransform="translate(24166.51 -12106.53) rotate(104.72) scale(1 -1)" xlink:href="#Degradado_sin_nombre_1009"/>
    <linearGradient id="Degradado_sin_nombre_1009-6" data-name="Degradado sin nombre 1009" x1="18203.57" y1="-18651.64" x2="18068.03" y2="-18687.25" gradientTransform="translate(24166.51 -12106.53) rotate(104.72) scale(1 -1)" xlink:href="#Degradado_sin_nombre_1009"/>
    <linearGradient id="Degradado_sin_nombre_203-3" data-name="Degradado sin nombre 203" x1="16642.46" y1="9607.01" x2="16734.16" y2="9607.01" gradientTransform="translate(17518.18 10775.97) rotate(-121.74) scale(1 -1)" xlink:href="#Degradado_sin_nombre_203"/>
    <linearGradient id="Degradado_sin_nombre_1009-7" data-name="Degradado sin nombre 1009" x1="18651.46" y1="7154.26" x2="19517.57" y2="7154.26" gradientTransform="translate(20317.28 9996.7) rotate(-133.06) scale(1 -1)" xlink:href="#Degradado_sin_nombre_1009"/>
  </defs>
  <g id="cartafruta">
    <rect id="CARTA_4" data-name="CARTA 4" x="502.08" y="279.66" width="1870.41" height="2306.42" rx="220.59" ry="220.59" style="fill: #fff; stroke: #fff; stroke-miterlimit: 10;"/>
    <g>
      <path d="m1966.55,1639.96c2.22-4.57,49.83-105.05,7.86-196.21-27.14-58.95-63.16-56.15-90.57-114.94-27.56-59.11-8.57-99.3-9.09-162.86-1.12-136.68-87.92-310.97-224.39-345.74-72.76-18.54-147.72-9.29-178.4-3.45-27.8,5.29-74.75,14.23-126.92,44.15-64.96,37.25-78.1,72.68-126.35,77.72-31.71,3.31-40.81-10.44-89.3-25.9-24.88-7.93-161.42-51.46-243.22,11.32-35.06,26.91-50.57,66.41-61.44,93.35-23.6,58.46-9.36,81.01-34.12,121.19-27.85,45.19-58.93,37.87-93.43,75.6-59.59,65.15-43.98,170.98-40.44,195.09,17.24,117.45,98.12,177.28,80.57,244.19-1.78,6.79-10.17,34.96-17.23,75.87-1.32,7.65-4.73,27.28-6.17,43.94-1.08,12.47-4.79,66.15,14.05,115.85,33.79,89.13,125.62,126.66,155.43,139.32,171.72,72.95,232.02-49.86,455.97-7.8,127.6,23.97,204.36,81.99,326.32,45.99,17.59-5.19,51.18-15.43,85.94-41.49,9.66-7.24,46.32-36.29,73.53-90.88,37.55-75.34,7.9-100.83,37.95-168.33,31.32-70.35,69.52-56.08,103.47-125.98Z" style="fill: url(#Degradado_sin_nombre_1009);"/>
      <circle cx="1258.87" cy="2219.2" r="49.25" style="fill: url(#Degradado_sin_nombre_203);"/>
      <circle cx="1626.1" cy="2165.93" r="49.25" style="fill: url(#Degradado_sin_nombre_203-2);"/>
      <circle cx="2178" cy="1695.4" r="49.25" style="fill: url(#Degradado_sin_nombre_1009-2);"/>
      <circle cx="716.89" cy="1070.31" r="27.44" style="fill: url(#Degradado_sin_nombre_1009-3);"/>
      <path d="m2096.15,1620.79c6.5-8.15,20.37-24.1,15.74-37.34-1-2.85-2.85-4.97-4.83-6.84-6.55-6.2-32.34-7.58-52.85,21.23-23.76,33.37-34.73,62.68-36.62,79.05-1.9,16.49.43,24.73,5.57,29.8,4.51,4.44,11.77,7.03,18.34,6.29,23.5-2.66,17.57-45.69,54.65-92.18Z" style="fill: url(#Degradado_sin_nombre_1009-4);"/>
      <path d="m1215.92,757.37c6.5-8.15,20.37-24.1,15.74-37.34-1-2.85-2.85-4.97-4.83-6.84-6.55-6.2-32.34-7.58-52.85,21.23-23.76,33.37-34.73,62.68-36.62,79.05-1.9,16.49.43,24.73,5.57,29.8,4.51,4.44,11.77,7.03,18.34,6.29,23.5-2.66,17.57-45.69,54.65-92.18Z" style="fill: url(#Degradado_sin_nombre_1009-5);"/>
      <path d="m1532.69,667.67c6.5-8.15,20.37-24.1,15.74-37.34-1-2.85-2.85-4.97-4.83-6.84-6.55-6.2-32.34-7.58-52.85,21.23-23.76,33.37-34.73,62.68-36.62,79.05-1.9,16.49.43,24.73,5.57,29.8,4.51,4.44,11.77,7.03,18.34,6.29,23.5-2.66,17.57-45.69,54.65-92.18Z" style="fill: url(#Degradado_sin_nombre_1009-6);"/>
      <path d="m565.83,1660.96c.83,5.97,1.99,18.13,9.38,21.46,1.59.72,3.21.78,4.79.7,5.21-.28,16.05-10.53,12.15-30.6-4.52-23.24-12.43-39.51-18.54-46.82-6.15-7.36-10.53-14.67-14.7-14.53-3.66.12-7.63,2.13-9.94,5.18-8.24,10.91,12.15,30.56,16.86,64.6Z" style="fill: url(#Degradado_sin_nombre_203-3);"/>
      <path d="m2060.65,1162.4c19.62,56.33,54.53,172.2,132.81,190.19,16.83,3.87,32.75,1.36,47.86-2.51,50.01-12.81,135.43-133.49,58.52-320.78-89.07-216.91-197.56-359.56-271.05-418.64-74.06-59.54-121.09-73.39-161.32-63.95-35.28,8.27-70,35.55-86.45,69.64-58.84,121.96,167.67,224.57,279.63,546.06Z" style="fill: url(#Degradado_sin_nombre_1009-7);"/>
    </g>
  </g>
</svg>