<?xml version="1.0" encoding="UTF-8"?>
<svg id="Capa_2" data-name="Capa 2" xmlns="http://www.w3.org/2000/svg" xmlns:xlink="http://www.w3.org/1999/xlink" viewBox="0 0 3914 931">
  <defs>
    <linearGradient id="Degradado_sin_nombre_459" data-name="Degradado sin nombre 459" x1="1957" y1="931" x2="1957" y2="0" gradientUnits="userSpaceOnUse">
      <stop offset="0" stop-color="#ec7aff"/>
      <stop offset=".32" stop-color="#ef92cb"/>
      <stop offset="1" stop-color="#f7cd53"/>
    </linearGradient>
  </defs>
  <g id="Modo_de_aislamiento" data-name="Modo de aislamiento">
    <g>
      <rect width="3914" height="931" rx="297.57" ry="297.57" style="fill: url(#Degradado_sin_nombre_459);"/>
      <g>
        <path d="m846.97,661.41v-310.79l-66.93,65.18-30.85-34.34,97.19-93.12h52.38v373.06h-51.8Z" style="fill: #fff;"/>
        <path d="m987.22,621.25l145.5-140.26c30.85-29.68,45.98-55.29,45.98-86.14,0-34.92-28.52-65.18-71-65.18-37.83,0-65.18,21.53-83.23,56.45l-40.16-26.19c20.95-42.49,60.53-78.57,125.71-78.57,73.33,0,119.89,51.8,119.89,112.91,0,40.74-16.3,73.91-61.11,115.82l-111.16,105.34h176.35v45.98h-246.77v-40.16Z" style="fill: #fff;"/>
        <path d="m1716.47,368.66c-25.03-20.95-56.45-35.5-98.36-35.5-74.5,0-134.44,63.44-134.44,142.01s59.95,141.43,139.1,141.43c36.67,0,71-12.22,94.28-34.34l34.34,38.41c-34.34,33.76-76.82,47.72-132.11,47.72-108.25,0-191.48-86.72-191.48-193.22s84.97-193.81,190.31-193.81c59.36,0,100.69,16.88,133.28,46.56l-34.92,40.74Z" style="fill: #fff;"/>
        <path d="m2019.11,617.76c-21.53,30.85-55.29,50.63-97.78,50.63-75.66,0-135.02-62.27-135.02-146.66s57.04-146.08,135.02-146.08c42.49,0,76.24,18.62,97.78,48.89v-41.9h51.8v278.78h-51.8v-43.65Zm0-96.03c0-54.71-37.83-97.78-90.21-97.78s-90.79,43.07-90.79,97.78,38.41,98.36,90.79,98.36,90.21-44.23,90.21-98.36Z" style="fill: #fff;"/>
        <path d="m2222.81,661.41h-51.8v-278.78h51.8v34.92c15.13-25.61,38.99-41.9,69.84-41.9,17.46,0,32.59,4.07,42.49,12.22l-21.53,48.31c-9.31-6.4-22.7-11.06-36.08-11.06-33.76,0-54.71,29.1-54.71,75.66v160.63Z" style="fill: #fff;"/>
        <path d="m2365.98,382.63h46.56v-69.26h51.22v69.26h79.15v45.98h-78.57v147.25c0,29.68,13.39,44.23,38.41,44.23,13.97,0,27.94-5.24,36.08-14.55l23.86,38.99c-12.8,12.8-36.08,23.86-66.93,23.86-52.38,0-83.81-30.85-83.81-90.79v-148.99h-45.98v-45.98Z" style="fill: #fff;"/>
        <path d="m2822.27,617.76c-21.53,30.85-55.29,50.63-97.78,50.63-75.66,0-135.02-62.27-135.02-146.66s57.04-146.08,135.02-146.08c42.49,0,76.24,18.62,97.78,48.89v-41.9h51.8v278.78h-51.8v-43.65Zm0-96.03c0-54.71-37.83-97.78-90.21-97.78s-90.79,43.07-90.79,97.78,38.41,98.36,90.79,98.36,90.21-44.23,90.21-98.36Z" style="fill: #fff;"/>
        <path d="m3165.06,585.17c0,47.14-38.99,83.23-108.83,83.23-51.22,0-89.63-18.04-111.74-45.4l30.26-33.76c19.21,23.28,48.31,37.25,84.97,37.25s54.13-16.3,54.13-40.16c0-63.44-157.72-34.34-157.72-133.28,0-40.74,35.5-77.41,100.69-77.41,47.72,0,84.39,15.71,103.6,43.07l-30.85,30.85c-18.62-23.28-41.32-32.01-71.59-32.01s-51.22,15.13-51.22,35.5c0,59.95,158.3,29.1,158.3,132.11Z" style="fill: #fff;"/>
      </g>
    </g>
  </g>
</svg>